<svg width="512" height="260" viewBox="0 0 512 260" fill="none" xmlns="http://www.w3.org/2000/svg">
<g clip-path="url(#clip0_1179_35819)">
<g filter="url(#filter0_f_1179_35819)" style="mix-blend-mode:plus-darker">
<ellipse cx="255.5" cy="299" rx="163.5" ry="100" fill="url(#paint0_radial_1179_35819)"/>
</g>
<path d="M184.915 178.498H145.746L145.745 152.385H105.125" stroke="#2DB8CF" stroke-width="0.96715"/>
<path d="M399.138 170.761H326.602" stroke="#2DB8CF" stroke-width="0.96715"/>
<path d="M294.686 140.296L294.686 88.5532L330.471 88.5532" stroke="#2DB8CF" stroke-width="0.96715"/>
<path d="M187.33 140.296L187.33 88.5532" stroke="#2DB8CF" stroke-width="0.96715"/>
<rect x="0.483575" y="121.948" width="118.373" height="60.9304" fill="#FCFCFB"/>
<rect x="0.483575" y="121.948" width="118.373" height="60.9304" stroke="#2DB8CF" stroke-width="0.96715"/>
<g clip-path="url(#clip1_1179_35819)">
<path d="M34.8152 155.316C28.0452 155.316 24.6602 158.217 24.6602 158.217V162.57H44.9703V158.217C44.9703 158.217 41.5853 155.316 34.8152 155.316Z" stroke="#2DB8CF" stroke-width="1.9343"/>
<path d="M39.652 147.095C39.652 149.765 37.4869 151.93 34.8162 151.93C32.1455 151.93 29.9805 149.765 29.9805 147.095C29.9805 144.424 32.1455 142.259 34.8162 142.259C37.4869 142.259 39.652 144.424 39.652 147.095Z" stroke="#2DB8CF" stroke-width="1.9343"/>
</g>
<path d="M61.8454 159.192C60.8589 159.192 60.0233 158.93 59.3385 158.408C58.6538 157.886 58.1315 157.143 57.7717 156.18C57.4236 155.217 57.2495 154.073 57.2495 152.75C57.2495 151.416 57.4236 150.267 57.7717 149.303C58.1315 148.34 58.6538 147.597 59.3385 147.075C60.0233 146.541 60.8589 146.274 61.8454 146.274C62.9363 146.274 63.8648 146.634 64.6308 147.354C65.3967 148.062 65.9074 149.054 66.1627 150.331L64.5611 150.435C64.3638 149.541 64.0215 148.868 63.534 148.416C63.0582 147.963 62.4953 147.737 61.8454 147.737C61.1838 147.737 60.6268 147.934 60.1741 148.329C59.7331 148.712 59.3966 149.28 59.1644 150.035C58.9323 150.777 58.8163 151.683 58.8163 152.75C58.8163 153.807 58.9323 154.706 59.1644 155.449C59.3966 156.192 59.7331 156.76 60.1741 157.155C60.6268 157.538 61.1838 157.729 61.8454 157.729C62.5649 157.729 63.1742 157.48 63.6733 156.981C64.1723 156.482 64.5089 155.739 64.683 154.752L66.2672 154.839C66.0467 156.197 65.5476 157.265 64.77 158.043C63.9924 158.809 63.0176 159.192 61.8454 159.192ZM68.5931 158.913V146.553H72.3534C73.6533 146.553 74.6804 146.884 75.4348 147.545C76.1891 148.195 76.5663 149.095 76.5663 150.244C76.5663 150.824 76.4329 151.34 76.1659 151.793C75.899 152.234 75.5566 152.582 75.1388 152.837C74.721 153.093 74.2916 153.238 73.8506 153.273L73.7809 153.064C74.605 153.11 75.2201 153.307 75.6263 153.656C76.0441 154.004 76.2878 154.573 76.3574 155.362L76.6708 158.913H75.1736L74.8777 155.553C74.8429 155.17 74.75 154.863 74.5992 154.631C74.4599 154.387 74.2336 154.213 73.9202 154.108C73.6185 153.992 73.2007 153.934 72.6668 153.934H70.0903V158.913H68.5931ZM70.0903 152.472H72.3534C73.2123 152.472 73.868 152.28 74.3206 151.897C74.7732 151.503 74.9996 150.952 74.9996 150.244C74.9996 149.524 74.7732 148.973 74.3206 148.59C73.868 148.207 73.2123 148.015 72.3534 148.015H70.0903V152.472ZM82.7222 157.52L80.3894 147.946H80.5287V158.913H79.0316V146.553H81.2947L83.7319 156.72H83.0356L85.4728 146.553H87.7359V158.913H86.2388V147.946H86.378L84.0453 157.52H82.7222Z" fill="#002024"/>
<rect x="98.0695" y="34.9044" width="172.726" height="60.9304" fill="#FCFCFB"/>
<rect x="98.0695" y="34.9044" width="172.726" height="60.9304" stroke="#2DB8CF" stroke-width="0.96715"/>
<path d="M142.075 59.082C142.075 60.9515 137.745 62.4671 132.404 62.4671C127.062 62.4671 122.732 60.9515 122.732 59.082C122.732 57.2125 127.062 55.697 132.404 55.697C137.745 55.697 142.075 57.2125 142.075 59.082Z" stroke="#2DB8CF" stroke-width="1.9343"/>
<path d="M142.075 64.8851C142.075 66.7546 137.745 68.2702 132.404 68.2702C127.062 68.2702 122.732 66.7546 122.732 64.8851" stroke="#2DB8CF" stroke-width="1.9343"/>
<path d="M142.075 59.0828V71.1722C142.075 73.0417 137.745 74.5572 132.404 74.5572C127.062 74.5572 122.732 73.0417 122.732 71.1722V59.0828" stroke="#2DB8CF" stroke-width="1.9343"/>
<path d="M155.274 71.8696V59.5094H158.199C159.267 59.5094 160.195 59.7531 160.984 60.2406C161.785 60.7164 162.4 61.4185 162.83 62.347C163.271 63.2639 163.491 64.3838 163.491 65.7069C163.491 67.0299 163.271 68.1499 162.83 69.0668C162.4 69.9836 161.785 70.68 160.984 71.1558C160.195 71.6316 159.267 71.8696 158.199 71.8696H155.274ZM156.771 70.4072H158.112C159.319 70.4072 160.253 70.0184 160.915 69.2409C161.588 68.4517 161.924 67.2737 161.924 65.7069C161.924 64.1401 161.588 62.9621 160.915 62.1729C160.253 61.3721 159.319 60.9717 158.112 60.9717H156.771V70.4072ZM164.947 71.8696L168.707 59.5094H170.726L174.487 71.8696H172.885L169.717 60.8673L166.548 71.8696H164.947ZM166.844 68.353L167.366 66.8907H172.067L172.589 68.353H166.844ZM179.755 71.8696V60.9717H175.977V59.5094H185.029V60.9717H181.252V71.8696H179.755ZM186.52 71.8696L190.28 59.5094H192.299L196.06 71.8696H194.458L191.29 60.8673L188.121 71.8696H186.52ZM188.417 68.353L188.94 66.8907H193.64L194.162 68.353H188.417ZM198.421 71.8696V59.5094H201.902C203.26 59.5094 204.281 59.8111 204.966 60.4146C205.663 61.0181 206.011 61.8422 206.011 62.8867C206.011 63.3973 205.889 63.8558 205.645 64.262C205.401 64.6682 205.059 64.9873 204.618 65.2194C204.177 65.4516 203.666 65.5676 203.086 65.5676V65.4632C203.806 65.4632 204.421 65.585 204.931 65.8287C205.454 66.0725 205.848 66.4148 206.115 66.8559C206.394 67.2969 206.533 67.8191 206.533 68.4226C206.533 69.4904 206.162 70.3318 205.419 70.9469C204.676 71.562 203.649 71.8696 202.338 71.8696H198.421ZM199.918 70.4072H202.355C203.249 70.4072 203.904 70.2332 204.322 69.885C204.752 69.5368 204.966 69.0494 204.966 68.4226C204.966 67.7611 204.746 67.2447 204.305 66.8733C203.864 66.5019 203.214 66.3162 202.355 66.3162H199.918V70.4072ZM199.918 64.8539H201.972C202.831 64.8539 203.457 64.6856 203.852 64.349C204.247 64.0124 204.444 63.5366 204.444 62.9215C204.444 62.2948 204.247 61.8131 203.852 61.4766C203.457 61.14 202.831 60.9717 201.972 60.9717H199.918V64.8539ZM208.093 71.8696L211.853 59.5094H213.873L217.633 71.8696H216.031L212.863 60.8673L209.695 71.8696H208.093ZM209.991 68.353L210.513 66.8907H215.213L215.735 68.353H209.991ZM223.841 72.1481C222.971 72.1481 222.199 71.9682 221.526 71.6084C220.853 71.2487 220.313 70.7554 219.907 70.1287C219.5 69.4904 219.263 68.7534 219.193 67.9178L220.76 67.8133C220.841 68.4284 221.015 68.9507 221.282 69.3801C221.561 69.8095 221.914 70.1345 222.344 70.355C222.785 70.5755 223.296 70.6858 223.876 70.6858C224.456 70.6858 224.944 70.6161 225.338 70.4769C225.733 70.326 226.029 70.1113 226.226 69.8328C226.435 69.5426 226.539 69.2002 226.539 68.8056C226.539 68.411 226.447 68.0687 226.261 67.7785C226.087 67.4768 225.75 67.1982 225.251 66.9429C224.764 66.6876 224.038 66.4264 223.075 66.1595C222.216 65.9158 221.52 65.6489 220.986 65.3587C220.464 65.0686 220.081 64.7146 219.837 64.2968C219.605 63.879 219.489 63.3625 219.489 62.7474C219.489 62.0511 219.651 61.4418 219.976 60.9195C220.313 60.3856 220.789 59.9736 221.404 59.6835C222.019 59.3817 222.75 59.2309 223.597 59.2309C224.445 59.2309 225.17 59.4049 225.773 59.7531C226.377 60.0897 226.853 60.5539 227.201 61.1458C227.561 61.7377 227.787 62.4108 227.88 63.1652L226.313 63.2697C226.243 62.7706 226.098 62.3296 225.878 61.9466C225.657 61.552 225.356 61.2445 224.973 61.0239C224.59 60.8034 224.12 60.6932 223.563 60.6932C222.797 60.6932 222.187 60.8789 221.735 61.2503C221.282 61.61 221.056 62.0859 221.056 62.6778C221.056 63.0608 221.137 63.3799 221.299 63.6353C221.473 63.879 221.775 64.0995 222.205 64.2968C222.634 64.4825 223.238 64.6856 224.015 64.9061C225.025 65.1846 225.826 65.498 226.418 65.8462C227.021 66.1943 227.45 66.6121 227.706 67.0996C227.973 67.5754 228.106 68.1557 228.106 68.8405C228.106 69.4904 227.926 70.0649 227.567 70.5639C227.207 71.063 226.708 71.4518 226.069 71.7303C225.431 72.0088 224.688 72.1481 223.841 72.1481ZM230.78 71.8696V59.5094H238.301V60.9717H232.277V64.9583H238.092V66.3858H232.277V70.4072H238.44V71.8696H230.78Z" fill="#002024"/>
<rect x="327.38" y="58.1166" width="118.373" height="60.9304" fill="#FCFCFB"/>
<rect x="327.38" y="58.1166" width="118.373" height="60.9304" stroke="#2DB8CF" stroke-width="0.96715"/>
<g clip-path="url(#clip2_1179_35819)">
<path d="M353.98 77.9422V99.2195H369.455V77.9422L353.98 77.9422Z" stroke="#2DB8CF" stroke-width="1.9343"/>
<path d="M359.781 95.3511H363.65" stroke="#2DB8CF" stroke-width="1.9343"/>
</g>
<path d="M383.937 95.0818L387.697 82.7216H389.717L393.477 95.0818H391.875L388.707 84.0795L385.539 95.0818H383.937ZM385.835 91.5652L386.357 90.1029H391.057L391.579 91.5652H385.835ZM395.838 95.0818V82.7216H399.598C400.457 82.7216 401.205 82.8725 401.844 83.1742C402.482 83.476 402.975 83.9112 403.324 84.4799C403.672 85.037 403.846 85.7101 403.846 86.4993C403.846 87.2885 403.672 87.9674 403.324 88.5361C402.975 89.0932 402.482 89.5226 401.844 89.8244C401.205 90.1261 400.457 90.277 399.598 90.277H397.335V95.0818H395.838ZM397.335 88.8147H399.424C400.399 88.8147 401.118 88.6174 401.583 88.2228C402.047 87.8166 402.279 87.2421 402.279 86.4993C402.279 85.7449 402.047 85.1704 401.583 84.7758C401.118 84.3812 400.399 84.1839 399.424 84.1839H397.335V88.8147ZM406.624 95.0818V82.7216H410.385C411.244 82.7216 411.992 82.8725 412.63 83.1742C413.269 83.476 413.762 83.9112 414.11 84.4799C414.458 85.037 414.632 85.7101 414.632 86.4993C414.632 87.2885 414.458 87.9674 414.11 88.5361C413.762 89.0932 413.269 89.5226 412.63 89.8244C411.992 90.1261 411.244 90.277 410.385 90.277H408.122V95.0818H406.624ZM408.122 88.8147H410.211C411.185 88.8147 411.905 88.6174 412.369 88.2228C412.834 87.8166 413.066 87.2421 413.066 86.4993C413.066 85.7449 412.834 85.1704 412.369 84.7758C411.905 84.3812 411.185 84.1839 410.211 84.1839H408.122V88.8147Z" fill="#002024"/>
<rect x="393.144" y="139.357" width="118.373" height="60.9304" fill="#FCFCFB"/>
<rect x="393.144" y="139.357" width="118.373" height="60.9304" stroke="#2DB8CF" stroke-width="0.96715"/>
<g clip-path="url(#clip3_1179_35819)">
<path d="M416.838 174.174V161.6H434.247V174.174H416.838Z" stroke="#2DB8CF" stroke-width="1.9343"/>
<path d="M420.705 178.042H438.114V165.469" stroke="#2DB8CF" stroke-width="1.9343"/>
<path d="M427.476 166.436V165.952C427.476 165.418 427.043 164.985 426.509 164.985H424.575C424.04 164.985 423.607 165.418 423.607 165.952V166.406C423.607 166.85 423.909 167.237 424.34 167.344L426.743 167.945C427.174 168.053 427.476 168.44 427.476 168.884V169.821C427.476 170.355 427.043 170.788 426.509 170.788H424.575C424.04 170.788 423.607 170.355 423.607 169.821V169.337" stroke="#2DB8CF" stroke-width="1.9343"/>
</g>
<path d="M450.815 176.322V163.962H454.575C455.434 163.962 456.183 164.113 456.821 164.414C457.459 164.716 457.952 165.151 458.301 165.72C458.649 166.277 458.823 166.95 458.823 167.739C458.823 168.529 458.649 169.208 458.301 169.776C457.952 170.333 457.459 170.763 456.821 171.065C456.183 171.366 455.434 171.517 454.575 171.517H452.312V176.322H450.815ZM452.312 170.055H454.401C455.376 170.055 456.096 169.858 456.56 169.463C457.024 169.057 457.256 168.482 457.256 167.739C457.256 166.985 457.024 166.411 456.56 166.016C456.096 165.621 455.376 165.424 454.401 165.424H452.312V170.055ZM460.487 176.322L464.248 163.962H466.267L470.027 176.322H468.426L465.257 165.32L462.089 176.322H460.487ZM462.385 172.805L462.907 171.343H467.607L468.13 172.805H462.385ZM475.313 176.322V171.273L471.518 163.962H473.224L476.044 169.741L478.864 163.962H480.57L476.81 171.273V176.322H475.313Z" fill="#002024"/>
<rect x="169.841" y="133.812" width="173.286" height="91.3628" fill="#FCFCFB"/>
<rect x="169.841" y="133.812" width="173.286" height="91.3628" stroke="#2DB8CF" stroke-width="0.96715"/>
<path d="M204.407 176.158L202.968 171.306H197.374L195.934 176.158H193.706L198.836 159.933H201.552L206.658 176.158H204.407ZM197.907 169.496H202.434L200.159 161.882L197.907 169.496ZM209.006 176.158V159.933H214.925C215.9 159.933 216.782 160.118 217.571 160.49C218.361 160.846 218.987 161.387 219.452 162.115C219.916 162.826 220.148 163.716 220.148 164.784C220.148 165.852 219.916 166.749 219.452 167.476C218.987 168.188 218.361 168.73 217.571 169.101C216.782 169.457 215.9 169.635 214.925 169.635H211.119V176.158H209.006ZM211.119 167.801H214.647C215.684 167.801 216.488 167.531 217.061 166.989C217.649 166.447 217.943 165.712 217.943 164.784C217.943 163.855 217.649 163.12 217.061 162.579C216.488 162.037 215.684 161.766 214.647 161.766H211.119V167.801ZM223.425 176.158V174.347H226.86V161.743H223.425V159.933H232.5V161.743H229.042V174.347H232.5V176.158H223.425Z" fill="#002024"/>
<path d="M194.143 200.829V191.216H197.068C197.736 191.216 198.318 191.333 198.815 191.568C199.311 191.802 199.695 192.141 199.965 192.583C200.236 193.016 200.372 193.54 200.372 194.154C200.372 194.768 200.236 195.296 199.965 195.738C199.695 196.171 199.311 196.505 198.815 196.74C198.318 196.975 197.736 197.092 197.068 197.092H195.308V200.829H194.143ZM195.308 195.955H196.932C197.691 195.955 198.25 195.801 198.611 195.494C198.973 195.178 199.153 194.732 199.153 194.154C199.153 193.567 198.973 193.12 198.611 192.813C198.25 192.506 197.691 192.353 196.932 192.353H195.308V195.955ZM205.376 201.046C204.618 201.046 203.973 200.852 203.44 200.464C202.916 200.075 202.515 199.507 202.235 198.757C201.964 198.008 201.829 197.101 201.829 196.036C201.829 194.953 201.964 194.036 202.235 193.287C202.515 192.538 202.916 191.969 203.44 191.581C203.973 191.193 204.618 190.999 205.376 190.999C206.134 190.999 206.775 191.193 207.299 191.581C207.831 191.969 208.233 192.538 208.504 193.287C208.784 194.036 208.924 194.953 208.924 196.036C208.924 197.101 208.784 198.008 208.504 198.757C208.233 199.507 207.831 200.075 207.299 200.464C206.775 200.852 206.134 201.046 205.376 201.046ZM205.376 199.908C205.873 199.908 206.292 199.764 206.635 199.475C206.987 199.177 207.254 198.739 207.434 198.162C207.615 197.584 207.705 196.875 207.705 196.036C207.705 195.196 207.615 194.488 207.434 193.91C207.254 193.323 206.987 192.881 206.635 192.583C206.292 192.285 205.873 192.136 205.376 192.136C204.88 192.136 204.455 192.285 204.103 192.583C203.76 192.881 203.499 193.323 203.318 193.91C203.138 194.488 203.047 195.196 203.047 196.036C203.047 196.875 203.138 197.584 203.318 198.162C203.499 198.739 203.76 199.177 204.103 199.475C204.455 199.764 204.88 199.908 205.376 199.908ZM213.915 201.046C213.238 201.046 212.637 200.906 212.114 200.626C211.59 200.346 211.171 199.963 210.855 199.475C210.539 198.979 210.354 198.405 210.3 197.755L211.518 197.674C211.581 198.153 211.717 198.559 211.924 198.893C212.141 199.227 212.416 199.48 212.75 199.651C213.093 199.823 213.49 199.908 213.942 199.908C214.393 199.908 214.772 199.854 215.079 199.746C215.386 199.629 215.616 199.462 215.77 199.245C215.932 199.019 216.013 198.753 216.013 198.446C216.013 198.139 215.941 197.873 215.797 197.647C215.661 197.412 215.4 197.196 215.011 196.997C214.632 196.799 214.068 196.596 213.319 196.388C212.651 196.198 212.109 195.991 211.694 195.765C211.288 195.539 210.99 195.264 210.801 194.939C210.62 194.614 210.53 194.213 210.53 193.734C210.53 193.192 210.656 192.719 210.909 192.312C211.171 191.897 211.541 191.577 212.019 191.351C212.498 191.116 213.066 190.999 213.725 190.999C214.384 190.999 214.948 191.134 215.418 191.405C215.887 191.667 216.257 192.028 216.528 192.488C216.808 192.949 216.984 193.472 217.056 194.059L215.837 194.14C215.783 193.752 215.67 193.409 215.499 193.111C215.327 192.804 215.093 192.565 214.795 192.394C214.497 192.222 214.131 192.136 213.698 192.136C213.102 192.136 212.628 192.281 212.276 192.57C211.924 192.849 211.748 193.22 211.748 193.68C211.748 193.978 211.812 194.226 211.938 194.425C212.073 194.614 212.308 194.786 212.642 194.939C212.976 195.084 213.445 195.242 214.05 195.413C214.835 195.63 215.458 195.873 215.919 196.144C216.388 196.415 216.722 196.74 216.921 197.119C217.128 197.489 217.232 197.941 217.232 198.473C217.232 198.979 217.092 199.425 216.812 199.814C216.532 200.202 216.144 200.504 215.648 200.721C215.151 200.937 214.574 201.046 213.915 201.046ZM221.573 200.829V192.353H218.635V191.216H225.676V192.353H222.738V200.829H221.573Z" fill="#002024" fill-opacity="0.65"/>
<path d="M237.89 202.319L242.006 190.674H243.09L238.973 202.319H237.89ZM248.162 200.829L245.494 193.653H246.74L248.879 199.665L251.019 193.653H252.264L249.597 200.829H248.162ZM257.052 200.829V193.707H254.534V192.705H255.834C256.177 192.705 256.452 192.655 256.66 192.556C256.876 192.457 257.03 192.299 257.12 192.082C257.219 191.866 257.269 191.577 257.269 191.216H258.217V200.829H257.052ZM254.019 200.829V199.692H260.519V200.829H254.019ZM263.059 202.319L267.175 190.674H268.258L264.142 202.319H263.059ZM274.048 200.992C273.389 200.992 272.811 200.838 272.315 200.531C271.828 200.224 271.448 199.791 271.178 199.231C270.907 198.663 270.771 197.999 270.771 197.241C270.771 196.474 270.907 195.81 271.178 195.251C271.448 194.691 271.828 194.258 272.315 193.951C272.811 193.644 273.389 193.49 274.048 193.49C274.707 193.49 275.28 193.644 275.768 193.951C276.264 194.258 276.648 194.691 276.919 195.251C277.189 195.81 277.325 196.474 277.325 197.241C277.325 197.999 277.189 198.663 276.919 199.231C276.648 199.791 276.264 200.224 275.768 200.531C275.28 200.838 274.707 200.992 274.048 200.992ZM274.048 199.908C274.707 199.908 275.217 199.674 275.578 199.204C275.948 198.726 276.133 198.071 276.133 197.241C276.133 196.411 275.948 195.761 275.578 195.291C275.217 194.813 274.707 194.574 274.048 194.574C273.389 194.574 272.875 194.813 272.505 195.291C272.143 195.761 271.963 196.411 271.963 197.241C271.963 198.071 272.143 198.726 272.505 199.204C272.875 199.674 273.389 199.908 274.048 199.908ZM281.463 200.829V193.653H282.411L282.519 195.467L282.411 195.44C282.501 194.826 282.695 194.375 282.993 194.086C283.3 193.797 283.706 193.653 284.211 193.653H285.687V194.682H284.225C283.873 194.682 283.575 194.754 283.331 194.899C283.097 195.034 282.916 195.237 282.79 195.508C282.663 195.77 282.6 196.099 282.6 196.496V200.829H281.463ZM279.594 200.829V199.827H284.875V200.829H279.594ZM279.594 194.655V193.653H282.086V194.655H279.594ZM290.38 200.992C289.749 200.992 289.202 200.838 288.742 200.531C288.282 200.224 287.925 199.791 287.672 199.231C287.429 198.672 287.307 198.008 287.307 197.241C287.307 196.474 287.429 195.81 287.672 195.251C287.925 194.691 288.282 194.258 288.742 193.951C289.202 193.644 289.749 193.49 290.38 193.49C290.886 193.49 291.328 193.612 291.707 193.856C292.086 194.091 292.362 194.357 292.533 194.655V191.216H293.671V200.829H292.642L292.601 199.746C292.402 200.134 292.109 200.441 291.721 200.667C291.333 200.883 290.886 200.992 290.38 200.992ZM290.448 199.908C290.881 199.908 291.251 199.8 291.558 199.583C291.874 199.367 292.114 199.06 292.276 198.663C292.448 198.256 292.533 197.783 292.533 197.241C292.533 196.681 292.448 196.203 292.276 195.806C292.114 195.409 291.874 195.106 291.558 194.899C291.242 194.682 290.863 194.574 290.421 194.574C289.834 194.574 289.365 194.813 289.013 195.291C288.67 195.761 288.498 196.411 288.498 197.241C288.498 198.062 288.67 198.712 289.013 199.191C289.365 199.669 289.843 199.908 290.448 199.908ZM299.339 200.992C298.662 200.992 298.075 200.838 297.578 200.531C297.091 200.224 296.712 199.791 296.441 199.231C296.179 198.663 296.048 197.999 296.048 197.241C296.048 196.483 296.179 195.824 296.441 195.264C296.712 194.704 297.086 194.271 297.565 193.964C298.052 193.648 298.626 193.49 299.285 193.49C299.907 193.49 300.458 193.639 300.936 193.937C301.415 194.226 301.789 194.65 302.06 195.21C302.331 195.77 302.466 196.451 302.466 197.255V197.593H297.24C297.285 198.36 297.488 198.938 297.849 199.326C298.219 199.714 298.716 199.908 299.339 199.908C299.808 199.908 300.192 199.8 300.49 199.583C300.796 199.358 301.009 199.064 301.126 198.703L302.345 198.798C302.155 199.439 301.794 199.967 301.261 200.382C300.738 200.788 300.097 200.992 299.339 200.992ZM297.24 196.591H301.221C301.167 195.896 300.963 195.386 300.611 195.061C300.259 194.736 299.817 194.574 299.285 194.574C298.734 194.574 298.278 194.745 297.917 195.088C297.565 195.422 297.339 195.923 297.24 196.591ZM306.631 200.829V193.653H307.579L307.688 195.467L307.579 195.44C307.67 194.826 307.864 194.375 308.162 194.086C308.468 193.797 308.875 193.653 309.38 193.653H310.856V194.682H309.394C309.042 194.682 308.744 194.754 308.5 194.899C308.265 195.034 308.085 195.237 307.958 195.508C307.832 195.77 307.769 196.099 307.769 196.496V200.829H306.631ZM304.763 200.829V199.827H310.044V200.829H304.763ZM304.763 194.655V193.653H307.254V194.655H304.763ZM316.131 200.992C315.508 200.992 314.971 200.883 314.52 200.667C314.069 200.45 313.712 200.161 313.45 199.8C313.198 199.43 313.053 199.019 313.017 198.568L314.209 198.487C314.281 198.929 314.475 199.277 314.791 199.529C315.116 199.782 315.563 199.908 316.131 199.908C316.664 199.908 317.075 199.832 317.363 199.678C317.661 199.525 317.81 199.286 317.81 198.961C317.81 198.753 317.761 198.581 317.661 198.446C317.562 198.311 317.377 198.198 317.106 198.108C316.835 198.008 316.438 197.913 315.915 197.823C315.22 197.697 314.674 197.543 314.276 197.363C313.888 197.173 313.613 196.939 313.45 196.659C313.288 196.379 313.207 196.045 313.207 195.657C313.207 195.242 313.31 194.871 313.518 194.546C313.726 194.222 314.033 193.964 314.439 193.775C314.845 193.585 315.342 193.49 315.928 193.49C316.524 193.49 317.02 193.599 317.418 193.815C317.824 194.023 318.144 194.303 318.379 194.655C318.614 194.998 318.767 195.377 318.839 195.792L317.648 195.873C317.594 195.621 317.49 195.4 317.336 195.21C317.192 195.011 316.998 194.858 316.754 194.75C316.519 194.632 316.24 194.574 315.915 194.574C315.391 194.574 315.003 194.677 314.75 194.885C314.498 195.093 314.371 195.35 314.371 195.657C314.371 195.901 314.43 196.095 314.547 196.239C314.665 196.383 314.854 196.501 315.116 196.591C315.378 196.672 315.725 196.749 316.158 196.821C316.899 196.939 317.472 197.092 317.878 197.282C318.284 197.462 318.569 197.688 318.731 197.959C318.894 198.229 318.975 198.563 318.975 198.961C318.975 199.385 318.848 199.75 318.596 200.057C318.352 200.355 318.013 200.585 317.58 200.748C317.156 200.91 316.673 200.992 316.131 200.992Z" fill="#002024" fill-opacity="0.65"/>
</g>
<defs>
<filter id="filter0_f_1179_35819" x="-52.1779" y="54.8221" width="615.356" height="488.356" filterUnits="userSpaceOnUse" color-interpolation-filters="sRGB">
<feFlood flood-opacity="0" result="BackgroundImageFix"/>
<feBlend mode="normal" in="SourceGraphic" in2="BackgroundImageFix" result="shape"/>
<feGaussianBlur stdDeviation="72.0889" result="effect1_foregroundBlur_1179_35819"/>
</filter>
<radialGradient id="paint0_radial_1179_35819" cx="0" cy="0" r="1" gradientUnits="userSpaceOnUse" gradientTransform="translate(255.5 299) rotate(90) scale(100 163.5)">
<stop stop-color="#B8FFE3"/>
<stop offset="1" stop-color="#2DB8CF" stop-opacity="0"/>
</radialGradient>
<clipPath id="clip0_1179_35819">
<rect width="512" height="260" fill="white"/>
</clipPath>
<clipPath id="clip1_1179_35819">
<rect width="23.2116" height="23.2116" fill="white" transform="translate(23.2109 140.807)"/>
</clipPath>
<clipPath id="clip2_1179_35819">
<rect width="23.2116" height="23.2116" fill="white" transform="translate(350.107 76.976)"/>
</clipPath>
<clipPath id="clip3_1179_35819">
<rect width="23.2116" height="23.2116" fill="white" transform="translate(415.871 158.216)"/>
</clipPath>
</defs>
</svg>
