<svg width="512" height="260" viewBox="0 0 512 260" fill="none" xmlns="http://www.w3.org/2000/svg">
<g clip-path="url(#clip0_1179_35857)">
<g filter="url(#filter0_f_1179_35857)" style="mix-blend-mode:plus-darker">
<ellipse cx="256" cy="303.5" rx="122" ry="186.5" fill="url(#paint0_radial_1179_35857)"/>
</g>
<g clip-path="url(#clip1_1179_35857)">
<path d="M10.7069 85.2809L12.988 82.9997L10.7069 80.7186L8.42578 82.9997L10.7069 85.2809Z" fill="#2DB8CF" stroke="#2DB8CF" stroke-width="1.15104"/>
<path d="M6.9061 89.0826L9.18724 86.8015L6.9061 84.5204L4.625 86.8015L6.9061 89.0826Z" fill="#2DB8CF" stroke="#2DB8CF" stroke-width="1.15104"/>
<path d="M6.9061 81.4799L9.18724 79.1988L6.9061 76.9177L4.625 79.1988L6.9061 81.4799Z" fill="#2DB8CF" stroke="#2DB8CF" stroke-width="1.15104"/>
<path d="M3.10337 85.2809L5.38448 82.9997L3.10337 80.7186L0.822266 82.9997L3.10337 85.2809Z" fill="#2DB8CF" stroke="#2DB8CF" stroke-width="1.15104"/>
</g>
<path d="M24.504 89V77.5586H28.0492C29.8111 77.5586 31.1647 78.0582 32.1101 79.0573C33.0662 80.0457 33.5443 81.4584 33.5443 83.2954C33.5443 85.1218 33.077 86.5291 32.1423 87.5175C31.2077 88.5058 29.8756 89 28.1459 89H24.504ZM25.8899 87.6464H28.0492C29.3921 87.6464 30.402 87.2865 31.0788 86.5667C31.7556 85.8362 32.094 84.7458 32.094 83.2954C32.094 81.8236 31.7556 80.7278 31.0788 80.0081C30.402 79.2775 29.3921 78.9123 28.0492 78.9123H25.8899V87.6464ZM39.1186 89.1934C38.3128 89.1934 37.6145 89.0107 37.0237 88.6455C36.4435 88.2802 35.9923 87.7645 35.67 87.0985C35.3585 86.4217 35.2027 85.6321 35.2027 84.7296C35.2027 83.8272 35.3585 83.043 35.67 82.3769C35.9923 81.7108 36.4382 81.1952 37.0076 80.8299C37.5877 80.4539 38.2699 80.2659 39.0541 80.2659C39.7954 80.2659 40.4507 80.4432 41.0201 80.7977C41.5895 81.1415 42.0299 81.6464 42.3415 82.3124C42.6638 82.9785 42.8249 83.7896 42.8249 84.7458V85.1486H36.6208C36.6745 86.0618 36.9162 86.7493 37.346 87.2113C37.7864 87.6732 38.3773 87.9042 39.1186 87.9042C39.6772 87.9042 40.1338 87.7753 40.4883 87.5175C40.8536 87.2489 41.106 86.8997 41.2457 86.47L42.696 86.5828C42.4704 87.3456 42.0407 87.974 41.4068 88.4682C40.7837 88.9517 40.021 89.1934 39.1186 89.1934ZM36.6208 83.9561H41.3424C41.2779 83.1289 41.0362 82.5219 40.6172 82.1352C40.209 81.7484 39.6879 81.5551 39.0541 81.5551C38.3988 81.5551 37.8563 81.7592 37.4265 82.1674C37.0076 82.5649 36.739 83.1611 36.6208 83.9561ZM47.7686 89.1934C47.0058 89.1934 46.3559 89.0698 45.8187 88.8227C45.2923 88.5756 44.8787 88.2372 44.5779 87.8075C44.2878 87.3671 44.1213 86.8675 44.0783 86.3089L45.4964 86.2122C45.5824 86.7278 45.8026 87.1415 46.1571 87.453C46.5116 87.7538 47.0488 87.9042 47.7686 87.9042C48.3487 87.9042 48.8106 87.8129 49.1544 87.6303C49.5089 87.4369 49.6862 87.1307 49.6862 86.7117C49.6862 86.4861 49.6325 86.2981 49.5251 86.1477C49.4176 85.9973 49.2081 85.8684 48.8966 85.761C48.585 85.6428 48.1231 85.53 47.5107 85.4226C46.6943 85.2722 46.0497 85.0895 45.577 84.8747C45.115 84.6491 44.782 84.3751 44.5779 84.0528C44.3845 83.7198 44.2878 83.3277 44.2878 82.8765C44.2878 82.1137 44.5671 81.4906 45.1258 81.0072C45.6844 80.513 46.4794 80.2659 47.5107 80.2659C48.209 80.2659 48.7945 80.3948 49.2672 80.6526C49.7507 80.8997 50.1267 81.2328 50.3952 81.6518C50.6746 82.06 50.8572 82.5112 50.9431 83.0054L49.5251 83.1021C49.4606 82.8013 49.3424 82.5381 49.1705 82.3124C48.9987 82.0761 48.773 81.8935 48.4937 81.7646C48.2144 81.6249 47.8814 81.5551 47.4946 81.5551C46.8823 81.5551 46.4311 81.6732 46.141 81.9096C45.8509 82.1459 45.7059 82.4467 45.7059 82.812C45.7059 83.0913 45.7704 83.3223 45.8993 83.5049C46.0389 83.6768 46.2592 83.8218 46.56 83.94C46.8608 84.0475 47.2636 84.1441 47.7686 84.2301C48.6388 84.3805 49.3156 84.5631 49.799 84.778C50.2824 84.9928 50.6209 85.256 50.8142 85.5676C51.0076 85.8791 51.1043 86.2605 51.1043 86.7117C51.1043 87.2381 50.9539 87.6893 50.6531 88.0654C50.363 88.4306 49.9655 88.7099 49.4606 88.9033C48.9664 89.0967 48.4024 89.1934 47.7686 89.1934ZM52.9518 89V80.4593H54.3054V89H52.9518ZM52.9196 79.1218V77.5425H54.3377V79.1218H52.9196ZM59.9677 91.6106C59.3553 91.6106 58.8021 91.5085 58.3079 91.3044C57.8137 91.1003 57.4001 90.8102 57.0671 90.4342C56.734 90.0582 56.5084 89.6231 56.3903 89.1289L57.8083 89.0322C57.9373 89.4297 58.1629 89.7413 58.4851 89.9669C58.8182 90.2032 59.3124 90.3214 59.9677 90.3214C60.7412 90.3214 61.3321 90.1656 61.7403 89.8541C62.1593 89.5425 62.3688 89.0752 62.3688 88.4521V87.0663C62.1646 87.5175 61.837 87.8774 61.3858 88.1459C60.9346 88.4145 60.4296 88.5488 59.871 88.5488C59.1512 88.5488 58.5066 88.3715 57.9373 88.017C57.3786 87.6625 56.9381 87.1737 56.6159 86.5506C56.3043 85.9275 56.1485 85.2131 56.1485 84.4073C56.1485 83.5909 56.3043 82.8765 56.6159 82.2641C56.9274 81.641 57.3571 81.1522 57.905 80.7977C58.4637 80.4432 59.0975 80.2659 59.8065 80.2659C60.4082 80.2659 60.9453 80.4056 61.418 80.6849C61.9014 80.9642 62.2398 81.3402 62.4332 81.8129V80.4593H63.7224V88.4199C63.7224 89.0859 63.572 89.6553 63.2712 90.128C62.9704 90.6115 62.5407 90.9767 61.982 91.2238C61.4234 91.4816 60.7519 91.6106 59.9677 91.6106ZM59.9355 87.2596C60.666 87.2596 61.2515 87.0072 61.6919 86.5022C62.1324 85.9866 62.358 85.2883 62.3688 84.4073C62.3795 83.8165 62.2828 83.3116 62.0787 82.8926C61.8853 82.4629 61.6006 82.1352 61.2246 81.9096C60.8594 81.6732 60.4296 81.5551 59.9355 81.5551C59.1834 81.5551 58.5979 81.8129 58.179 82.3286C57.7707 82.8335 57.5666 83.5264 57.5666 84.4073C57.5666 85.2883 57.7761 85.9866 58.1951 86.5022C58.6248 87.0072 59.2049 87.2596 59.9355 87.2596ZM66.2967 89V80.4593H67.5375L67.5859 82.6347L67.4247 82.4897C67.5321 81.9848 67.7201 81.5712 67.9887 81.2489C68.2573 80.9159 68.5796 80.6688 68.9556 80.5076C69.3423 80.3465 69.756 80.2659 70.1964 80.2659C70.8517 80.2659 71.3889 80.4109 71.8079 80.701C72.2376 80.9911 72.5545 81.3832 72.7586 81.8774C72.9735 82.3608 73.0809 82.9033 73.0809 83.5049V89H71.7273V83.8917C71.7273 83.3653 71.6628 82.9248 71.5339 82.5703C71.4158 82.205 71.2224 81.9311 70.9538 81.7484C70.6852 81.5551 70.3361 81.4584 69.9064 81.4584C69.251 81.4584 68.7085 81.6679 68.2788 82.0868C67.8598 82.4951 67.6503 83.0967 67.6503 83.8917V89H66.2967ZM79.6888 89V80.4593H80.9296L80.978 82.6186L80.7846 82.5542C80.8813 82.0815 81.0478 81.6786 81.2841 81.3456C81.5312 81.0018 81.832 80.7386 82.1866 80.556C82.5411 80.3626 82.9332 80.2659 83.3629 80.2659C84.1042 80.2659 84.7058 80.47 85.1677 80.8783C85.6404 81.2865 85.9359 81.8559 86.0541 82.5864L85.7962 82.5703C85.8822 82.0761 86.0379 81.6625 86.2635 81.3295C86.4999 80.9857 86.8007 80.7225 87.166 80.5398C87.5312 80.3572 87.9502 80.2659 88.4229 80.2659C89.0352 80.2659 89.5509 80.3948 89.9699 80.6526C90.3889 80.8997 90.7058 81.265 90.9207 81.7484C91.1355 82.2319 91.2429 82.8174 91.2429 83.5049V89H89.8893V83.795C89.8893 83.0215 89.7389 82.4414 89.4381 82.0546C89.1373 81.6571 88.6915 81.4584 88.1006 81.4584C87.7031 81.4584 87.354 81.5551 87.0532 81.7484C86.7631 81.9418 86.5375 82.2211 86.3763 82.5864C86.2152 82.9409 86.1346 83.376 86.1346 83.8917V89H84.781V83.8917C84.781 83.1289 84.6467 82.5327 84.3781 82.103C84.1096 81.6732 83.6583 81.4584 83.0245 81.4584C82.627 81.4584 82.2779 81.5551 81.9771 81.7484C81.687 81.9418 81.456 82.2211 81.2841 82.5864C81.123 82.9517 81.0424 83.3868 81.0424 83.8917V89H79.6888ZM96.9674 89.1934C96.1832 89.1934 95.4956 89.0107 94.9047 88.6455C94.3139 88.2802 93.8573 87.7645 93.535 87.0985C93.2127 86.4217 93.0516 85.6321 93.0516 84.7296C93.0516 83.8165 93.2127 83.0269 93.535 82.3608C93.8573 81.6947 94.3139 81.1791 94.9047 80.8138C95.4956 80.4485 96.1832 80.2659 96.9674 80.2659C97.7516 80.2659 98.4338 80.4485 99.014 80.8138C99.6048 81.1791 100.061 81.6947 100.384 82.3608C100.706 83.0269 100.867 83.8165 100.867 84.7296C100.867 85.6321 100.706 86.4217 100.384 87.0985C100.061 87.7645 99.6048 88.2802 99.014 88.6455C98.4338 89.0107 97.7516 89.1934 96.9674 89.1934ZM96.9674 87.9042C97.7516 87.9042 98.3586 87.6249 98.7883 87.0663C99.2288 86.4969 99.449 85.718 99.449 84.7296C99.449 83.7413 99.2288 82.9678 98.7883 82.4091C98.3586 81.8398 97.7516 81.5551 96.9674 81.5551C96.1832 81.5551 95.5708 81.8398 95.1303 82.4091C94.6899 82.9678 94.4696 83.7413 94.4696 84.7296C94.4696 85.718 94.6899 86.4969 95.1303 87.0663C95.5708 87.6249 96.1832 87.9042 96.9674 87.9042ZM105.741 89.1934C105 89.1934 104.356 89.0107 103.808 88.6455C103.271 88.2802 102.857 87.7645 102.567 87.0985C102.277 86.4324 102.132 85.6428 102.132 84.7296C102.132 83.8165 102.277 83.0269 102.567 82.3608C102.857 81.6947 103.271 81.1791 103.808 80.8138C104.356 80.4485 105 80.2659 105.741 80.2659C106.311 80.2659 106.832 80.3894 107.305 80.6365C107.777 80.8729 108.132 81.2113 108.368 81.6518V77.5586H109.722V89H108.497L108.449 87.7108C108.212 88.1728 107.852 88.538 107.369 88.8066C106.886 89.0645 106.343 89.1934 105.741 89.1934ZM106.015 87.9042C106.52 87.9042 106.945 87.7753 107.288 87.5175C107.643 87.2596 107.912 86.8944 108.094 86.4217C108.277 85.9382 108.368 85.3742 108.368 84.7296C108.368 84.0636 108.277 83.4942 108.094 83.0215C107.912 82.5488 107.643 82.1889 107.288 81.9418C106.945 81.684 106.52 81.5551 106.015 81.5551C105.263 81.5551 104.662 81.8398 104.211 82.4091C103.77 82.9678 103.55 83.7413 103.55 84.7296C103.55 85.7073 103.77 86.4808 104.211 87.0501C104.662 87.6195 105.263 87.9042 106.015 87.9042ZM115.474 89.1934C114.668 89.1934 113.97 89.0107 113.379 88.6455C112.799 88.2802 112.348 87.7645 112.025 87.0985C111.714 86.4217 111.558 85.6321 111.558 84.7296C111.558 83.8272 111.714 83.043 112.025 82.3769C112.348 81.7108 112.794 81.1952 113.363 80.8299C113.943 80.4539 114.625 80.2659 115.41 80.2659C116.151 80.2659 116.806 80.4432 117.376 80.7977C117.945 81.1415 118.385 81.6464 118.697 82.3124C119.019 82.9785 119.18 83.7896 119.18 84.7458V85.1486H112.976C113.03 86.0618 113.272 86.7493 113.701 87.2113C114.142 87.6732 114.733 87.9042 115.474 87.9042C116.033 87.9042 116.489 87.7753 116.844 87.5175C117.209 87.2489 117.461 86.8997 117.601 86.47L119.051 86.5828C118.826 87.3456 118.396 87.974 117.762 88.4682C117.139 88.9517 116.376 89.1934 115.474 89.1934ZM112.976 83.9561H117.698C117.633 83.1289 117.392 82.5219 116.973 82.1352C116.564 81.7484 116.043 81.5551 115.41 81.5551C114.754 81.5551 114.212 81.7592 113.782 82.1674C113.363 82.5649 113.094 83.1611 112.976 83.9561Z" fill="#2DB8CF"/>
<rect x="0.575521" y="100.784" width="364.88" height="267.042" fill="#FCFCFB"/>
<rect x="0.575521" y="100.784" width="364.88" height="267.042" stroke="#2DB8CF" stroke-width="1.15104" stroke-dasharray="9.21 9.21"/>
<path d="M30.7927 206.422V180.271H34.7707V192.868L32.8553 191.468H48.7673L46.852 192.868V180.271H50.83V206.422H46.852V193.678L48.7673 195.078H32.8553L34.7707 193.678V206.422H30.7927ZM64.092 206.864C62.1767 206.864 60.5192 206.447 59.1195 205.612C57.7444 204.777 56.6762 203.586 55.915 202.039C55.1783 200.492 54.81 198.687 54.81 196.625C54.81 194.562 55.1783 192.77 55.915 191.247C56.6762 189.7 57.7444 188.509 59.1195 187.674C60.4946 186.815 62.1153 186.385 63.9815 186.385C65.7495 186.385 67.3088 186.803 68.6593 187.637C70.0099 188.448 71.0535 189.626 71.7902 191.173C72.5514 192.72 72.932 194.587 72.932 196.772V197.767H58.8617C58.9599 199.682 59.4633 201.118 60.3718 202.076C61.305 203.034 62.5573 203.513 64.1288 203.513C65.283 203.513 66.2406 203.243 67.0018 202.702C67.7631 202.162 68.291 201.438 68.5857 200.529L72.6373 200.787C72.1217 202.604 71.1026 204.077 69.5802 205.207C68.0823 206.312 66.2529 206.864 64.092 206.864ZM58.8617 194.82H68.8067C68.6839 193.077 68.1805 191.787 67.2965 190.952C66.4371 190.118 65.3321 189.7 63.9815 189.7C62.5818 189.7 61.4277 190.142 60.5192 191.026C59.6352 191.886 59.0827 193.15 58.8617 194.82ZM82.4036 206.864C80.3655 206.864 78.7326 206.398 77.5048 205.465C76.3016 204.532 75.7 203.218 75.7 201.524C75.7 199.829 76.2034 198.516 77.2101 197.582C78.2415 196.625 79.8253 195.937 81.9616 195.52L88.7021 194.231C88.7021 192.708 88.3461 191.579 87.634 190.842C86.9219 190.081 85.866 189.7 84.4663 189.7C83.214 189.7 82.2318 189.983 81.5196 190.547C80.8075 191.088 80.3164 191.898 80.0463 192.978L76.0315 192.72C76.3998 190.756 77.3084 189.209 78.7571 188.079C80.2305 186.95 82.1335 186.385 84.4663 186.385C87.1183 186.385 89.1319 187.097 90.507 188.521C91.9066 189.921 92.6065 191.898 92.6065 194.452V202.076C92.6065 202.543 92.6801 202.874 92.8275 203.071C92.9994 203.243 93.2695 203.328 93.6378 203.328H94.3376V206.422C94.2149 206.447 94.0184 206.472 93.7483 206.496C93.4782 206.521 93.1958 206.533 92.9011 206.533C92.0663 206.533 91.3419 206.398 90.728 206.128C90.1386 205.858 89.6966 205.416 89.402 204.802C89.1073 204.163 88.96 203.316 88.96 202.26L89.3651 202.444C89.1687 203.304 88.739 204.065 88.076 204.728C87.4375 205.391 86.6149 205.919 85.6081 206.312C84.6259 206.68 83.5578 206.864 82.4036 206.864ZM83.0298 203.77C84.2085 203.77 85.2153 203.549 86.0501 203.107C86.885 202.641 87.5358 202.002 88.0023 201.192C88.4689 200.382 88.7021 199.461 88.7021 198.43V197.177L82.9561 198.282C81.7775 198.503 80.9426 198.859 80.4515 199.35C79.9849 199.817 79.7516 200.419 79.7516 201.155C79.7516 201.99 80.034 202.641 80.5988 203.107C81.1881 203.549 81.9985 203.77 83.0298 203.77ZM104.084 206.864C102.414 206.864 100.953 206.447 99.7004 205.612C98.4726 204.777 97.5272 203.599 96.8642 202.076C96.2257 200.529 95.9065 198.712 95.9065 196.625C95.9065 194.538 96.238 192.733 96.901 191.21C97.564 189.663 98.5094 188.472 99.7372 187.637C100.965 186.803 102.414 186.385 104.084 186.385C105.434 186.385 106.637 186.668 107.693 187.232C108.749 187.797 109.547 188.583 110.087 189.59V180.271H113.992V206.422H110.345L110.235 203.476C109.694 204.532 108.872 205.367 107.767 205.98C106.686 206.57 105.459 206.864 104.084 206.864ZM105.115 203.476C106.171 203.476 107.067 203.206 107.804 202.665C108.54 202.125 109.105 201.339 109.498 200.308C109.891 199.277 110.087 198.049 110.087 196.625C110.087 195.151 109.891 193.911 109.498 192.905C109.105 191.873 108.54 191.1 107.804 190.584C107.067 190.044 106.171 189.774 105.115 189.774C103.543 189.774 102.291 190.388 101.358 191.615C100.425 192.819 99.9582 194.488 99.9582 196.625C99.9582 198.737 100.425 200.406 101.358 201.634C102.291 202.862 103.543 203.476 105.115 203.476ZM123.148 206.422C121.871 206.422 120.84 206.091 120.054 205.428C119.268 204.765 118.875 203.709 118.875 202.26V180.271H122.78V201.892C122.78 202.334 122.89 202.665 123.111 202.886C123.357 203.107 123.7 203.218 124.142 203.218H125.689V206.422H123.148ZM128.615 206.422V186.827H132.519V206.422H128.615ZM128.541 183.991V180.087H132.593V183.991H128.541ZM137.994 206.422V186.827H141.567L141.714 192.057L141.235 191.8C141.456 190.523 141.874 189.491 142.488 188.706C143.102 187.92 143.851 187.343 144.735 186.974C145.619 186.582 146.576 186.385 147.608 186.385C149.081 186.385 150.296 186.717 151.254 187.38C152.236 188.018 152.973 188.902 153.464 190.032C153.98 191.137 154.238 192.401 154.238 193.825V206.422H150.333V195.004C150.333 193.85 150.21 192.88 149.965 192.094C149.719 191.309 149.314 190.707 148.749 190.289C148.185 189.872 147.448 189.663 146.539 189.663C145.164 189.663 144.047 190.118 143.188 191.026C142.328 191.935 141.898 193.261 141.898 195.004V206.422H137.994ZM167.022 206.864C165.107 206.864 163.45 206.447 162.05 205.612C160.675 204.777 159.607 203.586 158.845 202.039C158.109 200.492 157.74 198.687 157.74 196.625C157.74 194.562 158.109 192.77 158.845 191.247C159.607 189.7 160.675 188.509 162.05 187.674C163.425 186.815 165.046 186.385 166.912 186.385C168.68 186.385 170.239 186.803 171.59 187.637C172.94 188.448 173.984 189.626 174.721 191.173C175.482 192.72 175.862 194.587 175.862 196.772V197.767H161.792C161.89 199.682 162.394 201.118 163.302 202.076C164.235 203.034 165.488 203.513 167.059 203.513C168.213 203.513 169.171 203.243 169.932 202.702C170.694 202.162 171.221 201.438 171.516 200.529L175.568 200.787C175.052 202.604 174.033 204.077 172.511 205.207C171.013 206.312 169.183 206.864 167.022 206.864ZM161.792 194.82H171.737C171.614 193.077 171.111 191.787 170.227 190.952C169.368 190.118 168.263 189.7 166.912 189.7C165.512 189.7 164.358 190.142 163.45 191.026C162.566 191.886 162.013 193.15 161.792 194.82Z" fill="#002024" fill-opacity="0.65"/>
<rect x="27.625" y="227.974" width="164.599" height="5.75521" fill="#002024" fill-opacity="0.1"/>
<rect x="27.625" y="242.938" width="164.599" height="5.75521" fill="#002024" fill-opacity="0.1"/>
<rect x="27.625" y="257.902" width="164.599" height="5.75521" fill="#002024" fill-opacity="0.1"/>
<g clip-path="url(#clip2_1179_35857)">
<rect width="128.917" height="139.276" transform="translate(207.188 128.985)" fill="#002024" fill-opacity="0.1"/>
<path d="M207.188 128.985L336.104 268.261" stroke="#002024" stroke-opacity="0.2" stroke-width="1.15104"/>
<path d="M336.104 128.985L207.187 268.261" stroke="#002024" stroke-opacity="0.2" stroke-width="1.15104"/>
</g>
<rect x="198.576" y="0.575521" width="313.083" height="72.5156" fill="#FCFCFB"/>
<rect x="198.576" y="0.575521" width="313.083" height="72.5156" stroke="#2DB8CF" stroke-width="1.15104"/>
<g clip-path="url(#clip3_1179_35857)">
<path d="M239.441 26.4744C233.111 26.4744 231.062 31.0785 227.033 36.8337C231.062 42.5889 233.111 47.1931 239.441 47.1931C245.772 47.1931 247.821 42.5889 251.849 36.8337C247.821 31.0785 245.772 26.4744 239.441 26.4744Z" stroke="#2DB8CF" stroke-width="2.30208"/>
<path d="M242.893 36.8336C242.893 38.7408 241.347 40.2867 239.439 40.2867C237.532 40.2867 235.986 38.7408 235.986 36.8336C235.986 34.9265 237.532 33.3805 239.439 33.3805C241.347 33.3805 242.893 34.9265 242.893 36.8336Z" stroke="#2DB8CF" stroke-width="2.30208"/>
</g>
<path d="M267.601 44.3333L272.076 29.6229H274.48L278.955 44.3333H277.049L273.278 31.239L269.507 44.3333H267.601ZM269.86 40.1481L270.481 38.4077H276.075L276.697 40.1481H269.86ZM279.61 44.3333L284.085 29.6229H286.489L290.964 44.3333H289.058L285.287 31.239L281.516 44.3333H279.61ZM281.868 40.1481L282.49 38.4077H288.084L288.706 40.1481H281.868ZM291.619 44.3333L296.094 29.6229H298.497L302.973 44.3333H301.067L297.296 31.239L293.525 44.3333H291.619ZM293.877 40.1481L294.499 38.4077H300.093L300.714 40.1481H293.877Z" fill="#002024"/>
<g clip-path="url(#clip4_1179_35857)">
<path fill-rule="evenodd" clip-rule="evenodd" d="M484.411 29.7288L466.669 47.4709L456.984 37.7861L460.24 34.5309L466.669 40.9606L481.156 26.4736L484.411 29.7288Z" fill="#002024"/>
</g>
<rect x="198.576" y="83.4505" width="313.083" height="72.5156" fill="#FCFCFB"/>
<rect x="198.576" y="83.4505" width="313.083" height="72.5156" stroke="#2DB8CF" stroke-width="1.15104"/>
<path d="M229.08 118.557H242.893V131.219H229.08V118.557Z" stroke="#2DB8CF" stroke-width="2.30208"/>
<path d="M235.984 108.198H249.797V131.219H235.984V108.198Z" stroke="#2DB8CF" stroke-width="2.30208"/>
<path d="M268.513 127.208V112.498H272.988C274.535 112.498 275.757 112.892 276.655 113.679C277.553 114.452 278.002 115.523 278.002 116.89C278.002 117.581 277.843 118.196 277.525 118.734C277.208 119.259 276.8 119.674 276.303 119.977C275.806 120.281 275.295 120.454 274.77 120.495L274.687 120.247C275.668 120.302 276.4 120.537 276.883 120.951C277.38 121.366 277.671 122.042 277.753 122.982L278.126 127.208H276.345L275.992 123.21C275.951 122.754 275.84 122.388 275.661 122.111C275.495 121.821 275.226 121.614 274.853 121.49C274.494 121.352 273.996 121.283 273.361 121.283H270.295V127.208H268.513ZM270.295 119.542H272.988C274.01 119.542 274.791 119.314 275.329 118.859C275.868 118.389 276.137 117.733 276.137 116.89C276.137 116.034 275.868 115.378 275.329 114.922C274.791 114.466 274.01 114.238 272.988 114.238H270.295V119.542ZM285.473 127.457C284.437 127.457 283.54 127.222 282.78 126.752C282.034 126.283 281.454 125.62 281.04 124.763C280.639 123.893 280.439 122.878 280.439 121.718C280.439 120.558 280.639 119.549 281.04 118.693C281.454 117.836 282.027 117.173 282.759 116.704C283.505 116.22 284.382 115.979 285.391 115.979C286.344 115.979 287.186 116.207 287.918 116.662C288.65 117.104 289.223 117.754 289.638 118.61C290.052 119.466 290.259 120.509 290.259 121.739V122.256H282.262C282.331 123.431 282.642 124.315 283.194 124.908C283.761 125.502 284.52 125.799 285.473 125.799C286.192 125.799 286.779 125.634 287.234 125.302C287.704 124.957 288.029 124.508 288.208 123.955L290.073 124.1C289.783 125.081 289.23 125.889 288.415 126.525C287.614 127.146 286.634 127.457 285.473 127.457ZM282.262 120.723H288.353C288.27 119.66 287.96 118.879 287.421 118.382C286.882 117.885 286.205 117.636 285.391 117.636C284.548 117.636 283.85 117.899 283.298 118.424C282.759 118.935 282.414 119.701 282.262 120.723ZM297.503 127.457C296.55 127.457 295.728 127.291 295.037 126.96C294.347 126.628 293.801 126.186 293.401 125.634C293.014 125.067 292.793 124.439 292.738 123.748L294.561 123.624C294.671 124.301 294.968 124.833 295.452 125.219C295.949 125.606 296.633 125.799 297.503 125.799C298.318 125.799 298.946 125.682 299.388 125.447C299.844 125.212 300.072 124.846 300.072 124.349C300.072 124.031 299.996 123.769 299.844 123.562C299.692 123.355 299.409 123.182 298.995 123.044C298.58 122.892 297.973 122.747 297.171 122.609C296.108 122.415 295.272 122.181 294.664 121.904C294.07 121.614 293.649 121.255 293.401 120.827C293.152 120.399 293.028 119.888 293.028 119.294C293.028 118.658 293.186 118.092 293.504 117.595C293.822 117.098 294.291 116.704 294.913 116.414C295.535 116.124 296.294 115.979 297.192 115.979C298.104 115.979 298.863 116.144 299.471 116.476C300.093 116.794 300.583 117.222 300.942 117.761C301.301 118.285 301.536 118.866 301.647 119.501L299.823 119.625C299.741 119.238 299.582 118.9 299.347 118.61C299.126 118.306 298.829 118.071 298.456 117.906C298.097 117.726 297.669 117.636 297.171 117.636C296.37 117.636 295.776 117.795 295.39 118.113C295.003 118.43 294.809 118.824 294.809 119.294C294.809 119.667 294.899 119.964 295.079 120.185C295.258 120.406 295.548 120.585 295.949 120.723C296.35 120.848 296.881 120.965 297.544 121.076C298.677 121.255 299.554 121.49 300.176 121.78C300.797 122.056 301.232 122.402 301.481 122.816C301.73 123.23 301.854 123.741 301.854 124.349C301.854 124.998 301.66 125.558 301.274 126.027C300.901 126.483 300.383 126.835 299.72 127.084C299.071 127.333 298.332 127.457 297.503 127.457ZM304.746 130.316V116.227H306.362L306.404 118.714L306.155 118.589C306.431 117.733 306.887 117.084 307.523 116.642C308.172 116.2 308.918 115.979 309.76 115.979C310.851 115.979 311.742 116.248 312.433 116.787C313.137 117.325 313.655 118.03 313.987 118.9C314.318 119.77 314.484 120.709 314.484 121.718C314.484 122.726 314.318 123.665 313.987 124.536C313.655 125.406 313.137 126.11 312.433 126.649C311.742 127.188 310.851 127.457 309.76 127.457C309.194 127.457 308.662 127.36 308.165 127.167C307.682 126.973 307.267 126.704 306.922 126.359C306.59 126.013 306.362 125.606 306.238 125.136L306.487 124.846V130.316H304.746ZM309.595 125.799C310.548 125.799 311.293 125.44 311.832 124.722C312.385 124.004 312.661 123.002 312.661 121.718C312.661 120.433 312.385 119.432 311.832 118.714C311.293 117.995 310.548 117.636 309.595 117.636C308.959 117.636 308.407 117.788 307.937 118.092C307.481 118.396 307.122 118.852 306.86 119.459C306.611 120.067 306.487 120.82 306.487 121.718C306.487 122.616 306.611 123.368 306.86 123.976C307.108 124.584 307.467 125.04 307.937 125.344C308.407 125.647 308.959 125.799 309.595 125.799ZM321.313 127.457C320.305 127.457 319.421 127.222 318.661 126.752C317.915 126.283 317.335 125.62 316.921 124.763C316.507 123.893 316.299 122.878 316.299 121.718C316.299 120.544 316.507 119.529 316.921 118.672C317.335 117.816 317.915 117.153 318.661 116.683C319.421 116.214 320.305 115.979 321.313 115.979C322.322 115.979 323.199 116.214 323.945 116.683C324.704 117.153 325.291 117.816 325.706 118.672C326.12 119.529 326.327 120.544 326.327 121.718C326.327 122.878 326.12 123.893 325.706 124.763C325.291 125.62 324.704 126.283 323.945 126.752C323.199 127.222 322.322 127.457 321.313 127.457ZM321.313 125.799C322.322 125.799 323.102 125.44 323.654 124.722C324.221 123.99 324.504 122.989 324.504 121.718C324.504 120.447 324.221 119.453 323.654 118.734C323.102 118.002 322.322 117.636 321.313 117.636C320.305 117.636 319.518 118.002 318.951 118.734C318.399 119.453 318.123 120.447 318.123 121.718C318.123 122.989 318.399 123.99 318.951 124.722C319.518 125.44 320.305 125.799 321.313 125.799ZM328.847 127.208V116.227H330.442L330.504 119.024L330.297 118.838C330.435 118.189 330.684 117.657 331.043 117.243C331.416 116.814 331.858 116.497 332.369 116.289C332.88 116.082 333.419 115.979 333.985 115.979C334.828 115.979 335.525 116.165 336.078 116.538C336.644 116.911 337.072 117.415 337.362 118.051C337.652 118.672 337.797 119.37 337.797 120.143V127.208H336.057V120.64C336.057 119.618 335.857 118.845 335.456 118.32C335.056 117.781 334.441 117.512 333.612 117.512C333.046 117.512 332.535 117.636 332.079 117.885C331.623 118.12 331.257 118.472 330.981 118.941C330.718 119.397 330.587 119.964 330.587 120.64V127.208H328.847ZM345.538 127.457C344.585 127.457 343.763 127.291 343.072 126.96C342.382 126.628 341.836 126.186 341.436 125.634C341.049 125.067 340.828 124.439 340.773 123.748L342.596 123.624C342.706 124.301 343.003 124.833 343.487 125.219C343.984 125.606 344.668 125.799 345.538 125.799C346.353 125.799 346.981 125.682 347.423 125.447C347.879 125.212 348.107 124.846 348.107 124.349C348.107 124.031 348.031 123.769 347.879 123.562C347.727 123.355 347.444 123.182 347.03 123.044C346.615 122.892 346.008 122.747 345.207 122.609C344.143 122.415 343.307 122.181 342.7 121.904C342.106 121.614 341.684 121.255 341.436 120.827C341.187 120.399 341.063 119.888 341.063 119.294C341.063 118.658 341.222 118.092 341.539 117.595C341.857 117.098 342.327 116.704 342.948 116.414C343.57 116.124 344.329 115.979 345.227 115.979C346.139 115.979 346.899 116.144 347.506 116.476C348.128 116.794 348.618 117.222 348.977 117.761C349.336 118.285 349.571 118.866 349.682 119.501L347.859 119.625C347.776 119.238 347.617 118.9 347.382 118.61C347.161 118.306 346.864 118.071 346.491 117.906C346.132 117.726 345.704 117.636 345.207 117.636C344.405 117.636 343.811 117.795 343.425 118.113C343.038 118.43 342.845 118.824 342.845 119.294C342.845 119.667 342.934 119.964 343.114 120.185C343.293 120.406 343.584 120.585 343.984 120.723C344.385 120.848 344.916 120.965 345.579 121.076C346.712 121.255 347.589 121.49 348.211 121.78C348.832 122.056 349.267 122.402 349.516 122.816C349.765 123.23 349.889 123.741 349.889 124.349C349.889 124.998 349.696 125.558 349.309 126.027C348.936 126.483 348.418 126.835 347.755 127.084C347.106 127.333 346.367 127.457 345.538 127.457ZM357.195 127.208V116.227H358.935V127.208H357.195ZM352.781 127.208V125.675H362.726V127.208H352.781ZM352.989 117.761V116.227H358.935V117.761H352.989ZM357.029 114.508V112.477H358.852V114.508H357.029ZM368.25 127.208L364.169 116.227H366.075L369.348 125.426L372.622 116.227H374.528L370.446 127.208H368.25ZM381.544 127.457C380.508 127.457 379.61 127.222 378.85 126.752C378.104 126.283 377.524 125.62 377.11 124.763C376.709 123.893 376.509 122.878 376.509 121.718C376.509 120.558 376.709 119.549 377.11 118.693C377.524 117.836 378.097 117.173 378.829 116.704C379.575 116.22 380.452 115.979 381.461 115.979C382.414 115.979 383.256 116.207 383.988 116.662C384.721 117.104 385.294 117.754 385.708 118.61C386.122 119.466 386.33 120.509 386.33 121.739V122.256H378.332C378.401 123.431 378.712 124.315 379.265 124.908C379.831 125.502 380.591 125.799 381.544 125.799C382.262 125.799 382.849 125.634 383.305 125.302C383.774 124.957 384.099 124.508 384.279 123.955L386.143 124.1C385.853 125.081 385.301 125.889 384.486 126.525C383.685 127.146 382.704 127.457 381.544 127.457ZM378.332 120.723H384.424C384.341 119.66 384.03 118.879 383.491 118.382C382.953 117.885 382.276 117.636 381.461 117.636C380.618 117.636 379.921 117.899 379.368 118.424C378.829 118.935 378.484 119.701 378.332 120.723Z" fill="#002024"/>
<g clip-path="url(#clip5_1179_35857)">
<path fill-rule="evenodd" clip-rule="evenodd" d="M484.411 112.603L466.669 130.346L456.984 120.661L460.24 117.406L466.669 123.835L481.156 109.348L484.411 112.603Z" fill="#002024"/>
</g>
</g>
<defs>
<filter id="filter0_f_1179_35857" x="-58.2371" y="-75.2371" width="628.474" height="757.474" filterUnits="userSpaceOnUse" color-interpolation-filters="sRGB">
<feFlood flood-opacity="0" result="BackgroundImageFix"/>
<feBlend mode="normal" in="SourceGraphic" in2="BackgroundImageFix" result="shape"/>
<feGaussianBlur stdDeviation="96.1186" result="effect1_foregroundBlur_1179_35857"/>
</filter>
<radialGradient id="paint0_radial_1179_35857" cx="0" cy="0" r="1" gradientUnits="userSpaceOnUse" gradientTransform="translate(256 303.5) rotate(90) scale(186.5 122)">
<stop stop-color="#B8FFE3"/>
<stop offset="1" stop-color="#2DB8CF" stop-opacity="0"/>
</radialGradient>
<clipPath id="clip0_1179_35857">
<rect width="512" height="260" fill="white"/>
</clipPath>
<clipPath id="clip1_1179_35857">
<rect width="13.8125" height="13.8125" fill="white" transform="translate(0 76.0938)"/>
</clipPath>
<clipPath id="clip2_1179_35857">
<rect width="128.917" height="139.276" fill="white" transform="translate(207.188 128.985)"/>
</clipPath>
<clipPath id="clip3_1179_35857">
<rect width="27.625" height="27.625" fill="white" transform="translate(225.625 23.0208)"/>
</clipPath>
<clipPath id="clip4_1179_35857">
<rect width="27.625" height="27.625" fill="white" transform="translate(456.984 23.0208)"/>
</clipPath>
<clipPath id="clip5_1179_35857">
<rect width="27.625" height="27.625" fill="white" transform="translate(456.984 105.896)"/>
</clipPath>
</defs>
</svg>
