<svg width="512" height="260" viewBox="0 0 512 260" fill="none" xmlns="http://www.w3.org/2000/svg">
<g clip-path="url(#clip0_1179_35898)">
<g opacity="0.5" filter="url(#filter0_f_1179_35898)" style="mix-blend-mode:plus-darker">
<ellipse cx="350.5" cy="147" rx="116.5" ry="71" fill="url(#paint0_radial_1179_35898)"/>
</g>
<path d="M45.5249 46.65V34.8818H46.9504V46.65H45.5249ZM53.8101 46.9152C52.904 46.9152 52.1139 46.7439 51.4398 46.4014C50.7658 46.0588 50.2299 45.5892 49.8321 44.9925C49.4453 44.3848 49.2188 43.6831 49.1525 42.8875L50.6442 42.788C50.7216 43.3737 50.8929 43.8709 51.1581 44.2798C51.4233 44.6886 51.7769 44.998 52.2189 45.208C52.6719 45.4179 53.2134 45.5229 53.8432 45.5229C54.3957 45.5229 54.8653 45.4511 55.2521 45.3074C55.6388 45.1638 55.9317 44.9538 56.1306 44.6776C56.3405 44.4013 56.4455 44.0643 56.4455 43.6665C56.4455 43.3019 56.3571 42.9814 56.1803 42.7052C56.0145 42.4179 55.6886 42.1582 55.2024 41.9261C54.7272 41.683 54.02 41.4455 53.0808 41.2134C52.1747 40.9814 51.4509 40.7272 50.9094 40.451C50.379 40.1747 49.9923 39.8377 49.7492 39.4399C49.5171 39.0421 49.4011 38.5504 49.4011 37.9647C49.4011 37.3017 49.5558 36.7216 49.8652 36.2243C50.1857 35.716 50.6387 35.3238 51.2244 35.0475C51.81 34.7602 52.5062 34.6166 53.3128 34.6166C54.1747 34.6166 54.9151 34.7823 55.5339 35.1138C56.1527 35.4343 56.6444 35.8763 57.009 36.4398C57.3737 37.0034 57.6002 37.6443 57.6886 38.3625L56.1969 38.462C56.1306 37.9868 55.9759 37.5669 55.7328 37.2023C55.5007 36.8266 55.1803 36.5337 54.7714 36.3238C54.3626 36.1138 53.8653 36.0089 53.2797 36.0089C52.5504 36.0089 51.9702 36.1857 51.5393 36.5393C51.1083 36.8818 50.8929 37.3349 50.8929 37.8984C50.8929 38.2631 50.9757 38.5669 51.1415 38.81C51.3183 39.0421 51.6277 39.252 52.0697 39.4399C52.5117 39.6167 53.1471 39.8101 53.9758 40.02C54.9593 40.2631 55.7383 40.5559 56.3129 40.8985C56.8985 41.23 57.3129 41.6167 57.556 42.0587C57.8102 42.5007 57.9372 43.0035 57.9372 43.5671C57.9372 44.2522 57.7604 44.8489 57.4068 45.3572C57.0532 45.8544 56.567 46.2412 55.9482 46.5174C55.3294 46.7826 54.6167 46.9152 53.8101 46.9152ZM64.4122 46.9152C63.5061 46.9152 62.7161 46.7439 62.042 46.4014C61.368 46.0588 60.832 45.5892 60.4342 44.9925C60.0475 44.3848 59.821 43.6831 59.7547 42.8875L61.2464 42.788C61.3238 43.3737 61.495 43.8709 61.7602 44.2798C62.0254 44.6886 62.379 44.998 62.821 45.208C63.2741 45.4179 63.8155 45.5229 64.4454 45.5229C64.9979 45.5229 65.4675 45.4511 65.8543 45.3074C66.241 45.1638 66.5338 44.9538 66.7327 44.6776C66.9427 44.4013 67.0477 44.0643 67.0477 43.6665C67.0477 43.3019 66.9593 42.9814 66.7825 42.7052C66.6167 42.4179 66.2907 42.1582 65.8045 41.9261C65.3294 41.683 64.6222 41.4455 63.6829 41.2134C62.7768 40.9814 62.0531 40.7272 61.5116 40.451C60.9812 40.1747 60.5945 39.8377 60.3514 39.4399C60.1193 39.0421 60.0033 38.5504 60.0033 37.9647C60.0033 37.3017 60.158 36.7216 60.4674 36.2243C60.7878 35.716 61.2409 35.3238 61.8265 35.0475C62.4122 34.7602 63.1083 34.6166 63.915 34.6166C64.7769 34.6166 65.5172 34.7823 66.136 35.1138C66.7548 35.4343 67.2466 35.8763 67.6112 36.4398C67.9759 37.0034 68.2024 37.6443 68.2908 38.3625L66.799 38.462C66.7327 37.9868 66.578 37.5669 66.3349 37.2023C66.1029 36.8266 65.7824 36.5337 65.3736 36.3238C64.9647 36.1138 64.4675 36.0089 63.8818 36.0089C63.1525 36.0089 62.5724 36.1857 62.1415 36.5393C61.7105 36.8818 61.495 37.3349 61.495 37.8984C61.495 38.2631 61.5779 38.5669 61.7437 38.81C61.9205 39.0421 62.2299 39.252 62.6719 39.4399C63.1139 39.6167 63.7492 39.8101 64.578 40.02C65.5614 40.2631 66.3405 40.5559 66.9151 40.8985C67.5007 41.23 67.9151 41.6167 68.1582 42.0587C68.4123 42.5007 68.5394 43.0035 68.5394 43.5671C68.5394 44.2522 68.3626 44.8489 68.009 45.3572C67.6554 45.8544 67.1692 46.2412 66.5504 46.5174C65.9316 46.7826 65.2189 46.9152 64.4122 46.9152ZM75.1636 46.9152C74.2575 46.9152 73.4674 46.7384 72.7934 46.3848C72.1304 46.0312 71.6165 45.5284 71.2519 44.8765C70.8983 44.2135 70.7215 43.4345 70.7215 42.5394V34.8652H72.1469V42.5394C72.1469 43.4897 72.4066 44.2245 72.926 44.7439C73.4564 45.2632 74.2022 45.5229 75.1636 45.5229C76.1139 45.5229 76.8487 45.2632 77.3681 44.7439C77.8985 44.2245 78.1637 43.4897 78.1637 42.5394V34.8652H79.5891V42.5394C79.5891 43.4345 79.4068 44.2135 79.0421 44.8765C78.6885 45.5284 78.1802 46.0312 77.5172 46.3848C76.8542 46.7384 76.0697 46.9152 75.1636 46.9152ZM82.6406 46.65V34.8818H90.0331V36.2741H84.066V40.0697H89.8342V41.4289H84.066V45.2577H90.1657V46.65H82.6406Z" fill="#002024"/>
<rect x="114.56" y="8.46042" width="278.896" height="65.3792" fill="#FCFCFB"/>
<rect x="114.56" y="8.46042" width="278.896" height="65.3792" stroke="#2DB8CF" stroke-width="0.920833"/>
<path d="M144.244 49.15H138.232V33.7021H143.735C145.12 33.7021 146.24 34.0557 147.095 34.7629C147.964 35.4554 148.398 36.4131 148.398 37.6359C148.398 38.3726 148.222 39.0724 147.868 39.7354C147.529 40.3984 147.021 40.8478 146.343 41.0835C147.139 41.3487 147.765 41.7981 148.222 42.4316C148.678 43.0504 148.907 43.8239 148.907 44.7521C148.907 45.5183 148.73 46.2402 148.376 46.9179C148.023 47.5809 147.5 48.1187 146.807 48.5312C146.115 48.9438 145.26 49.15 144.244 49.15ZM140.244 35.448V40.3321H143.426C144.251 40.3321 144.936 40.1701 145.481 39.8459C146.026 39.5071 146.299 38.8662 146.299 37.9232C146.299 36.9656 146.026 36.3173 145.481 35.9784C144.936 35.6248 144.251 35.448 143.426 35.448H140.244ZM140.244 42.078V47.4041H144.001C144.973 47.4041 145.68 47.1537 146.122 46.6527C146.579 46.1518 146.807 45.5109 146.807 44.73C146.807 43.9492 146.579 43.3156 146.122 42.8294C145.68 42.3285 144.973 42.078 144.001 42.078H140.244ZM152.159 49.15V37.5696H153.861V40.0669C154.244 39.2419 154.796 38.5641 155.518 38.0337C156.24 37.5033 157.073 37.2381 158.016 37.2381C159.342 37.2381 160.351 37.577 161.043 38.2547C161.75 38.9325 162.156 39.8459 162.259 40.9951H160.424C160.292 40.3027 160.019 39.7723 159.607 39.4039C159.209 39.0356 158.62 38.8514 157.839 38.8514C157.073 38.8514 156.402 39.0577 155.828 39.4702C155.253 39.868 154.804 40.4205 154.48 41.1277C154.17 41.8202 154.015 42.6232 154.015 43.5366V49.15H152.159ZM169.467 37.216C170.66 37.216 171.64 37.4886 172.406 38.0337C173.187 38.5641 173.762 39.2934 174.13 40.2216C174.513 41.1498 174.705 42.2033 174.705 43.3819C174.705 44.5459 174.513 45.5993 174.13 46.5422C173.762 47.4704 173.187 48.2071 172.406 48.7522C171.64 49.2826 170.66 49.5478 169.467 49.5478C168.288 49.5478 167.309 49.2826 166.528 48.7522C165.747 48.2071 165.165 47.4704 164.782 46.5422C164.413 45.5993 164.229 44.5459 164.229 43.3819C164.229 42.2033 164.413 41.1498 164.782 40.2216C165.165 39.2934 165.747 38.5641 166.528 38.0337C167.309 37.4886 168.288 37.216 169.467 37.216ZM169.467 38.9177C168.686 38.9177 168.053 39.124 167.566 39.5365C167.08 39.9491 166.719 40.4942 166.483 41.1719C166.262 41.8497 166.152 42.5863 166.152 43.3819C166.152 44.1628 166.262 44.8995 166.483 45.5919C166.719 46.2697 167.08 46.8148 167.566 47.2273C168.053 47.6399 168.686 47.8461 169.467 47.8461C170.248 47.8461 170.881 47.6399 171.368 47.2273C171.854 46.8148 172.207 46.2697 172.428 45.5919C172.664 44.8995 172.782 44.1628 172.782 43.3819C172.782 42.5863 172.664 41.8497 172.428 41.1719C172.207 40.4942 171.854 39.9491 171.368 39.5365C170.881 39.124 170.248 38.9177 169.467 38.9177ZM180.697 49.15H178.885V33.0391H180.697V42.4095L185.67 37.5696H188.012L183.836 41.7023L188.698 49.15H186.51L182.465 42.9178L180.697 44.6416V49.15ZM200.945 45.5698C200.753 46.778 200.215 47.743 199.331 48.4649C198.462 49.1869 197.35 49.5478 195.994 49.5478C194.83 49.5478 193.858 49.29 193.077 48.7743C192.296 48.2439 191.707 47.522 191.309 46.6085C190.926 45.6951 190.734 44.649 190.734 43.4703C190.734 42.1738 190.955 41.0614 191.397 40.1332C191.839 39.205 192.458 38.4905 193.254 37.9895C194.049 37.4739 194.978 37.216 196.038 37.216C197.232 37.216 198.204 37.496 198.956 38.0558C199.722 38.6157 200.282 39.3966 200.635 40.3984C201.004 41.4003 201.188 42.5716 201.188 43.9123H192.657C192.687 45.0468 192.981 45.9897 193.541 46.7411C194.101 47.4778 194.941 47.8461 196.061 47.8461C197.578 47.8461 198.587 47.0874 199.088 45.5698H200.945ZM196.016 38.9177C194.985 38.9177 194.197 39.2566 193.652 39.9343C193.106 40.6121 192.79 41.4371 192.701 42.4095H199.199C199.199 41.7613 199.066 41.1793 198.801 40.6636C198.55 40.1332 198.189 39.7133 197.718 39.4039C197.247 39.0798 196.679 38.9177 196.016 38.9177ZM204.528 49.15V37.5696H206.23V39.4923C206.687 38.7851 207.21 38.2326 207.799 37.8348C208.403 37.437 209.162 37.2381 210.076 37.2381C210.753 37.2381 211.365 37.356 211.91 37.5917C212.47 37.8127 212.912 38.159 213.236 38.6304C213.575 39.0872 213.744 39.6765 213.744 40.3984V49.15H211.91V41.1277C211.91 40.3469 211.674 39.7723 211.203 39.4039C210.731 39.0356 210.171 38.8514 209.523 38.8514C208.831 38.8514 208.249 39.0282 207.777 39.3818C207.306 39.7354 206.952 40.1995 206.716 40.7741C206.481 41.3487 206.363 41.9675 206.363 42.6305V49.15H204.528ZM229.597 49.15V37.5696H231.321V38.763C231.571 38.3947 231.918 38.0632 232.36 37.7685C232.816 37.4591 233.354 37.3044 233.973 37.3044C234.533 37.3044 235.019 37.4444 235.431 37.7243C235.859 37.9895 236.161 38.3652 236.338 38.8514C236.573 38.4684 236.92 38.1148 237.376 37.7906C237.833 37.4665 238.386 37.3044 239.034 37.3044C239.756 37.3044 240.352 37.5254 240.824 37.9674C241.295 38.3947 241.531 38.9767 241.531 39.7133V49.15H239.719V40.089C239.719 39.6765 239.601 39.3671 239.365 39.1608C239.13 38.9546 238.82 38.8514 238.437 38.8514C237.818 38.8514 237.332 39.0282 236.978 39.3818C236.64 39.7207 236.47 40.1922 236.47 40.7962V49.15H234.658V40.089C234.658 39.6765 234.54 39.3671 234.304 39.1608C234.069 38.9546 233.759 38.8514 233.376 38.8514C232.757 38.8514 232.271 39.0282 231.918 39.3818C231.579 39.7207 231.409 40.1922 231.409 40.7962V49.15H229.597ZM253.822 45.5698C253.631 46.778 253.093 47.743 252.209 48.4649C251.34 49.1869 250.227 49.5478 248.872 49.5478C247.708 49.5478 246.736 49.29 245.955 48.7743C245.174 48.2439 244.585 47.522 244.187 46.6085C243.804 45.6951 243.612 44.649 243.612 43.4703C243.612 42.1738 243.833 41.0614 244.275 40.1332C244.717 39.205 245.336 38.4905 246.132 37.9895C246.927 37.4739 247.855 37.216 248.916 37.216C250.11 37.216 251.082 37.496 251.833 38.0558C252.599 38.6157 253.159 39.3966 253.513 40.3984C253.881 41.4003 254.065 42.5716 254.065 43.9123H245.535C245.564 45.0468 245.859 45.9897 246.419 46.7411C246.979 47.4778 247.818 47.8461 248.938 47.8461C250.456 47.8461 251.465 47.0874 251.966 45.5698H253.822ZM248.894 38.9177C247.863 38.9177 247.074 39.2566 246.529 39.9343C245.984 40.6121 245.667 41.4371 245.579 42.4095H252.076C252.076 41.7613 251.944 41.1793 251.679 40.6636C251.428 40.1332 251.067 39.7133 250.596 39.4039C250.124 39.0798 249.557 38.9177 248.894 38.9177ZM257.406 49.15V37.5696H259.108V39.4923C259.565 38.7851 260.088 38.2326 260.677 37.8348C261.281 37.437 262.04 37.2381 262.953 37.2381C263.631 37.2381 264.242 37.356 264.788 37.5917C265.347 37.8127 265.789 38.159 266.114 38.6304C266.452 39.0872 266.622 39.6765 266.622 40.3984V49.15H264.788V41.1277C264.788 40.3469 264.552 39.7723 264.08 39.4039C263.609 39.0356 263.049 38.8514 262.401 38.8514C261.708 38.8514 261.126 39.0282 260.655 39.3818C260.183 39.7354 259.83 40.1995 259.594 40.7741C259.358 41.3487 259.24 41.9675 259.24 42.6305V49.15H257.406ZM279.841 37.5696V49.15H278.184V47.4262C277.653 48.1924 277.086 48.7375 276.482 49.0616C275.893 49.3858 275.171 49.5478 274.316 49.5478C273.3 49.5478 272.467 49.3195 271.819 48.8627C271.023 48.2881 270.626 47.4631 270.626 46.3875V37.5696H272.46V45.6582C272.46 46.4391 272.718 47.0284 273.233 47.4262C273.661 47.7651 274.198 47.9345 274.847 47.9345C275.716 47.9345 276.445 47.6178 277.035 46.9842C277.683 46.2918 278.007 45.2973 278.007 44.0007V37.5696H279.841Z" fill="#002024"/>
<g clip-path="url(#clip1_1179_35898)">
<path d="M354.32 35.6245C354.32 35.6245 357.083 33.7828 360.766 33.7828C364.449 33.7828 367.212 35.6245 367.212 35.6245V46.6745L360.766 50.3578L354.32 46.6745V35.6245Z" stroke="#2DB8CF" stroke-width="1.84167"/>
<path d="M354.32 38.3872H367.212" stroke="#2DB8CF" stroke-width="1.84167"/>
<path d="M359.88 33.8181L357.082 31.0205" stroke="#2DB8CF" stroke-width="1.84167"/>
<path d="M361.65 33.8181L364.448 31.0205" stroke="#2DB8CF" stroke-width="1.84167"/>
<path d="M354.321 40.2289L351.098 38.3872" stroke="#2DB8CF" stroke-width="1.84167"/>
<path d="M350.637 43.4518H354.32" stroke="#2DB8CF" stroke-width="1.84167"/>
<path d="M354.321 46.6747L351.098 48.5163" stroke="#2DB8CF" stroke-width="1.84167"/>
<path d="M367.213 40.2289L370.436 38.3872" stroke="#2DB8CF" stroke-width="1.84167"/>
<path d="M367.213 43.4518H370.896" stroke="#2DB8CF" stroke-width="1.84167"/>
<path d="M367.213 46.6747L370.436 48.5163" stroke="#2DB8CF" stroke-width="1.84167"/>
</g>
<path d="M124.569 135.316C123.663 135.316 122.873 135.144 122.199 134.802C121.525 134.459 120.989 133.99 120.591 133.393C120.204 132.785 119.978 132.083 119.912 131.288L121.403 131.188C121.481 131.774 121.652 132.271 121.917 132.68C122.182 133.089 122.536 133.398 122.978 133.608C123.431 133.818 123.973 133.923 124.602 133.923C125.155 133.923 125.624 133.851 126.011 133.708C126.398 133.564 126.691 133.354 126.89 133.078C127.1 132.802 127.205 132.465 127.205 132.067C127.205 131.702 127.116 131.382 126.939 131.106C126.774 130.818 126.448 130.559 125.962 130.327C125.486 130.083 124.779 129.846 123.84 129.614C122.934 129.382 122.21 129.128 121.669 128.851C121.138 128.575 120.751 128.238 120.508 127.84C120.276 127.442 120.16 126.951 120.16 126.365C120.16 125.702 120.315 125.122 120.624 124.625C120.945 124.116 121.398 123.724 121.984 123.448C122.569 123.161 123.265 123.017 124.072 123.017C124.934 123.017 125.674 123.183 126.293 123.514C126.912 123.835 127.404 124.277 127.768 124.84C128.133 125.404 128.359 126.045 128.448 126.763L126.956 126.862C126.89 126.387 126.735 125.967 126.492 125.603C126.26 125.227 125.939 124.934 125.531 124.724C125.122 124.514 124.624 124.409 124.039 124.409C123.31 124.409 122.729 124.586 122.298 124.94C121.867 125.282 121.652 125.735 121.652 126.299C121.652 126.663 121.735 126.967 121.901 127.21C122.077 127.442 122.387 127.652 122.829 127.84C123.271 128.017 123.906 128.21 124.735 128.42C125.718 128.664 126.497 128.956 127.072 129.299C127.658 129.63 128.072 130.017 128.315 130.459C128.569 130.901 128.696 131.404 128.696 131.967C128.696 132.653 128.52 133.249 128.166 133.758C127.812 134.255 127.326 134.642 126.707 134.918C126.089 135.183 125.376 135.316 124.569 135.316ZM132.801 135.05V124.674H129.137V123.282H137.889V124.674H134.226V135.05H132.801ZM136.926 135.05L141.169 123.282H143.092L147.335 135.05H145.777L144.6 131.702H139.661L138.484 135.05H136.926ZM140.142 130.31H144.12L142.131 124.525L140.142 130.31ZM150.039 135.05V124.674H146.376V123.282H155.128V124.674H151.465V135.05H150.039ZM161.041 135.316C160.135 135.316 159.345 135.139 158.671 134.785C158.008 134.432 157.494 133.929 157.129 133.277C156.776 132.614 156.599 131.835 156.599 130.94V123.266H158.024V130.94C158.024 131.89 158.284 132.625 158.803 133.144C159.334 133.664 160.08 133.923 161.041 133.923C161.991 133.923 162.726 133.664 163.245 133.144C163.776 132.625 164.041 131.89 164.041 130.94V123.266H165.466V130.94C165.466 131.835 165.284 132.614 164.919 133.277C164.566 133.929 164.058 134.432 163.395 134.785C162.732 135.139 161.947 135.316 161.041 135.316ZM172.319 135.316C171.413 135.316 170.623 135.144 169.949 134.802C169.275 134.459 168.739 133.99 168.341 133.393C167.955 132.785 167.728 132.083 167.662 131.288L169.154 131.188C169.231 131.774 169.402 132.271 169.667 132.68C169.933 133.089 170.286 133.398 170.728 133.608C171.181 133.818 171.723 133.923 172.353 133.923C172.905 133.923 173.375 133.851 173.761 133.708C174.148 133.564 174.441 133.354 174.64 133.078C174.85 132.802 174.955 132.465 174.955 132.067C174.955 131.702 174.866 131.382 174.69 131.106C174.524 130.818 174.198 130.559 173.712 130.327C173.237 130.083 172.529 129.846 171.59 129.614C170.684 129.382 169.96 129.128 169.419 128.851C168.888 128.575 168.502 128.238 168.259 127.84C168.027 127.442 167.91 126.951 167.91 126.365C167.91 125.702 168.065 125.122 168.375 124.625C168.695 124.116 169.148 123.724 169.734 123.448C170.319 123.161 171.016 123.017 171.822 123.017C172.684 123.017 173.424 123.183 174.043 123.514C174.662 123.835 175.154 124.277 175.518 124.84C175.883 125.404 176.11 126.045 176.198 126.763L174.706 126.862C174.64 126.387 174.485 125.967 174.242 125.603C174.01 125.227 173.69 124.934 173.281 124.724C172.872 124.514 172.375 124.409 171.789 124.409C171.06 124.409 170.48 124.586 170.049 124.94C169.618 125.282 169.402 125.735 169.402 126.299C169.402 126.663 169.485 126.967 169.651 127.21C169.828 127.442 170.137 127.652 170.579 127.84C171.021 128.017 171.656 128.21 172.485 128.42C173.469 128.664 174.248 128.956 174.822 129.299C175.408 129.63 175.822 130.017 176.065 130.459C176.32 130.901 176.447 131.404 176.447 131.967C176.447 132.653 176.27 133.249 175.916 133.758C175.563 134.255 175.076 134.642 174.458 134.918C173.839 135.183 173.126 135.316 172.319 135.316Z" fill="#002024"/>
<rect x="200.56" y="96.8608" width="267.896" height="65.3792" fill="#FCFCFB"/>
<rect x="200.56" y="96.8608" width="267.896" height="65.3792" stroke="#2DB8CF" stroke-width="0.920833"/>
<path d="M224.719 137.55V135.827H227.989V123.826H224.719V122.103H233.36V123.826H230.067V135.827H233.36V137.55H224.719ZM237.651 137.55V125.97H239.352V127.893C239.809 127.186 240.332 126.633 240.922 126.235C241.526 125.837 242.284 125.639 243.198 125.639C243.876 125.639 244.487 125.756 245.032 125.992C245.592 126.213 246.034 126.559 246.358 127.031C246.697 127.488 246.866 128.077 246.866 128.799V137.55H245.032V129.528C245.032 128.747 244.796 128.173 244.325 127.804C243.853 127.436 243.294 127.252 242.645 127.252C241.953 127.252 241.371 127.429 240.899 127.782C240.428 128.136 240.074 128.6 239.839 129.175C239.603 129.749 239.485 130.368 239.485 131.031V137.55H237.651ZM265.637 142.368H263.78V125.97H265.482V127.694C266.336 126.309 267.567 125.616 269.173 125.616C270.322 125.616 271.257 125.911 271.979 126.5C272.716 127.075 273.261 127.841 273.615 128.799C273.968 129.742 274.145 130.773 274.145 131.893C274.145 132.998 273.961 134.014 273.593 134.943C273.239 135.856 272.694 136.585 271.957 137.131C271.221 137.676 270.3 137.948 269.195 137.948C268.443 137.948 267.78 137.816 267.206 137.55C266.646 137.27 266.123 136.828 265.637 136.224V142.368ZM268.863 127.34C268.097 127.34 267.478 127.554 267.007 127.981C266.535 128.408 266.189 128.961 265.968 129.639C265.747 130.316 265.637 131.031 265.637 131.782C265.637 132.534 265.747 133.248 265.968 133.926C266.189 134.604 266.535 135.156 267.007 135.584C267.478 136.011 268.097 136.224 268.863 136.224C269.644 136.224 270.278 136.018 270.764 135.606C271.265 135.178 271.633 134.633 271.869 133.97C272.105 133.292 272.222 132.585 272.222 131.849C272.222 131.068 272.105 130.338 271.869 129.661C271.633 128.968 271.265 128.408 270.764 127.981C270.278 127.554 269.644 127.34 268.863 127.34ZM277.817 137.55V125.97H279.519V128.467C279.902 127.642 280.455 126.965 281.177 126.434C281.898 125.904 282.731 125.639 283.674 125.639C285 125.639 286.009 125.977 286.702 126.655C287.409 127.333 287.814 128.246 287.917 129.396H286.083C285.95 128.703 285.678 128.173 285.265 127.804C284.867 127.436 284.278 127.252 283.497 127.252C282.731 127.252 282.061 127.458 281.486 127.871C280.911 128.268 280.462 128.821 280.138 129.528C279.828 130.221 279.674 131.024 279.674 131.937V137.55H277.817ZM295.125 125.616C296.319 125.616 297.298 125.889 298.065 126.434C298.845 126.965 299.42 127.694 299.788 128.622C300.171 129.55 300.363 130.604 300.363 131.782C300.363 132.946 300.171 134 299.788 134.943C299.42 135.871 298.845 136.607 298.065 137.153C297.298 137.683 296.319 137.948 295.125 137.948C293.947 137.948 292.967 137.683 292.186 137.153C291.405 136.607 290.823 135.871 290.44 134.943C290.072 134 289.888 132.946 289.888 131.782C289.888 130.604 290.072 129.55 290.44 128.622C290.823 127.694 291.405 126.965 292.186 126.434C292.967 125.889 293.947 125.616 295.125 125.616ZM295.125 127.318C294.344 127.318 293.711 127.524 293.225 127.937C292.738 128.349 292.377 128.895 292.142 129.572C291.921 130.25 291.81 130.987 291.81 131.782C291.81 132.563 291.921 133.3 292.142 133.992C292.377 134.67 292.738 135.215 293.225 135.628C293.711 136.04 294.344 136.247 295.125 136.247C295.906 136.247 296.54 136.04 297.026 135.628C297.512 135.215 297.866 134.67 298.087 133.992C298.322 133.3 298.44 132.563 298.44 131.782C298.44 130.987 298.322 130.25 298.087 129.572C297.866 128.895 297.512 128.349 297.026 127.937C296.54 127.524 295.906 127.318 295.125 127.318ZM308.057 142.368C306.805 142.368 305.744 142.088 304.875 141.528C304.006 140.983 303.49 140.099 303.328 138.876H305.251C305.516 140.173 306.466 140.821 308.102 140.821C309.266 140.821 310.098 140.497 310.599 139.849C311.115 139.215 311.372 138.125 311.372 136.578V135.915C311.034 136.593 310.562 137.101 309.958 137.44C309.369 137.779 308.691 137.948 307.925 137.948C306.79 137.948 305.847 137.676 305.096 137.131C304.345 136.585 303.785 135.841 303.416 134.898C303.063 133.955 302.886 132.895 302.886 131.716C302.886 130.582 303.07 129.558 303.438 128.644C303.807 127.716 304.359 126.979 305.096 126.434C305.847 125.889 306.768 125.616 307.858 125.616C309.435 125.616 310.621 126.213 311.417 127.407V125.97H313.251V135.672C313.251 137.278 313.118 138.501 312.853 139.341C312.529 140.342 311.962 141.094 311.151 141.595C310.341 142.11 309.31 142.368 308.057 142.368ZM308.19 136.224C308.971 136.224 309.597 136.011 310.068 135.584C310.54 135.142 310.879 134.589 311.085 133.926C311.306 133.248 311.417 132.556 311.417 131.849C311.417 131.068 311.306 130.338 311.085 129.661C310.864 128.968 310.518 128.408 310.046 127.981C309.575 127.554 308.949 127.34 308.168 127.34C307.446 127.34 306.835 127.539 306.334 127.937C305.833 128.32 305.45 128.85 305.184 129.528C304.934 130.191 304.809 130.943 304.809 131.782C304.809 132.563 304.927 133.292 305.162 133.97C305.398 134.648 305.759 135.193 306.245 135.606C306.746 136.018 307.394 136.224 308.19 136.224ZM317.476 137.55V125.97H319.177V128.467C319.56 127.642 320.113 126.965 320.835 126.434C321.557 125.904 322.389 125.639 323.332 125.639C324.658 125.639 325.667 125.977 326.36 126.655C327.067 127.333 327.472 128.246 327.575 129.396H325.741C325.608 128.703 325.336 128.173 324.923 127.804C324.525 127.436 323.936 127.252 323.155 127.252C322.389 127.252 321.719 127.458 321.144 127.871C320.57 128.268 320.12 128.821 319.796 129.528C319.487 130.221 319.332 131.024 319.332 131.937V137.55H317.476ZM339.822 133.97C339.631 135.178 339.093 136.143 338.209 136.865C337.34 137.587 336.227 137.948 334.872 137.948C333.708 137.948 332.736 137.69 331.955 137.175C331.174 136.644 330.585 135.922 330.187 135.009C329.804 134.095 329.612 133.049 329.612 131.871C329.612 130.574 329.833 129.462 330.275 128.534C330.717 127.605 331.336 126.891 332.132 126.39C332.927 125.874 333.855 125.616 334.916 125.616C336.11 125.616 337.082 125.896 337.833 126.456C338.599 127.016 339.159 127.797 339.513 128.799C339.881 129.801 340.065 130.972 340.065 132.313H331.535C331.564 133.447 331.859 134.39 332.419 135.142C332.979 135.878 333.818 136.247 334.938 136.247C336.456 136.247 337.465 135.488 337.966 133.97H339.822ZM334.894 127.318C333.863 127.318 333.074 127.657 332.529 128.335C331.984 129.012 331.667 129.838 331.579 130.81H338.076C338.076 130.162 337.944 129.58 337.679 129.064C337.428 128.534 337.067 128.114 336.596 127.804C336.124 127.48 335.557 127.318 334.894 127.318ZM352.246 129.13H350.323C350.309 128.556 350.088 128.099 349.66 127.76C349.248 127.421 348.695 127.252 348.003 127.252C347.252 127.252 346.64 127.407 346.169 127.716C345.712 128.025 345.484 128.438 345.484 128.954C345.484 129.366 345.624 129.698 345.903 129.948C346.183 130.198 346.596 130.397 347.141 130.545L349.771 131.23C350.743 131.48 351.473 131.856 351.959 132.357C352.46 132.843 352.71 133.499 352.71 134.324C352.71 135.444 352.298 136.328 351.473 136.976C350.648 137.624 349.513 137.948 348.069 137.948C345.034 137.948 343.45 136.644 343.318 134.037H345.263C345.351 134.817 345.631 135.392 346.102 135.76C346.589 136.129 347.259 136.313 348.113 136.313C348.939 136.313 349.594 136.165 350.08 135.871C350.581 135.576 350.832 135.156 350.832 134.611C350.832 134.11 350.699 133.734 350.434 133.484C350.169 133.234 349.719 133.027 349.086 132.865L346.655 132.224C345.609 131.944 344.835 131.569 344.334 131.097C343.848 130.611 343.605 129.926 343.605 129.042C343.605 127.996 344.003 127.163 344.798 126.545C345.609 125.926 346.692 125.616 348.047 125.616C349.403 125.616 350.434 125.933 351.141 126.567C351.863 127.186 352.231 128.04 352.246 129.13ZM365.466 129.13H363.543C363.528 128.556 363.307 128.099 362.88 127.76C362.467 127.421 361.915 127.252 361.222 127.252C360.471 127.252 359.86 127.407 359.388 127.716C358.931 128.025 358.703 128.438 358.703 128.954C358.703 129.366 358.843 129.698 359.123 129.948C359.403 130.198 359.815 130.397 360.36 130.545L362.99 131.23C363.963 131.48 364.692 131.856 365.178 132.357C365.679 132.843 365.93 133.499 365.93 134.324C365.93 135.444 365.517 136.328 364.692 136.976C363.867 137.624 362.733 137.948 361.289 137.948C358.254 137.948 356.67 136.644 356.537 134.037H358.482C358.57 134.817 358.85 135.392 359.322 135.76C359.808 136.129 360.478 136.313 361.333 136.313C362.158 136.313 362.814 136.165 363.3 135.871C363.801 135.576 364.051 135.156 364.051 134.611C364.051 134.11 363.919 133.734 363.653 133.484C363.388 133.234 362.939 133.027 362.305 132.865L359.874 132.224C358.828 131.944 358.055 131.569 357.554 131.097C357.068 130.611 356.824 129.926 356.824 129.042C356.824 127.996 357.222 127.163 358.018 126.545C358.828 125.926 359.911 125.616 361.267 125.616C362.622 125.616 363.653 125.933 364.361 126.567C365.083 127.186 365.451 128.04 365.466 129.13Z" fill="#002024"/>
<g clip-path="url(#clip2_1179_35898)">
<path d="M435.768 139.68C433.081 139.68 430.505 138.612 428.605 136.713C426.706 134.813 425.639 132.237 425.639 129.55C425.639 126.864 426.706 124.288 428.605 122.388C430.505 120.488 433.081 119.421 435.768 119.421C438.454 119.421 441.031 120.488 442.93 122.388C444.83 124.288 445.897 126.864 445.897 129.55" stroke="#2DB8CF" stroke-width="1.84167"/>
<path d="M437.609 139.511C438.573 139.333 439.503 139.016 440.372 138.573" stroke="#2DB8CF" stroke-width="1.84167"/>
<path d="M441.754 137.722C442.169 137.418 442.563 137.081 442.931 136.713C443.347 136.297 443.722 135.849 444.056 135.375" stroke="#2DB8CF" stroke-width="1.84167"/>
<path d="M445.731 131.392C445.553 132.356 445.236 133.286 444.793 134.155" stroke="#2DB8CF" stroke-width="1.84167"/>
</g>
<path d="M45.5249 223.45V211.682H52.9174V213.074H46.9504V216.87H52.7185V218.229H46.9504V222.058H53.05V223.45H45.5249ZM57.8491 223.45V213.074H54.186V211.682H62.9376V213.074H59.2745V223.45H57.8491ZM61.9748 223.45L66.218 211.682H68.1407L72.3839 223.45H70.8259L69.649 220.102H64.7097L63.5329 223.45H61.9748ZM65.1904 218.709H69.1684L67.1794 212.925L65.1904 218.709Z" fill="#002024"/>
<rect x="95.56" y="185.26" width="297.896" height="65.3792" fill="#FCFCFB"/>
<rect x="95.56" y="185.26" width="297.896" height="65.3792" stroke="#2DB8CF" stroke-width="0.920833"/>
<path d="M125.266 225.95V222.016H118.592V220.027L125.443 210.369H127.144V220.336H129.465V222.016H127.144V225.95H125.266ZM120.205 220.336H125.266V213.176L120.205 220.336ZM139.833 217.618C141.616 218.502 142.507 219.791 142.507 221.486C142.507 222.443 142.286 223.29 141.844 224.027C141.417 224.749 140.806 225.316 140.01 225.729C139.229 226.141 138.308 226.348 137.248 226.348C136.216 226.348 135.303 226.141 134.507 225.729C133.726 225.316 133.107 224.749 132.651 224.027C132.209 223.29 131.988 222.443 131.988 221.486C131.988 219.791 132.886 218.502 134.684 217.618C133.977 217.191 133.439 216.741 133.071 216.27C132.717 215.784 132.54 215.136 132.54 214.325C132.54 213.5 132.739 212.778 133.137 212.159C133.549 211.526 134.109 211.032 134.817 210.679C135.538 210.325 136.349 210.148 137.248 210.148C138.19 210.148 139.008 210.325 139.701 210.679C140.408 211.032 140.96 211.526 141.358 212.159C141.756 212.793 141.955 213.522 141.955 214.347C141.955 215.084 141.8 215.688 141.491 216.16C141.196 216.616 140.644 217.102 139.833 217.618ZM137.248 211.784C136.334 211.784 135.634 212.034 135.148 212.535C134.662 213.036 134.419 213.64 134.419 214.347C134.419 215.025 134.654 215.614 135.126 216.115C135.597 216.602 136.305 216.845 137.248 216.845C138.073 216.845 138.75 216.624 139.281 216.182C139.811 215.725 140.076 215.128 140.076 214.392C140.076 213.596 139.819 212.962 139.303 212.491C138.802 212.019 138.117 211.784 137.248 211.784ZM137.248 218.48C136.643 218.48 136.084 218.605 135.568 218.856C135.052 219.091 134.64 219.438 134.33 219.894C134.021 220.351 133.866 220.911 133.866 221.574C133.866 222.208 134.014 222.76 134.308 223.232C134.603 223.703 135.001 224.071 135.502 224.337C136.017 224.587 136.585 224.712 137.203 224.712C138.22 224.712 139.045 224.425 139.679 223.85C140.312 223.261 140.629 222.495 140.629 221.552C140.629 220.874 140.474 220.314 140.165 219.872C139.855 219.416 139.443 219.069 138.927 218.834C138.411 218.598 137.852 218.48 137.248 218.48ZM145.87 225.95V209.839H147.704V216.093C148.117 215.489 148.611 214.996 149.185 214.613C149.76 214.229 150.504 214.038 151.417 214.038C152.095 214.038 152.706 214.156 153.252 214.392C153.811 214.613 154.253 214.959 154.578 215.43C154.916 215.887 155.086 216.476 155.086 217.198V225.95H153.252V217.928C153.252 217.147 153.016 216.572 152.544 216.204C152.073 215.835 151.513 215.651 150.865 215.651C150.172 215.651 149.59 215.828 149.119 216.182C148.647 216.535 148.294 216.999 148.058 217.574C147.822 218.149 147.704 218.767 147.704 219.43V225.95H145.87Z" fill="#002024"/>
<g clip-path="url(#clip3_1179_35898)">
<path d="M360.766 211.504V217.95H365.37" stroke="#2DB8CF" stroke-width="1.84167"/>
<path d="M350.637 217.95C350.637 220.636 351.704 223.213 353.603 225.112C355.503 227.012 358.079 228.079 360.766 228.079C363.452 228.079 366.029 227.012 367.928 225.112C369.828 223.213 370.895 220.636 370.895 217.95C370.895 215.264 369.828 212.687 367.928 210.788C366.029 208.888 363.452 207.821 360.766 207.821C358.079 207.821 355.503 208.888 353.603 210.788C351.704 212.687 350.637 215.264 350.637 217.95Z" stroke="#2DB8CF" stroke-width="1.84167"/>
</g>
</g>
<defs>
<filter id="filter0_f_1179_35898" x="114" y="-44" width="473" height="382" filterUnits="userSpaceOnUse" color-interpolation-filters="sRGB">
<feFlood flood-opacity="0" result="BackgroundImageFix"/>
<feBlend mode="normal" in="SourceGraphic" in2="BackgroundImageFix" result="shape"/>
<feGaussianBlur stdDeviation="60" result="effect1_foregroundBlur_1179_35898"/>
</filter>
<radialGradient id="paint0_radial_1179_35898" cx="0" cy="0" r="1" gradientUnits="userSpaceOnUse" gradientTransform="translate(350.5 147) rotate(90) scale(71 116.5)">
<stop stop-color="#2DB8CF"/>
<stop offset="1" stop-color="#2DB8CF" stop-opacity="0"/>
</radialGradient>
<clipPath id="clip0_1179_35898">
<rect width="512" height="260" fill="white"/>
</clipPath>
<clipPath id="clip1_1179_35898">
<rect width="22.1" height="22.1" fill="white" transform="translate(349.717 30.1)"/>
</clipPath>
<clipPath id="clip2_1179_35898">
<rect width="22.1" height="22.1" fill="white" transform="translate(424.717 118.5)"/>
</clipPath>
<clipPath id="clip3_1179_35898">
<rect width="22.1" height="22.1" fill="white" transform="translate(349.717 206.9)"/>
</clipPath>
</defs>
</svg>
