<svg width="512" height="260" viewBox="0 0 512 260" fill="none" xmlns="http://www.w3.org/2000/svg">
<g clip-path="url(#clip0_1179_36672)">
<g filter="url(#filter0_f_1179_36672)" style="mix-blend-mode:plus-lighter">
<ellipse cx="316.5" cy="147" rx="116.5" ry="71" fill="url(#paint0_radial_1179_36672)"/>
</g>
<path d="M45.5249 46.6499V34.8817H46.9504V46.6499H45.5249ZM53.8101 46.9151C52.904 46.9151 52.1139 46.7438 51.4398 46.4013C50.7658 46.0587 50.2299 45.5891 49.8321 44.9924C49.4453 44.3847 49.2188 43.683 49.1525 42.8874L50.6442 42.7879C50.7216 43.3736 50.8929 43.8708 51.1581 44.2797C51.4233 44.6885 51.7769 44.9979 52.2189 45.2079C52.6719 45.4178 53.2134 45.5228 53.8432 45.5228C54.3957 45.5228 54.8653 45.451 55.2521 45.3073C55.6388 45.1637 55.9317 44.9537 56.1306 44.6775C56.3405 44.4012 56.4455 44.0642 56.4455 43.6664C56.4455 43.3018 56.3571 42.9813 56.1803 42.7051C56.0145 42.4178 55.6886 42.1581 55.2024 41.926C54.7272 41.6829 54.02 41.4454 53.0808 41.2133C52.1747 40.9813 51.4509 40.7271 50.9094 40.4509C50.379 40.1746 49.9923 39.8376 49.7492 39.4398C49.5171 39.042 49.4011 38.5503 49.4011 37.9646C49.4011 37.3016 49.5558 36.7215 49.8652 36.2242C50.1857 35.7159 50.6387 35.3237 51.2244 35.0474C51.81 34.7601 52.5062 34.6165 53.3128 34.6165C54.1747 34.6165 54.9151 34.7822 55.5339 35.1137C56.1527 35.4342 56.6444 35.8762 57.009 36.4397C57.3737 37.0033 57.6002 37.6442 57.6886 38.3624L56.1969 38.4619C56.1306 37.9867 55.9759 37.5668 55.7328 37.2022C55.5007 36.8265 55.1803 36.5336 54.7714 36.3237C54.3626 36.1137 53.8653 36.0088 53.2797 36.0088C52.5504 36.0088 51.9702 36.1856 51.5393 36.5392C51.1083 36.8817 50.8929 37.3348 50.8929 37.8983C50.8929 38.263 50.9757 38.5668 51.1415 38.8099C51.3183 39.042 51.6277 39.2519 52.0697 39.4398C52.5117 39.6166 53.1471 39.81 53.9758 40.0199C54.9593 40.263 55.7383 40.5558 56.3129 40.8984C56.8985 41.2299 57.3129 41.6166 57.556 42.0586C57.8102 42.5006 57.9372 43.0034 57.9372 43.567C57.9372 44.2521 57.7604 44.8488 57.4068 45.3571C57.0532 45.8543 56.567 46.2411 55.9482 46.5173C55.3294 46.7825 54.6167 46.9151 53.8101 46.9151ZM64.4122 46.9151C63.5061 46.9151 62.7161 46.7438 62.042 46.4013C61.368 46.0587 60.832 45.5891 60.4342 44.9924C60.0475 44.3847 59.821 43.683 59.7547 42.8874L61.2464 42.7879C61.3238 43.3736 61.495 43.8708 61.7602 44.2797C62.0254 44.6885 62.379 44.9979 62.821 45.2079C63.2741 45.4178 63.8155 45.5228 64.4454 45.5228C64.9979 45.5228 65.4675 45.451 65.8543 45.3073C66.241 45.1637 66.5338 44.9537 66.7327 44.6775C66.9427 44.4012 67.0477 44.0642 67.0477 43.6664C67.0477 43.3018 66.9593 42.9813 66.7825 42.7051C66.6167 42.4178 66.2907 42.1581 65.8045 41.926C65.3294 41.6829 64.6222 41.4454 63.6829 41.2133C62.7768 40.9813 62.0531 40.7271 61.5116 40.4509C60.9812 40.1746 60.5945 39.8376 60.3514 39.4398C60.1193 39.042 60.0033 38.5503 60.0033 37.9646C60.0033 37.3016 60.158 36.7215 60.4674 36.2242C60.7878 35.7159 61.2409 35.3237 61.8265 35.0474C62.4122 34.7601 63.1083 34.6165 63.915 34.6165C64.7769 34.6165 65.5172 34.7822 66.136 35.1137C66.7548 35.4342 67.2466 35.8762 67.6112 36.4397C67.9759 37.0033 68.2024 37.6442 68.2908 38.3624L66.799 38.4619C66.7327 37.9867 66.578 37.5668 66.3349 37.2022C66.1029 36.8265 65.7824 36.5336 65.3736 36.3237C64.9647 36.1137 64.4675 36.0088 63.8818 36.0088C63.1525 36.0088 62.5724 36.1856 62.1415 36.5392C61.7105 36.8817 61.495 37.3348 61.495 37.8983C61.495 38.263 61.5779 38.5668 61.7437 38.8099C61.9205 39.042 62.2299 39.2519 62.6719 39.4398C63.1139 39.6166 63.7492 39.81 64.578 40.0199C65.5614 40.263 66.3405 40.5558 66.9151 40.8984C67.5007 41.2299 67.9151 41.6166 68.1582 42.0586C68.4123 42.5006 68.5394 43.0034 68.5394 43.567C68.5394 44.2521 68.3626 44.8488 68.009 45.3571C67.6554 45.8543 67.1692 46.2411 66.5504 46.5173C65.9316 46.7825 65.2189 46.9151 64.4122 46.9151ZM75.1636 46.9151C74.2575 46.9151 73.4674 46.7383 72.7934 46.3847C72.1304 46.0311 71.6165 45.5283 71.2519 44.8764C70.8983 44.2134 70.7215 43.4344 70.7215 42.5393V34.8651H72.1469V42.5393C72.1469 43.4896 72.4066 44.2244 72.926 44.7438C73.4564 45.2631 74.2022 45.5228 75.1636 45.5228C76.1139 45.5228 76.8487 45.2631 77.3681 44.7438C77.8985 44.2244 78.1637 43.4896 78.1637 42.5393V34.8651H79.5891V42.5393C79.5891 43.4344 79.4068 44.2134 79.0421 44.8764C78.6885 45.5283 78.1802 46.0311 77.5172 46.3847C76.8542 46.7383 76.0697 46.9151 75.1636 46.9151ZM82.6406 46.6499V34.8817H90.0331V36.274H84.066V40.0696H89.8342V41.4288H84.066V45.2576H90.1657V46.6499H82.6406Z" fill="#FCFCFB"/>
<rect x="114.56" y="8.46042" width="278.896" height="65.3792" fill="#FCFCFB"/>
<rect x="114.56" y="8.46042" width="278.896" height="65.3792" stroke="#2DB8CF" stroke-width="0.920833"/>
<path d="M144.244 49.1499H138.232V33.702H143.735C145.12 33.702 146.24 34.0556 147.095 34.7628C147.964 35.4553 148.398 36.4129 148.398 37.6358C148.398 38.3725 148.222 39.0723 147.868 39.7353C147.529 40.3983 147.021 40.8477 146.343 41.0834C147.139 41.3486 147.765 41.798 148.222 42.4315C148.678 43.0503 148.907 43.8238 148.907 44.752C148.907 45.5181 148.73 46.2401 148.376 46.9178C148.023 47.5808 147.5 48.1186 146.807 48.5311C146.115 48.9436 145.26 49.1499 144.244 49.1499ZM140.244 35.4479V40.332H143.426C144.251 40.332 144.936 40.1699 145.481 39.8458C146.026 39.5069 146.299 38.866 146.299 37.9231C146.299 36.9654 146.026 36.3172 145.481 35.9783C144.936 35.6247 144.251 35.4479 143.426 35.4479H140.244ZM140.244 42.0779V47.404H144.001C144.973 47.404 145.68 47.1535 146.122 46.6526C146.579 46.1517 146.807 45.5108 146.807 44.7299C146.807 43.949 146.579 43.3155 146.122 42.8293C145.68 42.3284 144.973 42.0779 144.001 42.0779H140.244ZM152.159 49.1499V37.5695H153.861V40.0668C154.244 39.2417 154.796 38.564 155.518 38.0336C156.24 37.5032 157.073 37.238 158.016 37.238C159.342 37.238 160.351 37.5769 161.043 38.2546C161.75 38.9323 162.156 39.8458 162.259 40.995H160.424C160.292 40.3025 160.019 39.7721 159.607 39.4038C159.209 39.0355 158.62 38.8513 157.839 38.8513C157.073 38.8513 156.402 39.0576 155.828 39.4701C155.253 39.8679 154.804 40.4204 154.48 41.1276C154.17 41.8201 154.015 42.623 154.015 43.5365V49.1499H152.159ZM169.467 37.2159C170.66 37.2159 171.64 37.4885 172.406 38.0336C173.187 38.564 173.762 39.2933 174.13 40.2215C174.513 41.1497 174.705 42.2031 174.705 43.3818C174.705 44.5457 174.513 45.5992 174.13 46.5421C173.762 47.4703 173.187 48.207 172.406 48.7521C171.64 49.2825 170.66 49.5477 169.467 49.5477C168.288 49.5477 167.309 49.2825 166.528 48.7521C165.747 48.207 165.165 47.4703 164.782 46.5421C164.413 45.5992 164.229 44.5457 164.229 43.3818C164.229 42.2031 164.413 41.1497 164.782 40.2215C165.165 39.2933 165.747 38.564 166.528 38.0336C167.309 37.4885 168.288 37.2159 169.467 37.2159ZM169.467 38.9176C168.686 38.9176 168.053 39.1239 167.566 39.5364C167.08 39.9489 166.719 40.4941 166.483 41.1718C166.262 41.8495 166.152 42.5862 166.152 43.3818C166.152 44.1627 166.262 44.8993 166.483 45.5918C166.719 46.2695 167.08 46.8147 167.566 47.2272C168.053 47.6397 168.686 47.846 169.467 47.846C170.248 47.846 170.881 47.6397 171.368 47.2272C171.854 46.8147 172.207 46.2695 172.428 45.5918C172.664 44.8993 172.782 44.1627 172.782 43.3818C172.782 42.5862 172.664 41.8495 172.428 41.1718C172.207 40.4941 171.854 39.9489 171.368 39.5364C170.881 39.1239 170.248 38.9176 169.467 38.9176ZM180.697 49.1499H178.885V33.039H180.697V42.4094L185.67 37.5695H188.012L183.836 41.7022L188.698 49.1499H186.51L182.465 42.9177L180.697 44.6415V49.1499ZM200.945 45.5697C200.753 46.7778 200.215 47.7429 199.331 48.4648C198.462 49.1867 197.35 49.5477 195.994 49.5477C194.83 49.5477 193.858 49.2899 193.077 48.7742C192.296 48.2438 191.707 47.5219 191.309 46.6084C190.926 45.6949 190.734 44.6489 190.734 43.4702C190.734 42.1737 190.955 41.0613 191.397 40.1331C191.839 39.2049 192.458 38.4903 193.254 37.9894C194.049 37.4737 194.978 37.2159 196.038 37.2159C197.232 37.2159 198.204 37.4958 198.956 38.0557C199.722 38.6156 200.282 39.3964 200.635 40.3983C201.004 41.4002 201.188 42.5715 201.188 43.9122H192.657C192.687 45.0467 192.981 45.9896 193.541 46.741C194.101 47.4777 194.941 47.846 196.061 47.846C197.578 47.846 198.587 47.0872 199.088 45.5697H200.945ZM196.016 38.9176C194.985 38.9176 194.197 39.2565 193.652 39.9342C193.106 40.6119 192.79 41.437 192.701 42.4094H199.199C199.199 41.7611 199.066 41.1792 198.801 40.6635C198.55 40.1331 198.189 39.7132 197.718 39.4038C197.247 39.0797 196.679 38.9176 196.016 38.9176ZM204.528 49.1499V37.5695H206.23V39.4922C206.687 38.785 207.21 38.2325 207.799 37.8347C208.403 37.4369 209.162 37.238 210.076 37.238C210.753 37.238 211.365 37.3559 211.91 37.5916C212.47 37.8126 212.912 38.1588 213.236 38.6303C213.575 39.087 213.744 39.6764 213.744 40.3983V49.1499H211.91V41.1276C211.91 40.3467 211.674 39.7721 211.203 39.4038C210.731 39.0355 210.171 38.8513 209.523 38.8513C208.831 38.8513 208.249 39.0281 207.777 39.3817C207.306 39.7353 206.952 40.1994 206.716 40.774C206.481 41.3486 206.363 41.9674 206.363 42.6304V49.1499H204.528ZM229.597 49.1499V37.5695H231.321V38.7629C231.571 38.3946 231.918 38.0631 232.36 37.7684C232.816 37.459 233.354 37.3043 233.973 37.3043C234.533 37.3043 235.019 37.4443 235.431 37.7242C235.859 37.9894 236.161 38.3651 236.338 38.8513C236.573 38.4682 236.92 38.1146 237.376 37.7905C237.833 37.4664 238.386 37.3043 239.034 37.3043C239.756 37.3043 240.352 37.5253 240.824 37.9673C241.295 38.3946 241.531 38.9765 241.531 39.7132V49.1499H239.719V40.0889C239.719 39.6764 239.601 39.367 239.365 39.1607C239.13 38.9544 238.82 38.8513 238.437 38.8513C237.818 38.8513 237.332 39.0281 236.978 39.3817C236.64 39.7206 236.47 40.192 236.47 40.7961V49.1499H234.658V40.0889C234.658 39.6764 234.54 39.367 234.304 39.1607C234.069 38.9544 233.759 38.8513 233.376 38.8513C232.757 38.8513 232.271 39.0281 231.918 39.3817C231.579 39.7206 231.409 40.192 231.409 40.7961V49.1499H229.597ZM253.822 45.5697C253.631 46.7778 253.093 47.7429 252.209 48.4648C251.34 49.1867 250.227 49.5477 248.872 49.5477C247.708 49.5477 246.736 49.2899 245.955 48.7742C245.174 48.2438 244.585 47.5219 244.187 46.6084C243.804 45.6949 243.612 44.6489 243.612 43.4702C243.612 42.1737 243.833 41.0613 244.275 40.1331C244.717 39.2049 245.336 38.4903 246.132 37.9894C246.927 37.4737 247.855 37.2159 248.916 37.2159C250.11 37.2159 251.082 37.4958 251.833 38.0557C252.599 38.6156 253.159 39.3964 253.513 40.3983C253.881 41.4002 254.065 42.5715 254.065 43.9122H245.535C245.564 45.0467 245.859 45.9896 246.419 46.741C246.979 47.4777 247.818 47.846 248.938 47.846C250.456 47.846 251.465 47.0872 251.966 45.5697H253.822ZM248.894 38.9176C247.863 38.9176 247.074 39.2565 246.529 39.9342C245.984 40.6119 245.667 41.437 245.579 42.4094H252.076C252.076 41.7611 251.944 41.1792 251.679 40.6635C251.428 40.1331 251.067 39.7132 250.596 39.4038C250.124 39.0797 249.557 38.9176 248.894 38.9176ZM257.406 49.1499V37.5695H259.108V39.4922C259.565 38.785 260.088 38.2325 260.677 37.8347C261.281 37.4369 262.04 37.238 262.953 37.238C263.631 37.238 264.242 37.3559 264.788 37.5916C265.347 37.8126 265.789 38.1588 266.114 38.6303C266.452 39.087 266.622 39.6764 266.622 40.3983V49.1499H264.788V41.1276C264.788 40.3467 264.552 39.7721 264.08 39.4038C263.609 39.0355 263.049 38.8513 262.401 38.8513C261.708 38.8513 261.126 39.0281 260.655 39.3817C260.183 39.7353 259.83 40.1994 259.594 40.774C259.358 41.3486 259.24 41.9674 259.24 42.6304V49.1499H257.406ZM279.841 37.5695V49.1499H278.184V47.4261C277.653 48.1922 277.086 48.7374 276.482 49.0615C275.893 49.3856 275.171 49.5477 274.316 49.5477C273.3 49.5477 272.467 49.3193 271.819 48.8626C271.023 48.288 270.626 47.4629 270.626 46.3874V37.5695H272.46V45.6581C272.46 46.439 272.718 47.0283 273.233 47.4261C273.661 47.765 274.198 47.9344 274.847 47.9344C275.716 47.9344 276.445 47.6176 277.035 46.9841C277.683 46.2916 278.007 45.2971 278.007 44.0006V37.5695H279.841Z" fill="#002024"/>
<g clip-path="url(#clip1_1179_36672)">
<path d="M354.32 35.6246C354.32 35.6246 357.083 33.783 360.766 33.783C364.449 33.783 367.212 35.6246 367.212 35.6246V46.6746L360.766 50.358L354.32 46.6746V35.6246Z" stroke="#2DB8CF" stroke-width="1.84167"/>
<path d="M354.32 38.3875H367.212" stroke="#2DB8CF" stroke-width="1.84167"/>
<path d="M359.88 33.8183L357.082 31.0208" stroke="#2DB8CF" stroke-width="1.84167"/>
<path d="M361.65 33.8183L364.448 31.0208" stroke="#2DB8CF" stroke-width="1.84167"/>
<path d="M354.321 40.2291L351.098 38.3875" stroke="#2DB8CF" stroke-width="1.84167"/>
<path d="M350.637 43.4519H354.32" stroke="#2DB8CF" stroke-width="1.84167"/>
<path d="M354.321 46.6748L351.098 48.5165" stroke="#2DB8CF" stroke-width="1.84167"/>
<path d="M367.213 40.2291L370.436 38.3875" stroke="#2DB8CF" stroke-width="1.84167"/>
<path d="M367.213 43.4519H370.896" stroke="#2DB8CF" stroke-width="1.84167"/>
<path d="M367.213 46.6748L370.436 48.5165" stroke="#2DB8CF" stroke-width="1.84167"/>
</g>
<path d="M124.569 135.315C123.663 135.315 122.873 135.144 122.199 134.802C121.525 134.459 120.989 133.989 120.591 133.393C120.204 132.785 119.978 132.083 119.912 131.288L121.403 131.188C121.481 131.774 121.652 132.271 121.917 132.68C122.182 133.089 122.536 133.398 122.978 133.608C123.431 133.818 123.973 133.923 124.602 133.923C125.155 133.923 125.624 133.851 126.011 133.708C126.398 133.564 126.691 133.354 126.89 133.078C127.1 132.802 127.205 132.465 127.205 132.067C127.205 131.702 127.116 131.382 126.939 131.105C126.774 130.818 126.448 130.558 125.962 130.326C125.486 130.083 124.779 129.846 123.84 129.614C122.934 129.382 122.21 129.127 121.669 128.851C121.138 128.575 120.751 128.238 120.508 127.84C120.276 127.442 120.16 126.951 120.16 126.365C120.16 125.702 120.315 125.122 120.624 124.625C120.945 124.116 121.398 123.724 121.984 123.448C122.569 123.16 123.265 123.017 124.072 123.017C124.934 123.017 125.674 123.183 126.293 123.514C126.912 123.835 127.404 124.277 127.768 124.84C128.133 125.404 128.359 126.045 128.448 126.763L126.956 126.862C126.89 126.387 126.735 125.967 126.492 125.603C126.26 125.227 125.939 124.934 125.531 124.724C125.122 124.514 124.624 124.409 124.039 124.409C123.31 124.409 122.729 124.586 122.298 124.94C121.867 125.282 121.652 125.735 121.652 126.299C121.652 126.663 121.735 126.967 121.901 127.21C122.077 127.442 122.387 127.652 122.829 127.84C123.271 128.017 123.906 128.21 124.735 128.42C125.718 128.663 126.497 128.956 127.072 129.299C127.658 129.63 128.072 130.017 128.315 130.459C128.569 130.901 128.696 131.404 128.696 131.967C128.696 132.652 128.52 133.249 128.166 133.757C127.812 134.255 127.326 134.641 126.707 134.918C126.089 135.183 125.376 135.315 124.569 135.315ZM132.801 135.05V124.674H129.137V123.282H137.889V124.674H134.226V135.05H132.801ZM136.926 135.05L141.169 123.282H143.092L147.335 135.05H145.777L144.6 131.702H139.661L138.484 135.05H136.926ZM140.142 130.31H144.12L142.131 124.525L140.142 130.31ZM150.039 135.05V124.674H146.376V123.282H155.128V124.674H151.465V135.05H150.039ZM161.041 135.315C160.135 135.315 159.345 135.139 158.671 134.785C158.008 134.431 157.494 133.929 157.129 133.277C156.776 132.614 156.599 131.835 156.599 130.94V123.265H158.024V130.94C158.024 131.89 158.284 132.625 158.803 133.144C159.334 133.664 160.08 133.923 161.041 133.923C161.991 133.923 162.726 133.664 163.245 133.144C163.776 132.625 164.041 131.89 164.041 130.94V123.265H165.466V130.94C165.466 131.835 165.284 132.614 164.919 133.277C164.566 133.929 164.058 134.431 163.395 134.785C162.732 135.139 161.947 135.315 161.041 135.315ZM172.319 135.315C171.413 135.315 170.623 135.144 169.949 134.802C169.275 134.459 168.739 133.989 168.341 133.393C167.955 132.785 167.728 132.083 167.662 131.288L169.154 131.188C169.231 131.774 169.402 132.271 169.667 132.68C169.933 133.089 170.286 133.398 170.728 133.608C171.181 133.818 171.723 133.923 172.353 133.923C172.905 133.923 173.375 133.851 173.761 133.708C174.148 133.564 174.441 133.354 174.64 133.078C174.85 132.802 174.955 132.465 174.955 132.067C174.955 131.702 174.866 131.382 174.69 131.105C174.524 130.818 174.198 130.558 173.712 130.326C173.237 130.083 172.529 129.846 171.59 129.614C170.684 129.382 169.96 129.127 169.419 128.851C168.888 128.575 168.502 128.238 168.259 127.84C168.027 127.442 167.91 126.951 167.91 126.365C167.91 125.702 168.065 125.122 168.375 124.625C168.695 124.116 169.148 123.724 169.734 123.448C170.319 123.16 171.016 123.017 171.822 123.017C172.684 123.017 173.424 123.183 174.043 123.514C174.662 123.835 175.154 124.277 175.518 124.84C175.883 125.404 176.11 126.045 176.198 126.763L174.706 126.862C174.64 126.387 174.485 125.967 174.242 125.603C174.01 125.227 173.69 124.934 173.281 124.724C172.872 124.514 172.375 124.409 171.789 124.409C171.06 124.409 170.48 124.586 170.049 124.94C169.618 125.282 169.402 125.735 169.402 126.299C169.402 126.663 169.485 126.967 169.651 127.21C169.828 127.442 170.137 127.652 170.579 127.84C171.021 128.017 171.656 128.21 172.485 128.42C173.469 128.663 174.248 128.956 174.822 129.299C175.408 129.63 175.822 130.017 176.065 130.459C176.32 130.901 176.447 131.404 176.447 131.967C176.447 132.652 176.27 133.249 175.916 133.757C175.563 134.255 175.076 134.641 174.458 134.918C173.839 135.183 173.126 135.315 172.319 135.315Z" fill="#FCFCFB"/>
<rect x="200.56" y="96.8608" width="267.896" height="65.3792" fill="#FCFCFB"/>
<rect x="200.56" y="96.8608" width="267.896" height="65.3792" stroke="#2DB8CF" stroke-width="0.920833"/>
<path d="M224.719 137.55V135.826H227.989V123.826H224.719V122.102H233.36V123.826H230.067V135.826H233.36V137.55H224.719ZM237.651 137.55V125.97H239.352V127.893C239.809 127.185 240.332 126.633 240.922 126.235C241.526 125.837 242.284 125.638 243.198 125.638C243.876 125.638 244.487 125.756 245.032 125.992C245.592 126.213 246.034 126.559 246.358 127.031C246.697 127.487 246.866 128.077 246.866 128.799V137.55H245.032V129.528C245.032 128.747 244.796 128.173 244.325 127.804C243.853 127.436 243.294 127.252 242.645 127.252C241.953 127.252 241.371 127.428 240.899 127.782C240.428 128.136 240.074 128.6 239.839 129.174C239.603 129.749 239.485 130.368 239.485 131.031V137.55H237.651ZM265.637 142.368H263.78V125.97H265.482V127.694C266.336 126.309 267.567 125.616 269.173 125.616C270.322 125.616 271.257 125.911 271.979 126.5C272.716 127.075 273.261 127.841 273.615 128.799C273.968 129.742 274.145 130.773 274.145 131.893C274.145 132.998 273.961 134.014 273.593 134.942C273.239 135.856 272.694 136.585 271.957 137.13C271.221 137.676 270.3 137.948 269.195 137.948C268.443 137.948 267.78 137.815 267.206 137.55C266.646 137.27 266.123 136.828 265.637 136.224V142.368ZM268.863 127.34C268.097 127.34 267.478 127.554 267.007 127.981C266.535 128.408 266.189 128.961 265.968 129.638C265.747 130.316 265.637 131.031 265.637 131.782C265.637 132.534 265.747 133.248 265.968 133.926C266.189 134.604 266.535 135.156 267.007 135.583C267.478 136.011 268.097 136.224 268.863 136.224C269.644 136.224 270.278 136.018 270.764 135.605C271.265 135.178 271.633 134.633 271.869 133.97C272.105 133.292 272.222 132.585 272.222 131.848C272.222 131.068 272.105 130.338 271.869 129.661C271.633 128.968 271.265 128.408 270.764 127.981C270.278 127.554 269.644 127.34 268.863 127.34ZM277.817 137.55V125.97H279.519V128.467C279.902 127.642 280.455 126.964 281.177 126.434C281.898 125.904 282.731 125.638 283.674 125.638C285 125.638 286.009 125.977 286.702 126.655C287.409 127.333 287.814 128.246 287.917 129.395H286.083C285.95 128.703 285.678 128.173 285.265 127.804C284.867 127.436 284.278 127.252 283.497 127.252C282.731 127.252 282.061 127.458 281.486 127.87C280.911 128.268 280.462 128.821 280.138 129.528C279.828 130.22 279.674 131.023 279.674 131.937V137.55H277.817ZM295.125 125.616C296.319 125.616 297.298 125.889 298.065 126.434C298.845 126.964 299.42 127.694 299.788 128.622C300.171 129.55 300.363 130.604 300.363 131.782C300.363 132.946 300.171 134 299.788 134.942C299.42 135.871 298.845 136.607 298.065 137.152C297.298 137.683 296.319 137.948 295.125 137.948C293.947 137.948 292.967 137.683 292.186 137.152C291.405 136.607 290.823 135.871 290.44 134.942C290.072 134 289.888 132.946 289.888 131.782C289.888 130.604 290.072 129.55 290.44 128.622C290.823 127.694 291.405 126.964 292.186 126.434C292.967 125.889 293.947 125.616 295.125 125.616ZM295.125 127.318C294.344 127.318 293.711 127.524 293.225 127.937C292.738 128.349 292.377 128.894 292.142 129.572C291.921 130.25 291.81 130.987 291.81 131.782C291.81 132.563 291.921 133.3 292.142 133.992C292.377 134.67 292.738 135.215 293.225 135.628C293.711 136.04 294.344 136.246 295.125 136.246C295.906 136.246 296.54 136.04 297.026 135.628C297.512 135.215 297.866 134.67 298.087 133.992C298.322 133.3 298.44 132.563 298.44 131.782C298.44 130.987 298.322 130.25 298.087 129.572C297.866 128.894 297.512 128.349 297.026 127.937C296.54 127.524 295.906 127.318 295.125 127.318ZM308.057 142.368C306.805 142.368 305.744 142.088 304.875 141.528C304.006 140.983 303.49 140.099 303.328 138.876H305.251C305.516 140.173 306.466 140.821 308.102 140.821C309.266 140.821 310.098 140.497 310.599 139.849C311.115 139.215 311.372 138.125 311.372 136.578V135.915C311.034 136.593 310.562 137.101 309.958 137.44C309.369 137.779 308.691 137.948 307.925 137.948C306.79 137.948 305.847 137.676 305.096 137.13C304.345 136.585 303.785 135.841 303.416 134.898C303.063 133.955 302.886 132.895 302.886 131.716C302.886 130.581 303.07 129.557 303.438 128.644C303.807 127.716 304.359 126.979 305.096 126.434C305.847 125.889 306.768 125.616 307.858 125.616C309.435 125.616 310.621 126.213 311.417 127.406V125.97H313.251V135.672C313.251 137.278 313.118 138.501 312.853 139.34C312.529 140.342 311.962 141.094 311.151 141.595C310.341 142.11 309.31 142.368 308.057 142.368ZM308.19 136.224C308.971 136.224 309.597 136.011 310.068 135.583C310.54 135.141 310.879 134.589 311.085 133.926C311.306 133.248 311.417 132.556 311.417 131.848C311.417 131.068 311.306 130.338 311.085 129.661C310.864 128.968 310.518 128.408 310.046 127.981C309.575 127.554 308.949 127.34 308.168 127.34C307.446 127.34 306.835 127.539 306.334 127.937C305.833 128.32 305.45 128.85 305.184 129.528C304.934 130.191 304.809 130.942 304.809 131.782C304.809 132.563 304.927 133.292 305.162 133.97C305.398 134.648 305.759 135.193 306.245 135.605C306.746 136.018 307.394 136.224 308.19 136.224ZM317.476 137.55V125.97H319.177V128.467C319.56 127.642 320.113 126.964 320.835 126.434C321.557 125.904 322.389 125.638 323.332 125.638C324.658 125.638 325.667 125.977 326.36 126.655C327.067 127.333 327.472 128.246 327.575 129.395H325.741C325.608 128.703 325.336 128.173 324.923 127.804C324.525 127.436 323.936 127.252 323.155 127.252C322.389 127.252 321.719 127.458 321.144 127.87C320.57 128.268 320.12 128.821 319.796 129.528C319.487 130.22 319.332 131.023 319.332 131.937V137.55H317.476ZM339.822 133.97C339.631 135.178 339.093 136.143 338.209 136.865C337.34 137.587 336.227 137.948 334.872 137.948C333.708 137.948 332.736 137.69 331.955 137.175C331.174 136.644 330.585 135.922 330.187 135.009C329.804 134.095 329.612 133.049 329.612 131.871C329.612 130.574 329.833 129.462 330.275 128.533C330.717 127.605 331.336 126.891 332.132 126.39C332.927 125.874 333.855 125.616 334.916 125.616C336.11 125.616 337.082 125.896 337.833 126.456C338.599 127.016 339.159 127.797 339.513 128.799C339.881 129.801 340.065 130.972 340.065 132.313H331.535C331.564 133.447 331.859 134.39 332.419 135.141C332.979 135.878 333.818 136.246 334.938 136.246C336.456 136.246 337.465 135.488 337.966 133.97H339.822ZM334.894 127.318C333.863 127.318 333.074 127.657 332.529 128.335C331.984 129.012 331.667 129.837 331.579 130.81H338.076C338.076 130.162 337.944 129.58 337.679 129.064C337.428 128.533 337.067 128.114 336.596 127.804C336.124 127.48 335.557 127.318 334.894 127.318ZM352.246 129.13H350.323C350.309 128.556 350.088 128.099 349.66 127.76C349.248 127.421 348.695 127.252 348.003 127.252C347.252 127.252 346.64 127.406 346.169 127.716C345.712 128.025 345.484 128.438 345.484 128.953C345.484 129.366 345.624 129.697 345.903 129.948C346.183 130.198 346.596 130.397 347.141 130.545L349.771 131.23C350.743 131.48 351.473 131.856 351.959 132.357C352.46 132.843 352.71 133.499 352.71 134.324C352.71 135.443 352.298 136.327 351.473 136.976C350.648 137.624 349.513 137.948 348.069 137.948C345.034 137.948 343.45 136.644 343.318 134.036H345.263C345.351 134.817 345.631 135.392 346.102 135.76C346.589 136.129 347.259 136.313 348.113 136.313C348.939 136.313 349.594 136.165 350.08 135.871C350.581 135.576 350.832 135.156 350.832 134.611C350.832 134.11 350.699 133.734 350.434 133.484C350.169 133.233 349.719 133.027 349.086 132.865L346.655 132.224C345.609 131.944 344.835 131.569 344.334 131.097C343.848 130.611 343.605 129.926 343.605 129.042C343.605 127.996 344.003 127.163 344.798 126.544C345.609 125.926 346.692 125.616 348.047 125.616C349.403 125.616 350.434 125.933 351.141 126.567C351.863 127.185 352.231 128.04 352.246 129.13ZM365.466 129.13H363.543C363.528 128.556 363.307 128.099 362.88 127.76C362.467 127.421 361.915 127.252 361.222 127.252C360.471 127.252 359.86 127.406 359.388 127.716C358.931 128.025 358.703 128.438 358.703 128.953C358.703 129.366 358.843 129.697 359.123 129.948C359.403 130.198 359.815 130.397 360.36 130.545L362.99 131.23C363.963 131.48 364.692 131.856 365.178 132.357C365.679 132.843 365.93 133.499 365.93 134.324C365.93 135.443 365.517 136.327 364.692 136.976C363.867 137.624 362.733 137.948 361.289 137.948C358.254 137.948 356.67 136.644 356.537 134.036H358.482C358.57 134.817 358.85 135.392 359.322 135.76C359.808 136.129 360.478 136.313 361.333 136.313C362.158 136.313 362.814 136.165 363.3 135.871C363.801 135.576 364.051 135.156 364.051 134.611C364.051 134.11 363.919 133.734 363.653 133.484C363.388 133.233 362.939 133.027 362.305 132.865L359.874 132.224C358.828 131.944 358.055 131.569 357.554 131.097C357.068 130.611 356.824 129.926 356.824 129.042C356.824 127.996 357.222 127.163 358.018 126.544C358.828 125.926 359.911 125.616 361.267 125.616C362.622 125.616 363.653 125.933 364.361 126.567C365.083 127.185 365.451 128.04 365.466 129.13Z" fill="#002024"/>
<g clip-path="url(#clip2_1179_36672)">
<path d="M435.768 139.68C433.081 139.68 430.505 138.613 428.605 136.713C426.706 134.813 425.639 132.237 425.639 129.551C425.639 126.864 426.706 124.288 428.605 122.388C430.505 120.489 433.081 119.421 435.768 119.421C438.454 119.421 441.031 120.489 442.93 122.388C444.83 124.288 445.897 126.864 445.897 129.551" stroke="#2DB8CF" stroke-width="1.84167"/>
<path d="M437.609 139.511C438.573 139.333 439.503 139.016 440.372 138.573" stroke="#2DB8CF" stroke-width="1.84167"/>
<path d="M441.754 137.722C442.169 137.418 442.563 137.081 442.931 136.713C443.347 136.297 443.722 135.849 444.056 135.375" stroke="#2DB8CF" stroke-width="1.84167"/>
<path d="M445.731 131.392C445.553 132.356 445.236 133.286 444.793 134.155" stroke="#2DB8CF" stroke-width="1.84167"/>
</g>
<path d="M45.5249 223.45V211.681H52.9174V213.074H46.9504V216.869H52.7185V218.229H46.9504V222.057H53.05V223.45H45.5249ZM57.8491 223.45V213.074H54.186V211.681H62.9376V213.074H59.2745V223.45H57.8491ZM61.9748 223.45L66.218 211.681H68.1407L72.3839 223.45H70.8259L69.649 220.102H64.7097L63.5329 223.45H61.9748ZM65.1904 218.709H69.1684L67.1794 212.925L65.1904 218.709Z" fill="#FCFCFB"/>
<rect x="95.56" y="185.26" width="297.896" height="65.3792" fill="#FCFCFB"/>
<rect x="95.56" y="185.26" width="297.896" height="65.3792" stroke="#2DB8CF" stroke-width="0.920833"/>
<path d="M125.266 225.95V222.016H118.592V220.027L125.443 210.369H127.144V220.336H129.465V222.016H127.144V225.95H125.266ZM120.205 220.336H125.266V213.176L120.205 220.336ZM139.833 217.618C141.616 218.502 142.507 219.791 142.507 221.486C142.507 222.443 142.286 223.29 141.844 224.027C141.417 224.749 140.806 225.316 140.01 225.729C139.229 226.141 138.308 226.348 137.248 226.348C136.216 226.348 135.303 226.141 134.507 225.729C133.726 225.316 133.107 224.749 132.651 224.027C132.209 223.29 131.988 222.443 131.988 221.486C131.988 219.791 132.886 218.502 134.684 217.618C133.977 217.191 133.439 216.741 133.071 216.27C132.717 215.784 132.54 215.135 132.54 214.325C132.54 213.5 132.739 212.778 133.137 212.159C133.549 211.526 134.109 211.032 134.817 210.679C135.538 210.325 136.349 210.148 137.248 210.148C138.19 210.148 139.008 210.325 139.701 210.679C140.408 211.032 140.96 211.526 141.358 212.159C141.756 212.793 141.955 213.522 141.955 214.347C141.955 215.084 141.8 215.688 141.491 216.159C141.196 216.616 140.644 217.102 139.833 217.618ZM137.248 211.784C136.334 211.784 135.634 212.034 135.148 212.535C134.662 213.036 134.419 213.64 134.419 214.347C134.419 215.025 134.654 215.614 135.126 216.115C135.597 216.601 136.305 216.845 137.248 216.845C138.073 216.845 138.75 216.624 139.281 216.182C139.811 215.725 140.076 215.128 140.076 214.391C140.076 213.596 139.819 212.962 139.303 212.491C138.802 212.019 138.117 211.784 137.248 211.784ZM137.248 218.48C136.643 218.48 136.084 218.605 135.568 218.856C135.052 219.091 134.64 219.438 134.33 219.894C134.021 220.351 133.866 220.911 133.866 221.574C133.866 222.207 134.014 222.76 134.308 223.231C134.603 223.703 135.001 224.071 135.502 224.336C136.017 224.587 136.585 224.712 137.203 224.712C138.22 224.712 139.045 224.425 139.679 223.85C140.312 223.261 140.629 222.495 140.629 221.552C140.629 220.874 140.474 220.314 140.165 219.872C139.855 219.415 139.443 219.069 138.927 218.834C138.411 218.598 137.852 218.48 137.248 218.48ZM145.87 225.95V209.839H147.704V216.093C148.117 215.489 148.611 214.995 149.185 214.612C149.76 214.229 150.504 214.038 151.417 214.038C152.095 214.038 152.706 214.156 153.252 214.391C153.811 214.612 154.253 214.959 154.578 215.43C154.916 215.887 155.086 216.476 155.086 217.198V225.95H153.252V217.927C153.252 217.147 153.016 216.572 152.544 216.204C152.073 215.835 151.513 215.651 150.865 215.651C150.172 215.651 149.59 215.828 149.119 216.182C148.647 216.535 148.294 216.999 148.058 217.574C147.822 218.148 147.704 218.767 147.704 219.43V225.95H145.87Z" fill="#002024"/>
<g clip-path="url(#clip3_1179_36672)">
<path d="M360.766 211.504V217.95H365.37" stroke="#2DB8CF" stroke-width="1.84167"/>
<path d="M350.637 217.95C350.637 220.637 351.704 223.213 353.603 225.113C355.503 227.012 358.079 228.079 360.766 228.079C363.452 228.079 366.029 227.012 367.928 225.113C369.828 223.213 370.895 220.637 370.895 217.95C370.895 215.264 369.828 212.687 367.928 210.788C366.029 208.888 363.452 207.821 360.766 207.821C358.079 207.821 355.503 208.888 353.603 210.788C351.704 212.687 350.637 215.264 350.637 217.95Z" stroke="#2DB8CF" stroke-width="1.84167"/>
</g>
</g>
<defs>
<filter id="filter0_f_1179_36672" x="80" y="-44" width="473" height="382" filterUnits="userSpaceOnUse" color-interpolation-filters="sRGB">
<feFlood flood-opacity="0" result="BackgroundImageFix"/>
<feBlend mode="normal" in="SourceGraphic" in2="BackgroundImageFix" result="shape"/>
<feGaussianBlur stdDeviation="60" result="effect1_foregroundBlur_1179_36672"/>
</filter>
<radialGradient id="paint0_radial_1179_36672" cx="0" cy="0" r="1" gradientUnits="userSpaceOnUse" gradientTransform="translate(316.5 147) rotate(90) scale(71 116.5)">
<stop stop-color="#2DB8CF"/>
<stop offset="1" stop-color="#2DB8CF" stop-opacity="0"/>
</radialGradient>
<clipPath id="clip0_1179_36672">
<rect width="512" height="260" fill="white"/>
</clipPath>
<clipPath id="clip1_1179_36672">
<rect width="22.1" height="22.1" fill="white" transform="translate(349.717 30.1001)"/>
</clipPath>
<clipPath id="clip2_1179_36672">
<rect width="22.1" height="22.1" fill="white" transform="translate(424.717 118.5)"/>
</clipPath>
<clipPath id="clip3_1179_36672">
<rect width="22.1" height="22.1" fill="white" transform="translate(349.717 206.9)"/>
</clipPath>
</defs>
</svg>
