<svg width="512" height="260" viewBox="0 0 512 260" fill="none" xmlns="http://www.w3.org/2000/svg">
<g clip-path="url(#clip0_1179_35934)">
<g opacity="0.2">
<rect x="511" y="39" width="110.56" height="110.5" transform="rotate(90 511 39)" stroke="#002024"/>
<rect x="511" y="149.561" width="110.56" height="110.5" transform="rotate(90 511 149.561)" stroke="#002024"/>
<rect x="400.502" y="149.561" width="110.56" height="110.5" transform="rotate(90 400.502 149.561)" stroke="#002024"/>
<rect x="400.502" y="39" width="110.56" height="110.5" transform="rotate(90 400.502 39)" stroke="#002024"/>
<rect x="290.002" y="149.561" width="110.56" height="110.5" transform="rotate(90 290.002 149.561)" stroke="#002024"/>
</g>
<g filter="url(#filter0_f_1179_35934)" style="mix-blend-mode:plus-darker">
<ellipse cx="271" cy="366" rx="186" ry="187" fill="url(#paint0_radial_1179_35934)"/>
</g>
<rect x="0.460417" y="0.460417" width="412.533" height="65.3792" fill="#FCFCFB"/>
<rect x="0.460417" y="0.460417" width="412.533" height="65.3792" stroke="#2DB8CF" stroke-width="0.920833"/>
<g clip-path="url(#clip1_1179_35934)">
<path d="M41.4363 32.229H24.8613V43.279H41.4363V32.229Z" stroke="#2DB8CF" stroke-width="1.84167"/>
<path d="M28.5449 32.2289V27.6248C28.5449 25.082 30.6063 23.0206 33.1491 23.0206C35.6919 23.0206 37.7533 25.082 37.7533 27.6248V32.2289" stroke="#2DB8CF" stroke-width="1.84167"/>
<path d="M33.1484 35.9124V39.5957" stroke="#2DB8CF" stroke-width="1.84167"/>
</g>
<path d="M72.9746 30.1663H70.9856C70.9561 29.2823 70.6762 28.553 70.1458 27.9784C69.6154 27.3891 68.8124 27.0944 67.7369 27.0944C66.6761 27.0944 65.8658 27.3301 65.3059 27.8016C64.7608 28.2731 64.4882 28.855 64.4882 29.5475C64.4882 30.7851 65.188 31.566 66.5877 31.8901L69.748 32.6194C70.9561 32.8993 71.8696 33.4076 72.4884 34.1443C73.1072 34.881 73.4166 35.7502 73.4166 36.7521C73.4166 37.7687 73.1809 38.638 72.7094 39.3599C72.2527 40.0671 71.6118 40.6122 70.7867 40.9953C69.9764 41.3636 69.0261 41.5478 67.9358 41.5478C66.0205 41.5478 64.5545 41.0763 63.5379 40.1334C62.536 39.1757 62.0204 37.8718 61.9909 36.2217H63.9799C63.9946 37.253 64.3409 38.0928 65.0186 38.7411C65.6963 39.3894 66.6835 39.7135 67.98 39.7135C69.1439 39.7135 69.9911 39.463 70.5215 38.9621C71.0666 38.4612 71.3392 37.8203 71.3392 37.0394C71.3392 36.3469 71.1477 35.8018 70.7646 35.404C70.3963 35.0062 69.829 34.7189 69.0629 34.5421L65.8584 33.7907C64.7387 33.5255 63.8841 33.054 63.2948 32.3763C62.7055 31.6838 62.4108 30.8072 62.4108 29.7464C62.4108 28.8771 62.6318 28.1184 63.0738 27.4701C63.5158 26.8071 64.1346 26.2914 64.9302 25.9231C65.7405 25.54 66.6982 25.3485 67.8032 25.3485C68.8787 25.3485 69.7996 25.5474 70.5657 25.9452C71.3466 26.343 71.9433 26.8881 72.3558 27.5806C72.7683 28.2583 72.9746 29.0245 72.9746 29.879V30.1663ZM85.8625 37.5698C85.671 38.7779 85.1332 39.743 84.2492 40.4649C83.3799 41.1868 82.2676 41.5478 80.9121 41.5478C79.7482 41.5478 78.7758 41.29 77.9949 40.7743C77.214 40.2439 76.6247 39.522 76.2269 38.6085C75.8438 37.695 75.6523 36.649 75.6523 35.4703C75.6523 34.1738 75.8733 33.0614 76.3153 32.1332C76.7573 31.205 77.3761 30.4904 78.1717 29.9895C78.9673 29.4738 79.8955 29.216 80.9563 29.216C82.1497 29.216 83.1221 29.4959 83.8735 30.0558C84.6396 30.6157 85.1995 31.3965 85.5531 32.3984C85.9214 33.4003 86.1056 34.5716 86.1056 35.9123H77.575C77.6045 37.0468 77.8991 37.9897 78.459 38.7411C79.0189 39.4778 79.8587 39.8461 80.9784 39.8461C82.4959 39.8461 83.5052 39.0873 84.0061 37.5698H85.8625ZM80.9342 30.9177C79.9029 30.9177 79.1146 31.2566 78.5695 31.9343C78.0244 32.612 77.7076 33.4371 77.6192 34.4095H84.1166C84.1166 33.7612 83.984 33.1793 83.7188 32.6636C83.4683 32.1332 83.1074 31.7133 82.6359 31.4039C82.1644 31.0798 81.5972 30.9177 80.9342 30.9177ZM98.9935 33.3929H97.1371C97.034 32.6268 96.7393 32.0227 96.2531 31.5807C95.7669 31.1387 95.1187 30.9177 94.3083 30.9177C93.5127 30.9177 92.8718 31.1387 92.3856 31.5807C91.8994 32.0227 91.5458 32.5973 91.3248 33.3045C91.1038 33.997 90.9933 34.7263 90.9933 35.4924C90.9933 36.2585 91.1112 36.9731 91.3469 37.6361C91.5827 38.2991 91.951 38.8369 92.4519 39.2494C92.9529 39.6472 93.5864 39.8461 94.3525 39.8461C95.9879 39.8461 96.9603 38.9326 97.2697 37.1057H99.1261C99.0083 38.4906 98.5294 39.5809 97.6896 40.3765C96.8646 41.1574 95.7375 41.5478 94.3083 41.5478C93.1886 41.5478 92.2383 41.2826 91.4574 40.7522C90.6766 40.2071 90.0799 39.4778 89.6673 38.5643C89.2695 37.6508 89.0706 36.6269 89.0706 35.4924C89.0706 34.3285 89.2695 33.275 89.6673 32.3321C90.0651 31.3892 90.6545 30.6378 91.4353 30.0779C92.2162 29.5033 93.1812 29.216 94.3304 29.216C95.7448 29.216 96.8646 29.6064 97.6896 30.3873C98.5294 31.1682 98.9641 32.17 98.9935 33.3929ZM111.881 29.5696V41.15H110.224V39.4262C109.694 40.1923 109.126 40.7375 108.522 41.0616C107.933 41.3857 107.211 41.5478 106.356 41.5478C105.34 41.5478 104.507 41.3194 103.859 40.8627C103.064 40.2881 102.666 39.463 102.666 38.3875V29.5696H104.5V37.6582C104.5 38.4391 104.758 39.0284 105.274 39.4262C105.701 39.7651 106.239 39.9345 106.887 39.9345C107.756 39.9345 108.485 39.6177 109.075 38.9842C109.723 38.2917 110.047 37.2972 110.047 36.0007V29.5696H111.881ZM116.393 41.15V29.5696H118.095V32.0669C118.478 31.2418 119.031 30.5641 119.753 30.0337C120.475 29.5033 121.307 29.2381 122.25 29.2381C123.576 29.2381 124.585 29.577 125.278 30.2547C125.985 30.9324 126.39 31.8459 126.493 32.9951H124.659C124.526 32.3026 124.254 31.7722 123.841 31.4039C123.443 31.0356 122.854 30.8514 122.073 30.8514C121.307 30.8514 120.637 31.0577 120.062 31.4702C119.487 31.868 119.038 32.4205 118.714 33.1277C118.405 33.8202 118.25 34.6231 118.25 35.5366V41.15H116.393ZM132.795 27.9121V25.7021H135.005V27.9121H132.795ZM134.806 29.5696V39.6472H138.365V41.15H129.016V39.6472H132.994V31.0724H129.016V29.5696H134.806ZM147.009 29.5696H151.562V31.0724H147.009V37.5256C147.009 38.3801 147.23 38.9768 147.672 39.3157C148.114 39.6398 148.755 39.8019 149.595 39.8019C149.978 39.8019 150.332 39.7872 150.656 39.7577C150.98 39.7135 151.282 39.6546 151.562 39.5809V41.1942C151.194 41.2973 150.833 41.3636 150.479 41.3931C150.125 41.4373 149.794 41.4594 149.484 41.4594C148.085 41.4594 147.017 41.1721 146.28 40.5975C145.543 40.0229 145.175 39.1094 145.175 37.8571V31.0724H141.838V29.5696H145.175V26.3872H147.009V29.5696ZM160.229 43.581C159.934 44.3766 159.514 44.9733 158.969 45.3711C158.424 45.7689 157.79 45.9678 157.068 45.9678C156.509 45.9678 156.008 45.8941 155.566 45.7468V44.023C155.816 44.0819 156.037 44.1188 156.229 44.1335C156.435 44.1482 156.634 44.1556 156.825 44.1556C157.253 44.1556 157.591 44.0672 157.842 43.8904C158.092 43.7283 158.299 43.441 158.461 43.0285L159.168 41.3268L154.88 29.5696H156.825L160.207 38.9621L163.544 29.5696H165.444L160.229 43.581Z" fill="#002024"/>
<g clip-path="url(#clip2_1179_35934)">
<path fill-rule="evenodd" clip-rule="evenodd" d="M391.196 27.466L377.002 41.6597L369.254 33.9119L371.858 31.3077L377.002 36.4515L388.591 24.8619L391.196 27.466Z" fill="#002024"/>
</g>
<rect x="0.460417" y="74.1271" width="412.533" height="65.3792" fill="#FCFCFB"/>
<rect x="0.460417" y="74.1271" width="412.533" height="65.3792" stroke="#2DB8CF" stroke-width="0.920833"/>
<g clip-path="url(#clip3_1179_35934)">
<path d="M27.6238 110.117L31.618 103.27M38.6738 110.117L34.6796 103.27M29.1648 112.796H37.122M36.1864 100.646C36.1864 102.323 34.8264 103.683 33.1488 103.683C31.4712 103.683 30.1112 102.323 30.1112 100.646C30.1112 98.9681 31.4712 97.6081 33.1488 97.6081C34.8264 97.6081 36.1864 98.9681 36.1864 100.646ZM38.6451 115.426C37.1922 114.588 36.6945 112.73 37.5333 111.277C38.3721 109.824 40.2298 109.326 41.6826 110.165C43.1355 111.004 43.6333 112.862 42.7945 114.315C41.9557 115.768 40.098 116.265 38.6451 115.426ZM27.6526 115.427C26.1997 116.266 24.342 115.768 23.5032 114.315C22.6644 112.862 23.1622 111.004 24.615 110.166C26.0679 109.327 27.9256 109.825 28.7644 111.277C29.6032 112.73 29.1054 114.588 27.6526 115.427Z" stroke="#2DB8CF" stroke-width="1.84167"/>
</g>
<path d="M62.7865 114.817V99.3688H68.422C69.3502 99.3688 70.19 99.5456 70.9414 99.8992C71.6928 100.238 72.2895 100.754 72.7315 101.446C73.1735 102.124 73.3945 102.971 73.3945 103.988C73.3945 105.004 73.1735 105.859 72.7315 106.551C72.2895 107.229 71.6928 107.745 70.9414 108.098C70.19 108.437 69.3502 108.607 68.422 108.607H64.7976V114.817H62.7865ZM64.7976 106.861H68.1568C69.1439 106.861 69.9101 106.603 70.4552 106.087C71.0151 105.572 71.295 104.872 71.295 103.988C71.295 103.104 71.0151 102.404 70.4552 101.888C69.9101 101.373 69.1439 101.115 68.1568 101.115H64.7976V106.861ZM83.8735 114.817V107.811H77.796V114.817H75.7407V99.3688H77.796V105.999H83.8735V99.3688H85.9288V114.817H83.8735ZM89.2253 114.817V99.3688H94.8608C95.789 99.3688 96.6288 99.5456 97.3802 99.8992C98.1316 100.238 98.7283 100.754 99.1703 101.446C99.6123 102.124 99.8333 102.971 99.8333 103.988C99.8333 105.004 99.6123 105.859 99.1703 106.551C98.7283 107.229 98.1316 107.745 97.3802 108.098C96.6288 108.437 95.789 108.607 94.8608 108.607H91.2364V114.817H89.2253ZM91.2364 106.861H94.5956C95.5828 106.861 96.3489 106.603 96.894 106.087C97.4539 105.572 97.7338 104.872 97.7338 103.988C97.7338 103.104 97.4539 102.404 96.894 101.888C96.3489 101.373 95.5828 101.115 94.5956 101.115H91.2364V106.861ZM126.361 103.678H124.261C124.04 102.838 123.694 102.153 123.222 101.623C122.751 101.093 122.022 100.827 121.034 100.827C120.062 100.827 119.274 101.093 118.67 101.623C118.08 102.153 117.653 102.897 117.388 103.855C117.123 104.798 116.99 105.888 116.99 107.126C116.99 109.218 117.336 110.787 118.029 111.833C118.721 112.879 119.723 113.402 121.034 113.402C122.066 113.402 122.832 113.078 123.333 112.43C123.834 111.782 124.195 110.831 124.416 109.579H126.515C126.309 111.45 125.72 112.857 124.747 113.8C123.775 114.743 122.53 115.214 121.012 115.214C119.672 115.214 118.545 114.89 117.631 114.242C116.718 113.579 116.025 112.644 115.554 111.435C115.082 110.227 114.846 108.798 114.846 107.148C114.846 106.043 114.957 104.997 115.178 104.01C115.414 103.023 115.775 102.161 116.261 101.424C116.747 100.673 117.388 100.083 118.184 99.6561C118.979 99.2288 119.952 99.0152 121.101 99.0152C122.132 99.0152 123.009 99.2214 123.731 99.634C124.453 100.047 125.035 100.606 125.477 101.314C125.919 102.006 126.213 102.794 126.361 103.678ZM133.701 102.883C134.895 102.883 135.875 103.155 136.641 103.7C137.422 104.231 137.996 104.96 138.365 105.888C138.748 106.816 138.939 107.87 138.939 109.049C138.939 110.213 138.748 111.266 138.365 112.209C137.996 113.137 137.422 113.874 136.641 114.419C135.875 114.949 134.895 115.214 133.701 115.214C132.523 115.214 131.543 114.949 130.762 114.419C129.981 113.874 129.399 113.137 129.016 112.209C128.648 111.266 128.464 110.213 128.464 109.049C128.464 107.87 128.648 106.816 129.016 105.888C129.399 104.96 129.981 104.231 130.762 103.7C131.543 103.155 132.523 102.883 133.701 102.883ZM133.701 104.584C132.921 104.584 132.287 104.791 131.801 105.203C131.315 105.616 130.954 106.161 130.718 106.839C130.497 107.516 130.386 108.253 130.386 109.049C130.386 109.829 130.497 110.566 130.718 111.259C130.954 111.936 131.315 112.481 131.801 112.894C132.287 113.307 132.921 113.513 133.701 113.513C134.482 113.513 135.116 113.307 135.602 112.894C136.088 112.481 136.442 111.936 136.663 111.259C136.899 110.566 137.016 109.829 137.016 109.049C137.016 108.253 136.899 107.516 136.663 106.839C136.442 106.161 136.088 105.616 135.602 105.203C135.116 104.791 134.482 104.584 133.701 104.584ZM140.954 114.817V103.236H142.678V104.43C142.928 104.061 143.274 103.73 143.716 103.435C144.173 103.126 144.711 102.971 145.33 102.971C145.89 102.971 146.376 103.111 146.788 103.391C147.216 103.656 147.518 104.032 147.694 104.518C147.93 104.135 148.276 103.781 148.733 103.457C149.19 103.133 149.742 102.971 150.391 102.971C151.112 102.971 151.709 103.192 152.181 103.634C152.652 104.061 152.888 104.643 152.888 105.38V114.817H151.076V105.756C151.076 105.343 150.958 105.034 150.722 104.827C150.486 104.621 150.177 104.518 149.794 104.518C149.175 104.518 148.689 104.695 148.335 105.048C147.996 105.387 147.827 105.859 147.827 106.463V114.817H146.015V105.756C146.015 105.343 145.897 105.034 145.661 104.827C145.425 104.621 145.116 104.518 144.733 104.518C144.114 104.518 143.628 104.695 143.274 105.048C142.935 105.387 142.766 105.859 142.766 106.463V114.817H140.954ZM157.09 119.634H155.234V103.236H156.936V104.96C157.79 103.575 159.021 102.883 160.626 102.883C161.776 102.883 162.711 103.177 163.433 103.767C164.17 104.341 164.715 105.107 165.069 106.065C165.422 107.008 165.599 108.039 165.599 109.159C165.599 110.264 165.415 111.281 165.046 112.209C164.693 113.122 164.148 113.852 163.411 114.397C162.674 114.942 161.754 115.214 160.649 115.214C159.897 115.214 159.234 115.082 158.66 114.817C158.1 114.537 157.577 114.095 157.09 113.491V119.634ZM160.317 104.606C159.551 104.606 158.932 104.82 158.461 105.247C157.989 105.675 157.643 106.227 157.422 106.905C157.201 107.583 157.09 108.297 157.09 109.049C157.09 109.8 157.201 110.515 157.422 111.192C157.643 111.87 157.989 112.423 158.461 112.85C158.932 113.277 159.551 113.491 160.317 113.491C161.098 113.491 161.731 113.284 162.218 112.872C162.719 112.445 163.087 111.899 163.323 111.236C163.558 110.559 163.676 109.852 163.676 109.115C163.676 108.334 163.558 107.605 163.323 106.927C163.087 106.235 162.719 105.675 162.218 105.247C161.731 104.82 161.098 104.606 160.317 104.606ZM179.106 113.601V114.993C178.649 115.126 178.281 115.192 178.001 115.192C176.763 115.192 176.078 114.61 175.945 113.446C175.297 114.08 174.664 114.537 174.045 114.817C173.426 115.082 172.748 115.214 172.012 115.214C170.892 115.214 169.978 114.92 169.271 114.33C168.579 113.726 168.232 112.887 168.232 111.811C168.232 111.015 168.402 110.382 168.741 109.91C169.08 109.424 169.492 109.063 169.978 108.828C170.479 108.577 170.951 108.415 171.393 108.341C171.599 108.312 171.916 108.268 172.343 108.209C172.77 108.135 173.308 108.054 173.956 107.966C174.693 107.863 175.201 107.723 175.481 107.546C175.776 107.369 175.923 107.096 175.923 106.728V106.33C175.923 105.181 175.039 104.606 173.271 104.606C172.417 104.606 171.768 104.776 171.326 105.115C170.899 105.439 170.649 105.955 170.575 106.662H168.719C168.748 105.321 169.183 104.363 170.023 103.789C170.877 103.199 171.989 102.905 173.36 102.905C174.789 102.905 175.872 103.177 176.608 103.722C177.345 104.253 177.713 105.034 177.713 106.065V112.739C177.713 113.343 178.045 113.645 178.708 113.645C178.826 113.645 178.958 113.631 179.106 113.601ZM175.923 110.794V108.96C175.54 109.137 175.061 109.277 174.487 109.38C173.927 109.483 173.404 109.564 172.918 109.623C172.063 109.726 171.378 109.925 170.862 110.22C170.361 110.515 170.111 111.03 170.111 111.767C170.111 112.341 170.317 112.791 170.73 113.115C171.157 113.439 171.739 113.601 172.476 113.601C173.021 113.601 173.551 113.483 174.067 113.248C174.597 112.997 175.039 112.658 175.393 112.231C175.746 111.804 175.923 111.325 175.923 110.794ZM186.668 103.236H191.22V104.739H186.668V111.192C186.668 112.047 186.889 112.644 187.331 112.982C187.773 113.307 188.413 113.469 189.253 113.469C189.636 113.469 189.99 113.454 190.314 113.424C190.638 113.38 190.94 113.321 191.22 113.248V114.861C190.852 114.964 190.491 115.03 190.137 115.06C189.784 115.104 189.452 115.126 189.143 115.126C187.743 115.126 186.675 114.839 185.938 114.264C185.202 113.69 184.833 112.776 184.833 111.524V104.739H181.496V103.236H184.833V100.054H186.668V103.236ZM198.892 101.579V99.3688H201.102V101.579H198.892ZM200.904 103.236V113.314H204.462V114.817H195.113V113.314H199.091V104.739H195.113V103.236H200.904ZM208.112 114.817V98.7058H209.946V104.783C210.786 103.516 211.979 102.883 213.526 102.883C214.661 102.883 215.589 103.155 216.311 103.7C217.048 104.231 217.593 104.953 217.946 105.866C218.3 106.78 218.477 107.796 218.477 108.916C218.477 110.095 218.285 111.163 217.902 112.12C217.519 113.078 216.952 113.837 216.2 114.397C215.464 114.942 214.543 115.214 213.438 115.214C211.861 115.214 210.639 114.551 209.769 113.225V114.817H208.112ZM213.195 104.606C212.414 104.606 211.78 104.827 211.294 105.269C210.823 105.711 210.476 106.279 210.255 106.971C210.049 107.649 209.946 108.363 209.946 109.115C209.946 109.837 210.049 110.537 210.255 111.214C210.476 111.877 210.823 112.423 211.294 112.85C211.78 113.277 212.414 113.491 213.195 113.491C213.976 113.491 214.609 113.284 215.095 112.872C215.596 112.459 215.965 111.922 216.2 111.259C216.451 110.581 216.576 109.866 216.576 109.115C216.576 108.305 216.451 107.561 216.2 106.883C215.965 106.205 215.596 105.66 215.095 105.247C214.594 104.82 213.961 104.606 213.195 104.606ZM225.331 101.579V99.3688H227.541V101.579H225.331ZM227.342 103.236V113.314H230.9V114.817H221.552V113.314H225.53V104.739H221.552V103.236H227.342ZM241.004 98.7058V113.314H244.562V114.817H235.214V113.314H239.214V100.209H235.214V98.7058H241.004ZM251.77 101.579V99.3688H253.98V101.579H251.77ZM253.781 103.236V113.314H257.339V114.817H247.991V113.314H251.969V104.739H247.991V103.236H253.781ZM265.984 103.236H270.537V104.739H265.984V111.192C265.984 112.047 266.205 112.644 266.647 112.982C267.089 113.307 267.73 113.469 268.57 113.469C268.953 113.469 269.306 113.454 269.631 113.424C269.955 113.38 270.257 113.321 270.537 113.248V114.861C270.168 114.964 269.807 115.03 269.454 115.06C269.1 115.104 268.769 115.126 268.459 115.126C267.06 115.126 265.991 114.839 265.255 114.264C264.518 113.69 264.15 112.776 264.15 111.524V104.739H260.813V103.236H264.15V100.054H265.984V103.236ZM279.203 117.248C278.909 118.043 278.489 118.64 277.944 119.038C277.399 119.436 276.765 119.634 276.043 119.634C275.483 119.634 274.982 119.561 274.54 119.413V117.69C274.791 117.749 275.012 117.785 275.203 117.8C275.41 117.815 275.609 117.822 275.8 117.822C276.227 117.822 276.566 117.734 276.817 117.557C277.067 117.395 277.273 117.108 277.435 116.695L278.143 114.993L273.855 103.236H275.8L279.181 112.629L282.518 103.236H284.419L279.203 117.248Z" fill="#002024"/>
<g clip-path="url(#clip4_1179_35934)">
<path fill-rule="evenodd" clip-rule="evenodd" d="M391.196 101.133L377.002 115.326L369.254 107.578L371.858 104.974L377.002 110.118L388.591 98.5284L391.196 101.133Z" fill="#002024"/>
</g>
<rect x="0.460417" y="147.794" width="412.533" height="65.3792" fill="#FCFCFB"/>
<rect x="0.460417" y="147.794" width="412.533" height="65.3792" stroke="#2DB8CF" stroke-width="0.920833"/>
<path d="M23.9414 182.325H31.3081V189.692H23.9414V182.325Z" stroke="#2DB8CF" stroke-width="1.84167"/>
<path d="M34.9902 182.325H42.3569V189.692H34.9902V182.325Z" stroke="#2DB8CF" stroke-width="1.84167"/>
<path d="M29.4668 171.275H36.8335V178.642H29.4668V171.275Z" stroke="#2DB8CF" stroke-width="1.84167"/>
<path d="M66.7645 184.063L63.9357 176.262V188.483H62.1898V173.035H64.4882L67.6264 181.92L70.7646 173.035H73.0188V188.483H71.2729V176.24L68.4883 184.063H66.7645ZM80.8237 176.549C82.0171 176.549 82.9969 176.822 83.763 177.367C84.5439 177.897 85.1185 178.627 85.4868 179.555C85.8699 180.483 86.0614 181.537 86.0614 182.715C86.0614 183.879 85.8699 184.933 85.4868 185.876C85.1185 186.804 84.5439 187.54 83.763 188.086C82.9969 188.616 82.0171 188.881 80.8237 188.881C79.645 188.881 78.6653 188.616 77.8844 188.086C77.1035 187.54 76.5216 186.804 76.1385 185.876C75.7702 184.933 75.586 183.879 75.586 182.715C75.586 181.537 75.7702 180.483 76.1385 179.555C76.5216 178.627 77.1035 177.897 77.8844 177.367C78.6653 176.822 79.645 176.549 80.8237 176.549ZM80.8237 178.251C80.0428 178.251 79.4093 178.457 78.9231 178.87C78.4369 179.282 78.0759 179.828 77.8402 180.505C77.6192 181.183 77.5087 181.92 77.5087 182.715C77.5087 183.496 77.6192 184.233 77.8402 184.925C78.0759 185.603 78.4369 186.148 78.9231 186.561C79.4093 186.973 80.0428 187.179 80.8237 187.179C81.6046 187.179 82.2381 186.973 82.7243 186.561C83.2105 186.148 83.5641 185.603 83.7851 184.925C84.0208 184.233 84.1387 183.496 84.1387 182.715C84.1387 181.92 84.0208 181.183 83.7851 180.505C83.5641 179.828 83.2105 179.282 82.7243 178.87C82.2381 178.457 81.6046 178.251 80.8237 178.251ZM97.115 172.372H98.9493V188.483H97.3139V186.848C96.3857 188.203 95.1555 188.881 93.6232 188.881C92.4888 188.881 91.5458 188.609 90.7944 188.063C90.043 187.504 89.4832 186.745 89.1148 185.787C88.7612 184.829 88.5844 183.761 88.5844 182.583C88.5844 181.463 88.7686 180.454 89.1369 179.555C89.5053 178.641 90.0578 177.912 90.7944 177.367C91.5458 176.822 92.4667 176.549 93.5569 176.549C95.1334 176.549 96.3194 177.146 97.115 178.339V172.372ZM93.8663 178.273C93.1444 178.273 92.533 178.472 92.032 178.87C91.5311 179.253 91.148 179.783 90.8828 180.461C90.6324 181.124 90.5071 181.875 90.5071 182.715C90.5071 183.496 90.625 184.225 90.8607 184.903C91.0965 185.581 91.4574 186.126 91.9436 186.539C92.4446 186.951 93.0928 187.157 93.8884 187.157C94.6693 187.157 95.2955 186.944 95.7669 186.516C96.2384 186.074 96.5773 185.522 96.7835 184.859C97.0045 184.181 97.115 183.489 97.115 182.782C97.115 182.001 97.0045 181.271 96.7835 180.594C96.5625 179.901 96.2163 179.341 95.7448 178.914C95.2734 178.487 94.6472 178.273 93.8663 178.273ZM111.881 176.903V188.483H110.224V186.76C109.694 187.526 109.126 188.071 108.522 188.395C107.933 188.719 107.211 188.881 106.356 188.881C105.34 188.881 104.507 188.653 103.859 188.196C103.064 187.621 102.666 186.796 102.666 185.721V176.903H104.5V184.992C104.5 185.772 104.758 186.362 105.274 186.76C105.701 187.098 106.239 187.268 106.887 187.268C107.756 187.268 108.485 186.951 109.075 186.318C109.723 185.625 110.047 184.631 110.047 183.334V176.903H111.881ZM122.029 172.372V186.981H125.587V188.483H116.239V186.981H120.239V173.875H116.239V172.372H122.029ZM138.74 184.903C138.549 186.111 138.011 187.076 137.127 187.798C136.258 188.52 135.145 188.881 133.79 188.881C132.626 188.881 131.653 188.623 130.873 188.108C130.092 187.577 129.502 186.855 129.105 185.942C128.722 185.028 128.53 183.982 128.53 182.804C128.53 181.507 128.751 180.395 129.193 179.467C129.635 178.538 130.254 177.824 131.049 177.323C131.845 176.807 132.773 176.549 133.834 176.549C135.027 176.549 136 176.829 136.751 177.389C137.517 177.949 138.077 178.73 138.431 179.732C138.799 180.734 138.983 181.905 138.983 183.246H130.453C130.482 184.38 130.777 185.323 131.337 186.074C131.897 186.811 132.736 187.179 133.856 187.179C135.374 187.179 136.383 186.421 136.884 184.903H138.74ZM133.812 178.251C132.781 178.251 131.992 178.59 131.447 179.268C130.902 179.945 130.585 180.77 130.497 181.743H136.994C136.994 181.095 136.862 180.513 136.597 179.997C136.346 179.467 135.985 179.047 135.514 178.737C135.042 178.413 134.475 178.251 133.812 178.251ZM151.164 180.063H149.241C149.227 179.489 149.006 179.032 148.578 178.693C148.166 178.354 147.613 178.185 146.921 178.185C146.169 178.185 145.558 178.339 145.087 178.649C144.63 178.958 144.401 179.371 144.401 179.886C144.401 180.299 144.541 180.63 144.821 180.881C145.101 181.131 145.514 181.33 146.059 181.478L148.689 182.163C149.661 182.413 150.391 182.789 150.877 183.29C151.378 183.776 151.628 184.432 151.628 185.257C151.628 186.376 151.216 187.26 150.391 187.909C149.565 188.557 148.431 188.881 146.987 188.881C143.952 188.881 142.368 187.577 142.236 184.969H144.18C144.269 185.75 144.549 186.325 145.02 186.693C145.506 187.062 146.177 187.246 147.031 187.246C147.856 187.246 148.512 187.098 148.998 186.804C149.499 186.509 149.75 186.089 149.75 185.544C149.75 185.043 149.617 184.667 149.352 184.417C149.087 184.166 148.637 183.96 148.004 183.798L145.573 183.157C144.527 182.877 143.753 182.502 143.252 182.03C142.766 181.544 142.523 180.859 142.523 179.975C142.523 178.929 142.921 178.096 143.716 177.478C144.527 176.859 145.61 176.549 146.965 176.549C148.321 176.549 149.352 176.866 150.059 177.5C150.781 178.118 151.149 178.973 151.164 180.063Z" fill="#002024"/>
<g clip-path="url(#clip5_1179_35934)">
<path fill-rule="evenodd" clip-rule="evenodd" d="M391.196 174.8L377.002 188.993L369.254 181.245L371.858 178.641L377.002 183.785L388.591 172.195L391.196 174.8Z" fill="#002024"/>
</g>
</g>
<defs>
<filter id="filter0_f_1179_35934" x="-59.1779" y="34.8221" width="660.356" height="662.356" filterUnits="userSpaceOnUse" color-interpolation-filters="sRGB">
<feFlood flood-opacity="0" result="BackgroundImageFix"/>
<feBlend mode="normal" in="SourceGraphic" in2="BackgroundImageFix" result="shape"/>
<feGaussianBlur stdDeviation="72.0889" result="effect1_foregroundBlur_1179_35934"/>
</filter>
<radialGradient id="paint0_radial_1179_35934" cx="0" cy="0" r="1" gradientUnits="userSpaceOnUse" gradientTransform="translate(271 366) rotate(90) scale(187 186)">
<stop stop-color="#2DB8CF"/>
<stop offset="1" stop-color="#2DB8CF" stop-opacity="0"/>
</radialGradient>
<clipPath id="clip0_1179_35934">
<rect width="512" height="260" fill="white"/>
</clipPath>
<clipPath id="clip1_1179_35934">
<rect width="22.1" height="22.1" fill="white" transform="translate(22.0996 22.1)"/>
</clipPath>
<clipPath id="clip2_1179_35934">
<rect width="22.1" height="22.1" fill="white" transform="translate(369.254 22.1)"/>
</clipPath>
<clipPath id="clip3_1179_35934">
<rect width="22.1" height="22.1" fill="white" transform="translate(22.0996 95.7667)"/>
</clipPath>
<clipPath id="clip4_1179_35934">
<rect width="22.1" height="22.1" fill="white" transform="translate(369.254 95.7667)"/>
</clipPath>
<clipPath id="clip5_1179_35934">
<rect width="22.1" height="22.1" fill="white" transform="translate(369.254 169.433)"/>
</clipPath>
</defs>
</svg>
