<svg width="512" height="260" viewBox="0 0 512 260" fill="none" xmlns="http://www.w3.org/2000/svg">
<g clip-path="url(#clip0_1179_35971)">
<g filter="url(#filter0_f_1179_35971)" style="mix-blend-mode:plus-darker">
<ellipse cx="255.889" cy="351.335" rx="302.033" ry="304.335" fill="url(#paint0_radial_1179_35971)"/>
</g>
<g clip-path="url(#clip1_1179_35971)">
<mask id="path-4-inside-1_1179_35971" fill="white">
<path d="M0 0H512V60.775H0V0Z"/>
</mask>
<path d="M512 60.775V59.8542H0V60.775V61.6958H512V60.775Z" fill="#2DB8CF" mask="url(#path-4-inside-1_1179_35971)"/>
<circle cx="37.7543" cy="30.3875" r="7.82708" stroke="#2DB8CF" stroke-width="0.920833"/>
<circle cx="67.2211" cy="30.3876" r="7.82708" stroke="#2DB8CF" stroke-width="0.920833"/>
<circle cx="96.6879" cy="30.3875" r="7.82708" stroke="#2DB8CF" stroke-width="0.920833"/>
<rect width="512" height="253.225" transform="translate(0 60.775)" fill="#FCFCFB"/>
<path d="M36.6861 114.743V112.396C35.6032 112.293 34.6578 111.984 33.85 111.468C33.0593 110.953 32.4405 110.291 31.9936 109.483C31.5638 108.658 31.3404 107.738 31.3232 106.724H33.2827C33.3171 107.773 33.6179 108.649 34.1851 109.354C34.7696 110.059 35.6032 110.48 36.6861 110.617V103.939L35.5259 103.63C34.357 103.321 33.4202 102.753 32.7155 101.928C32.0279 101.103 31.6842 100.124 31.6842 98.989C31.6842 97.6483 32.1225 96.5396 32.9991 95.663C33.8757 94.7692 35.1048 94.2535 36.6861 94.116V91.7697H38.1558V94.116C39.634 94.2535 40.7943 94.7606 41.6365 95.6372C42.496 96.5138 42.9515 97.6655 43.003 99.0922H41.0435C40.9919 98.2671 40.7255 97.5624 40.2442 96.9779C39.7801 96.3935 39.084 96.0325 38.1558 95.895V102.264L39.8317 102.728C41.0005 103.054 41.9116 103.613 42.5647 104.404C43.2179 105.194 43.5445 106.131 43.5445 107.214C43.5445 108.675 43.0546 109.87 42.0748 110.798C41.1123 111.726 39.8059 112.259 38.1558 112.396V114.743H36.6861ZM35.8868 101.645L36.6861 101.877V95.8693C35.7923 95.9724 35.0618 96.2646 34.4945 96.7459C33.9445 97.2272 33.6695 97.9061 33.6695 98.7828C33.6695 99.4703 33.8586 100.072 34.2367 100.588C34.6149 101.103 35.1649 101.456 35.8868 101.645ZM39.1613 104.61L38.1558 104.326V110.643C39.2387 110.54 40.0723 110.213 40.6568 109.663C41.2584 109.096 41.5592 108.374 41.5592 107.498C41.5592 106.776 41.3701 106.174 40.9919 105.693C40.6138 105.194 40.0036 104.833 39.1613 104.61ZM71.8631 93.4456H74.0031V112.242H72.0951V110.334C71.0122 111.915 69.5769 112.706 67.7893 112.706C66.4657 112.706 65.3657 112.388 64.489 111.752C63.6124 111.099 62.9592 110.213 62.5295 109.096C62.117 107.979 61.9107 106.733 61.9107 105.358C61.9107 104.051 62.1256 102.874 62.5553 101.825C62.985 100.759 63.6296 99.9086 64.489 99.2727C65.3657 98.6367 66.44 98.3187 67.7119 98.3187C69.5512 98.3187 70.9349 99.0148 71.8631 100.407V93.4456ZM68.0729 100.33C67.2307 100.33 66.5173 100.562 65.9329 101.026C65.3485 101.473 64.9016 102.092 64.5922 102.882C64.2999 103.656 64.1538 104.532 64.1538 105.512C64.1538 106.423 64.2914 107.274 64.5664 108.065C64.8414 108.855 65.2625 109.491 65.8298 109.973C66.4142 110.454 67.1705 110.695 68.0987 110.695C69.0097 110.695 69.7402 110.445 70.2903 109.947C70.8403 109.431 71.2357 108.787 71.4763 108.013C71.7341 107.223 71.8631 106.415 71.8631 105.59C71.8631 104.679 71.7341 103.828 71.4763 103.037C71.2185 102.229 70.8145 101.576 70.2645 101.077C69.7144 100.579 68.9839 100.33 68.0729 100.33ZM89.5804 108.065C89.357 109.474 88.7296 110.6 87.6983 111.442C86.6841 112.285 85.3863 112.706 83.805 112.706C82.447 112.706 81.3126 112.405 80.4016 111.803C79.4906 111.185 78.803 110.342 78.3389 109.277C77.892 108.211 77.6685 106.99 77.6685 105.615C77.6685 104.103 77.9264 102.805 78.442 101.722C78.9577 100.639 79.6796 99.8055 80.6078 99.2211C81.536 98.6195 82.6189 98.3187 83.8565 98.3187C85.2488 98.3187 86.3833 98.6453 87.2599 99.2984C88.1538 99.9516 88.8069 100.863 89.2195 102.031C89.6492 103.2 89.8641 104.567 89.8641 106.131H79.9117C79.9461 107.455 80.2898 108.555 80.943 109.431C81.5962 110.291 82.576 110.72 83.8823 110.72C85.6528 110.72 86.8302 109.835 87.4146 108.065H89.5804ZM83.8308 100.304C82.6275 100.304 81.7079 100.699 81.0719 101.49C80.4359 102.281 80.0664 103.243 79.9633 104.378H87.5436C87.5436 103.621 87.3889 102.942 87.0795 102.341C86.7872 101.722 86.3661 101.232 85.8161 100.871C85.266 100.493 84.6043 100.304 83.8308 100.304ZM95.5664 117.862H93.4006V98.7312H95.3859V100.742C96.3829 99.1265 97.8181 98.3187 99.6917 98.3187C101.032 98.3187 102.124 98.6624 102.966 99.35C103.826 100.02 104.462 100.914 104.874 102.031C105.287 103.132 105.493 104.335 105.493 105.641C105.493 106.93 105.278 108.116 104.848 109.199C104.436 110.265 103.8 111.116 102.94 111.752C102.081 112.388 101.007 112.706 99.7175 112.706C98.8409 112.706 98.0674 112.551 97.397 112.242C96.7438 111.915 96.1336 111.399 95.5664 110.695V117.862ZM99.3308 100.33C98.4369 100.33 97.715 100.579 97.165 101.077C96.6149 101.576 96.211 102.221 95.9531 103.011C95.6953 103.802 95.5664 104.636 95.5664 105.512C95.5664 106.389 95.6953 107.223 95.9531 108.013C96.211 108.804 96.6149 109.448 97.165 109.947C97.715 110.445 98.4369 110.695 99.3308 110.695C100.242 110.695 100.981 110.454 101.548 109.973C102.133 109.474 102.562 108.838 102.837 108.065C103.112 107.274 103.25 106.449 103.25 105.59C103.25 104.679 103.112 103.828 102.837 103.037C102.562 102.229 102.133 101.576 101.548 101.077C100.981 100.579 100.242 100.33 99.3308 100.33ZM116.352 93.4456V110.488H120.503V112.242H109.597V110.488H114.264V95.1989H109.597V93.4456H116.352ZM129.97 98.3187C131.362 98.3187 132.505 98.6367 133.399 99.2727C134.31 99.8915 134.98 100.742 135.41 101.825C135.857 102.908 136.08 104.137 136.08 105.512C136.08 106.87 135.857 108.099 135.41 109.199C134.98 110.282 134.31 111.142 133.399 111.778C132.505 112.396 131.362 112.706 129.97 112.706C128.595 112.706 127.452 112.396 126.541 111.778C125.63 111.142 124.951 110.282 124.504 109.199C124.074 108.099 123.859 106.87 123.859 105.512C123.859 104.137 124.074 102.908 124.504 101.825C124.951 100.742 125.63 99.8915 126.541 99.2727C127.452 98.6367 128.595 98.3187 129.97 98.3187ZM129.97 100.304C129.059 100.304 128.32 100.545 127.752 101.026C127.185 101.507 126.764 102.143 126.489 102.934C126.231 103.725 126.102 104.584 126.102 105.512C126.102 106.423 126.231 107.283 126.489 108.091C126.764 108.881 127.185 109.517 127.752 109.999C128.32 110.48 129.059 110.72 129.97 110.72C130.881 110.72 131.62 110.48 132.187 109.999C132.754 109.517 133.167 108.881 133.425 108.091C133.7 107.283 133.837 106.423 133.837 105.512C133.837 104.584 133.7 103.725 133.425 102.934C133.167 102.143 132.754 101.507 132.187 101.026C131.62 100.545 130.881 100.304 129.97 100.304ZM145.496 115.078C145.152 116.006 144.662 116.702 144.026 117.166C143.39 117.63 142.651 117.862 141.809 117.862C141.155 117.862 140.571 117.776 140.055 117.605V115.594C140.348 115.662 140.605 115.705 140.829 115.722C141.069 115.74 141.302 115.748 141.525 115.748C142.023 115.748 142.419 115.645 142.711 115.439C143.003 115.25 143.244 114.915 143.433 114.433L144.258 112.448L139.256 98.7312H141.525L145.47 109.689L149.363 98.7312H151.58L145.496 115.078Z" fill="#007F95"/>
<path d="M169.163 103.011H178.909V104.868H169.163V103.011ZM180.972 103.011H190.718V104.868H180.972V103.011ZM199.772 117.862H197.606V98.7312H199.591V100.742C200.588 99.1265 202.024 98.3187 203.897 98.3187C205.238 98.3187 206.329 98.6624 207.172 99.35C208.031 100.02 208.667 100.914 209.08 102.031C209.492 103.132 209.698 104.335 209.698 105.641C209.698 106.93 209.484 108.116 209.054 109.199C208.641 110.265 208.005 111.116 207.146 111.752C206.286 112.388 205.212 112.706 203.923 112.706C203.046 112.706 202.273 112.551 201.602 112.242C200.949 111.915 200.339 111.399 199.772 110.695V117.862ZM203.536 100.33C202.642 100.33 201.92 100.579 201.37 101.077C200.82 101.576 200.416 102.221 200.159 103.011C199.901 103.802 199.772 104.636 199.772 105.512C199.772 106.389 199.901 107.223 200.159 108.013C200.416 108.804 200.82 109.448 201.37 109.947C201.92 110.445 202.642 110.695 203.536 110.695C204.447 110.695 205.186 110.454 205.754 109.973C206.338 109.474 206.768 108.838 207.043 108.065C207.318 107.274 207.455 106.449 207.455 105.59C207.455 104.679 207.318 103.828 207.043 103.037C206.768 102.229 206.338 101.576 205.754 101.077C205.186 100.579 204.447 100.33 203.536 100.33ZM213.983 112.242V98.7312H215.968V101.645C216.415 100.682 217.06 99.8915 217.902 99.2727C218.744 98.6539 219.715 98.3445 220.815 98.3445C222.362 98.3445 223.54 98.7398 224.348 99.5305C225.173 100.321 225.645 101.387 225.766 102.728H223.626C223.471 101.92 223.153 101.301 222.672 100.871C222.208 100.441 221.52 100.227 220.609 100.227C219.715 100.227 218.933 100.467 218.263 100.949C217.592 101.413 217.068 102.057 216.69 102.882C216.329 103.69 216.149 104.627 216.149 105.693V112.242H213.983ZM234.175 98.3187C235.568 98.3187 236.711 98.6367 237.604 99.2727C238.515 99.8915 239.186 100.742 239.616 101.825C240.062 102.908 240.286 104.137 240.286 105.512C240.286 106.87 240.062 108.099 239.616 109.199C239.186 110.282 238.515 111.142 237.604 111.778C236.711 112.396 235.568 112.706 234.175 112.706C232.8 112.706 231.657 112.396 230.746 111.778C229.835 111.142 229.156 110.282 228.709 109.199C228.279 108.099 228.065 106.87 228.065 105.512C228.065 104.137 228.279 102.908 228.709 101.825C229.156 100.742 229.835 99.8915 230.746 99.2727C231.657 98.6367 232.8 98.3187 234.175 98.3187ZM234.175 100.304C233.264 100.304 232.525 100.545 231.958 101.026C231.391 101.507 230.97 102.143 230.695 102.934C230.437 103.725 230.308 104.584 230.308 105.512C230.308 106.423 230.437 107.283 230.695 108.091C230.97 108.881 231.391 109.517 231.958 109.999C232.525 110.48 233.264 110.72 234.175 110.72C235.086 110.72 235.825 110.48 236.393 109.999C236.96 109.517 237.372 108.881 237.63 108.091C237.905 107.283 238.043 106.423 238.043 105.512C238.043 104.584 237.905 103.725 237.63 102.934C237.372 102.143 236.96 101.507 236.393 101.026C235.825 100.545 235.086 100.304 234.175 100.304ZM253.182 93.4456H255.322V112.242H253.414V110.334C252.331 111.915 250.896 112.706 249.108 112.706C247.785 112.706 246.684 112.388 245.808 111.752C244.931 111.099 244.278 110.213 243.848 109.096C243.436 107.979 243.229 106.733 243.229 105.358C243.229 104.051 243.444 102.874 243.874 101.825C244.304 100.759 244.948 99.9086 245.808 99.2727C246.684 98.6367 247.759 98.3187 249.031 98.3187C250.87 98.3187 252.254 99.0148 253.182 100.407V93.4456ZM249.392 100.33C248.549 100.33 247.836 100.562 247.252 101.026C246.667 101.473 246.22 102.092 245.911 102.882C245.619 103.656 245.473 104.532 245.473 105.512C245.473 106.423 245.61 107.274 245.885 108.065C246.16 108.855 246.581 109.491 247.149 109.973C247.733 110.454 248.489 110.695 249.417 110.695C250.328 110.695 251.059 110.445 251.609 109.947C252.159 109.431 252.554 108.787 252.795 108.013C253.053 107.223 253.182 106.415 253.182 105.59C253.182 104.679 253.053 103.828 252.795 103.037C252.537 102.229 252.133 101.576 251.583 101.077C251.033 100.579 250.303 100.33 249.392 100.33Z" fill="#007F95"/>
<path d="M29.4668 127.292H482.533" stroke="#FCFCFB" stroke-opacity="0.1" stroke-width="0.920833"/>
<rect x="29.4668" y="138.342" width="29.4667" height="29.4667" rx="14.7333" fill="#002024"/>
<g clip-path="url(#clip2_1179_35971)">
<path fill-rule="evenodd" clip-rule="evenodd" d="M52.3703 148.813L41.725 159.458L35.9141 153.647L37.8672 151.694L41.725 155.552L50.4172 146.86L52.3703 148.813Z" fill="#72D8E8"/>
</g>
<path d="M80.5146 162.075V143.279H82.6547V150.369C83.6344 148.891 85.0267 148.152 86.8316 148.152C88.1551 148.152 89.238 148.47 90.0803 149.106C90.9397 149.725 91.5757 150.567 91.9882 151.633C92.4008 152.698 92.607 153.885 92.607 155.191C92.607 156.566 92.3836 157.812 91.9367 158.929C91.4897 160.047 90.828 160.932 89.9513 161.585C89.0919 162.221 88.0176 162.539 86.7284 162.539C84.8892 162.539 83.4625 161.766 82.4484 160.219V162.075H80.5146ZM86.4448 150.163C85.5338 150.163 84.7947 150.421 84.2274 150.937C83.6774 151.452 83.2735 152.114 83.0156 152.922C82.775 153.713 82.6547 154.546 82.6547 155.423C82.6547 156.265 82.775 157.082 83.0156 157.872C83.2735 158.646 83.6774 159.282 84.2274 159.78C84.7947 160.279 85.5338 160.528 86.4448 160.528C87.3558 160.528 88.0949 160.287 88.6622 159.806C89.2466 159.325 89.6763 158.697 89.9513 157.924C90.2435 157.133 90.3897 156.3 90.3897 155.423C90.3897 154.478 90.2435 153.609 89.9513 152.819C89.6763 152.028 89.2466 151.392 88.6622 150.911C88.0777 150.412 87.3386 150.163 86.4448 150.163ZM107.05 148.565V162.075H105.116V160.064C104.497 160.958 103.836 161.594 103.131 161.972C102.443 162.35 101.601 162.539 100.604 162.539C99.418 162.539 98.4469 162.273 97.6906 161.74C96.7624 161.069 96.2983 160.107 96.2983 158.852V148.565H98.4383V158.001C98.4383 158.912 98.7391 159.6 99.3407 160.064C99.8392 160.459 100.467 160.657 101.223 160.657C102.237 160.657 103.088 160.287 103.775 159.548C104.532 158.74 104.91 157.58 104.91 156.067V148.565H107.05ZM116.027 146.631V144.052H118.605V146.631H116.027ZM118.373 148.565V160.322H122.524V162.075H111.618V160.322H116.259V150.318H111.618V148.565H118.373ZM134.311 143.279V160.322H138.462V162.075H127.556V160.322H132.223V145.032H127.556V143.279H134.311ZM151.513 143.279H153.653V162.075H151.745V160.167C150.662 161.748 149.227 162.539 147.439 162.539C146.116 162.539 145.016 162.221 144.139 161.585C143.262 160.932 142.609 160.047 142.18 158.929C141.767 157.812 141.561 156.566 141.561 155.191C141.561 153.885 141.776 152.707 142.205 151.659C142.635 150.593 143.28 149.742 144.139 149.106C145.016 148.47 146.09 148.152 147.362 148.152C149.201 148.152 150.585 148.848 151.513 150.24V143.279ZM147.723 150.163C146.881 150.163 146.167 150.395 145.583 150.859C144.998 151.306 144.552 151.925 144.242 152.716C143.95 153.489 143.804 154.366 143.804 155.346C143.804 156.257 143.941 157.107 144.216 157.898C144.491 158.689 144.913 159.325 145.48 159.806C146.064 160.287 146.821 160.528 147.749 160.528C148.66 160.528 149.39 160.279 149.94 159.78C150.49 159.265 150.886 158.62 151.126 157.847C151.384 157.056 151.513 156.248 151.513 155.423C151.513 154.512 151.384 153.661 151.126 152.87C150.868 152.062 150.465 151.409 149.915 150.911C149.364 150.412 148.634 150.163 147.723 150.163ZM183.725 152.252H181.482C181.465 151.581 181.207 151.048 180.708 150.653C180.227 150.258 179.582 150.06 178.775 150.06C177.898 150.06 177.185 150.24 176.634 150.601C176.102 150.962 175.835 151.444 175.835 152.045C175.835 152.527 175.999 152.913 176.325 153.206C176.652 153.498 177.133 153.73 177.769 153.902L180.837 154.701C181.972 154.993 182.822 155.432 183.39 156.016C183.974 156.583 184.266 157.348 184.266 158.311C184.266 159.617 183.785 160.648 182.822 161.405C181.86 162.161 180.536 162.539 178.852 162.539C175.311 162.539 173.463 161.018 173.308 157.975H175.577C175.681 158.886 176.007 159.557 176.557 159.987C177.124 160.416 177.906 160.631 178.903 160.631C179.866 160.631 180.631 160.459 181.198 160.115C181.783 159.772 182.075 159.282 182.075 158.646C182.075 158.061 181.92 157.623 181.611 157.331C181.301 157.039 180.777 156.798 180.038 156.609L177.202 155.861C175.981 155.535 175.079 155.096 174.494 154.546C173.927 153.979 173.644 153.18 173.644 152.148C173.644 150.928 174.108 149.957 175.036 149.235C175.981 148.513 177.245 148.152 178.826 148.152C180.407 148.152 181.611 148.522 182.436 149.261C183.278 149.983 183.708 150.98 183.725 152.252ZM199.586 148.565V162.075H197.652V160.064C197.033 160.958 196.372 161.594 195.667 161.972C194.979 162.35 194.137 162.539 193.14 162.539C191.954 162.539 190.983 162.273 190.227 161.74C189.298 161.069 188.834 160.107 188.834 158.852V148.565H190.974V158.001C190.974 158.912 191.275 159.6 191.877 160.064C192.375 160.459 193.003 160.657 193.759 160.657C194.773 160.657 195.624 160.287 196.311 159.548C197.068 158.74 197.446 157.58 197.446 156.067V148.565H199.586ZM215.395 153.025H213.23C213.109 152.131 212.765 151.426 212.198 150.911C211.631 150.395 210.875 150.137 209.929 150.137C209.001 150.137 208.253 150.395 207.686 150.911C207.119 151.426 206.706 152.097 206.448 152.922C206.191 153.73 206.062 154.581 206.062 155.474C206.062 156.368 206.199 157.202 206.474 157.975C206.749 158.749 207.179 159.376 207.763 159.858C208.348 160.322 209.087 160.554 209.981 160.554C211.889 160.554 213.023 159.488 213.384 157.357H215.55C215.412 158.972 214.854 160.244 213.874 161.173C212.912 162.084 211.597 162.539 209.929 162.539C208.623 162.539 207.514 162.23 206.603 161.611C205.692 160.975 204.996 160.124 204.515 159.058C204.051 157.993 203.819 156.798 203.819 155.474C203.819 154.117 204.051 152.888 204.515 151.787C204.979 150.687 205.666 149.811 206.577 149.158C207.488 148.487 208.614 148.152 209.955 148.152C211.605 148.152 212.912 148.608 213.874 149.519C214.854 150.43 215.361 151.598 215.395 153.025ZM230.818 153.025H228.652C228.532 152.131 228.188 151.426 227.621 150.911C227.054 150.395 226.297 150.137 225.352 150.137C224.424 150.137 223.676 150.395 223.109 150.911C222.542 151.426 222.129 152.097 221.871 152.922C221.613 153.73 221.484 154.581 221.484 155.474C221.484 156.368 221.622 157.202 221.897 157.975C222.172 158.749 222.602 159.376 223.186 159.858C223.771 160.322 224.51 160.554 225.403 160.554C227.311 160.554 228.446 159.488 228.807 157.357H230.973C230.835 158.972 230.277 160.244 229.297 161.173C228.334 162.084 227.019 162.539 225.352 162.539C224.046 162.539 222.937 162.23 222.026 161.611C221.115 160.975 220.419 160.124 219.937 159.058C219.473 157.993 219.241 156.798 219.241 155.474C219.241 154.117 219.473 152.888 219.937 151.787C220.402 150.687 221.089 149.811 222 149.158C222.911 148.487 224.037 148.152 225.378 148.152C227.028 148.152 228.334 148.608 229.297 149.519C230.277 150.43 230.784 151.598 230.818 153.025ZM246.344 157.898C246.12 159.308 245.493 160.433 244.462 161.276C243.447 162.118 242.15 162.539 240.568 162.539C239.21 162.539 238.076 162.238 237.165 161.637C236.254 161.018 235.566 160.176 235.102 159.11C234.655 158.044 234.432 156.824 234.432 155.449C234.432 153.936 234.69 152.638 235.205 151.555C235.721 150.473 236.443 149.639 237.371 149.054C238.299 148.453 239.382 148.152 240.62 148.152C242.012 148.152 243.147 148.479 244.023 149.132C244.917 149.785 245.57 150.696 245.983 151.865C246.413 153.034 246.627 154.4 246.627 155.964H236.675C236.709 157.288 237.053 158.388 237.706 159.265C238.36 160.124 239.339 160.554 240.646 160.554C242.416 160.554 243.594 159.669 244.178 157.898H246.344ZM240.594 150.137C239.391 150.137 238.471 150.533 237.835 151.323C237.199 152.114 236.83 153.077 236.727 154.211H244.307C244.307 153.455 244.152 152.776 243.843 152.174C243.551 151.555 243.129 151.066 242.579 150.705C242.029 150.326 241.368 150.137 240.594 150.137ZM260.838 152.252H258.595C258.578 151.581 258.32 151.048 257.822 150.653C257.34 150.258 256.696 150.06 255.888 150.06C255.011 150.06 254.298 150.24 253.748 150.601C253.215 150.962 252.949 151.444 252.949 152.045C252.949 152.527 253.112 152.913 253.438 153.206C253.765 153.498 254.246 153.73 254.882 153.902L257.95 154.701C259.085 154.993 259.936 155.432 260.503 156.016C261.087 156.583 261.38 157.348 261.38 158.311C261.38 159.617 260.898 160.648 259.936 161.405C258.973 162.161 257.65 162.539 255.965 162.539C252.424 162.539 250.576 161.018 250.422 157.975H252.691C252.794 158.886 253.12 159.557 253.67 159.987C254.238 160.416 255.02 160.631 256.017 160.631C256.979 160.631 257.744 160.459 258.311 160.115C258.896 159.772 259.188 159.282 259.188 158.646C259.188 158.061 259.033 157.623 258.724 157.331C258.415 157.039 257.89 156.798 257.151 156.609L254.315 155.861C253.095 155.535 252.192 155.096 251.608 154.546C251.041 153.979 250.757 153.18 250.757 152.148C250.757 150.928 251.221 149.957 252.149 149.235C253.095 148.513 254.358 148.152 255.939 148.152C257.521 148.152 258.724 148.522 259.549 149.261C260.391 149.983 260.821 150.98 260.838 152.252ZM276.261 152.252H274.018C274.001 151.581 273.743 151.048 273.244 150.653C272.763 150.258 272.118 150.06 271.31 150.06C270.434 150.06 269.721 150.24 269.17 150.601C268.638 150.962 268.371 151.444 268.371 152.045C268.371 152.527 268.534 152.913 268.861 153.206C269.188 153.498 269.669 153.73 270.305 153.902L273.373 154.701C274.508 154.993 275.358 155.432 275.926 156.016C276.51 156.583 276.802 157.348 276.802 158.311C276.802 159.617 276.321 160.648 275.358 161.405C274.396 162.161 273.072 162.539 271.388 162.539C267.847 162.539 265.999 161.018 265.844 157.975H268.113C268.216 158.886 268.543 159.557 269.093 159.987C269.66 160.416 270.442 160.631 271.439 160.631C272.402 160.631 273.167 160.459 273.734 160.115C274.319 159.772 274.611 159.282 274.611 158.646C274.611 158.061 274.456 157.623 274.147 157.331C273.837 157.039 273.313 156.798 272.574 156.609L269.738 155.861C268.517 155.535 267.615 155.096 267.03 154.546C266.463 153.979 266.18 153.18 266.18 152.148C266.18 150.928 266.644 149.957 267.572 149.235C268.517 148.513 269.781 148.152 271.362 148.152C272.943 148.152 274.147 148.522 274.972 149.261C275.814 149.983 276.244 150.98 276.261 152.252ZM287.584 148.565H292.921V150.318H287.584V162.075H285.444V150.318H281.061V148.565H285.444V147.069C285.444 145.66 285.857 144.637 286.682 144.001C287.524 143.348 288.77 143.021 290.42 143.021C290.816 143.021 291.211 143.03 291.606 143.047C292.019 143.064 292.448 143.107 292.895 143.176V145.032C292.534 144.998 292.173 144.972 291.812 144.955C291.469 144.921 291.176 144.903 290.936 144.903C289.698 144.903 288.83 145.067 288.332 145.393C287.833 145.72 287.584 146.339 287.584 147.25V148.565ZM307.545 148.565V162.075H305.611V160.064C304.992 160.958 304.33 161.594 303.625 161.972C302.938 162.35 302.096 162.539 301.099 162.539C299.913 162.539 298.941 162.273 298.185 161.74C297.257 161.069 296.793 160.107 296.793 158.852V148.565H298.933V158.001C298.933 158.912 299.234 159.6 299.835 160.064C300.334 160.459 300.961 160.657 301.718 160.657C302.732 160.657 303.582 160.287 304.27 159.548C305.026 158.74 305.405 157.58 305.405 156.067V148.565H307.545ZM319.383 143.279V160.322H323.534V162.075H312.628V160.322H317.295V145.032H312.628V143.279H319.383Z" fill="#002024"/>
</g>
<rect x="0.460417" y="0.460417" width="511.079" height="313.079" stroke="#2DB8CF" stroke-width="0.920833"/>
</g>
<defs>
<filter id="filter0_f_1179_35971" x="-190.322" y="-97.1779" width="892.422" height="897.027" filterUnits="userSpaceOnUse" color-interpolation-filters="sRGB">
<feFlood flood-opacity="0" result="BackgroundImageFix"/>
<feBlend mode="normal" in="SourceGraphic" in2="BackgroundImageFix" result="shape"/>
<feGaussianBlur stdDeviation="72.0889" result="effect1_foregroundBlur_1179_35971"/>
</filter>
<radialGradient id="paint0_radial_1179_35971" cx="0" cy="0" r="1" gradientUnits="userSpaceOnUse" gradientTransform="translate(255.889 351.335) rotate(90) scale(304.335 302.033)">
<stop stop-color="#2DB8CF"/>
<stop offset="1" stop-color="#2DB8CF" stop-opacity="0"/>
</radialGradient>
<clipPath id="clip0_1179_35971">
<rect width="512" height="260" fill="white"/>
</clipPath>
<clipPath id="clip1_1179_35971">
<rect width="512" height="314" fill="white"/>
</clipPath>
<clipPath id="clip2_1179_35971">
<rect width="16.575" height="16.575" fill="white" transform="translate(35.9121 144.788)"/>
</clipPath>
</defs>
</svg>
