<svg width="176" height="41" viewBox="0 0 176 41" fill="none" xmlns="http://www.w3.org/2000/svg">
<mask id="mask0_169_1152" style="mask-type:luminance" maskUnits="userSpaceOnUse" x="0" y="0" width="176" height="41">
<path d="M176 0.315918H0V40.3159H176V0.315918Z" fill="white"/>
</mask>
<g mask="url(#mask0_169_1152)">
<path d="M55.696 14.7666C53.256 14.7666 51.512 16.2546 51.16 16.8279H51V9.00928H47.512V31.1746H50.112L50.7466 29.3719H50.9066V29.3666C51.3493 29.9693 53.096 31.5506 55.696 31.5506C59.6586 31.5506 63.0853 28.0386 63.0853 23.1586C63.0853 18.2786 59.6586 14.7666 55.696 14.7666ZM55.3146 28.3239C52.9973 28.3239 51 26.2333 51 23.1613C51 20.0893 52.9973 17.9986 55.3146 17.9986C57.632 17.9986 59.6293 20.0893 59.6293 23.1613C59.6293 26.2333 57.632 28.3239 55.3146 28.3239Z" fill="currentColor"/>
<path d="M69.0799 9.00928H65.5919V31.1746H69.0799V9.00928Z" fill="currentColor"/>
<path d="M83.1999 24.3078C83.1999 26.6838 81.5839 28.3318 79.4586 28.3318C77.3333 28.3318 75.8106 26.6838 75.8106 24.3078V15.1558H72.3226V24.5611L72.3173 24.5664C72.3173 28.8064 74.9839 31.5611 78.7573 31.5611C81.1359 31.5611 82.7573 30.0731 83.2613 29.3771H83.4213L84.0559 31.1798H86.6559V15.1558H83.1973V24.3078H83.1999Z" fill="currentColor"/>
<path d="M96.9413 14.7666C92.6266 14.7666 89.0106 18.4093 89.0106 23.1586C89.0106 27.9079 92.5306 31.5506 96.9733 31.5506C100.496 31.5506 103.128 29.0519 104.016 26.7399H100.397C99.824 27.5639 98.7466 28.4199 96.9386 28.4199C94.6533 28.4199 92.9386 26.9613 92.4959 24.5266H104.392V24.5213H104.397C104.496 24.1719 104.589 23.5693 104.589 22.8119C104.589 18.2519 101.256 14.7719 96.9413 14.7719V14.7666ZM92.4986 21.8973H92.4933C92.9413 19.4573 94.7786 17.9053 96.936 17.9053C99.0933 17.9053 100.805 19.5213 101.189 21.8973H92.4986Z" fill="currentColor"/>
<path d="M125.107 16.8333H124.947C124.597 16.2627 122.851 14.772 120.411 14.772C116.448 14.772 113.021 18.284 113.021 23.164V23.1693C113.021 28.0467 116.448 31.5613 120.411 31.5613C122.981 31.5613 124.757 29.98 125.2 29.3773H125.36L125.995 31.18H128.595V9.01465H125.107V16.8333ZM120.792 28.324C118.475 28.324 116.477 26.2333 116.477 23.1613C116.477 20.0893 118.475 17.9986 120.792 17.9986C123.109 17.9986 125.107 20.0893 125.107 23.1613C125.107 26.2333 123.109 28.324 120.792 28.324Z" fill="currentColor"/>
<path d="M135.421 16.9213H135.261L134.627 15.1479H132.027V31.1693H135.515V22.3026C135.515 19.7373 137.067 18.2493 139.288 18.2493C139.861 18.2493 140.272 18.2839 140.717 18.3773V14.8946C140.304 14.7959 139.957 14.7666 139.387 14.7666C137.328 14.7666 135.867 16.2866 135.424 16.9186L135.421 16.9213Z" fill="currentColor"/>
<path d="M148.709 14.772C144.365 14.772 140.747 18.476 140.747 23.164C140.747 27.852 144.365 31.556 148.709 31.556C153.053 31.556 156.672 27.852 156.672 23.164C156.672 18.476 153.053 14.772 148.709 14.772ZM148.709 28.324C146.232 28.324 144.205 26.2013 144.205 23.1613C144.205 20.1213 146.235 17.9986 148.709 17.9986C151.184 17.9986 153.213 20.1213 153.213 23.1613C153.213 26.2013 151.184 28.324 148.709 28.324Z" fill="currentColor"/>
<path d="M167.205 14.7719C164.605 14.7719 162.861 16.3533 162.416 16.9239H162.256L161.621 15.1506H159.021V36.8679H162.509V29.4919H162.669C163.019 30.0626 164.765 31.5506 167.205 31.5506C171.168 31.5506 174.595 28.0386 174.595 23.1586C174.595 18.2786 171.168 14.7666 167.205 14.7666V14.7719ZM166.827 28.3239C164.509 28.3239 162.512 26.2333 162.512 23.1613C162.512 20.0893 164.509 17.9986 166.827 17.9986C169.144 17.9986 171.141 20.0893 171.141 23.1613C171.141 26.2333 169.144 28.3239 166.827 28.3239Z" fill="currentColor"/>
<path d="M10.5706 10.2279C10.5706 8.93192 11.6373 7.87325 12.9439 7.87325H20.2453C21.5519 7.87325 22.6186 8.93192 22.6186 10.2279C22.6186 11.5239 21.5519 12.5826 20.2453 12.5826H12.9439C11.6373 12.5826 10.5706 11.5239 10.5706 10.2279ZM16.0746 6.02525H17.1173C18.4239 6.02525 19.4906 4.96658 19.4906 3.67058C19.4906 2.37458 18.4239 1.31592 17.1173 1.31592H16.0746C14.7679 1.31592 13.7013 2.37458 13.7013 3.67058C13.7013 4.96658 14.7679 6.02525 16.0746 6.02525ZM12.1359 27.8813C10.8293 27.8813 9.76261 28.9399 9.76261 30.2359C9.76261 31.5319 10.8293 32.5906 12.1359 32.5906H20.0106C21.3173 32.5906 22.3839 31.5319 22.3839 30.2359C22.3839 28.9399 21.3173 27.8813 20.0106 27.8813H12.1359ZM25.5199 23.5053C25.5199 22.2092 24.4533 21.1506 23.1466 21.1506H17.9173C16.6106 21.1506 15.5439 22.2092 15.5439 23.5053C15.5439 24.8013 16.6106 25.8599 17.9173 25.8599H23.1466C24.4533 25.8599 25.5199 24.8013 25.5199 23.5053ZM12.6239 16.7799C12.6239 18.0759 13.6906 19.1346 14.9973 19.1346H24.4479C25.7546 19.1346 26.8213 18.0759 26.8213 16.7799C26.8213 15.4839 25.7546 14.4253 24.4479 14.4253H14.9973C13.6906 14.4253 12.6239 15.4839 12.6239 16.7799ZM27.3093 27.8813H26.2666C24.9599 27.8813 23.8933 28.9399 23.8933 30.2359C23.8933 31.5319 24.9599 32.5906 26.2666 32.5906H27.3093C28.6159 32.5906 29.6826 31.5319 29.6826 30.2359C29.6826 28.9399 28.6159 27.8813 27.3093 27.8813ZM8.74127 19.1372C10.0479 19.1372 11.1146 18.0786 11.1146 16.7826C11.1146 15.4866 10.0479 14.4279 8.74127 14.4279C7.43461 14.4279 6.36794 15.4866 6.36794 16.7826C6.36794 18.0786 7.43461 19.1372 8.74127 19.1372ZM21.3199 34.6066H11.8693C10.5626 34.6066 9.49594 35.6653 9.49594 36.9613C9.49594 38.2573 10.5626 39.3159 11.8693 39.3159H21.3199C22.6266 39.3159 23.6933 38.2573 23.6933 36.9613C23.6933 35.6653 22.6266 34.6066 21.3199 34.6066ZM29.4026 21.1506C28.0959 21.1506 27.0293 22.2092 27.0293 23.5053C27.0293 24.8013 28.0959 25.8599 29.4026 25.8599C30.7093 25.8599 31.7759 24.8013 31.7759 23.5053C31.7759 22.2092 30.7093 21.1506 29.4026 21.1506ZM5.87727 27.8813C4.57061 27.8813 3.50394 28.9399 3.50394 30.2359C3.50394 31.5319 4.57061 32.5906 5.87727 32.5906C7.18394 32.5906 8.25061 31.5319 8.25061 30.2359C8.25061 28.9399 7.18394 27.8813 5.87727 27.8813ZM11.6559 25.8653C12.9626 25.8653 14.0293 24.8066 14.0293 23.5106C14.0293 22.2146 12.9626 21.1559 11.6559 21.1559H3.77861C2.47194 21.1559 1.40527 22.2146 1.40527 23.5106C1.40527 24.8066 2.47194 25.8653 3.77861 25.8653H11.6559Z" fill="#2DB8CF"/>
</g>
</svg>
