<svg width="174" height="38" viewBox="0 0 174 38" fill="none" xmlns="http://www.w3.org/2000/svg">
<path d="M54.6957 13.4507C52.2557 13.4507 50.5117 14.9387 50.1597 15.512H49.9997V7.69336H46.5117V29.8587H49.1117L49.7464 28.056H49.9064V28.0507C50.3491 28.6534 52.0957 30.2347 54.6957 30.2347C58.6584 30.2347 62.0851 26.7227 62.0851 21.8427C62.0851 16.9627 58.6584 13.4507 54.6957 13.4507ZM54.3144 27.008C51.9971 27.008 49.9997 24.9174 49.9997 21.8454C49.9997 18.7734 51.9971 16.6827 54.3144 16.6827C56.6317 16.6827 58.6291 18.7734 58.6291 21.8454C58.6291 24.9174 56.6317 27.008 54.3144 27.008Z" fill="#FDFCF7"/>
<path d="M68.0798 7.69336H64.5918V29.8587H68.0798V7.69336Z" fill="#FDFCF7"/>
<path d="M82.1996 22.9918C82.1996 25.3678 80.5836 27.0158 78.4582 27.0158C76.3329 27.0158 74.8102 25.3678 74.8102 22.9918V13.8398H71.3222V23.2452L71.3169 23.2505C71.3169 27.4905 73.9836 30.2452 77.7569 30.2452C80.1356 30.2452 81.7569 28.7572 82.2609 28.0612H82.4209L83.0556 29.8638H85.6556V13.8398H82.1969V22.9918H82.1996Z" fill="#FDFCF7"/>
<path d="M95.9409 13.4507C91.6263 13.4507 88.0103 17.0934 88.0103 21.8427C88.0103 26.592 91.5303 30.2347 95.9729 30.2347C99.4956 30.2347 102.128 27.736 103.016 25.424H99.3969C98.8236 26.248 97.7463 27.104 95.9383 27.104C93.6529 27.104 91.9382 25.6454 91.4956 23.2107H103.392V23.2053H103.397C103.496 22.856 103.589 22.2533 103.589 21.496C103.589 16.936 100.256 13.456 95.9409 13.456V13.4507ZM91.4983 20.5813H91.4929C91.9409 18.1413 93.7783 16.5894 95.9356 16.5894C98.0929 16.5894 99.8049 18.2053 100.189 20.5813H91.4983Z" fill="#FDFCF7"/>
<path d="M124.106 15.5174H123.946C123.597 14.9467 121.85 13.4561 119.41 13.4561C115.448 13.4561 112.021 16.9681 112.021 21.8481V21.8534C112.021 26.7307 115.448 30.2454 119.41 30.2454C121.981 30.2454 123.757 28.6641 124.2 28.0614H124.36L124.994 29.8641H127.594V7.69873H124.106V15.5174ZM119.792 27.0081C117.474 27.0081 115.477 24.9174 115.477 21.8454C115.477 18.7734 117.474 16.6827 119.792 16.6827C122.109 16.6827 124.106 18.7734 124.106 21.8454C124.106 24.9174 122.109 27.0081 119.792 27.0081Z" fill="#FDFCF7"/>
<path d="M134.421 15.6054H134.261L133.626 13.832H131.026V29.8534H134.514V20.9867C134.514 18.4213 136.066 16.9333 138.288 16.9333C138.861 16.9333 139.272 16.968 139.717 17.0613V13.5787C139.304 13.48 138.957 13.4507 138.386 13.4507C136.328 13.4507 134.866 14.9707 134.424 15.6027L134.421 15.6054Z" fill="#FDFCF7"/>
<path d="M147.709 13.4561C143.365 13.4561 139.747 17.1601 139.747 21.8481C139.747 26.5361 143.365 30.2401 147.709 30.2401C152.053 30.2401 155.672 26.5361 155.672 21.8481C155.672 17.1601 152.053 13.4561 147.709 13.4561ZM147.709 27.0081C145.232 27.0081 143.205 24.8854 143.205 21.8454C143.205 18.8054 145.235 16.6827 147.709 16.6827C150.184 16.6827 152.213 18.8054 152.213 21.8454C152.213 24.8854 150.184 27.0081 147.709 27.0081Z" fill="#FDFCF7"/>
<path d="M166.205 13.456C163.605 13.456 161.861 15.0373 161.416 15.608H161.256L160.621 13.8347H158.021V35.552H161.509V28.176H161.669C162.018 28.7467 163.765 30.2347 166.205 30.2347C170.168 30.2347 173.594 26.7227 173.594 21.8427C173.594 16.9627 170.168 13.4507 166.205 13.4507V13.456ZM165.826 27.008C163.509 27.008 161.512 24.9173 161.512 21.8453C161.512 18.7733 163.509 16.6827 165.826 16.6827C168.144 16.6827 170.141 18.7733 170.141 21.8453C170.141 24.9173 168.144 27.008 165.826 27.008Z" fill="#FDFCF7"/>
<path d="M9.57061 8.912C9.57061 7.616 10.6373 6.55733 11.9439 6.55733H19.2453C20.5519 6.55733 21.6186 7.616 21.6186 8.912C21.6186 10.208 20.5519 11.2667 19.2453 11.2667H11.9439C10.6373 11.2667 9.57061 10.208 9.57061 8.912ZM15.0746 4.70933H16.1173C17.4239 4.70933 18.4906 3.65067 18.4906 2.35467C18.4906 1.05867 17.4239 0 16.1173 0H15.0746C13.7679 0 12.7013 1.05867 12.7013 2.35467C12.7013 3.65067 13.7679 4.70933 15.0746 4.70933ZM11.1359 26.5653C9.82927 26.5653 8.76261 27.624 8.76261 28.92C8.76261 30.216 9.82927 31.2747 11.1359 31.2747H19.0106C20.3173 31.2747 21.3839 30.216 21.3839 28.92C21.3839 27.624 20.3173 26.5653 19.0106 26.5653H11.1359ZM24.5199 22.1893C24.5199 20.8933 23.4533 19.8347 22.1466 19.8347H16.9173C15.6106 19.8347 14.5439 20.8933 14.5439 22.1893C14.5439 23.4853 15.6106 24.544 16.9173 24.544H22.1466C23.4533 24.544 24.5199 23.4853 24.5199 22.1893ZM11.6239 15.464C11.6239 16.76 12.6906 17.8187 13.9973 17.8187H23.4479C24.7546 17.8187 25.8213 16.76 25.8213 15.464C25.8213 14.168 24.7546 13.1093 23.4479 13.1093H13.9973C12.6906 13.1093 11.6239 14.168 11.6239 15.464ZM26.3093 26.5653H25.2666C23.9599 26.5653 22.8933 27.624 22.8933 28.92C22.8933 30.216 23.9599 31.2747 25.2666 31.2747H26.3093C27.6159 31.2747 28.6826 30.216 28.6826 28.92C28.6826 27.624 27.6159 26.5653 26.3093 26.5653ZM7.74127 17.8213C9.04794 17.8213 10.1146 16.7627 10.1146 15.4667C10.1146 14.1707 9.04794 13.112 7.74127 13.112C6.43461 13.112 5.36794 14.1707 5.36794 15.4667C5.36794 16.7627 6.43461 17.8213 7.74127 17.8213ZM20.3199 33.2907H10.8693C9.56261 33.2907 8.49594 34.3493 8.49594 35.6453C8.49594 36.9413 9.56261 38 10.8693 38H20.3199C21.6266 38 22.6933 36.9413 22.6933 35.6453C22.6933 34.3493 21.6266 33.2907 20.3199 33.2907ZM28.4026 19.8347C27.0959 19.8347 26.0293 20.8933 26.0293 22.1893C26.0293 23.4853 27.0959 24.544 28.4026 24.544C29.7093 24.544 30.7759 23.4853 30.7759 22.1893C30.7759 20.8933 29.7093 19.8347 28.4026 19.8347ZM4.87727 26.5653C3.57061 26.5653 2.50394 27.624 2.50394 28.92C2.50394 30.216 3.57061 31.2747 4.87727 31.2747C6.18394 31.2747 7.25061 30.216 7.25061 28.92C7.25061 27.624 6.18394 26.5653 4.87727 26.5653ZM10.6559 24.5493C11.9626 24.5493 13.0293 23.4907 13.0293 22.1947C13.0293 20.8987 11.9626 19.84 10.6559 19.84H2.77861C1.47194 19.84 0.405273 20.8987 0.405273 22.1947C0.405273 23.4907 1.47194 24.5493 2.77861 24.5493H10.6559Z" fill="#2DB8CF"/>
</svg>
