<svg width="142" height="50" viewBox="0 0 142 50" fill="none" xmlns="http://www.w3.org/2000/svg">
<path d="M27.9131 7.46085L24.3976 8.26942L24.8546 7.49601V28.8703L24.3976 28.2375L27.9131 28.9757V30.4874H19.1595V28.9757L22.7453 28.2375L22.1828 28.8703V9.14829L22.6398 9.18345L14.6596 24.0892L12.7261 24.2298L4.99201 9.11314L5.41387 9.07798V28.8703L4.99201 28.2726L8.47236 28.9757V30.4874H0V28.9757L3.5155 28.2375L3.02333 28.8703V7.49601L3.5155 8.26942L0 7.63663V6.12496L6.57399 5.94919L14.2026 21.3822H13.7808L21.6555 6.12496L27.9131 5.94919V7.46085Z" fill="black"/>
<path d="M35.5467 30.4874V28.9757L39.6247 28.2375L39.0622 29.0109V7.56632L39.695 8.09364H32.9101L33.6132 7.49601L32.9101 11.9607H31.1523V5.94919H49.8196V11.9607H48.0619L47.3588 7.56632L48.0619 8.09364H41.277L41.9098 7.56632V29.0109L41.3824 28.2375L45.4253 28.9757V30.4874H35.5467Z" fill="black"/>
<path d="M81.0205 7.46085L77.505 8.26942L77.9621 7.49601V28.8703L77.505 28.2375L81.0205 28.9757V30.4874H72.2669V28.9757L75.8527 28.2375L75.2903 28.8703V9.14829L75.7473 9.18345L67.7671 24.0892L65.8336 24.2298L58.0995 9.11314L58.5213 9.07798V28.8703L58.0995 28.2726L61.5798 28.9757V30.4874H53.1074V28.9757L56.6229 28.2375L56.1308 28.8703V7.49601L56.6229 8.26942L53.1074 7.63663V6.12496L59.6814 5.94919L67.3101 21.3822H66.8882L74.7629 6.12496L81.0205 5.94919V7.46085Z" fill="black"/>
<path d="M91.3435 30.8389C90.0545 30.8389 88.8358 30.7218 87.6874 30.4874C86.539 30.253 85.5429 29.9132 84.6992 29.4679V24.8977C85.6601 25.4602 86.7031 25.8938 87.828 26.1985C88.953 26.4797 90.0428 26.6203 91.0974 26.6203C91.9412 26.6203 92.7028 26.5383 93.3825 26.3743C94.0622 26.2102 94.6481 25.9641 95.1403 25.636C95.6559 25.2845 96.0426 24.8509 96.3004 24.3353C96.5816 23.8197 96.7222 23.2103 96.7222 22.5072C96.7222 21.9447 96.5816 21.4408 96.3004 20.9955C96.0426 20.5502 95.5973 20.1987 94.9645 19.9409C94.3317 19.6831 93.4411 19.5542 92.2927 19.5542H89.9373L90.7107 15.7574H91.9763C92.7263 15.7574 93.4645 15.6871 94.1911 15.5465C94.9176 15.4059 95.5738 15.1832 96.1598 14.8786C96.7691 14.5739 97.2496 14.1637 97.6011 13.6481C97.9527 13.1325 98.1284 12.4997 98.1284 11.7498C98.1284 11.0701 97.9058 10.4959 97.4605 10.0272C97.0152 9.55843 96.3004 9.32407 95.316 9.32407C94.2848 9.32407 93.3591 9.51156 92.5388 9.88655C91.7185 10.2615 91.0037 10.6482 90.3943 11.0467L88.2147 7.53116C89.3397 6.78119 90.5232 6.18355 91.7654 5.73826C93.031 5.26952 94.5895 5.03516 96.441 5.03516C97.9878 5.03516 99.2768 5.29296 100.308 5.80857C101.34 6.30074 102.113 6.9804 102.629 7.84756C103.144 8.69128 103.402 9.6639 103.402 10.7654C103.402 11.9138 103.168 12.9568 102.699 13.8942C102.23 14.8317 101.539 15.6168 100.625 16.2496C99.7104 16.859 98.5972 17.2808 97.2847 17.5152V17.6558C98.5503 17.8902 99.6284 18.4292 100.519 19.2729C101.41 20.1167 101.855 21.3354 101.855 22.9291C101.855 23.9134 101.644 24.886 101.222 25.8469C100.824 26.7844 100.203 27.6281 99.3589 28.3781C98.5151 29.1281 97.4253 29.7257 96.0894 30.171C94.777 30.6163 93.195 30.8389 91.3435 30.8389Z" fill="black"/>
<path d="M111.619 30.8389C110.002 30.8389 108.642 30.5108 107.541 29.8546C106.463 29.1984 105.642 28.2492 105.08 27.007C104.541 25.7415 104.271 24.2181 104.271 22.4369C104.271 21.0776 104.388 19.7182 104.623 18.3589C104.881 16.9996 105.244 15.6871 105.713 14.4215C106.205 13.156 106.791 11.9841 107.47 10.906C108.173 9.82796 108.959 8.89049 109.826 8.09364C110.599 7.39054 111.419 6.81634 112.287 6.37105C113.177 5.90231 114.15 5.56248 115.205 5.35155C116.259 5.11718 117.431 5 118.72 5C119.447 5 120.15 5.04687 120.829 5.14062C121.532 5.23437 122.107 5.33983 122.552 5.45702L121.673 9.67562C121.251 9.55844 120.736 9.46469 120.126 9.39438C119.54 9.30063 118.966 9.25376 118.404 9.25376C116.857 9.25376 115.521 9.54672 114.396 10.1326C113.271 10.7185 112.334 11.5857 111.584 12.7341C110.834 13.8825 110.224 15.3121 109.755 17.023H109.896C110.295 16.484 110.74 16.0035 111.232 15.5817C111.748 15.1364 112.334 14.7965 112.99 14.5622C113.669 14.3044 114.419 14.1755 115.24 14.1755C116.974 14.1755 118.345 14.7145 119.353 15.7926C120.361 16.8707 120.864 18.4527 120.864 20.5385C120.864 21.5229 120.712 22.6127 120.407 23.8079C120.126 24.9798 119.634 26.1047 118.931 27.1828C118.228 28.2375 117.279 29.1164 116.083 29.8195C114.912 30.4991 113.423 30.8389 111.619 30.8389ZM111.865 26.5852C112.498 26.5852 113.048 26.4211 113.517 26.093C114.009 25.7649 114.408 25.3313 114.712 24.7923C115.04 24.2532 115.287 23.6556 115.451 22.9994C115.615 22.3197 115.697 21.6283 115.697 20.9252C115.697 20.1049 115.497 19.4604 115.099 18.9917C114.724 18.4995 114.15 18.2534 113.376 18.2534C112.72 18.2534 112.111 18.4292 111.548 18.7808C110.986 19.1323 110.517 19.5659 110.142 20.0815C109.791 20.5971 109.568 21.1244 109.474 21.6635C109.451 21.8275 109.427 22.0033 109.404 22.1908C109.38 22.3549 109.357 22.5306 109.334 22.7181C109.334 22.8822 109.334 23.058 109.334 23.2455C109.334 23.7376 109.392 24.1829 109.509 24.5814C109.627 24.9798 109.791 25.3313 110.002 25.636C110.212 25.9407 110.47 26.175 110.775 26.3391C111.103 26.5032 111.466 26.5852 111.865 26.5852Z" fill="black"/>
<path d="M130.174 30.8389C127.807 30.8389 126.061 30.1124 124.936 28.6593C123.811 27.2063 123.248 25.1438 123.248 22.472C123.248 20.9487 123.354 19.4604 123.565 18.0074C123.776 16.5543 124.092 15.1832 124.514 13.8942C124.936 12.5818 125.451 11.3865 126.061 10.3084C126.694 9.23032 127.42 8.29285 128.24 7.49601C129.061 6.69916 129.975 6.08981 130.982 5.66795C132.014 5.22265 133.127 5 134.322 5C135.4 5 136.361 5.16406 137.205 5.49217C138.049 5.79685 138.763 6.2773 139.349 6.93353C139.959 7.58975 140.416 8.43347 140.72 9.46469C141.025 10.4959 141.177 11.7146 141.177 13.1208C141.177 14.5973 141.084 16.0621 140.896 17.5152C140.709 18.9683 140.427 20.3627 140.052 21.6986C139.677 23.0111 139.185 24.2298 138.576 25.3548C137.99 26.4563 137.287 27.4172 136.467 28.2375C135.67 29.0578 134.744 29.7023 133.689 30.171C132.635 30.6163 131.463 30.8389 130.174 30.8389ZM130.596 26.55C131.158 26.55 131.674 26.3508 132.143 25.9524C132.635 25.5305 133.08 24.9681 133.478 24.265C133.877 23.5619 134.228 22.7533 134.533 21.8393C134.838 20.9252 135.096 19.9643 135.306 18.9565C135.541 17.9253 135.705 16.8941 135.799 15.8629C135.916 14.8317 135.974 13.8591 135.974 12.945C135.974 11.6795 135.799 10.7537 135.447 10.1678C135.096 9.58187 134.568 9.28891 133.865 9.28891C133.279 9.28891 132.74 9.51156 132.248 9.95686C131.756 10.4022 131.311 10.9998 130.912 11.7498C130.514 12.4997 130.15 13.3552 129.822 14.3161C129.518 15.2536 129.26 16.2262 129.049 17.234C128.861 18.2183 128.709 19.1792 128.592 20.1167C128.498 21.0307 128.451 21.851 128.451 22.5775C128.451 23.8665 128.604 24.8509 128.908 25.5305C129.236 26.2102 129.799 26.55 130.596 26.55Z" fill="black"/>
<path d="M3.28209 44.2984L1.30778 38.7502H1.27122C1.27731 38.8721 1.28645 39.0366 1.29864 39.2438C1.31083 39.4509 1.31997 39.6734 1.32606 39.911C1.33215 40.1487 1.3352 40.3833 1.3352 40.6148V44.2984H0.439453V37.7722H1.84706L3.72082 43.0096H3.75738L5.68599 37.7722H7.09359V44.2984H6.13386V40.56C6.13386 40.3467 6.13691 40.1273 6.143 39.9019C6.15519 39.6703 6.16433 39.454 6.17042 39.2529C6.18261 39.0518 6.19175 38.8873 6.19784 38.7593H6.16128L4.13214 44.2984H3.28209Z" fill="black"/>
<path d="M18.3361 41.0261C18.3361 41.5319 18.2721 41.9919 18.1441 42.4063C18.0223 42.8146 17.8334 43.168 17.5774 43.4666C17.3276 43.7652 17.0107 43.9937 16.6268 44.1521C16.249 44.3105 15.8073 44.3898 15.3015 44.3898C14.7835 44.3898 14.3326 44.3105 13.9487 44.1521C13.5709 43.9876 13.2541 43.7591 12.9981 43.4666C12.7483 43.168 12.5624 42.8115 12.4406 42.3972C12.3187 41.9828 12.2578 41.5227 12.2578 41.017C12.2578 40.3467 12.3675 39.7617 12.5868 39.262C12.8062 38.7624 13.1413 38.3724 13.5923 38.0921C14.0493 37.8118 14.6221 37.6716 15.3106 37.6716C15.9809 37.6716 16.5385 37.8118 16.9833 38.0921C17.4342 38.3663 17.7724 38.7563 17.9979 39.262C18.2233 39.7617 18.3361 40.3497 18.3361 41.0261ZM13.2998 41.0261C13.2998 41.5502 13.3698 42.0011 13.51 42.3789C13.6501 42.7506 13.8695 43.04 14.1681 43.2472C14.4667 43.4483 14.8445 43.5488 15.3015 43.5488C15.7646 43.5488 16.1424 43.4483 16.4349 43.2472C16.7274 43.04 16.9437 42.7506 17.0839 42.3789C17.224 42.0011 17.2941 41.5502 17.2941 41.0261C17.2941 40.2401 17.1356 39.6277 16.8188 39.1889C16.508 38.7441 16.0053 38.5217 15.3106 38.5217C14.8475 38.5217 14.4667 38.6222 14.1681 38.8233C13.8695 39.0244 13.6501 39.3108 13.51 39.6825C13.3698 40.0542 13.2998 40.5021 13.2998 41.0261Z" fill="black"/>
<path d="M25.33 37.7722C25.8906 37.7722 26.3507 37.8422 26.7102 37.9824C27.0697 38.1226 27.3379 38.3328 27.5146 38.6131C27.6913 38.8873 27.7796 39.2346 27.7796 39.6551C27.7796 39.9902 27.7157 40.2736 27.5877 40.5051C27.4658 40.7306 27.3074 40.9164 27.1124 41.0627C26.9174 41.2028 26.7133 41.3156 26.5 41.4009L28.3281 44.2984H27.1947L25.6225 41.6568H24.4891V44.2984H23.502V37.7722H25.33ZM25.2661 38.6131H24.4891V40.8342H25.3118C25.6469 40.8342 25.9211 40.7915 26.1344 40.7062C26.3537 40.6209 26.5122 40.4929 26.6097 40.3223C26.7133 40.1517 26.7651 39.9415 26.7651 39.6916C26.7651 39.4296 26.7102 39.2224 26.6005 39.0701C26.4969 38.9117 26.3324 38.7959 26.107 38.7228C25.8876 38.6496 25.6073 38.6131 25.2661 38.6131Z" fill="black"/>
<path d="M36.7076 44.2984H33.0332V37.7722H36.7076V38.6131H34.0204V40.4777H36.5431V41.3095H34.0204V43.4483H36.7076V44.2984Z" fill="black"/>
<path d="M50.1854 44.2984H49.1983V38.6222H47.2422V37.7722H52.1415V38.6222H50.1854V44.2984Z" fill="black"/>
<path d="M61.9799 44.2984H60.9927V41.3186H57.8759V44.2984H56.8887V37.7722H57.8759V40.4777H60.9927V37.7722H61.9799V44.2984Z" fill="black"/>
<path d="M71.5413 44.2984L70.8466 42.4154H68.3239L67.6292 44.2984H66.6055L69.0825 37.7448H70.1062L72.5741 44.2984H71.5413ZM69.9143 39.7191C69.896 39.652 69.8625 39.5515 69.8138 39.4174C69.7711 39.2773 69.7284 39.1371 69.6858 38.997C69.6431 38.8507 69.6096 38.7319 69.5852 38.6405C69.5548 38.7624 69.5182 38.8964 69.4756 39.0427C69.439 39.1828 69.4024 39.3138 69.3659 39.4357C69.3293 39.5515 69.2988 39.6459 69.2745 39.7191L68.6164 41.5563H70.5724L69.9143 39.7191Z" fill="black"/>
<path d="M82.5575 44.2984H81.3601L78.0604 39.0244H78.0239C78.03 39.1463 78.036 39.2773 78.0421 39.4174C78.0543 39.5576 78.0635 39.7069 78.0696 39.8653C78.0757 40.0176 78.0818 40.1761 78.0878 40.3406C78.0939 40.499 78.097 40.6605 78.097 40.825V44.2984H77.2012V37.7722H78.3895L81.68 43.0187H81.7074C81.7013 42.9273 81.6952 42.8146 81.6891 42.6805C81.683 42.5404 81.6769 42.3911 81.6708 42.2326C81.6708 42.0742 81.6678 41.9127 81.6617 41.7482C81.6556 41.5837 81.6495 41.4283 81.6434 41.2821V37.7722H82.5575V44.2984Z" fill="black"/>
<path d="M97.0106 44.2984L95.0363 38.7502H94.9997C95.0058 38.8721 95.015 39.0366 95.0272 39.2438C95.0393 39.4509 95.0485 39.6734 95.0546 39.911C95.0607 40.1487 95.0637 40.3833 95.0637 40.6148V44.2984H94.168V37.7722H95.5756L97.4493 43.0096H97.4859L99.4145 37.7722H100.823V44.2984H99.8624V40.56C99.8624 40.3467 99.8654 40.1273 99.8715 39.9019C99.8837 39.6703 99.8928 39.454 99.8989 39.2529C99.9111 39.0518 99.9203 38.8873 99.9263 38.7593H99.8898L97.8606 44.2984H97.0106Z" fill="black"/>
<path d="M112.063 41.0261C112.063 41.5319 111.999 41.9919 111.871 42.4063C111.749 42.8146 111.56 43.168 111.304 43.4666C111.054 43.7652 110.737 43.9937 110.354 44.1521C109.976 44.3105 109.534 44.3898 109.028 44.3898C108.51 44.3898 108.059 44.3105 107.675 44.1521C107.298 43.9876 106.981 43.7591 106.725 43.4666C106.475 43.168 106.289 42.8115 106.167 42.3972C106.045 41.9828 105.984 41.5227 105.984 41.017C105.984 40.3467 106.094 39.7617 106.314 39.262C106.533 38.7624 106.868 38.3724 107.319 38.0921C107.776 37.8118 108.349 37.6716 109.037 37.6716C109.708 37.6716 110.265 37.8118 110.71 38.0921C111.161 38.3663 111.499 38.7563 111.725 39.262C111.95 39.7617 112.063 40.3497 112.063 41.0261ZM107.026 41.0261C107.026 41.5502 107.097 42.0011 107.237 42.3789C107.377 42.7506 107.596 43.04 107.895 43.2472C108.193 43.4483 108.571 43.5488 109.028 43.5488C109.491 43.5488 109.869 43.4483 110.162 43.2472C110.454 43.04 110.67 42.7506 110.811 42.3789C110.951 42.0011 111.021 41.5502 111.021 41.0261C111.021 40.2401 110.862 39.6277 110.546 39.1889C110.235 38.7441 109.732 38.5217 109.037 38.5217C108.574 38.5217 108.193 38.6222 107.895 38.8233C107.596 39.0244 107.377 39.3108 107.237 39.6825C107.097 40.0542 107.026 40.5021 107.026 41.0261Z" fill="black"/>
<path d="M122.586 44.2984H121.388L118.089 39.0244H118.052C118.058 39.1463 118.064 39.2773 118.07 39.4174C118.083 39.5576 118.092 39.7069 118.098 39.8653C118.104 40.0176 118.11 40.1761 118.116 40.3406C118.122 40.499 118.125 40.6605 118.125 40.825V44.2984H117.229V37.7722H118.418L121.708 43.0187H121.736C121.73 42.9273 121.723 42.8146 121.717 42.6805C121.711 42.5404 121.705 42.3911 121.699 42.2326C121.699 42.0742 121.696 41.9127 121.69 41.7482C121.684 41.5837 121.678 41.4283 121.672 41.2821V37.7722H122.586V44.2984Z" fill="black"/>
<path d="M131.747 44.2984H128.072V37.7722H131.747V38.6131H129.059V40.4777H131.582V41.3095H129.059V43.4483H131.747V44.2984Z" fill="black"/>
<path d="M138.708 40.825L140.308 37.7722H141.368L139.193 41.7665V44.2984H138.215V41.803L136.039 37.7722H137.109L138.708 40.825Z" fill="black"/>
</svg>
