<svg width="720" height="600" viewBox="0 0 720 600" fill="none" xmlns="http://www.w3.org/2000/svg">
<g clip-path="url(#clip0_1209_56320)">
<g opacity="0.5" filter="url(#filter0_f_1209_56320)" style="mix-blend-mode:plus-lighter">
<ellipse cx="441" cy="334.5" rx="163" ry="164.5" fill="url(#paint0_radial_1209_56320)"/>
</g>
<g opacity="0.5" filter="url(#filter1_f_1209_56320)" style="mix-blend-mode:plus-lighter">
<ellipse cx="278" cy="275.5" rx="163" ry="164.5" fill="url(#paint1_radial_1209_56320)"/>
</g>
<g clip-path="url(#clip1_1209_56320)">
<mask id="path-5-inside-1_1209_56320" fill="white">
<path d="M101 86H619V149.053H101V86Z"/>
</mask>
<path d="M619 149.053V148.098H101V149.053V150.009H619V149.053Z" fill="#2DB8CF" mask="url(#path-5-inside-1_1209_56320)"/>
<circle cx="140.17" cy="117.527" r="8.1205" stroke="#2DB8CF" stroke-width="0.955353"/>
<circle cx="170.741" cy="117.527" r="8.1205" stroke="#2DB8CF" stroke-width="0.955353"/>
<circle cx="201.313" cy="117.527" r="8.1205" stroke="#2DB8CF" stroke-width="0.955353"/>
<path d="M152.268 223.489V220.781H154.291C154.851 220.781 155.266 220.698 155.536 220.532C155.806 220.366 156.013 220.086 156.159 219.691L156.688 218.322H155.661L149.685 202.262H153.171L157.715 215.272L162.041 202.262H165.558L158.96 220.75C158.628 221.704 158.13 222.399 157.466 222.835C156.823 223.271 155.92 223.489 154.758 223.489H152.268ZM174.503 219.193C172.926 219.193 171.546 218.841 170.364 218.135C169.181 217.43 168.268 216.423 167.625 215.116C166.981 213.809 166.66 212.284 166.66 210.541C166.66 208.777 166.981 207.252 167.625 205.965C168.268 204.679 169.181 203.683 170.364 202.977C171.546 202.251 172.926 201.888 174.503 201.888C176.08 201.888 177.46 202.251 178.643 202.977C179.826 203.683 180.739 204.679 181.382 205.965C182.025 207.252 182.347 208.777 182.347 210.541C182.347 212.284 182.025 213.809 181.382 215.116C180.739 216.423 179.826 217.43 178.643 218.135C177.46 218.841 176.08 219.193 174.503 219.193ZM174.503 216.33C175.914 216.33 177.004 215.821 177.771 214.805C178.539 213.767 178.923 212.346 178.923 210.541C178.923 208.735 178.539 207.324 177.771 206.308C177.004 205.27 175.914 204.751 174.503 204.751C173.113 204.751 172.024 205.27 171.235 206.308C170.467 207.324 170.084 208.735 170.084 210.541C170.084 212.346 170.467 213.767 171.235 214.805C172.024 215.821 173.113 216.33 174.503 216.33ZM191.128 219.193C189.468 219.193 188.14 218.643 187.144 217.544C186.168 216.423 185.681 214.877 185.681 212.906V202.262H188.98V212.066C188.98 213.56 189.239 214.659 189.758 215.365C190.277 216.07 191.065 216.423 192.124 216.423C193.327 216.423 194.261 216.039 194.925 215.272C195.61 214.483 195.952 213.383 195.952 211.972V202.262H199.251V218.82H196.17L196.108 214.494L196.574 214.68C196.284 216.133 195.672 217.253 194.738 218.042C193.804 218.809 192.601 219.193 191.128 219.193ZM203.918 218.82V202.262H206.937L207.062 206.65L206.781 206.557C207.01 205.063 207.466 203.973 208.151 203.289C208.856 202.604 209.8 202.262 210.983 202.262H212.571V205.218H210.983C210.153 205.218 209.458 205.353 208.898 205.623C208.338 205.893 207.912 206.308 207.622 206.868C207.352 207.428 207.217 208.154 207.217 209.047V218.82H203.918ZM221.302 219.193C219.745 219.193 218.428 218.955 217.349 218.477C216.29 218 215.471 217.347 214.89 216.517C214.309 215.666 213.977 214.691 213.894 213.591L217.286 213.435C217.452 214.348 217.847 215.074 218.469 215.614C219.092 216.153 220.036 216.423 221.302 216.423C222.339 216.423 223.159 216.257 223.76 215.925C224.362 215.593 224.663 215.064 224.663 214.338C224.663 213.944 224.559 213.612 224.352 213.342C224.165 213.051 223.791 212.813 223.231 212.626C222.671 212.419 221.841 212.221 220.741 212.035C219.102 211.723 217.816 211.36 216.882 210.945C215.948 210.53 215.284 210.001 214.89 209.358C214.496 208.715 214.298 207.937 214.298 207.024C214.298 205.509 214.859 204.274 215.979 203.32C217.12 202.365 218.76 201.888 220.897 201.888C222.329 201.888 223.532 202.137 224.507 202.635C225.483 203.112 226.24 203.766 226.779 204.596C227.34 205.405 227.692 206.318 227.838 207.335L224.445 207.522C224.341 206.941 224.134 206.443 223.823 206.028C223.532 205.592 223.138 205.26 222.64 205.032C222.142 204.783 221.551 204.658 220.866 204.658C219.808 204.658 219.019 204.866 218.5 205.281C217.982 205.696 217.722 206.235 217.722 206.899C217.722 207.397 217.836 207.802 218.065 208.113C218.314 208.424 218.708 208.684 219.247 208.891C219.787 209.078 220.503 209.244 221.395 209.389C223.117 209.68 224.466 210.043 225.441 210.478C226.416 210.893 227.101 211.412 227.495 212.035C227.89 212.657 228.087 213.415 228.087 214.307C228.087 215.344 227.796 216.226 227.215 216.952C226.634 217.679 225.835 218.239 224.819 218.633C223.802 219.007 222.63 219.193 221.302 219.193ZM231.426 218.82V202.262H234.725V218.82H231.426ZM231.363 199.865V196.566H234.787V199.865H231.363ZM244.614 218.82C243.037 218.82 241.875 218.457 241.128 217.73C240.381 217.004 240.007 215.873 240.007 214.338V198.371H243.307V214.089C243.307 214.857 243.473 215.386 243.805 215.676C244.137 215.967 244.645 216.112 245.33 216.112H247.695V218.82H244.614ZM237.486 204.969V202.262H247.695V204.969H237.486ZM257.391 219.193C255.772 219.193 254.372 218.841 253.189 218.135C252.027 217.43 251.124 216.423 250.481 215.116C249.859 213.809 249.547 212.284 249.547 210.541C249.547 208.798 249.859 207.283 250.481 205.996C251.124 204.689 252.027 203.683 253.189 202.977C254.351 202.251 255.72 201.888 257.297 201.888C258.791 201.888 260.109 202.241 261.25 202.946C262.391 203.631 263.273 204.627 263.896 205.934C264.539 207.241 264.861 208.818 264.861 210.665V211.506H252.971C253.054 213.124 253.479 214.338 254.247 215.147C255.036 215.956 256.094 216.361 257.422 216.361C258.397 216.361 259.206 216.133 259.85 215.676C260.493 215.22 260.939 214.608 261.188 213.84L264.612 214.058C264.176 215.593 263.315 216.838 262.028 217.793C260.763 218.726 259.217 219.193 257.391 219.193ZM252.971 209.016H261.375C261.271 207.542 260.846 206.453 260.099 205.747C259.372 205.042 258.439 204.689 257.297 204.689C256.115 204.689 255.139 205.063 254.372 205.81C253.625 206.536 253.158 207.605 252.971 209.016ZM267.48 218.82V214.898H271.496V218.82H267.48ZM281.95 219.193C280.373 219.193 278.993 218.841 277.81 218.135C276.628 217.43 275.715 216.423 275.071 215.116C274.428 213.809 274.107 212.284 274.107 210.541C274.107 208.798 274.428 207.283 275.071 205.996C275.715 204.689 276.628 203.683 277.81 202.977C278.993 202.251 280.373 201.888 281.95 201.888C283.299 201.888 284.492 202.127 285.529 202.604C286.588 203.06 287.438 203.735 288.082 204.627C288.746 205.519 289.171 206.609 289.358 207.895L285.903 208.082C285.737 207.003 285.301 206.183 284.596 205.623C283.89 205.042 283.008 204.751 281.95 204.751C280.56 204.751 279.47 205.27 278.682 206.308C277.914 207.324 277.53 208.735 277.53 210.541C277.53 212.346 277.914 213.767 278.682 214.805C279.47 215.821 280.56 216.33 281.95 216.33C283.008 216.33 283.89 216.039 284.596 215.458C285.301 214.857 285.737 213.954 285.903 212.751L289.358 212.937C289.171 214.203 288.746 215.303 288.082 216.236C287.438 217.17 286.588 217.896 285.529 218.415C284.492 218.934 283.299 219.193 281.95 219.193ZM299.184 219.193C297.607 219.193 296.227 218.841 295.044 218.135C293.862 217.43 292.949 216.423 292.306 215.116C291.662 213.809 291.341 212.284 291.341 210.541C291.341 208.777 291.662 207.252 292.306 205.965C292.949 204.679 293.862 203.683 295.044 202.977C296.227 202.251 297.607 201.888 299.184 201.888C300.761 201.888 302.141 202.251 303.324 202.977C304.506 203.683 305.419 204.679 306.063 205.965C306.706 207.252 307.027 208.777 307.027 210.541C307.027 212.284 306.706 213.809 306.063 215.116C305.419 216.423 304.506 217.43 303.324 218.135C302.141 218.841 300.761 219.193 299.184 219.193ZM299.184 216.33C300.595 216.33 301.684 215.821 302.452 214.805C303.22 213.767 303.604 212.346 303.604 210.541C303.604 208.735 303.22 207.324 302.452 206.308C301.684 205.27 300.595 204.751 299.184 204.751C297.794 204.751 296.704 205.27 295.916 206.308C295.148 207.324 294.764 208.735 294.764 210.541C294.764 212.346 295.148 213.767 295.916 214.805C296.704 215.821 297.794 216.33 299.184 216.33ZM310.362 218.82V202.262H313.381L313.474 206.37L313.101 206.245C313.287 205.332 313.609 204.554 314.066 203.911C314.543 203.268 315.124 202.77 315.808 202.417C316.493 202.064 317.24 201.888 318.049 201.888C319.46 201.888 320.612 202.293 321.504 203.102C322.397 203.89 322.957 204.98 323.185 206.37H322.656C322.843 205.395 323.154 204.585 323.59 203.942C324.046 203.278 324.627 202.77 325.333 202.417C326.038 202.064 326.837 201.888 327.729 201.888C328.891 201.888 329.877 202.137 330.686 202.635C331.516 203.112 332.139 203.818 332.554 204.751C332.989 205.685 333.207 206.826 333.207 208.175V218.82H329.908V208.984C329.908 207.553 329.649 206.474 329.13 205.747C328.611 205.021 327.823 204.658 326.764 204.658C326.08 204.658 325.478 204.834 324.959 205.187C324.44 205.54 324.036 206.048 323.745 206.712C323.476 207.376 323.341 208.175 323.341 209.109V218.82H320.197V209.109C320.197 207.698 319.958 206.609 319.481 205.841C319.025 205.052 318.236 204.658 317.116 204.658C316.41 204.658 315.798 204.834 315.279 205.187C314.781 205.54 314.387 206.059 314.097 206.743C313.806 207.407 313.661 208.196 313.661 209.109V218.82H310.362Z" fill="#FCFCFB"/>
<rect width="67.8366" height="28.4498" transform="translate(503.164 193.095)" fill="#FCFCFB" fill-opacity="0.1"/>
<rect x="512.502" y="202.629" width="9.3807" height="9.3807" fill="#72D8E8"/>
<path d="M531.096 213.32V202.271H532.434V212.697L531.765 212.013H537.959V213.32H531.096ZM539.348 213.32V202.271H540.686V213.32H539.348ZM546.118 213.32L542.118 202.271H543.581L547.005 211.857L550.413 202.271H551.876L547.876 213.32H546.118ZM553.269 213.32V202.271H560.21V203.578H554.607V207.142H560.023V208.418H554.607V212.013H560.334V213.32H553.269Z" fill="#FCFCFB"/>
<rect x="149.478" y="241.972" width="421.045" height="47.8568" fill="#FCFCFB"/>
<rect x="149.478" y="241.972" width="421.045" height="47.8568" stroke="#2DB8CF" stroke-width="0.955353"/>
<path d="M169.256 272.401V260.191H176.925V261.636H170.735V265.574H176.719V266.984H170.735V270.956H177.063V272.401H169.256ZM179.449 272.401V260.191H181.547L187.583 270.922V260.191H189.062V272.401H186.861L180.928 261.877V272.401H179.449ZM195.075 272.401L190.655 260.191H192.272L196.055 270.784L199.821 260.191H201.437L197.018 272.401H195.075ZM202.977 272.401V260.191H204.456V272.401H202.977ZM207.276 272.401V260.191H211.902C212.762 260.191 213.501 260.341 214.12 260.639C214.739 260.937 215.215 261.367 215.547 261.928C215.891 262.479 216.063 263.132 216.063 263.889C216.063 264.439 215.931 264.932 215.668 265.368C215.416 265.792 215.089 266.13 214.688 266.382C214.286 266.634 213.868 266.772 213.432 266.795L213.329 266.64C214.074 266.64 214.659 266.812 215.083 267.156C215.519 267.5 215.771 268.05 215.84 268.807L216.184 272.401H214.688L214.378 268.962C214.332 268.457 214.149 268.085 213.828 267.844C213.518 267.603 213.008 267.483 212.297 267.483H208.755V272.401H207.276ZM208.755 266.038H212.091C212.836 266.038 213.427 265.849 213.862 265.471C214.298 265.092 214.516 264.554 214.516 263.854C214.516 263.144 214.292 262.599 213.845 262.221C213.398 261.831 212.75 261.636 211.902 261.636H208.755V266.038ZM223.341 272.676C222.183 272.676 221.186 272.424 220.349 271.919C219.524 271.403 218.887 270.67 218.44 269.718C217.993 268.767 217.77 267.632 217.77 266.313C217.77 264.995 217.993 263.86 218.44 262.908C218.887 261.945 219.524 261.206 220.349 260.69C221.186 260.174 222.183 259.916 223.341 259.916C224.511 259.916 225.508 260.174 226.333 260.69C227.17 261.206 227.812 261.945 228.259 262.908C228.707 263.86 228.93 264.995 228.93 266.313C228.93 267.632 228.707 268.767 228.259 269.718C227.812 270.67 227.17 271.403 226.333 271.919C225.508 272.424 224.511 272.676 223.341 272.676ZM223.341 271.232C224.19 271.232 224.912 271.037 225.508 270.647C226.116 270.257 226.58 269.695 226.901 268.962C227.222 268.228 227.382 267.345 227.382 266.313C227.382 265.282 227.222 264.399 226.901 263.665C226.58 262.92 226.116 262.352 225.508 261.963C224.912 261.561 224.19 261.361 223.341 261.361C222.504 261.361 221.782 261.561 221.175 261.963C220.578 262.352 220.12 262.92 219.799 263.665C219.478 264.399 219.317 265.282 219.317 266.313C219.317 267.345 219.478 268.228 219.799 268.962C220.12 269.695 220.578 270.257 221.175 270.647C221.782 271.037 222.504 271.232 223.341 271.232ZM231.055 272.401V260.191H233.153L239.189 270.922V260.191H240.668V272.401H238.467L232.534 261.877V272.401H231.055ZM243.499 272.401V260.191H245.563L249.466 270.784L253.353 260.191H255.416V272.401H253.937V262.943L250.446 272.401H248.469L244.978 262.943V272.401H243.499ZM258.244 272.401V260.191H265.913V261.636H259.723V265.574H265.707V266.984H259.723V270.956H266.051V272.401H258.244ZM268.437 272.401V260.191H270.535L276.571 270.922V260.191H278.05V272.401H275.849L269.916 261.877V272.401H268.437ZM282.953 272.401V261.636H279.153V260.191H288.232V261.636H284.432V272.401H282.953Z" fill="#002024"/>
<path d="M399.744 272.901V259.217H404.736C405.559 259.217 406.302 259.374 406.968 259.687C407.634 259.987 408.162 260.444 408.554 261.057C408.945 261.657 409.141 262.408 409.141 263.308C409.141 264.209 408.945 264.966 408.554 265.579C408.162 266.18 407.634 266.636 406.968 266.95C406.302 267.25 405.559 267.4 404.736 267.4H401.526V272.901H399.744ZM401.526 265.853H404.501C405.376 265.853 406.054 265.625 406.537 265.168C407.033 264.711 407.281 264.091 407.281 263.308C407.281 262.525 407.033 261.905 406.537 261.449C406.054 260.992 405.376 260.763 404.501 260.763H401.526V265.853ZM412.1 272.901V262.643H413.608V264.855C413.947 264.124 414.436 263.524 415.076 263.054C415.715 262.584 416.453 262.349 417.288 262.349C418.463 262.349 419.357 262.649 419.97 263.25C420.597 263.85 420.955 264.659 421.047 265.677H419.422C419.304 265.064 419.063 264.594 418.698 264.268C418.345 263.941 417.823 263.778 417.131 263.778C416.453 263.778 415.859 263.961 415.35 264.326C414.841 264.679 414.443 265.168 414.156 265.795C413.882 266.408 413.745 267.119 413.745 267.928V272.901H412.1ZM427.432 262.33C428.489 262.33 429.357 262.571 430.036 263.054C430.727 263.524 431.236 264.17 431.563 264.992C431.902 265.814 432.072 266.747 432.072 267.791C432.072 268.822 431.902 269.756 431.563 270.591C431.236 271.413 430.727 272.066 430.036 272.549C429.357 273.018 428.489 273.253 427.432 273.253C426.388 273.253 425.52 273.018 424.828 272.549C424.137 272.066 423.621 271.413 423.282 270.591C422.955 269.756 422.792 268.822 422.792 267.791C422.792 266.747 422.955 265.814 423.282 264.992C423.621 264.17 424.137 263.524 424.828 263.054C425.52 262.571 426.388 262.33 427.432 262.33ZM427.432 263.837C426.74 263.837 426.179 264.02 425.748 264.385C425.318 264.751 424.998 265.233 424.789 265.834C424.593 266.434 424.495 267.087 424.495 267.791C424.495 268.483 424.593 269.136 424.789 269.749C424.998 270.349 425.318 270.832 425.748 271.198C426.179 271.563 426.74 271.746 427.432 271.746C428.124 271.746 428.685 271.563 429.115 271.198C429.546 270.832 429.859 270.349 430.055 269.749C430.264 269.136 430.368 268.483 430.368 267.791C430.368 267.087 430.264 266.434 430.055 265.834C429.859 265.233 429.546 264.751 429.115 264.385C428.685 264.02 428.124 263.837 427.432 263.837ZM441.863 258.63H443.488V272.901H442.039V271.452C441.217 272.653 440.127 273.253 438.77 273.253C437.765 273.253 436.93 273.012 436.264 272.529C435.599 272.033 435.103 271.361 434.776 270.513C434.463 269.664 434.306 268.718 434.306 267.674C434.306 266.682 434.47 265.788 434.796 264.992C435.122 264.183 435.612 263.537 436.264 263.054C436.93 262.571 437.745 262.33 438.711 262.33C440.108 262.33 441.158 262.858 441.863 263.915V258.63ZM438.985 263.857C438.346 263.857 437.804 264.033 437.36 264.385C436.917 264.724 436.577 265.194 436.342 265.795C436.121 266.382 436.01 267.048 436.01 267.791C436.01 268.483 436.114 269.129 436.323 269.729C436.532 270.33 436.851 270.813 437.282 271.178C437.726 271.544 438.3 271.726 439.005 271.726C439.697 271.726 440.251 271.537 440.669 271.159C441.086 270.767 441.387 270.278 441.569 269.69C441.765 269.09 441.863 268.477 441.863 267.85C441.863 267.158 441.765 266.512 441.569 265.912C441.374 265.299 441.067 264.803 440.649 264.424C440.232 264.046 439.677 263.857 438.985 263.857ZM454.943 262.643V272.901H453.475V271.374C453.005 272.053 452.503 272.535 451.968 272.823C451.446 273.11 450.806 273.253 450.049 273.253C449.149 273.253 448.411 273.051 447.837 272.646C447.132 272.137 446.78 271.407 446.78 270.454V262.643H448.405V269.808C448.405 270.499 448.633 271.022 449.09 271.374C449.468 271.674 449.945 271.824 450.519 271.824C451.289 271.824 451.935 271.544 452.457 270.982C453.031 270.369 453.318 269.488 453.318 268.34V262.643H454.943ZM466.947 266.03H465.302C465.211 265.351 464.95 264.816 464.519 264.424C464.089 264.033 463.514 263.837 462.797 263.837C462.092 263.837 461.524 264.033 461.093 264.424C460.663 264.816 460.35 265.325 460.154 265.951C459.958 266.565 459.86 267.211 459.86 267.889C459.86 268.568 459.965 269.201 460.173 269.788C460.382 270.376 460.708 270.852 461.152 271.217C461.596 271.57 462.157 271.746 462.836 271.746C464.284 271.746 465.146 270.937 465.42 269.318H467.064C466.96 270.545 466.536 271.511 465.792 272.216C465.061 272.907 464.063 273.253 462.797 273.253C461.805 273.253 460.963 273.018 460.271 272.549C459.58 272.066 459.051 271.42 458.686 270.61C458.333 269.801 458.157 268.894 458.157 267.889C458.157 266.858 458.333 265.925 458.686 265.09C459.038 264.255 459.56 263.589 460.252 263.093C460.943 262.584 461.798 262.33 462.816 262.33C464.069 262.33 465.061 262.675 465.792 263.367C466.536 264.059 466.921 264.946 466.947 266.03ZM474.35 262.643H478.383V263.974H474.35V269.69C474.35 270.447 474.546 270.976 474.937 271.276C475.329 271.563 475.897 271.707 476.64 271.707C476.98 271.707 477.293 271.694 477.58 271.668C477.867 271.628 478.135 271.576 478.383 271.511V272.94C478.056 273.031 477.737 273.09 477.423 273.116C477.11 273.155 476.817 273.175 476.543 273.175C475.303 273.175 474.357 272.92 473.704 272.411C473.051 271.902 472.725 271.093 472.725 269.984V263.974H469.769V262.643H472.725V259.824H474.35V262.643ZM485.179 261.175V259.217H487.137V261.175H485.179ZM486.96 262.643V271.57H490.112V272.901H481.831V271.57H485.355V263.974H481.831V262.643H486.96ZM497.692 262.33C498.749 262.33 499.617 262.571 500.295 263.054C500.987 263.524 501.496 264.17 501.822 264.992C502.162 265.814 502.331 266.747 502.331 267.791C502.331 268.822 502.162 269.756 501.822 270.591C501.496 271.413 500.987 272.066 500.295 272.549C499.617 273.018 498.749 273.253 497.692 273.253C496.647 273.253 495.78 273.018 495.088 272.549C494.396 272.066 493.881 271.413 493.541 270.591C493.215 269.756 493.052 268.822 493.052 267.791C493.052 266.747 493.215 265.814 493.541 264.992C493.881 264.17 494.396 263.524 495.088 263.054C495.78 262.571 496.647 262.33 497.692 262.33ZM497.692 263.837C497 263.837 496.439 264.02 496.008 264.385C495.577 264.751 495.258 265.233 495.049 265.834C494.853 266.434 494.755 267.087 494.755 267.791C494.755 268.483 494.853 269.136 495.049 269.749C495.258 270.349 495.577 270.832 496.008 271.198C496.439 271.563 497 271.746 497.692 271.746C498.383 271.746 498.944 271.563 499.375 271.198C499.806 270.832 500.119 270.349 500.315 269.749C500.524 269.136 500.628 268.483 500.628 267.791C500.628 267.087 500.524 266.434 500.315 265.834C500.119 265.233 499.806 264.751 499.375 264.385C498.944 264.02 498.383 263.837 497.692 263.837ZM505.33 272.901V262.643H506.837V264.346C507.242 263.72 507.705 263.23 508.227 262.878C508.762 262.525 509.434 262.349 510.243 262.349C510.844 262.349 511.385 262.454 511.868 262.662C512.364 262.858 512.756 263.165 513.043 263.582C513.343 263.987 513.493 264.509 513.493 265.149V272.901H511.868V265.795C511.868 265.103 511.659 264.594 511.242 264.268C510.824 263.941 510.328 263.778 509.754 263.778C509.14 263.778 508.625 263.935 508.207 264.248C507.79 264.561 507.476 264.972 507.268 265.481C507.059 265.99 506.954 266.539 506.954 267.126V272.901H505.33Z" fill="#002024"/>
<rect x="531.525" y="255.5" width="20.8" height="20.8" rx="10.4" fill="#72D8E8"/>
<g clip-path="url(#clip2_1209_56320)">
<path fill-rule="evenodd" clip-rule="evenodd" d="M548.829 262.3L539.836 271.292L534.928 266.384L536.578 264.734L539.836 267.993L547.179 260.65L548.829 262.3Z" fill="#002024"/>
</g>
<rect x="149.478" y="297.009" width="421.045" height="47.8568" fill="#FCFCFB"/>
<rect x="149.478" y="297.009" width="421.045" height="47.8568" stroke="#2DB8CF" stroke-width="0.955353"/>
<path d="M169.256 327.438V315.229H173.039C174.919 315.229 176.364 315.762 177.373 316.828C178.393 317.883 178.903 319.39 178.903 321.35C178.903 323.299 178.404 324.801 177.407 325.856C176.41 326.911 174.988 327.438 173.142 327.438H169.256ZM170.735 325.993H173.039C174.472 325.993 175.55 325.609 176.272 324.841C176.994 324.062 177.355 322.898 177.355 321.35C177.355 319.78 176.994 318.611 176.272 317.842C175.55 317.063 174.472 316.673 173.039 316.673H170.735V325.993ZM186.027 327.713C184.869 327.713 183.871 327.461 183.034 326.956C182.209 326.441 181.573 325.707 181.126 324.755C180.678 323.804 180.455 322.669 180.455 321.35C180.455 320.032 180.678 318.897 181.126 317.946C181.573 316.983 182.209 316.243 183.034 315.727C183.871 315.211 184.869 314.953 186.027 314.953C187.196 314.953 188.193 315.211 189.019 315.727C189.856 316.243 190.498 316.983 190.945 317.946C191.392 318.897 191.615 320.032 191.615 321.35C191.615 322.669 191.392 323.804 190.945 324.755C190.498 325.707 189.856 326.441 189.019 326.956C188.193 327.461 187.196 327.713 186.027 327.713ZM186.027 326.269C186.875 326.269 187.597 326.074 188.193 325.684C188.801 325.294 189.265 324.732 189.586 323.999C189.907 323.265 190.068 322.382 190.068 321.35C190.068 320.319 189.907 319.436 189.586 318.702C189.265 317.957 188.801 317.39 188.193 317C187.597 316.599 186.875 316.398 186.027 316.398C185.19 316.398 184.467 316.599 183.86 317C183.264 317.39 182.805 317.957 182.484 318.702C182.163 319.436 182.003 320.319 182.003 321.35C182.003 322.382 182.163 323.265 182.484 323.999C182.805 324.732 183.264 325.294 183.86 325.684C184.467 326.074 185.19 326.269 186.027 326.269ZM193.741 327.438V315.229H195.804L199.708 325.822L203.594 315.229H205.658V327.438H204.179V317.98L200.688 327.438H198.71L195.219 317.98V327.438H193.741ZM207.415 327.438L211.817 315.229H213.812L218.214 327.438H216.598L215.377 323.964H210.252L209.031 327.438H207.415ZM210.751 322.52H214.878L212.815 316.518L210.751 322.52ZM219.804 327.438V315.229H221.283V327.438H219.804ZM224.103 327.438V315.229H226.201L232.237 325.959V315.229H233.716V327.438H231.514L225.582 316.914V327.438H224.103Z" fill="#002024"/>
<path d="M381.09 330.091C380.829 330.796 380.457 331.325 379.974 331.677C379.492 332.029 378.93 332.206 378.291 332.206C377.795 332.206 377.351 332.14 376.96 332.01V330.483C377.182 330.535 377.377 330.568 377.547 330.581C377.73 330.594 377.906 330.6 378.076 330.6C378.454 330.6 378.754 330.522 378.976 330.365C379.198 330.222 379.381 329.967 379.524 329.602L380.151 328.095L376.353 317.68H378.076L381.071 326L384.027 317.68H385.71L381.09 330.091ZM392.722 317.367C393.779 317.367 394.647 317.608 395.326 318.091C396.017 318.561 396.526 319.207 396.853 320.029C397.192 320.851 397.362 321.784 397.362 322.829C397.362 323.86 397.192 324.793 396.853 325.628C396.526 326.45 396.017 327.103 395.326 327.586C394.647 328.055 393.779 328.29 392.722 328.29C391.678 328.29 390.81 328.055 390.118 327.586C389.427 327.103 388.911 326.45 388.572 325.628C388.245 324.793 388.082 323.86 388.082 322.829C388.082 321.784 388.245 320.851 388.572 320.029C388.911 319.207 389.427 318.561 390.118 318.091C390.81 317.608 391.678 317.367 392.722 317.367ZM392.722 318.874C392.03 318.874 391.469 319.057 391.038 319.422C390.608 319.788 390.288 320.271 390.079 320.871C389.883 321.471 389.785 322.124 389.785 322.829C389.785 323.52 389.883 324.173 390.079 324.786C390.288 325.387 390.608 325.869 391.038 326.235C391.469 326.6 392.03 326.783 392.722 326.783C393.414 326.783 393.975 326.6 394.406 326.235C394.836 325.869 395.149 325.387 395.345 324.786C395.554 324.173 395.658 323.52 395.658 322.829C395.658 322.124 395.554 321.471 395.345 320.871C395.149 320.271 394.836 319.788 394.406 319.422C393.975 319.057 393.414 318.874 392.722 318.874ZM408.523 317.68V327.938H407.055V326.411C406.585 327.09 406.083 327.573 405.548 327.86C405.026 328.147 404.386 328.29 403.629 328.29C402.729 328.29 401.991 328.088 401.417 327.683C400.712 327.175 400.36 326.444 400.36 325.491V317.68H401.985V324.845C401.985 325.537 402.213 326.059 402.67 326.411C403.049 326.711 403.525 326.861 404.099 326.861C404.869 326.861 405.515 326.581 406.037 326.019C406.611 325.406 406.899 324.525 406.899 323.377V317.68H408.523ZM412.52 327.938V317.68H414.028V319.892C414.367 319.161 414.856 318.561 415.496 318.091C416.135 317.621 416.873 317.386 417.708 317.386C418.883 317.386 419.777 317.686 420.39 318.287C421.016 318.887 421.375 319.696 421.467 320.714H419.842C419.724 320.101 419.483 319.631 419.117 319.305C418.765 318.978 418.243 318.815 417.551 318.815C416.873 318.815 416.279 318.998 415.77 319.363C415.261 319.716 414.863 320.205 414.576 320.832C414.302 321.445 414.165 322.156 414.165 322.966V327.938H412.52ZM431.61 320.479H429.907C429.894 319.97 429.699 319.566 429.32 319.266C428.955 318.965 428.465 318.815 427.852 318.815C427.186 318.815 426.645 318.952 426.227 319.226C425.822 319.501 425.62 319.866 425.62 320.323C425.62 320.688 425.744 320.982 425.992 321.204C426.24 321.426 426.605 321.602 427.088 321.732L429.418 322.339C430.279 322.561 430.925 322.894 431.356 323.338C431.8 323.768 432.022 324.349 432.022 325.08C432.022 326.072 431.656 326.855 430.925 327.429C430.194 328.003 429.19 328.29 427.911 328.29C425.222 328.29 423.819 327.135 423.702 324.825H425.424C425.503 325.517 425.751 326.026 426.168 326.352C426.599 326.679 427.193 326.842 427.95 326.842C428.681 326.842 429.261 326.711 429.692 326.45C430.136 326.189 430.358 325.817 430.358 325.334C430.358 324.891 430.24 324.558 430.005 324.336C429.77 324.114 429.372 323.931 428.811 323.788L426.658 323.22C425.731 322.972 425.046 322.639 424.602 322.222C424.171 321.791 423.956 321.184 423.956 320.401C423.956 319.474 424.308 318.737 425.013 318.189C425.731 317.641 426.69 317.367 427.891 317.367C429.092 317.367 430.005 317.647 430.632 318.208C431.271 318.757 431.597 319.514 431.61 320.479ZM438.759 316.212V314.254H440.717V316.212H438.759ZM440.541 317.68V326.607H443.692V327.938H435.412V326.607H438.935V319.011H435.412V317.68H440.541ZM451.35 317.68H455.383V319.011H451.35V324.727C451.35 325.484 451.546 326.013 451.937 326.313C452.329 326.6 452.897 326.744 453.64 326.744C453.98 326.744 454.293 326.731 454.58 326.705C454.867 326.666 455.135 326.613 455.383 326.548V327.977C455.056 328.068 454.737 328.127 454.423 328.153C454.11 328.192 453.817 328.212 453.543 328.212C452.303 328.212 451.357 327.958 450.704 327.449C450.051 326.94 449.725 326.13 449.725 325.021V319.011H446.769V317.68H449.725V314.861H451.35V317.68ZM467.445 324.767C467.275 325.837 466.799 326.692 466.016 327.331C465.246 327.971 464.261 328.29 463.06 328.29C462.029 328.29 461.168 328.062 460.476 327.605C459.784 327.135 459.262 326.496 458.91 325.687C458.57 324.878 458.401 323.951 458.401 322.907C458.401 321.758 458.596 320.773 458.988 319.951C459.38 319.129 459.928 318.496 460.632 318.052C461.337 317.595 462.159 317.367 463.099 317.367C464.156 317.367 465.018 317.615 465.683 318.111C466.362 318.607 466.858 319.298 467.171 320.186C467.497 321.073 467.66 322.111 467.66 323.298H460.104C460.13 324.303 460.391 325.139 460.887 325.804C461.383 326.457 462.127 326.783 463.119 326.783C464.463 326.783 465.357 326.111 465.801 324.767H467.445ZM463.079 318.874C462.166 318.874 461.468 319.174 460.985 319.775C460.502 320.375 460.221 321.106 460.143 321.967H465.899C465.899 321.393 465.781 320.877 465.546 320.421C465.324 319.951 465.005 319.579 464.587 319.305C464.169 319.018 463.667 318.874 463.079 318.874ZM473.36 325.276H476.023V327.938H473.36V325.276ZM490.787 321.067H489.142C489.051 320.388 488.79 319.853 488.359 319.461C487.928 319.07 487.354 318.874 486.636 318.874C485.932 318.874 485.364 319.07 484.933 319.461C484.503 319.853 484.189 320.362 483.994 320.988C483.798 321.602 483.7 322.248 483.7 322.926C483.7 323.605 483.804 324.238 484.013 324.825C484.222 325.413 484.548 325.889 484.992 326.254C485.436 326.607 485.997 326.783 486.676 326.783C488.124 326.783 488.986 325.974 489.26 324.355H490.904C490.8 325.582 490.376 326.548 489.632 327.253C488.901 327.945 487.902 328.29 486.636 328.29C485.645 328.29 484.803 328.055 484.111 327.586C483.419 327.103 482.891 326.457 482.525 325.648C482.173 324.838 481.997 323.931 481.997 322.926C481.997 321.895 482.173 320.962 482.525 320.127C482.878 319.292 483.4 318.626 484.091 318.13C484.783 317.621 485.638 317.367 486.656 317.367C487.909 317.367 488.901 317.713 489.632 318.404C490.376 319.096 490.761 319.983 490.787 321.067ZM498.111 317.367C499.169 317.367 500.036 317.608 500.715 318.091C501.407 318.561 501.916 319.207 502.242 320.029C502.581 320.851 502.751 321.784 502.751 322.829C502.751 323.86 502.581 324.793 502.242 325.628C501.916 326.45 501.407 327.103 500.715 327.586C500.036 328.055 499.169 328.29 498.111 328.29C497.067 328.29 496.199 328.055 495.508 327.586C494.816 327.103 494.301 326.45 493.961 325.628C493.635 324.793 493.472 323.86 493.472 322.829C493.472 321.784 493.635 320.851 493.961 320.029C494.301 319.207 494.816 318.561 495.508 318.091C496.199 317.608 497.067 317.367 498.111 317.367ZM498.111 318.874C497.42 318.874 496.859 319.057 496.428 319.422C495.997 319.788 495.677 320.271 495.469 320.871C495.273 321.471 495.175 322.124 495.175 322.829C495.175 323.52 495.273 324.173 495.469 324.786C495.677 325.387 495.997 325.869 496.428 326.235C496.859 326.6 497.42 326.783 498.111 326.783C498.803 326.783 499.364 326.6 499.795 326.235C500.226 325.869 500.539 325.387 500.735 324.786C500.944 324.173 501.048 323.52 501.048 322.829C501.048 322.124 500.944 321.471 500.735 320.871C500.539 320.271 500.226 319.788 499.795 319.422C499.364 319.057 498.803 318.874 498.111 318.874ZM504.536 327.938V317.68H506.063V318.737C506.285 318.411 506.591 318.117 506.983 317.856C507.387 317.582 507.864 317.445 508.412 317.445C508.908 317.445 509.338 317.569 509.704 317.817C510.082 318.052 510.35 318.385 510.507 318.815C510.715 318.476 511.022 318.163 511.427 317.876C511.831 317.589 512.321 317.445 512.895 317.445C513.534 317.445 514.063 317.641 514.481 318.032C514.898 318.411 515.107 318.926 515.107 319.579V327.938H513.502V319.912C513.502 319.546 513.397 319.272 513.189 319.089C512.98 318.907 512.706 318.815 512.366 318.815C511.818 318.815 511.387 318.972 511.074 319.285C510.774 319.585 510.624 320.003 510.624 320.538V327.938H509.019V319.912C509.019 319.546 508.914 319.272 508.706 319.089C508.497 318.907 508.223 318.815 507.883 318.815C507.335 318.815 506.904 318.972 506.591 319.285C506.291 319.585 506.141 320.003 506.141 320.538V327.938H504.536Z" fill="#002024"/>
<rect x="531.525" y="310.538" width="20.8" height="20.8" rx="10.4" fill="#72D8E8"/>
<g clip-path="url(#clip3_1209_56320)">
<path fill-rule="evenodd" clip-rule="evenodd" d="M548.829 317.337L539.836 326.329L534.928 321.421L536.578 319.771L539.836 323.029L547.179 315.687L548.829 317.337Z" fill="#002024"/>
</g>
<rect x="149.478" y="352.047" width="421.045" height="47.8568" fill="#FCFCFB"/>
<rect x="149.478" y="352.047" width="421.045" height="47.8568" stroke="#2DB8CF" stroke-width="0.955353"/>
<path d="M169.256 382.475V370.266H173.641C175.005 370.266 176.066 370.592 176.822 371.246C177.579 371.899 177.957 372.805 177.957 373.963C177.957 374.742 177.785 375.419 177.441 375.992C177.097 376.554 176.604 376.984 175.962 377.282C175.32 377.58 174.547 377.729 173.641 377.729H170.735V382.475H169.256ZM170.735 376.284H173.641C174.558 376.284 175.246 376.09 175.705 375.7C176.175 375.31 176.41 374.731 176.41 373.963C176.41 373.218 176.175 372.656 175.705 372.278C175.246 371.899 174.558 371.71 173.641 371.71H170.735V376.284ZM180.104 382.475V370.266H187.774V371.71H181.583V375.648H187.568V377.058H181.583V381.031H187.912V382.475H180.104ZM190.298 382.475V370.266H194.924C195.784 370.266 196.523 370.415 197.142 370.713C197.761 371.011 198.237 371.441 198.569 372.003C198.913 372.553 199.085 373.206 199.085 373.963C199.085 374.513 198.953 375.006 198.69 375.442C198.438 375.866 198.111 376.204 197.71 376.456C197.308 376.709 196.89 376.846 196.454 376.869L196.351 376.714C197.096 376.714 197.681 376.886 198.105 377.23C198.541 377.574 198.793 378.124 198.862 378.881L199.206 382.475H197.71L197.4 379.036C197.354 378.531 197.171 378.159 196.85 377.918C196.54 377.677 196.03 377.557 195.319 377.557H191.777V382.475H190.298ZM191.777 376.112H195.113C195.858 376.112 196.448 375.923 196.884 375.545C197.32 375.167 197.538 374.628 197.538 373.929C197.538 373.218 197.314 372.673 196.867 372.295C196.42 371.905 195.772 371.71 194.924 371.71H191.777V376.112ZM201.852 382.475V370.266H209.521V371.71H202.591L203.331 370.954V376.56L202.591 375.803H209.212V377.213H202.591L203.331 376.456V382.475H201.852ZM216.758 382.75C215.6 382.75 214.603 382.498 213.766 381.994C212.941 381.478 212.304 380.744 211.857 379.792C211.41 378.841 211.187 377.706 211.187 376.388C211.187 375.069 211.41 373.934 211.857 372.983C212.304 372.02 212.941 371.28 213.766 370.764C214.603 370.248 215.6 369.991 216.758 369.991C217.928 369.991 218.925 370.248 219.75 370.764C220.587 371.28 221.229 372.02 221.676 372.983C222.124 373.934 222.347 375.069 222.347 376.388C222.347 377.706 222.124 378.841 221.676 379.792C221.229 380.744 220.587 381.478 219.75 381.994C218.925 382.498 217.928 382.75 216.758 382.75ZM216.758 381.306C217.607 381.306 218.329 381.111 218.925 380.721C219.533 380.331 219.997 379.77 220.318 379.036C220.639 378.302 220.799 377.419 220.799 376.388C220.799 375.356 220.639 374.473 220.318 373.739C219.997 372.994 219.533 372.427 218.925 372.037C218.329 371.636 217.607 371.435 216.758 371.435C215.921 371.435 215.199 371.636 214.592 372.037C213.995 372.427 213.537 372.994 213.216 373.739C212.895 374.473 212.734 375.356 212.734 376.388C212.734 377.419 212.895 378.302 213.216 379.036C213.537 379.77 213.995 380.331 214.592 380.721C215.199 381.111 215.921 381.306 216.758 381.306ZM224.472 382.475V370.266H229.098C229.958 370.266 230.697 370.415 231.316 370.713C231.936 371.011 232.411 371.441 232.744 372.003C233.088 372.553 233.26 373.206 233.26 373.963C233.26 374.513 233.128 375.006 232.864 375.442C232.612 375.866 232.285 376.204 231.884 376.456C231.483 376.709 231.064 376.846 230.629 376.869L230.525 376.714C231.271 376.714 231.855 376.886 232.279 377.23C232.715 377.574 232.967 378.124 233.036 378.881L233.38 382.475H231.884L231.574 379.036C231.529 378.531 231.345 378.159 231.024 377.918C230.715 377.677 230.204 377.557 229.494 377.557H225.951V382.475H224.472ZM225.951 376.112H229.287C230.032 376.112 230.623 375.923 231.059 375.545C231.494 375.167 231.712 374.628 231.712 373.929C231.712 373.218 231.488 372.673 231.041 372.295C230.594 371.905 229.946 371.71 229.098 371.71H225.951V376.112ZM236.026 382.475V370.266H238.09L241.993 380.859L245.88 370.266H247.943V382.475H246.464V373.017L242.973 382.475H240.996L237.505 373.017V382.475H236.026ZM249.7 382.475L254.103 370.266H256.097L260.5 382.475H258.883L257.662 379.001H252.538L251.317 382.475H249.7ZM253.037 377.557H257.164L255.1 371.555L253.037 377.557ZM262.089 382.475V370.266H264.187L270.223 380.996V370.266H271.702V382.475H269.501L263.568 371.951V382.475H262.089ZM279.311 382.75C278.222 382.75 277.265 382.498 276.44 381.994C275.614 381.478 274.972 380.744 274.514 379.792C274.055 378.841 273.826 377.706 273.826 376.388C273.826 375.069 274.055 373.934 274.514 372.983C274.972 372.02 275.614 371.28 276.44 370.764C277.265 370.248 278.222 369.991 279.311 369.991C280.79 369.991 281.937 370.363 282.751 371.108C283.565 371.853 284.098 372.868 284.35 374.152L282.785 374.255C282.613 373.384 282.246 372.696 281.684 372.192C281.123 371.687 280.332 371.435 279.311 371.435C278.532 371.435 277.844 371.636 277.248 372.037C276.663 372.427 276.205 372.994 275.872 373.739C275.54 374.473 275.373 375.356 275.373 376.388C275.373 377.419 275.54 378.302 275.872 379.036C276.205 379.77 276.663 380.331 277.248 380.721C277.844 381.111 278.532 381.306 279.311 381.306C280.378 381.306 281.203 381.031 281.788 380.48C282.372 379.919 282.739 379.162 282.888 378.21L284.453 378.314C284.304 379.196 284.012 379.97 283.576 380.635C283.14 381.3 282.561 381.822 281.839 382.2C281.128 382.567 280.286 382.75 279.311 382.75ZM286.759 382.475V370.266H294.428V371.71H288.238V375.648H294.222V377.058H288.238V381.031H294.566V382.475H286.759Z" fill="#002024"/>
<path d="M416.012 368.978C417.696 368.978 419.001 369.611 419.927 370.877C420.867 372.13 421.337 373.892 421.337 376.162C421.337 378.433 420.867 380.195 419.927 381.448C419.001 382.701 417.696 383.327 416.012 383.327C414.328 383.327 413.017 382.701 412.077 381.448C411.151 380.195 410.687 378.433 410.687 376.162C410.687 373.892 411.151 372.13 412.077 370.877C413.017 369.611 414.328 368.978 416.012 368.978ZM416.012 370.583C414.942 370.583 414.1 371.079 413.487 372.071C412.886 373.05 412.586 374.414 412.586 376.162C412.586 377.898 412.886 379.262 413.487 380.254C414.1 381.233 414.942 381.722 416.012 381.722C417.095 381.722 417.937 381.233 418.537 380.254C419.138 379.262 419.438 377.898 419.438 376.162C419.438 374.414 419.138 373.05 418.537 372.071C417.937 371.079 417.095 370.583 416.012 370.583ZM425.02 387.243H423.376V372.717H424.883V374.244C425.64 373.017 426.73 372.404 428.153 372.404C429.171 372.404 429.999 372.665 430.639 373.187C431.291 373.696 431.774 374.375 432.088 375.223C432.401 376.058 432.557 376.972 432.557 377.964C432.557 378.942 432.394 379.843 432.068 380.665C431.755 381.474 431.272 382.12 430.619 382.603C429.967 383.086 429.151 383.327 428.172 383.327C427.507 383.327 426.919 383.21 426.41 382.975C425.914 382.727 425.451 382.336 425.02 381.801V387.243ZM427.879 373.931C427.2 373.931 426.652 374.12 426.234 374.498C425.817 374.877 425.51 375.366 425.314 375.967C425.118 376.567 425.02 377.2 425.02 377.866C425.02 378.531 425.118 379.164 425.314 379.765C425.51 380.365 425.817 380.854 426.234 381.233C426.652 381.611 427.2 381.801 427.879 381.801C428.57 381.801 429.131 381.618 429.562 381.252C430.006 380.874 430.332 380.391 430.541 379.804C430.75 379.203 430.854 378.577 430.854 377.924C430.854 377.233 430.75 376.587 430.541 375.986C430.332 375.373 430.006 374.877 429.562 374.498C429.131 374.12 428.57 373.931 427.879 373.931ZM439.51 372.717H443.543V374.048H439.51V379.765C439.51 380.522 439.706 381.05 440.098 381.35C440.489 381.637 441.057 381.781 441.801 381.781C442.14 381.781 442.453 381.768 442.74 381.742C443.027 381.703 443.295 381.65 443.543 381.585V383.014C443.217 383.106 442.897 383.164 442.584 383.19C442.27 383.23 441.977 383.249 441.703 383.249C440.463 383.249 439.517 382.995 438.864 382.486C438.212 381.977 437.885 381.168 437.885 380.058V374.048H434.929V372.717H437.885V369.898H439.51V372.717ZM450.339 371.249V369.291H452.297V371.249H450.339ZM452.121 372.717V381.644H455.272V382.975H446.992V381.644H450.515V374.048H446.992V372.717H452.121ZM457.566 382.975V372.717H459.093V373.774C459.315 373.448 459.622 373.154 460.013 372.893C460.418 372.619 460.894 372.482 461.442 372.482C461.938 372.482 462.369 372.606 462.734 372.854C463.113 373.089 463.38 373.422 463.537 373.852C463.746 373.513 464.052 373.2 464.457 372.913C464.862 372.626 465.351 372.482 465.925 372.482C466.565 372.482 467.093 372.678 467.511 373.069C467.929 373.448 468.137 373.963 468.137 374.616V382.975H466.532V374.949C466.532 374.583 466.428 374.309 466.219 374.127C466.01 373.944 465.736 373.852 465.397 373.852C464.849 373.852 464.418 374.009 464.105 374.322C463.805 374.622 463.654 375.04 463.654 375.575V382.975H462.049V374.949C462.049 374.583 461.945 374.309 461.736 374.127C461.527 373.944 461.253 373.852 460.914 373.852C460.366 373.852 459.935 374.009 459.622 374.322C459.321 374.622 459.171 375.04 459.171 375.575V382.975H457.566ZM473.759 371.249V369.291H475.717V371.249H473.759ZM475.541 372.717V381.644H478.692V382.975H470.412V381.644H473.935V374.048H470.412V372.717H475.541ZM482.513 372.717H490.167V374.166L484.06 381.546H490.441V382.975H482.102V381.507L488.229 374.146H482.513V372.717ZM502.445 379.804C502.275 380.874 501.799 381.729 501.016 382.368C500.246 383.008 499.261 383.327 498.06 383.327C497.029 383.327 496.168 383.099 495.476 382.642C494.784 382.172 494.262 381.533 493.91 380.724C493.57 379.915 493.401 378.988 493.401 377.944C493.401 376.795 493.596 375.81 493.988 374.988C494.38 374.166 494.928 373.533 495.632 373.089C496.337 372.632 497.159 372.404 498.099 372.404C499.156 372.404 500.018 372.652 500.683 373.148C501.362 373.644 501.858 374.335 502.171 375.223C502.497 376.11 502.66 377.148 502.66 378.335H495.104C495.13 379.34 495.391 380.176 495.887 380.841C496.383 381.494 497.127 381.82 498.119 381.82C499.463 381.82 500.357 381.148 500.801 379.804H502.445ZM498.079 373.911C497.166 373.911 496.468 374.211 495.985 374.812C495.502 375.412 495.221 376.143 495.143 377.004H500.899C500.899 376.43 500.781 375.915 500.546 375.458C500.324 374.988 500.005 374.616 499.587 374.342C499.169 374.055 498.667 373.911 498.079 373.911ZM512.413 368.704H514.038V382.975H512.589V381.526C511.767 382.727 510.677 383.327 509.32 383.327C508.315 383.327 507.479 383.086 506.814 382.603C506.148 382.107 505.652 381.435 505.326 380.587C505.013 379.738 504.856 378.792 504.856 377.748C504.856 376.756 505.019 375.862 505.346 375.066C505.672 374.257 506.161 373.611 506.814 373.128C507.479 372.645 508.295 372.404 509.261 372.404C510.657 372.404 511.708 372.932 512.413 373.989V368.704ZM509.535 373.931C508.895 373.931 508.354 374.107 507.91 374.459C507.466 374.799 507.127 375.268 506.892 375.869C506.67 376.456 506.559 377.122 506.559 377.866C506.559 378.557 506.664 379.203 506.873 379.804C507.081 380.404 507.401 380.887 507.832 381.252C508.276 381.618 508.85 381.801 509.555 381.801C510.246 381.801 510.801 381.611 511.219 381.233C511.636 380.841 511.936 380.352 512.119 379.765C512.315 379.164 512.413 378.551 512.413 377.924C512.413 377.233 512.315 376.587 512.119 375.986C511.923 375.373 511.617 374.877 511.199 374.498C510.781 374.12 510.227 373.931 509.535 373.931Z" fill="#002024"/>
<rect x="531.525" y="365.575" width="20.8" height="20.8" rx="10.4" fill="#72D8E8"/>
<g clip-path="url(#clip4_1209_56320)">
<path fill-rule="evenodd" clip-rule="evenodd" d="M548.829 372.374L539.836 381.366L534.928 376.458L536.578 374.808L539.836 378.067L547.179 370.724L548.829 372.374Z" fill="#002024"/>
</g>
<g clip-path="url(#clip5_1209_56320)">
<rect x="149" y="419.056" width="141.249" height="50.1246" fill="#A7ECFF"/>
<path d="M185.727 450.917C184.756 450.917 183.897 450.656 183.15 450.133C182.403 449.597 181.818 448.813 181.395 447.78C180.972 446.746 180.76 445.489 180.76 444.007C180.76 442.576 180.959 441.343 181.358 440.31C181.756 439.276 182.329 438.48 183.076 437.919C183.835 437.347 184.738 437.06 185.783 437.06C186.63 437.06 187.377 437.241 188.024 437.602C188.672 437.963 189.207 438.486 189.63 439.171C190.066 439.843 190.377 440.646 190.564 441.58L188.174 441.729C188.012 440.92 187.732 440.291 187.333 439.843C186.935 439.395 186.425 439.171 185.802 439.171C185.242 439.171 184.763 439.357 184.364 439.731C183.966 440.104 183.661 440.652 183.449 441.374C183.25 442.096 183.15 442.974 183.15 444.007C183.15 445.028 183.256 445.9 183.468 446.622C183.692 447.331 184.009 447.873 184.42 448.246C184.831 448.62 185.335 448.807 185.933 448.807C186.431 448.807 186.86 448.682 187.221 448.433C187.582 448.172 187.863 447.804 188.062 447.331C188.273 446.858 188.392 446.304 188.417 445.669H185.765V443.783H190.546V450.618H188.865L188.753 447.668L189.313 447.499C189.201 448.122 188.996 448.695 188.697 449.218C188.41 449.74 188.018 450.158 187.52 450.469C187.035 450.768 186.437 450.917 185.727 450.917ZM196.925 450.917C195.867 450.917 194.964 450.649 194.217 450.114C193.483 449.579 192.922 448.794 192.536 447.761C192.15 446.728 191.958 445.476 191.958 444.007C191.958 442.513 192.15 441.25 192.536 440.216C192.922 439.183 193.483 438.399 194.217 437.863C194.964 437.328 195.867 437.06 196.925 437.06C197.983 437.06 198.88 437.328 199.614 437.863C200.361 438.399 200.928 439.183 201.314 440.216C201.7 441.25 201.892 442.513 201.892 444.007C201.892 445.476 201.7 446.728 201.314 447.761C200.928 448.794 200.361 449.579 199.614 450.114C198.88 450.649 197.983 450.917 196.925 450.917ZM196.925 448.825C197.485 448.825 197.958 448.651 198.344 448.302C198.73 447.954 199.017 447.425 199.203 446.715C199.403 445.993 199.502 445.09 199.502 444.007C199.502 442.924 199.403 442.022 199.203 441.299C199.017 440.577 198.73 440.042 198.344 439.693C197.958 439.332 197.485 439.152 196.925 439.152C196.365 439.152 195.892 439.332 195.506 439.693C195.12 440.042 194.827 440.577 194.628 441.299C194.441 442.022 194.348 442.924 194.348 444.007C194.348 445.09 194.441 445.993 194.628 446.715C194.827 447.425 195.12 447.954 195.506 448.302C195.892 448.651 196.365 448.825 196.925 448.825ZM215.51 450.618V437.359H217.826V449.871L216.239 448.489H223.877V450.618H215.51ZM226.335 450.618V448.489H229.36V439.488H226.335V437.359H234.701V439.488H231.676V448.489H234.701V450.618H226.335ZM240.464 450.618L236.561 437.359H239.007L242.07 448.489H241.36L244.423 437.359H246.87L242.966 450.618H240.464ZM248.916 450.618V437.359H257.133V439.488H251.232V442.943H256.909V444.997H251.232V448.489H257.283V450.618H248.916Z" fill="#002024"/>
</g>
<rect x="149.778" y="419.834" width="139.693" height="48.5684" stroke="#002024" stroke-width="1.55623"/>
</g>
<rect x="101.478" y="86.4777" width="517.045" height="427.045" stroke="#2DB8CF" stroke-width="0.955353"/>
</g>
<defs>
<filter id="filter0_f_1209_56320" x="98.3545" y="-9.64546" width="685.291" height="688.291" filterUnits="userSpaceOnUse" color-interpolation-filters="sRGB">
<feFlood flood-opacity="0" result="BackgroundImageFix"/>
<feBlend mode="normal" in="SourceGraphic" in2="BackgroundImageFix" result="shape"/>
<feGaussianBlur stdDeviation="89.8227" result="effect1_foregroundBlur_1209_56320"/>
</filter>
<filter id="filter1_f_1209_56320" x="-64.6455" y="-68.6455" width="685.291" height="688.291" filterUnits="userSpaceOnUse" color-interpolation-filters="sRGB">
<feFlood flood-opacity="0" result="BackgroundImageFix"/>
<feBlend mode="normal" in="SourceGraphic" in2="BackgroundImageFix" result="shape"/>
<feGaussianBlur stdDeviation="89.8227" result="effect1_foregroundBlur_1209_56320"/>
</filter>
<radialGradient id="paint0_radial_1209_56320" cx="0" cy="0" r="1" gradientUnits="userSpaceOnUse" gradientTransform="translate(441 334.5) rotate(90) scale(164.5 163)">
<stop stop-color="#2DB8CF"/>
<stop offset="1" stop-color="#2DB8CF" stop-opacity="0"/>
</radialGradient>
<radialGradient id="paint1_radial_1209_56320" cx="0" cy="0" r="1" gradientUnits="userSpaceOnUse" gradientTransform="translate(278 275.5) rotate(90) scale(164.5 163)">
<stop stop-color="#2DB8CF"/>
<stop offset="1" stop-color="#2DB8CF" stop-opacity="0"/>
</radialGradient>
<clipPath id="clip0_1209_56320">
<rect width="720" height="600" fill="white"/>
</clipPath>
<clipPath id="clip1_1209_56320">
<rect x="101" y="86" width="518" height="428" fill="white"/>
</clipPath>
<clipPath id="clip2_1209_56320">
<rect width="14.0012" height="14.0012" fill="white" transform="translate(534.926 258.9)"/>
</clipPath>
<clipPath id="clip3_1209_56320">
<rect width="14.0012" height="14.0012" fill="white" transform="translate(534.926 313.937)"/>
</clipPath>
<clipPath id="clip4_1209_56320">
<rect width="14.0012" height="14.0012" fill="white" transform="translate(534.926 368.974)"/>
</clipPath>
<clipPath id="clip5_1209_56320">
<rect x="149" y="419.056" width="141.249" height="50.1246" fill="white"/>
</clipPath>
</defs>
</svg>
