<svg width="720" height="600" viewBox="0 0 720 600" fill="none" xmlns="http://www.w3.org/2000/svg">
<g clip-path="url(#clip0_1209_57146)">
<g clip-path="url(#clip1_1209_57146)">
<rect opacity="0.5" width="120" height="120" stroke="#111111" stroke-opacity="0.1"/>
<rect opacity="0.5" y="120" width="120" height="120" stroke="#111111" stroke-opacity="0.1"/>
<rect opacity="0.5" y="240" width="120" height="120" stroke="#111111" stroke-opacity="0.1"/>
<rect opacity="0.5" y="360" width="120" height="120" stroke="#111111" stroke-opacity="0.1"/>
<rect opacity="0.5" y="480" width="120" height="120" stroke="#111111" stroke-opacity="0.1"/>
<rect opacity="0.5" x="120" width="120" height="120" stroke="#111111" stroke-opacity="0.1"/>
<rect opacity="0.5" x="120" y="120" width="120" height="120" stroke="#111111" stroke-opacity="0.1"/>
<rect opacity="0.5" x="120" y="240" width="120" height="120" stroke="#111111" stroke-opacity="0.1"/>
<rect opacity="0.5" x="120" y="360" width="120" height="120" stroke="#111111" stroke-opacity="0.1"/>
<rect opacity="0.5" x="120" y="480" width="120" height="120" stroke="#111111" stroke-opacity="0.1"/>
<rect opacity="0.5" x="240" width="120" height="120" stroke="#111111" stroke-opacity="0.1"/>
<rect opacity="0.5" x="240" y="120" width="120" height="120" stroke="#111111" stroke-opacity="0.1"/>
<rect opacity="0.5" x="240" y="240" width="120" height="120" stroke="#111111" stroke-opacity="0.1"/>
<rect opacity="0.5" x="240" y="360" width="120" height="120" stroke="#111111" stroke-opacity="0.1"/>
<rect opacity="0.5" x="240" y="480" width="120" height="120" stroke="#111111" stroke-opacity="0.1"/>
<rect opacity="0.5" x="360" width="120" height="120" stroke="#111111" stroke-opacity="0.1"/>
<rect opacity="0.5" x="360" y="120" width="120" height="120" stroke="#111111" stroke-opacity="0.1"/>
<rect opacity="0.5" x="360" y="240" width="120" height="120" stroke="#111111" stroke-opacity="0.1"/>
<rect opacity="0.5" x="360" y="360" width="120" height="120" stroke="#111111" stroke-opacity="0.1"/>
<rect opacity="0.5" x="360" y="480" width="120" height="120" stroke="#111111" stroke-opacity="0.1"/>
<rect opacity="0.5" x="480" width="120" height="120" stroke="#111111" stroke-opacity="0.1"/>
<rect opacity="0.5" x="480" y="120" width="120" height="120" stroke="#111111" stroke-opacity="0.1"/>
<rect opacity="0.5" x="480" y="240" width="120" height="120" stroke="#111111" stroke-opacity="0.1"/>
<rect opacity="0.5" x="480" y="360" width="120" height="120" stroke="#111111" stroke-opacity="0.1"/>
<rect opacity="0.5" x="480" y="480" width="120" height="120" stroke="#111111" stroke-opacity="0.1"/>
<rect opacity="0.5" x="600" width="120" height="120" stroke="#111111" stroke-opacity="0.1"/>
<rect opacity="0.5" x="600" y="120" width="120" height="120" stroke="#111111" stroke-opacity="0.1"/>
<rect opacity="0.5" x="600" y="240" width="120" height="120" stroke="#111111" stroke-opacity="0.1"/>
<rect opacity="0.5" x="600" y="360" width="120" height="120" stroke="#111111" stroke-opacity="0.1"/>
</g>
<g filter="url(#filter0_f_1209_57146)" style="mix-blend-mode:plus-darker">
<ellipse cx="373.521" cy="648.458" rx="424.595" ry="427.831" fill="url(#paint0_radial_1209_57146)"/>
</g>
<g clip-path="url(#clip2_1209_57146)">
<mask id="path-33-inside-1_1209_57146" fill="white">
<path d="M62 119H619V185.502H62V119Z"/>
</mask>
<path d="M619 185.502V184.494H62V185.502V186.509H619V185.502Z" fill="#2DB8CF" mask="url(#path-33-inside-1_1209_57146)"/>
<circle cx="103.312" cy="152.251" r="8.56459" stroke="#2DB8CF" stroke-width="1.0076"/>
<circle cx="135.555" cy="152.251" r="8.56459" stroke="#2DB8CF" stroke-width="1.0076"/>
<circle cx="167.798" cy="152.251" r="8.56459" stroke="#2DB8CF" stroke-width="1.0076"/>
<rect width="557" height="485.498" transform="translate(62 185.502)" fill="#FCFCFB"/>
<rect x="110.41" y="249.912" width="165.179" height="29.1793" stroke="#002024" stroke-width="0.820669"/>
<path d="M127.515 270.764C126.618 270.764 125.835 270.595 125.168 270.255C124.5 269.916 123.97 269.451 123.576 268.86C123.193 268.258 122.968 267.564 122.903 266.776L124.38 266.677C124.457 267.257 124.626 267.75 124.889 268.154C125.151 268.559 125.502 268.866 125.939 269.074C126.388 269.281 126.924 269.385 127.548 269.385C128.095 269.385 128.56 269.314 128.943 269.172C129.326 269.03 129.616 268.822 129.813 268.548C130.021 268.275 130.125 267.941 130.125 267.547C130.125 267.186 130.037 266.869 129.862 266.595C129.698 266.311 129.375 266.053 128.894 265.824C128.423 265.583 127.723 265.348 126.793 265.118C125.895 264.888 125.179 264.636 124.643 264.363C124.117 264.089 123.734 263.756 123.494 263.362C123.264 262.968 123.149 262.481 123.149 261.901C123.149 261.244 123.302 260.67 123.609 260.177C123.926 259.674 124.374 259.286 124.954 259.012C125.534 258.728 126.224 258.585 127.022 258.585C127.876 258.585 128.609 258.75 129.222 259.078C129.835 259.395 130.322 259.833 130.683 260.391C131.044 260.949 131.268 261.584 131.356 262.295L129.878 262.393C129.813 261.923 129.66 261.507 129.419 261.146C129.189 260.774 128.872 260.484 128.467 260.276C128.062 260.068 127.57 259.964 126.99 259.964C126.267 259.964 125.693 260.139 125.266 260.489C124.84 260.829 124.626 261.277 124.626 261.835C124.626 262.196 124.708 262.497 124.872 262.738C125.047 262.968 125.354 263.176 125.791 263.362C126.229 263.537 126.858 263.728 127.679 263.936C128.653 264.177 129.424 264.467 129.993 264.806C130.573 265.134 130.984 265.517 131.224 265.955C131.476 266.393 131.602 266.891 131.602 267.449C131.602 268.127 131.427 268.718 131.077 269.221C130.726 269.714 130.245 270.097 129.632 270.37C129.019 270.633 128.314 270.764 127.515 270.764ZM135.863 270.502V265.742L131.743 258.848H133.417L136.569 264.297L139.72 258.848H141.394L137.274 265.742V270.502H135.863ZM146.156 270.764C145.259 270.764 144.477 270.595 143.809 270.255C143.142 269.916 142.611 269.451 142.217 268.86C141.834 268.258 141.61 267.564 141.544 266.776L143.021 266.677C143.098 267.257 143.268 267.75 143.53 268.154C143.793 268.559 144.143 268.866 144.581 269.074C145.029 269.281 145.565 269.385 146.189 269.385C146.736 269.385 147.201 269.314 147.584 269.172C147.967 269.03 148.257 268.822 148.454 268.548C148.662 268.275 148.766 267.941 148.766 267.547C148.766 267.186 148.678 266.869 148.503 266.595C148.339 266.311 148.016 266.053 147.535 265.824C147.064 265.583 146.364 265.348 145.434 265.118C144.537 264.888 143.82 264.636 143.284 264.363C142.759 264.089 142.376 263.756 142.135 263.362C141.905 262.968 141.79 262.481 141.79 261.901C141.79 261.244 141.943 260.67 142.25 260.177C142.567 259.674 143.016 259.286 143.596 259.012C144.176 258.728 144.865 258.585 145.664 258.585C146.517 258.585 147.25 258.75 147.863 259.078C148.476 259.395 148.963 259.833 149.324 260.391C149.685 260.949 149.909 261.584 149.997 262.295L148.52 262.393C148.454 261.923 148.301 261.507 148.06 261.146C147.83 260.774 147.513 260.484 147.108 260.276C146.703 260.068 146.211 259.964 145.631 259.964C144.909 259.964 144.334 260.139 143.908 260.489C143.481 260.829 143.268 261.277 143.268 261.835C143.268 262.196 143.35 262.497 143.514 262.738C143.689 262.968 143.995 263.176 144.433 263.362C144.871 263.537 145.5 263.728 146.32 263.936C147.294 264.177 148.066 264.467 148.635 264.806C149.215 265.134 149.625 265.517 149.866 265.955C150.117 266.393 150.243 266.891 150.243 267.449C150.243 268.127 150.068 268.718 149.718 269.221C149.368 269.714 148.886 270.097 148.274 270.37C147.661 270.633 146.955 270.764 146.156 270.764ZM154.307 270.502V260.227H150.68V258.848H159.346V260.227H155.719V270.502H154.307ZM160.552 270.502V258.848H167.873V260.227H161.964V263.985H167.676V265.331H161.964V269.123H168.004V270.502H160.552ZM170.282 270.502V258.848H172.251L175.977 268.959L179.687 258.848H181.656V270.502H180.245V261.474L176.913 270.502H175.025L171.693 261.474V270.502H170.282ZM192.784 270.764C191.886 270.764 191.104 270.595 190.437 270.255C189.769 269.916 189.238 269.451 188.844 268.86C188.462 268.258 188.237 267.564 188.172 266.776L189.649 266.677C189.725 267.257 189.895 267.75 190.158 268.154C190.42 268.559 190.77 268.866 191.208 269.074C191.657 269.281 192.193 269.385 192.817 269.385C193.364 269.385 193.829 269.314 194.212 269.172C194.595 269.03 194.885 268.822 195.082 268.548C195.289 268.275 195.393 267.941 195.393 267.547C195.393 267.186 195.306 266.869 195.131 266.595C194.967 266.311 194.644 266.053 194.162 265.824C193.692 265.583 192.992 265.348 192.062 265.118C191.164 264.888 190.448 264.636 189.911 264.363C189.386 264.089 189.003 263.756 188.762 263.362C188.533 262.968 188.418 262.481 188.418 261.901C188.418 261.244 188.571 260.67 188.877 260.177C189.195 259.674 189.643 259.286 190.223 259.012C190.803 258.728 191.493 258.585 192.291 258.585C193.145 258.585 193.878 258.75 194.491 259.078C195.103 259.395 195.59 259.833 195.951 260.391C196.313 260.949 196.537 261.584 196.624 262.295L195.147 262.393C195.082 261.923 194.928 261.507 194.688 261.146C194.458 260.774 194.141 260.484 193.736 260.276C193.331 260.068 192.838 259.964 192.258 259.964C191.536 259.964 190.962 260.139 190.535 260.489C190.108 260.829 189.895 261.277 189.895 261.835C189.895 262.196 189.977 262.497 190.141 262.738C190.316 262.968 190.623 263.176 191.06 263.362C191.498 263.537 192.127 263.728 192.948 263.936C193.922 264.177 194.693 264.467 195.262 264.806C195.842 265.134 196.252 265.517 196.493 265.955C196.745 266.393 196.871 266.891 196.871 267.449C196.871 268.127 196.696 268.718 196.345 269.221C195.995 269.714 195.514 270.097 194.901 270.37C194.288 270.633 193.582 270.764 192.784 270.764ZM200.935 270.502V260.227H197.307V258.848H205.974V260.227H202.346V270.502H200.935ZM205.02 270.502L209.222 258.848H211.126L215.328 270.502H213.785L212.62 267.186H207.728L206.563 270.502H205.02ZM208.204 265.807H212.144L210.174 260.079L208.204 265.807ZM218.005 270.502V260.227H214.378V258.848H223.044V260.227H219.417V270.502H218.005ZM228.9 270.764C228.003 270.764 227.22 270.589 226.553 270.239C225.896 269.889 225.387 269.391 225.026 268.745C224.676 268.089 224.501 267.317 224.501 266.431V258.832H225.913V266.431C225.913 267.372 226.17 268.1 226.684 268.614C227.209 269.128 227.948 269.385 228.9 269.385C229.841 269.385 230.568 269.128 231.083 268.614C231.608 268.1 231.871 267.372 231.871 266.431V258.832H233.282V266.431C233.282 267.317 233.102 268.089 232.741 268.745C232.39 269.391 231.887 269.889 231.23 270.239C230.574 270.589 229.797 270.764 228.9 270.764ZM240.068 270.764C239.171 270.764 238.389 270.595 237.721 270.255C237.054 269.916 236.523 269.451 236.129 268.86C235.746 268.258 235.522 267.564 235.456 266.776L236.933 266.677C237.01 267.257 237.18 267.75 237.442 268.154C237.705 268.559 238.055 268.866 238.493 269.074C238.941 269.281 239.477 269.385 240.101 269.385C240.648 269.385 241.113 269.314 241.496 269.172C241.879 269.03 242.169 268.822 242.366 268.548C242.574 268.275 242.678 267.941 242.678 267.547C242.678 267.186 242.591 266.869 242.415 266.595C242.251 266.311 241.929 266.053 241.447 265.824C240.977 265.583 240.276 265.348 239.346 265.118C238.449 264.888 237.732 264.636 237.196 264.363C236.671 264.089 236.288 263.756 236.047 263.362C235.817 262.968 235.702 262.481 235.702 261.901C235.702 261.244 235.856 260.67 236.162 260.177C236.479 259.674 236.928 259.286 237.508 259.012C238.088 258.728 238.777 258.585 239.576 258.585C240.429 258.585 241.163 258.75 241.775 259.078C242.388 259.395 242.875 259.833 243.236 260.391C243.597 260.949 243.822 261.584 243.909 262.295L242.432 262.393C242.366 261.923 242.213 261.507 241.972 261.146C241.742 260.774 241.425 260.484 241.02 260.276C240.615 260.068 240.123 259.964 239.543 259.964C238.821 259.964 238.246 260.139 237.82 260.489C237.393 260.829 237.18 261.277 237.18 261.835C237.18 262.196 237.262 262.497 237.426 262.738C237.601 262.968 237.907 263.176 238.345 263.362C238.783 263.537 239.412 263.728 240.232 263.936C241.206 264.177 241.978 264.467 242.547 264.806C243.127 265.134 243.537 265.517 243.778 265.955C244.029 266.393 244.155 266.891 244.155 267.449C244.155 268.127 243.98 268.718 243.63 269.221C243.28 269.714 242.798 270.097 242.186 270.37C241.573 270.633 240.867 270.764 240.068 270.764Z" fill="#002024"/>
<rect x="254" y="259.502" width="10" height="10" fill="#72D8E8"/>
<path d="M110.88 345.667L122.144 314.427H127.248L138.512 345.667H134.376L131.252 336.779H118.14L115.016 345.667H110.88ZM119.416 333.083H129.976L124.696 317.727L119.416 333.083ZM146.627 345.667C145.278 345.667 144.178 345.315 143.327 344.611C142.477 343.907 142.051 342.792 142.051 341.267V314.427H145.747V340.959C145.747 341.428 145.865 341.795 146.099 342.059C146.363 342.293 146.73 342.411 147.199 342.411H149.223V345.667H146.627ZM157.928 345.667C156.579 345.667 155.479 345.315 154.628 344.611C153.777 343.907 153.352 342.792 153.352 341.267V314.427H157.048V340.959C157.048 341.428 157.165 341.795 157.4 342.059C157.664 342.293 158.031 342.411 158.5 342.411H160.524V345.667H157.928ZM184.575 346.195C182.492 346.195 180.717 345.857 179.251 345.183C177.813 344.508 176.684 343.584 175.863 342.411C175.071 341.208 174.616 339.844 174.499 338.319L178.37 338.055C178.605 339.463 179.207 340.592 180.175 341.443C181.143 342.264 182.609 342.675 184.575 342.675C186.159 342.675 187.42 342.425 188.359 341.927C189.327 341.399 189.811 340.563 189.811 339.419C189.811 338.803 189.664 338.289 189.371 337.879C189.077 337.468 188.505 337.116 187.655 336.823C186.804 336.5 185.543 336.192 183.87 335.899C181.641 335.488 179.881 334.989 178.591 334.403C177.329 333.787 176.42 333.039 175.863 332.159C175.335 331.249 175.071 330.179 175.071 328.947C175.071 326.864 175.833 325.163 177.359 323.843C178.884 322.493 181.055 321.819 183.87 321.819C185.777 321.819 187.376 322.171 188.667 322.875C189.987 323.549 191.013 324.459 191.747 325.603C192.509 326.717 193.008 327.949 193.243 329.299L189.371 329.563C189.195 328.741 188.872 328.023 188.403 327.407C187.933 326.761 187.317 326.263 186.555 325.911C185.792 325.529 184.883 325.339 183.827 325.339C182.155 325.339 180.923 325.661 180.131 326.307C179.339 326.952 178.943 327.773 178.943 328.771C178.943 329.533 179.119 330.164 179.471 330.663C179.852 331.132 180.453 331.528 181.275 331.851C182.096 332.144 183.196 332.408 184.575 332.643C186.951 333.053 188.799 333.552 190.119 334.139C191.439 334.725 192.363 335.444 192.891 336.295C193.419 337.145 193.683 338.187 193.683 339.419C193.683 340.856 193.272 342.088 192.451 343.115C191.659 344.112 190.573 344.875 189.195 345.403C187.845 345.931 186.305 346.195 184.575 346.195ZM199.052 352.267V349.011H201.736C202.557 349.011 203.158 348.879 203.54 348.615C203.95 348.38 204.258 347.984 204.464 347.427L205.3 345.227H204.024L195.488 322.347H199.536L206.488 341.795L213.132 322.347H217.18L207.72 348.615C207.28 349.876 206.62 350.8 205.74 351.387C204.86 351.973 203.642 352.267 202.088 352.267H199.052ZM229.004 346.195C226.922 346.195 225.147 345.857 223.68 345.183C222.243 344.508 221.114 343.584 220.292 342.411C219.5 341.208 219.046 339.844 218.928 338.319L222.8 338.055C223.035 339.463 223.636 340.592 224.604 341.443C225.572 342.264 227.039 342.675 229.004 342.675C230.588 342.675 231.85 342.425 232.788 341.927C233.756 341.399 234.24 340.563 234.24 339.419C234.24 338.803 234.094 338.289 233.8 337.879C233.507 337.468 232.935 337.116 232.084 336.823C231.234 336.5 229.972 336.192 228.3 335.899C226.071 335.488 224.311 334.989 223.02 334.403C221.759 333.787 220.85 333.039 220.292 332.159C219.764 331.249 219.5 330.179 219.5 328.947C219.5 326.864 220.263 325.163 221.788 323.843C223.314 322.493 225.484 321.819 228.3 321.819C230.207 321.819 231.806 322.171 233.096 322.875C234.416 323.549 235.443 324.459 236.176 325.603C236.939 326.717 237.438 327.949 237.672 329.299L233.8 329.563C233.624 328.741 233.302 328.023 232.832 327.407C232.363 326.761 231.747 326.263 230.984 325.911C230.222 325.529 229.312 325.339 228.256 325.339C226.584 325.339 225.352 325.661 224.56 326.307C223.768 326.952 223.372 327.773 223.372 328.771C223.372 329.533 223.548 330.164 223.9 330.663C224.282 331.132 224.883 331.528 225.704 331.851C226.526 332.144 227.626 332.408 229.004 332.643C231.38 333.053 233.228 333.552 234.548 334.139C235.868 334.725 236.792 335.444 237.32 336.295C237.848 337.145 238.112 338.187 238.112 339.419C238.112 340.856 237.702 342.088 236.88 343.115C236.088 344.112 235.003 344.875 233.624 345.403C232.275 345.931 230.735 346.195 229.004 346.195ZM250.79 345.667C248.678 345.667 247.109 345.183 246.082 344.215C245.085 343.247 244.586 341.736 244.586 339.683V316.891H248.282V339.595C248.282 340.651 248.517 341.384 248.986 341.795C249.456 342.205 250.174 342.411 251.142 342.411H254.486V345.667H250.79ZM241.154 325.603V322.347H254.486V325.603H241.154ZM267.905 346.195C265.705 346.195 263.799 345.696 262.185 344.699C260.601 343.701 259.369 342.293 258.489 340.475C257.639 338.627 257.213 336.471 257.213 334.007C257.213 331.543 257.639 329.401 258.489 327.583C259.369 325.764 260.587 324.356 262.141 323.359C263.725 322.332 265.588 321.819 267.729 321.819C269.753 321.819 271.543 322.303 273.097 323.271C274.652 324.209 275.855 325.588 276.705 327.407C277.585 329.225 278.025 331.44 278.025 334.051V335.151H261.085C261.232 337.644 261.892 339.521 263.065 340.783C264.268 342.044 265.881 342.675 267.905 342.675C269.431 342.675 270.677 342.323 271.645 341.619C272.643 340.885 273.332 339.932 273.713 338.759L277.673 339.067C277.057 341.149 275.884 342.865 274.153 344.215C272.452 345.535 270.369 346.195 267.905 346.195ZM261.085 331.895H273.977C273.801 329.636 273.141 327.979 271.997 326.923C270.883 325.867 269.46 325.339 267.729 325.339C265.94 325.339 264.459 325.896 263.285 327.011C262.141 328.096 261.408 329.724 261.085 331.895ZM283.032 345.667V322.347H286.42L286.552 328.243L286.024 328.067C286.288 326.776 286.742 325.676 287.388 324.767C288.062 323.828 288.884 323.109 289.852 322.611C290.82 322.083 291.89 321.819 293.064 321.819C295.088 321.819 296.73 322.376 297.992 323.491C299.282 324.605 300.089 326.16 300.412 328.155L299.708 328.111C299.942 326.761 300.368 325.632 300.984 324.723C301.629 323.784 302.45 323.065 303.448 322.567C304.445 322.068 305.589 321.819 306.88 321.819C308.552 321.819 309.96 322.171 311.104 322.875C312.248 323.549 313.113 324.547 313.7 325.867C314.286 327.187 314.58 328.785 314.58 330.663V345.667H310.884V331.455C310.884 329.343 310.473 327.759 309.652 326.703C308.83 325.617 307.613 325.075 306 325.075C304.914 325.075 303.961 325.339 303.14 325.867C302.348 326.395 301.732 327.157 301.292 328.155C300.852 329.123 300.632 330.311 300.632 331.719V345.667H296.936V331.719C296.936 329.636 296.569 328.008 295.836 326.835C295.102 325.661 293.87 325.075 292.14 325.075C291.054 325.075 290.101 325.339 289.28 325.867C288.488 326.395 287.857 327.157 287.388 328.155C286.948 329.152 286.728 330.34 286.728 331.719V345.667H283.032ZM329.594 346.195C327.511 346.195 325.737 345.857 324.27 345.183C322.833 344.508 321.703 343.584 320.882 342.411C320.09 341.208 319.635 339.844 319.518 338.319L323.39 338.055C323.625 339.463 324.226 340.592 325.194 341.443C326.162 342.264 327.629 342.675 329.594 342.675C331.178 342.675 332.439 342.425 333.378 341.927C334.346 341.399 334.83 340.563 334.83 339.419C334.83 338.803 334.683 338.289 334.39 337.879C334.097 337.468 333.525 337.116 332.674 336.823C331.823 336.5 330.562 336.192 328.89 335.899C326.661 335.488 324.901 334.989 323.61 334.403C322.349 333.787 321.439 333.039 320.882 332.159C320.354 331.249 320.09 330.179 320.09 328.947C320.09 326.864 320.853 325.163 322.378 323.843C323.903 322.493 326.074 321.819 328.89 321.819C330.797 321.819 332.395 322.171 333.686 322.875C335.006 323.549 336.033 324.459 336.766 325.603C337.529 326.717 338.027 327.949 338.262 329.299L334.39 329.563C334.214 328.741 333.891 328.023 333.422 327.407C332.953 326.761 332.337 326.263 331.574 325.911C330.811 325.529 329.902 325.339 328.846 325.339C327.174 325.339 325.942 325.661 325.15 326.307C324.358 326.952 323.962 327.773 323.962 328.771C323.962 329.533 324.138 330.164 324.49 330.663C324.871 331.132 325.473 331.528 326.294 331.851C327.115 332.144 328.215 332.408 329.594 332.643C331.97 333.053 333.818 333.552 335.138 334.139C336.458 334.725 337.382 335.444 337.91 336.295C338.438 337.145 338.702 338.187 338.702 339.419C338.702 340.856 338.291 342.088 337.47 343.115C336.678 344.112 335.593 344.875 334.214 345.403C332.865 345.931 331.325 346.195 329.594 346.195ZM122.628 394.195C120.487 394.195 118.609 393.696 116.996 392.699C115.383 391.701 114.136 390.293 113.256 388.475C112.376 386.627 111.936 384.471 111.936 382.007C111.936 379.513 112.376 377.357 113.256 375.539C114.136 373.72 115.383 372.312 116.996 371.315C118.609 370.317 120.487 369.819 122.628 369.819C124.769 369.819 126.632 370.317 128.216 371.315C129.829 372.312 131.076 373.72 131.956 375.539C132.836 377.357 133.276 379.513 133.276 382.007C133.276 384.471 132.836 386.627 131.956 388.475C131.076 390.293 129.829 391.701 128.216 392.699C126.632 393.696 124.769 394.195 122.628 394.195ZM122.628 390.675C124.769 390.675 126.427 389.912 127.6 388.387C128.803 386.832 129.404 384.705 129.404 382.007C129.404 379.308 128.803 377.196 127.6 375.671C126.427 374.116 124.769 373.339 122.628 373.339C120.487 373.339 118.815 374.116 117.612 375.671C116.409 377.196 115.808 379.308 115.808 382.007C115.808 384.705 116.409 386.832 117.612 388.387C118.815 389.912 120.487 390.675 122.628 390.675ZM138.313 400.267V370.347H141.745L141.833 375.363L141.305 375.099C141.892 373.368 142.86 372.063 144.209 371.183C145.588 370.273 147.172 369.819 148.961 369.819C151.278 369.819 153.17 370.391 154.637 371.535C156.133 372.679 157.233 374.175 157.937 376.023C158.67 377.871 159.037 379.865 159.037 382.007C159.037 384.148 158.67 386.143 157.937 387.991C157.233 389.839 156.133 391.335 154.637 392.479C153.17 393.623 151.278 394.195 148.961 394.195C147.758 394.195 146.629 393.989 145.573 393.579C144.546 393.168 143.666 392.596 142.933 391.863C142.229 391.129 141.745 390.264 141.481 389.267L142.009 388.651V400.267H138.313ZM148.609 390.675C150.633 390.675 152.232 389.912 153.405 388.387C154.578 386.861 155.165 384.735 155.165 382.007C155.165 379.279 154.578 377.152 153.405 375.627C152.232 374.101 150.633 373.339 148.609 373.339C147.26 373.339 146.086 373.661 145.089 374.307C144.121 374.952 143.358 375.92 142.801 377.211C142.273 378.501 142.009 380.1 142.009 382.007C142.009 383.913 142.273 385.512 142.801 386.803C143.329 388.093 144.092 389.061 145.089 389.707C146.086 390.352 147.26 390.675 148.609 390.675ZM173.159 394.195C170.959 394.195 169.053 393.696 167.439 392.699C165.855 391.701 164.623 390.293 163.743 388.475C162.893 386.627 162.467 384.471 162.467 382.007C162.467 379.543 162.893 377.401 163.743 375.583C164.623 373.764 165.841 372.356 167.395 371.359C168.979 370.332 170.842 369.819 172.983 369.819C175.007 369.819 176.797 370.303 178.351 371.271C179.906 372.209 181.109 373.588 181.959 375.407C182.839 377.225 183.279 379.44 183.279 382.051V383.151H166.339C166.486 385.644 167.146 387.521 168.319 388.783C169.522 390.044 171.135 390.675 173.159 390.675C174.685 390.675 175.931 390.323 176.899 389.619C177.897 388.885 178.586 387.932 178.967 386.759L182.927 387.067C182.311 389.149 181.138 390.865 179.407 392.215C177.706 393.535 175.623 394.195 173.159 394.195ZM166.339 379.895H179.231C179.055 377.636 178.395 375.979 177.251 374.923C176.137 373.867 174.714 373.339 172.983 373.339C171.194 373.339 169.713 373.896 168.539 375.011C167.395 376.096 166.662 377.724 166.339 379.895ZM188.286 393.667V370.347H191.542L191.718 376.243L191.366 376.111C191.659 374.116 192.29 372.664 193.258 371.755C194.255 370.816 195.575 370.347 197.218 370.347H199.506V373.867H197.262C196.088 373.867 195.106 374.087 194.314 374.527C193.551 374.937 192.964 375.568 192.554 376.419C192.172 377.24 191.982 378.296 191.982 379.587V393.667H188.286ZM209.488 394.195C207.082 394.195 205.161 393.637 203.724 392.523C202.316 391.408 201.612 389.853 201.612 387.859C201.612 385.864 202.198 384.295 203.372 383.151C204.545 382.007 206.408 381.2 208.96 380.731L217.232 379.191C217.232 377.225 216.762 375.759 215.824 374.791C214.914 373.823 213.536 373.339 211.688 373.339C210.074 373.339 208.798 373.705 207.86 374.439C206.921 375.143 206.276 376.169 205.924 377.519L202.008 377.211C202.448 375.011 203.504 373.236 205.176 371.887C206.877 370.508 209.048 369.819 211.688 369.819C214.68 369.819 216.968 370.669 218.552 372.371C220.136 374.043 220.928 376.36 220.928 379.323V388.959C220.928 389.487 221.016 389.868 221.192 390.103C221.397 390.308 221.72 390.411 222.16 390.411H223.084V393.667C222.966 393.696 222.776 393.711 222.512 393.711C222.248 393.74 221.969 393.755 221.676 393.755C220.62 393.755 219.754 393.593 219.08 393.271C218.434 392.919 217.965 392.391 217.672 391.687C217.378 390.953 217.232 390 217.232 388.827L217.672 388.915C217.466 389.912 216.968 390.821 216.176 391.643C215.384 392.435 214.401 393.065 213.228 393.535C212.054 393.975 210.808 394.195 209.488 394.195ZM209.84 390.939C211.394 390.939 212.714 390.645 213.8 390.059C214.914 389.443 215.765 388.621 216.352 387.595C216.938 386.539 217.232 385.365 217.232 384.075V382.403L209.664 383.811C208.08 384.104 206.98 384.559 206.364 385.175C205.777 385.761 205.484 386.539 205.484 387.507C205.484 388.592 205.865 389.443 206.628 390.059C207.42 390.645 208.49 390.939 209.84 390.939ZM234.634 393.667C232.522 393.667 230.953 393.183 229.926 392.215C228.929 391.247 228.43 389.736 228.43 387.683V364.891H232.126V387.595C232.126 388.651 232.361 389.384 232.83 389.795C233.299 390.205 234.018 390.411 234.986 390.411H238.33V393.667H234.634ZM224.998 373.603V370.347H238.33V373.603H224.998ZM243.071 393.667V370.347H246.767V393.667H243.071ZM242.983 366.695V362.383H246.855V366.695H242.983ZM262.491 394.195C260.35 394.195 258.473 393.696 256.859 392.699C255.246 391.701 253.999 390.293 253.119 388.475C252.239 386.627 251.799 384.471 251.799 382.007C251.799 379.513 252.239 377.357 253.119 375.539C253.999 373.72 255.246 372.312 256.859 371.315C258.473 370.317 260.35 369.819 262.491 369.819C264.633 369.819 266.495 370.317 268.079 371.315C269.693 372.312 270.939 373.72 271.819 375.539C272.699 377.357 273.139 379.513 273.139 382.007C273.139 384.471 272.699 386.627 271.819 388.475C270.939 390.293 269.693 391.701 268.079 392.699C266.495 393.696 264.633 394.195 262.491 394.195ZM262.491 390.675C264.633 390.675 266.29 389.912 267.463 388.387C268.666 386.832 269.267 384.705 269.267 382.007C269.267 379.308 268.666 377.196 267.463 375.671C266.29 374.116 264.633 373.339 262.491 373.339C260.35 373.339 258.678 374.116 257.475 375.671C256.273 377.196 255.671 379.308 255.671 382.007C255.671 384.705 256.273 386.832 257.475 388.387C258.678 389.912 260.35 390.675 262.491 390.675ZM278.176 393.667V370.347H281.564L281.696 376.287L281.256 375.891C281.55 374.512 282.063 373.383 282.796 372.503C283.53 371.593 284.41 370.919 285.436 370.479C286.492 370.039 287.622 369.819 288.824 369.819C290.614 369.819 292.08 370.215 293.224 371.007C294.398 371.799 295.263 372.869 295.82 374.219C296.407 375.539 296.7 377.02 296.7 378.663V393.667H293.004V379.719C293.004 378.281 292.828 377.079 292.476 376.111C292.154 375.113 291.626 374.365 290.892 373.867C290.159 373.339 289.206 373.075 288.032 373.075C286.243 373.075 284.762 373.647 283.588 374.791C282.444 375.905 281.872 377.548 281.872 379.719V393.667H278.176ZM309.605 394.195C307.2 394.195 305.278 393.637 303.841 392.523C302.433 391.408 301.729 389.853 301.729 387.859C301.729 385.864 302.316 384.295 303.489 383.151C304.662 382.007 306.525 381.2 309.077 380.731L317.349 379.191C317.349 377.225 316.88 375.759 315.941 374.791C315.032 373.823 313.653 373.339 311.805 373.339C310.192 373.339 308.916 373.705 307.977 374.439C307.038 375.143 306.393 376.169 306.041 377.519L302.125 377.211C302.565 375.011 303.621 373.236 305.293 371.887C306.994 370.508 309.165 369.819 311.805 369.819C314.797 369.819 317.085 370.669 318.669 372.371C320.253 374.043 321.045 376.36 321.045 379.323V388.959C321.045 389.487 321.133 389.868 321.309 390.103C321.514 390.308 321.837 390.411 322.277 390.411H323.201V393.667C323.084 393.696 322.893 393.711 322.629 393.711C322.365 393.74 322.086 393.755 321.793 393.755C320.737 393.755 319.872 393.593 319.197 393.271C318.552 392.919 318.082 392.391 317.789 391.687C317.496 390.953 317.349 390 317.349 388.827L317.789 388.915C317.584 389.912 317.085 390.821 316.293 391.643C315.501 392.435 314.518 393.065 313.345 393.535C312.172 393.975 310.925 394.195 309.605 394.195ZM309.957 390.939C311.512 390.939 312.832 390.645 313.917 390.059C315.032 389.443 315.882 388.621 316.469 387.595C317.056 386.539 317.349 385.365 317.349 384.075V382.403L309.781 383.811C308.197 384.104 307.097 384.559 306.481 385.175C305.894 385.761 305.601 386.539 305.601 387.507C305.601 388.592 305.982 389.443 306.745 390.059C307.537 390.645 308.608 390.939 309.957 390.939ZM331.694 393.667C330.344 393.667 329.244 393.315 328.394 392.611C327.543 391.907 327.118 390.792 327.118 389.267V362.427H330.814V388.959C330.814 389.428 330.931 389.795 331.166 390.059C331.43 390.293 331.796 390.411 332.266 390.411H334.29V393.667H331.694Z" fill="#002024"/>
<rect x="110" y="446.667" width="461" height="254" fill="#111111" fill-opacity="0.05"/>
</g>
<rect x="62.5038" y="119.504" width="555.992" height="550.992" stroke="#2DB8CF" stroke-width="1.0076"/>
<rect x="370.614" y="52.6139" width="314.772" height="90.7722" fill="#FCFCFB"/>
<rect x="370.614" y="52.6139" width="314.772" height="90.7722" stroke="#2DB8CF" stroke-width="1.22778"/>
<path d="M406.168 107V91.976H400.96V89.96H413.44V91.976H408.232V107H406.168ZM419.383 107V94.28H421.063L421.255 97.496L421.063 97.448C421.223 96.36 421.567 95.56 422.095 95.048C422.639 94.536 423.359 94.28 424.255 94.28H426.871V96.104H424.279C423.655 96.104 423.127 96.232 422.695 96.488C422.279 96.728 421.959 97.088 421.735 97.568C421.511 98.032 421.399 98.616 421.399 99.32V107H419.383ZM416.071 107V105.224H425.431V107H416.071ZM416.071 96.056V94.28H420.487V96.056H416.071ZM433.341 107.288C432.541 107.288 431.821 107.144 431.181 106.856C430.541 106.568 430.037 106.168 429.669 105.656C429.301 105.128 429.117 104.52 429.117 103.832C429.117 102.744 429.437 101.904 430.077 101.312C430.733 100.704 431.757 100.264 433.149 99.992L437.421 99.128C437.421 98.04 437.173 97.232 436.677 96.704C436.197 96.176 435.501 95.912 434.589 95.912C433.709 95.912 433.021 96.112 432.525 96.512C432.029 96.896 431.685 97.456 431.493 98.192L429.357 98.024C429.597 96.824 430.165 95.856 431.061 95.12C431.973 94.368 433.149 93.992 434.589 93.992C436.125 93.992 437.317 94.456 438.165 95.384C439.013 96.296 439.437 97.56 439.437 99.176V104.456C439.437 104.744 439.501 104.944 439.629 105.056C439.757 105.168 439.949 105.224 440.205 105.224H441.021V107C440.925 107.016 440.773 107.024 440.565 107.024C440.357 107.04 440.157 107.048 439.965 107.048C439.421 107.048 438.957 106.96 438.573 106.784C438.205 106.608 437.925 106.328 437.733 105.944C437.541 105.544 437.437 105.032 437.421 104.408H437.805C437.693 104.952 437.421 105.448 436.989 105.896C436.573 106.328 436.045 106.672 435.405 106.928C434.765 107.168 434.077 107.288 433.341 107.288ZM433.533 105.512C434.397 105.512 435.117 105.368 435.693 105.08C436.269 104.776 436.701 104.36 436.989 103.832C437.277 103.288 437.421 102.664 437.421 101.96V100.856L433.533 101.624C432.669 101.784 432.069 102.032 431.733 102.368C431.397 102.688 431.229 103.112 431.229 103.64C431.229 104.232 431.429 104.696 431.829 105.032C432.245 105.352 432.813 105.512 433.533 105.512ZM446.82 107V93.464C446.82 92.328 447.108 91.464 447.684 90.872C448.276 90.264 449.172 89.96 450.372 89.96H454.452V91.736H450.372C449.876 91.736 449.492 91.896 449.22 92.216C448.964 92.52 448.836 92.936 448.836 93.464V107H446.82ZM443.412 96.056V94.28H454.212V96.056H443.412ZM460.731 107V93.464C460.731 92.328 461.019 91.464 461.595 90.872C462.187 90.264 463.083 89.96 464.283 89.96H468.363V91.736H464.283C463.787 91.736 463.403 91.896 463.131 92.216C462.875 92.52 462.747 92.936 462.747 93.464V107H460.731ZM457.323 96.056V94.28H468.123V96.056H457.323ZM476.585 107V94.28H478.601V107H476.585ZM471.473 107V105.224H482.993V107H471.473ZM471.713 96.056V94.28H478.601V96.056H471.713ZM476.393 92.288V89.936H478.505V92.288H476.393ZM491 107.288C489.816 107.288 488.784 107.016 487.904 106.472C487.024 105.928 486.344 105.16 485.864 104.168C485.384 103.16 485.144 101.984 485.144 100.64C485.144 99.296 485.384 98.128 485.864 97.136C486.344 96.144 487.024 95.376 487.904 94.832C488.784 94.272 489.816 93.992 491 93.992C491.944 93.992 492.784 94.168 493.52 94.52C494.256 94.856 494.864 95.352 495.344 96.008C495.824 96.664 496.152 97.464 496.328 98.408L494.216 98.552C494.024 97.704 493.64 97.056 493.064 96.608C492.504 96.144 491.816 95.912 491 95.912C489.832 95.912 488.912 96.336 488.24 97.184C487.584 98.016 487.256 99.168 487.256 100.64C487.256 102.112 487.584 103.272 488.24 104.12C488.912 104.952 489.832 105.368 491 105.368C491.816 105.368 492.52 105.128 493.112 104.648C493.72 104.168 494.12 103.448 494.312 102.488L496.424 102.632C496.248 103.576 495.912 104.4 495.416 105.104C494.92 105.792 494.296 106.328 493.544 106.712C492.792 107.096 491.944 107.288 491 107.288Z" fill="#002024"/>
<rect width="64" height="32" transform="translate(592 82)" fill="#2DB8CF"/>
<rect x="625" y="86" width="27" height="24" fill="#FCFCFB"/>
<rect x="370.614" y="156.614" width="314.772" height="90.7722" fill="#FCFCFB"/>
<rect x="370.614" y="156.614" width="314.772" height="90.7722" stroke="#2DB8CF" stroke-width="1.22778"/>
<path d="M402.16 211V193.96H406.192C407.664 193.96 408.944 194.296 410.032 194.968C411.136 195.624 411.984 196.592 412.576 197.872C413.184 199.136 413.488 200.68 413.488 202.504C413.488 204.328 413.184 205.872 412.576 207.136C411.984 208.4 411.136 209.36 410.032 210.016C408.944 210.672 407.664 211 406.192 211H402.16ZM404.224 208.984H406.072C407.736 208.984 409.024 208.448 409.936 207.376C410.864 206.288 411.328 204.664 411.328 202.504C411.328 200.344 410.864 198.72 409.936 197.632C409.024 196.528 407.736 195.976 406.072 195.976H404.224V208.984ZM421.327 211.288C420.127 211.288 419.087 211.016 418.207 210.472C417.343 209.928 416.671 209.16 416.191 208.168C415.727 207.16 415.495 205.984 415.495 204.64C415.495 203.296 415.727 202.128 416.191 201.136C416.671 200.144 417.335 199.376 418.183 198.832C419.047 198.272 420.063 197.992 421.231 197.992C422.335 197.992 423.311 198.256 424.159 198.784C425.007 199.296 425.671 200.048 426.151 201.04C426.631 202.032 426.871 203.24 426.871 204.664V205.264H417.607C417.687 206.624 418.047 207.648 418.687 208.336C419.343 209.024 420.223 209.368 421.327 209.368C422.159 209.368 422.839 209.176 423.367 208.792C423.911 208.392 424.287 207.872 424.495 207.232L426.655 207.4C426.319 208.536 425.679 209.472 424.735 210.208C423.807 210.928 422.671 211.288 421.327 211.288ZM417.607 203.488H424.663C424.567 202.256 424.207 201.352 423.583 200.776C422.959 200.2 422.175 199.912 421.231 199.912C420.255 199.912 419.447 200.216 418.807 200.824C418.183 201.416 417.783 202.304 417.607 203.488ZM429.741 214.6V198.28H431.613L431.661 201.16L431.373 201.016C431.693 200.024 432.221 199.272 432.957 198.76C433.709 198.248 434.573 197.992 435.549 197.992C436.813 197.992 437.845 198.304 438.645 198.928C439.461 199.552 440.061 200.368 440.445 201.376C440.829 202.384 441.021 203.472 441.021 204.64C441.021 205.808 440.829 206.896 440.445 207.904C440.061 208.912 439.461 209.728 438.645 210.352C437.845 210.976 436.813 211.288 435.549 211.288C434.893 211.288 434.277 211.176 433.701 210.952C433.141 210.728 432.661 210.416 432.261 210.016C431.877 209.616 431.613 209.144 431.469 208.6L431.757 208.264V214.6H429.741ZM435.357 209.368C436.461 209.368 437.325 208.952 437.949 208.12C438.589 207.288 438.909 206.128 438.909 204.64C438.909 203.152 438.589 201.992 437.949 201.16C437.325 200.328 436.461 199.912 435.357 199.912C434.621 199.912 433.981 200.088 433.437 200.44C432.909 200.792 432.493 201.32 432.189 202.024C431.901 202.728 431.757 203.6 431.757 204.64C431.757 205.68 431.901 206.552 432.189 207.256C432.477 207.96 432.893 208.488 433.437 208.84C433.981 209.192 434.621 209.368 435.357 209.368ZM448.284 211V197.368C448.284 196.856 448.14 196.456 447.852 196.168C447.564 195.88 447.164 195.736 446.652 195.736H443.652V193.96H446.748C447.916 193.96 448.796 194.264 449.388 194.872C449.996 195.464 450.3 196.344 450.3 197.512V211H448.284ZM443.172 211V209.224H454.692V211H443.172ZM462.843 211.288C461.675 211.288 460.651 211.016 459.771 210.472C458.907 209.928 458.235 209.16 457.755 208.168C457.275 207.16 457.035 205.984 457.035 204.64C457.035 203.28 457.275 202.104 457.755 201.112C458.235 200.12 458.907 199.352 459.771 198.808C460.651 198.264 461.675 197.992 462.843 197.992C464.011 197.992 465.027 198.264 465.891 198.808C466.771 199.352 467.451 200.12 467.931 201.112C468.411 202.104 468.651 203.28 468.651 204.64C468.651 205.984 468.411 207.16 467.931 208.168C467.451 209.16 466.771 209.928 465.891 210.472C465.027 211.016 464.011 211.288 462.843 211.288ZM462.843 209.368C464.011 209.368 464.915 208.952 465.555 208.12C466.211 207.272 466.539 206.112 466.539 204.64C466.539 203.168 466.211 202.016 465.555 201.184C464.915 200.336 464.011 199.912 462.843 199.912C461.675 199.912 460.763 200.336 460.107 201.184C459.467 202.016 459.147 203.168 459.147 204.64C459.147 206.112 459.467 207.272 460.107 208.12C460.763 208.952 461.675 209.368 462.843 209.368ZM472.865 214.6V212.824H474.329C474.777 212.824 475.105 212.752 475.313 212.608C475.537 212.48 475.705 212.264 475.817 211.96L476.273 210.76H475.577L470.849 198.28H473.057L476.921 208.888L480.545 198.28H482.753L477.593 212.608C477.353 213.296 476.993 213.8 476.513 214.12C476.033 214.44 475.369 214.6 474.521 214.6H472.865ZM484.424 211V198.28H486.272L486.344 201.112L486.104 201.064C486.248 200.12 486.552 199.376 487.016 198.832C487.496 198.272 488.104 197.992 488.84 197.992C489.592 197.992 490.168 198.264 490.568 198.808C490.984 199.352 491.24 200.152 491.336 201.208H491.096C491.24 200.216 491.56 199.432 492.056 198.856C492.568 198.28 493.208 197.992 493.976 197.992C495 197.992 495.744 198.344 496.208 199.048C496.672 199.752 496.904 200.92 496.904 202.552V211H494.888V202.84C494.888 201.704 494.768 200.912 494.528 200.464C494.288 200 493.912 199.768 493.4 199.768C493.064 199.768 492.768 199.88 492.512 200.104C492.256 200.312 492.048 200.648 491.888 201.112C491.744 201.576 491.672 202.168 491.672 202.888V211H489.656V202.84C489.656 201.752 489.536 200.968 489.296 200.488C489.072 200.008 488.696 199.768 488.168 199.768C487.832 199.768 487.536 199.88 487.28 200.104C487.024 200.312 486.816 200.648 486.656 201.112C486.512 201.576 486.44 202.168 486.44 202.888V211H484.424ZM504.79 211.288C503.59 211.288 502.55 211.016 501.67 210.472C500.806 209.928 500.134 209.16 499.654 208.168C499.19 207.16 498.958 205.984 498.958 204.64C498.958 203.296 499.19 202.128 499.654 201.136C500.134 200.144 500.798 199.376 501.646 198.832C502.51 198.272 503.526 197.992 504.694 197.992C505.798 197.992 506.774 198.256 507.622 198.784C508.47 199.296 509.134 200.048 509.614 201.04C510.094 202.032 510.334 203.24 510.334 204.664V205.264H501.07C501.15 206.624 501.51 207.648 502.15 208.336C502.806 209.024 503.686 209.368 504.79 209.368C505.622 209.368 506.302 209.176 506.83 208.792C507.374 208.392 507.75 207.872 507.958 207.232L510.118 207.4C509.782 208.536 509.142 209.472 508.198 210.208C507.27 210.928 506.134 211.288 504.79 211.288ZM501.07 203.488H508.126C508.03 202.256 507.67 201.352 507.046 200.776C506.422 200.2 505.638 199.912 504.694 199.912C503.718 199.912 502.91 200.216 502.27 200.824C501.646 201.416 501.246 202.304 501.07 203.488ZM513.301 211V198.28H515.149L515.221 201.52L514.981 201.304C515.141 200.552 515.429 199.936 515.845 199.456C516.277 198.96 516.789 198.592 517.381 198.352C517.973 198.112 518.597 197.992 519.253 197.992C520.229 197.992 521.037 198.208 521.677 198.64C522.333 199.072 522.829 199.656 523.165 200.392C523.501 201.112 523.669 201.92 523.669 202.816V211H521.653V203.392C521.653 202.208 521.421 201.312 520.957 200.704C520.493 200.08 519.781 199.768 518.821 199.768C518.165 199.768 517.573 199.912 517.045 200.2C516.517 200.472 516.093 200.88 515.773 201.424C515.469 201.952 515.317 202.608 515.317 203.392V211H513.301ZM534.268 211C533.036 211 532.116 210.712 531.508 210.136C530.9 209.56 530.596 208.68 530.596 207.496V195.304H532.612V207.496C532.612 208.088 532.748 208.528 533.02 208.816C533.292 209.088 533.708 209.224 534.268 209.224H537.676V211H534.268ZM526.396 200.056V198.28H537.676V200.056H526.396ZM546.546 211.288C545.442 211.288 544.49 211.096 543.69 210.712C542.89 210.328 542.258 209.816 541.794 209.176C541.346 208.52 541.09 207.792 541.026 206.992L543.138 206.848C543.266 207.632 543.61 208.248 544.17 208.696C544.746 209.144 545.538 209.368 546.546 209.368C547.49 209.368 548.218 209.232 548.73 208.96C549.258 208.688 549.522 208.264 549.522 207.688C549.522 207.32 549.434 207.016 549.258 206.776C549.082 206.536 548.754 206.336 548.274 206.176C547.794 206 547.09 205.832 546.162 205.672C544.93 205.448 543.962 205.176 543.258 204.856C542.57 204.52 542.082 204.104 541.794 203.608C541.506 203.112 541.362 202.52 541.362 201.832C541.362 201.096 541.546 200.44 541.914 199.864C542.282 199.288 542.826 198.832 543.546 198.496C544.266 198.16 545.146 197.992 546.186 197.992C547.242 197.992 548.122 198.184 548.826 198.568C549.546 198.936 550.114 199.432 550.53 200.056C550.946 200.664 551.218 201.336 551.346 202.072L549.234 202.216C549.138 201.768 548.954 201.376 548.682 201.04C548.426 200.688 548.082 200.416 547.65 200.224C547.234 200.016 546.738 199.912 546.162 199.912C545.234 199.912 544.546 200.096 544.098 200.464C543.65 200.832 543.426 201.288 543.426 201.832C543.426 202.264 543.53 202.608 543.738 202.864C543.946 203.12 544.282 203.328 544.746 203.488C545.21 203.632 545.826 203.768 546.594 203.896C547.906 204.104 548.922 204.376 549.642 204.712C550.362 205.032 550.866 205.432 551.154 205.912C551.442 206.392 551.586 206.984 551.586 207.688C551.586 208.44 551.362 209.088 550.914 209.632C550.482 210.16 549.882 210.568 549.114 210.856C548.362 211.144 547.506 211.288 546.546 211.288Z" fill="#002024"/>
<rect width="64" height="32" transform="translate(592 186)" fill="#2DB8CF"/>
<rect x="625" y="190" width="27" height="24" fill="#FCFCFB"/>
<rect x="370.614" y="260.614" width="314.772" height="90.7722" fill="#FCFCFB"/>
<rect x="370.614" y="260.614" width="314.772" height="90.7722" stroke="#2DB8CF" stroke-width="1.22778"/>
<path d="M407.464 315.384C406.264 315.384 405.2 315.136 404.272 314.64C403.344 314.144 402.6 313.464 402.04 312.6C401.48 311.72 401.152 310.704 401.056 309.552L403.216 309.408C403.328 310.256 403.568 310.976 403.936 311.568C404.32 312.16 404.808 312.608 405.4 312.912C406.008 313.216 406.712 313.368 407.512 313.368C408.312 313.368 408.984 313.272 409.528 313.08C410.072 312.872 410.48 312.576 410.752 312.192C411.04 311.792 411.184 311.32 411.184 310.776C411.184 310.232 411.056 309.76 410.8 309.36C410.56 308.944 410.096 308.56 409.408 308.208C408.736 307.856 407.736 307.496 406.408 307.128C405.224 306.792 404.264 306.424 403.528 306.024C402.808 305.624 402.28 305.136 401.944 304.56C401.624 303.984 401.464 303.272 401.464 302.424C401.464 301.464 401.688 300.624 402.136 299.904C402.6 299.168 403.256 298.6 404.104 298.2C404.952 297.784 405.96 297.576 407.128 297.576C408.296 297.576 409.296 297.816 410.128 298.296C410.96 298.76 411.616 299.4 412.096 300.216C412.592 301.032 412.904 301.96 413.032 303L410.872 303.144C410.776 302.456 410.576 301.848 410.272 301.32C409.968 300.776 409.552 300.352 409.024 300.048C408.496 299.744 407.848 299.592 407.08 299.592C406.024 299.592 405.184 299.848 404.56 300.36C403.936 300.856 403.624 301.512 403.624 302.328C403.624 302.856 403.736 303.296 403.96 303.648C404.2 303.984 404.616 304.288 405.208 304.56C405.8 304.816 406.632 305.096 407.704 305.4C409.096 305.784 410.2 306.216 411.016 306.696C411.848 307.176 412.44 307.752 412.792 308.424C413.16 309.08 413.344 309.88 413.344 310.824C413.344 311.72 413.096 312.512 412.6 313.2C412.104 313.888 411.416 314.424 410.536 314.808C409.656 315.192 408.632 315.384 407.464 315.384ZM420.223 315.288C418.959 315.288 417.951 314.864 417.199 314.016C416.447 313.152 416.071 311.968 416.071 310.464V302.28H418.087V309.912C418.087 311.144 418.303 312.056 418.735 312.648C419.183 313.224 419.863 313.512 420.775 313.512C421.767 313.512 422.551 313.192 423.127 312.552C423.703 311.896 423.991 311 423.991 309.864V302.28H426.007V315H424.087V311.856L424.399 312.024C424.143 313.064 423.655 313.872 422.935 314.448C422.215 315.008 421.311 315.288 420.223 315.288ZM429.741 318.6V302.28H431.613L431.661 305.16L431.373 305.016C431.693 304.024 432.221 303.272 432.957 302.76C433.709 302.248 434.573 301.992 435.549 301.992C436.813 301.992 437.845 302.304 438.645 302.928C439.461 303.552 440.061 304.368 440.445 305.376C440.829 306.384 441.021 307.472 441.021 308.64C441.021 309.808 440.829 310.896 440.445 311.904C440.061 312.912 439.461 313.728 438.645 314.352C437.845 314.976 436.813 315.288 435.549 315.288C434.893 315.288 434.277 315.176 433.701 314.952C433.141 314.728 432.661 314.416 432.261 314.016C431.877 313.616 431.613 313.144 431.469 312.6L431.757 312.264V318.6H429.741ZM435.357 313.368C436.461 313.368 437.325 312.952 437.949 312.12C438.589 311.288 438.909 310.128 438.909 308.64C438.909 307.152 438.589 305.992 437.949 305.16C437.325 304.328 436.461 303.912 435.357 303.912C434.621 303.912 433.981 304.088 433.437 304.44C432.909 304.792 432.493 305.32 432.189 306.024C431.901 306.728 431.757 307.6 431.757 308.64C431.757 309.68 431.901 310.552 432.189 311.256C432.477 311.96 432.893 312.488 433.437 312.84C433.981 313.192 434.621 313.368 435.357 313.368ZM443.652 318.6V302.28H445.524L445.572 305.16L445.284 305.016C445.604 304.024 446.132 303.272 446.868 302.76C447.62 302.248 448.484 301.992 449.46 301.992C450.724 301.992 451.756 302.304 452.556 302.928C453.372 303.552 453.972 304.368 454.356 305.376C454.74 306.384 454.932 307.472 454.932 308.64C454.932 309.808 454.74 310.896 454.356 311.904C453.972 312.912 453.372 313.728 452.556 314.352C451.756 314.976 450.724 315.288 449.46 315.288C448.804 315.288 448.188 315.176 447.612 314.952C447.052 314.728 446.572 314.416 446.172 314.016C445.788 313.616 445.524 313.144 445.38 312.6L445.668 312.264V318.6H443.652ZM449.268 313.368C450.372 313.368 451.236 312.952 451.86 312.12C452.5 311.288 452.82 310.128 452.82 308.64C452.82 307.152 452.5 305.992 451.86 305.16C451.236 304.328 450.372 303.912 449.268 303.912C448.532 303.912 447.892 304.088 447.348 304.44C446.82 304.792 446.404 305.32 446.1 306.024C445.812 306.728 445.668 307.6 445.668 308.64C445.668 309.68 445.812 310.552 446.1 311.256C446.388 311.96 446.804 312.488 447.348 312.84C447.892 313.192 448.532 313.368 449.268 313.368ZM462.843 315.288C461.675 315.288 460.651 315.016 459.771 314.472C458.907 313.928 458.235 313.16 457.755 312.168C457.275 311.16 457.035 309.984 457.035 308.64C457.035 307.28 457.275 306.104 457.755 305.112C458.235 304.12 458.907 303.352 459.771 302.808C460.651 302.264 461.675 301.992 462.843 301.992C464.011 301.992 465.027 302.264 465.891 302.808C466.771 303.352 467.451 304.12 467.931 305.112C468.411 306.104 468.651 307.28 468.651 308.64C468.651 309.984 468.411 311.16 467.931 312.168C467.451 313.16 466.771 313.928 465.891 314.472C465.027 315.016 464.011 315.288 462.843 315.288ZM462.843 313.368C464.011 313.368 464.915 312.952 465.555 312.12C466.211 311.272 466.539 310.112 466.539 308.64C466.539 307.168 466.211 306.016 465.555 305.184C464.915 304.336 464.011 303.912 462.843 303.912C461.675 303.912 460.763 304.336 460.107 305.184C459.467 306.016 459.147 307.168 459.147 308.64C459.147 310.112 459.467 311.272 460.107 312.12C460.763 312.952 461.675 313.368 462.843 313.368ZM475.025 315V302.28H476.705L476.897 305.496L476.705 305.448C476.865 304.36 477.209 303.56 477.737 303.048C478.281 302.536 479.001 302.28 479.897 302.28H482.513V304.104H479.921C479.297 304.104 478.769 304.232 478.337 304.488C477.921 304.728 477.601 305.088 477.377 305.568C477.153 306.032 477.041 306.616 477.041 307.32V315H475.025ZM471.713 315V313.224H481.073V315H471.713ZM471.713 304.056V302.28H476.129V304.056H471.713ZM492.536 315C491.304 315 490.384 314.712 489.776 314.136C489.168 313.56 488.864 312.68 488.864 311.496V299.304H490.88V311.496C490.88 312.088 491.016 312.528 491.288 312.816C491.56 313.088 491.976 313.224 492.536 313.224H495.944V315H492.536ZM484.664 304.056V302.28H495.944V304.056H484.664Z" fill="#002024"/>
<rect width="64" height="32" transform="translate(592 290)" fill="#2DB8CF"/>
<rect x="625" y="294" width="27" height="24" fill="#FCFCFB"/>
<rect x="370.614" y="364.614" width="314.772" height="90.7722" fill="#FCFCFB"/>
<rect x="370.614" y="364.614" width="314.772" height="90.7722" stroke="#2DB8CF" stroke-width="1.22778"/>
<path d="M402.16 419V401.96H407.344C408.528 401.96 409.56 402.168 410.44 402.584C411.32 403 412 403.6 412.48 404.384C412.96 405.152 413.2 406.08 413.2 407.168C413.2 408.256 412.96 409.192 412.48 409.976C412 410.744 411.32 411.336 410.44 411.752C409.56 412.168 408.528 412.376 407.344 412.376H404.224V419H402.16ZM404.224 410.36H407.104C408.448 410.36 409.44 410.088 410.08 409.544C410.72 408.984 411.04 408.192 411.04 407.168C411.04 406.128 410.72 405.336 410.08 404.792C409.44 404.248 408.448 403.976 407.104 403.976H404.224V410.36ZM421.327 419.288C420.127 419.288 419.087 419.016 418.207 418.472C417.343 417.928 416.671 417.16 416.191 416.168C415.727 415.16 415.495 413.984 415.495 412.64C415.495 411.296 415.727 410.128 416.191 409.136C416.671 408.144 417.335 407.376 418.183 406.832C419.047 406.272 420.063 405.992 421.231 405.992C422.335 405.992 423.311 406.256 424.159 406.784C425.007 407.296 425.671 408.048 426.151 409.04C426.631 410.032 426.871 411.24 426.871 412.664V413.264H417.607C417.687 414.624 418.047 415.648 418.687 416.336C419.343 417.024 420.223 417.368 421.327 417.368C422.159 417.368 422.839 417.176 423.367 416.792C423.911 416.392 424.287 415.872 424.495 415.232L426.655 415.4C426.319 416.536 425.679 417.472 424.735 418.208C423.807 418.928 422.671 419.288 421.327 419.288ZM417.607 411.488H424.663C424.567 410.256 424.207 409.352 423.583 408.776C422.959 408.2 422.175 407.912 421.231 407.912C420.255 407.912 419.447 408.216 418.807 408.824C418.183 409.416 417.783 410.304 417.607 411.488ZM433.293 419V406.28H434.973L435.165 409.496L434.973 409.448C435.133 408.36 435.477 407.56 436.005 407.048C436.549 406.536 437.269 406.28 438.165 406.28H440.781V408.104H438.189C437.565 408.104 437.037 408.232 436.605 408.488C436.189 408.728 435.869 409.088 435.645 409.568C435.421 410.032 435.309 410.616 435.309 411.32V419H433.293ZM429.981 419V417.224H439.341V419H429.981ZM429.981 408.056V406.28H434.397V408.056H429.981ZM446.82 419V405.464C446.82 404.328 447.108 403.464 447.684 402.872C448.276 402.264 449.172 401.96 450.372 401.96H454.452V403.736H450.372C449.876 403.736 449.492 403.896 449.22 404.216C448.964 404.52 448.836 404.936 448.836 405.464V419H446.82ZM443.412 408.056V406.28H454.212V408.056H443.412ZM462.843 419.288C461.675 419.288 460.651 419.016 459.771 418.472C458.907 417.928 458.235 417.16 457.755 416.168C457.275 415.16 457.035 413.984 457.035 412.64C457.035 411.28 457.275 410.104 457.755 409.112C458.235 408.12 458.907 407.352 459.771 406.808C460.651 406.264 461.675 405.992 462.843 405.992C464.011 405.992 465.027 406.264 465.891 406.808C466.771 407.352 467.451 408.12 467.931 409.112C468.411 410.104 468.651 411.28 468.651 412.64C468.651 413.984 468.411 415.16 467.931 416.168C467.451 417.16 466.771 417.928 465.891 418.472C465.027 419.016 464.011 419.288 462.843 419.288ZM462.843 417.368C464.011 417.368 464.915 416.952 465.555 416.12C466.211 415.272 466.539 414.112 466.539 412.64C466.539 411.168 466.211 410.016 465.555 409.184C464.915 408.336 464.011 407.912 462.843 407.912C461.675 407.912 460.763 408.336 460.107 409.184C459.467 410.016 459.147 411.168 459.147 412.64C459.147 414.112 459.467 415.272 460.107 416.12C460.763 416.952 461.675 417.368 462.843 417.368ZM475.025 419V406.28H476.705L476.897 409.496L476.705 409.448C476.865 408.36 477.209 407.56 477.737 407.048C478.281 406.536 479.001 406.28 479.897 406.28H482.513V408.104H479.921C479.297 408.104 478.769 408.232 478.337 408.488C477.921 408.728 477.601 409.088 477.377 409.568C477.153 410.032 477.041 410.616 477.041 411.32V419H475.025ZM471.713 419V417.224H481.073V419H471.713ZM471.713 408.056V406.28H476.129V408.056H471.713ZM484.424 419V406.28H486.272L486.344 409.112L486.104 409.064C486.248 408.12 486.552 407.376 487.016 406.832C487.496 406.272 488.104 405.992 488.84 405.992C489.592 405.992 490.168 406.264 490.568 406.808C490.984 407.352 491.24 408.152 491.336 409.208H491.096C491.24 408.216 491.56 407.432 492.056 406.856C492.568 406.28 493.208 405.992 493.976 405.992C495 405.992 495.744 406.344 496.208 407.048C496.672 407.752 496.904 408.92 496.904 410.552V419H494.888V410.84C494.888 409.704 494.768 408.912 494.528 408.464C494.288 408 493.912 407.768 493.4 407.768C493.064 407.768 492.768 407.88 492.512 408.104C492.256 408.312 492.048 408.648 491.888 409.112C491.744 409.576 491.672 410.168 491.672 410.888V419H489.656V410.84C489.656 409.752 489.536 408.968 489.296 408.488C489.072 408.008 488.696 407.768 488.168 407.768C487.832 407.768 487.536 407.88 487.28 408.104C487.024 408.312 486.816 408.648 486.656 409.112C486.512 409.576 486.44 410.168 486.44 410.888V419H484.424ZM502.894 419.288C502.094 419.288 501.374 419.144 500.734 418.856C500.094 418.568 499.59 418.168 499.222 417.656C498.854 417.128 498.67 416.52 498.67 415.832C498.67 414.744 498.99 413.904 499.63 413.312C500.286 412.704 501.31 412.264 502.702 411.992L506.974 411.128C506.974 410.04 506.726 409.232 506.23 408.704C505.75 408.176 505.054 407.912 504.142 407.912C503.262 407.912 502.574 408.112 502.078 408.512C501.582 408.896 501.238 409.456 501.046 410.192L498.91 410.024C499.15 408.824 499.718 407.856 500.614 407.12C501.526 406.368 502.702 405.992 504.142 405.992C505.678 405.992 506.87 406.456 507.718 407.384C508.566 408.296 508.99 409.56 508.99 411.176V416.456C508.99 416.744 509.054 416.944 509.182 417.056C509.31 417.168 509.502 417.224 509.758 417.224H510.574V419C510.478 419.016 510.326 419.024 510.118 419.024C509.91 419.04 509.71 419.048 509.518 419.048C508.974 419.048 508.51 418.96 508.126 418.784C507.758 418.608 507.478 418.328 507.286 417.944C507.094 417.544 506.99 417.032 506.974 416.408H507.358C507.246 416.952 506.974 417.448 506.542 417.896C506.126 418.328 505.598 418.672 504.958 418.928C504.318 419.168 503.63 419.288 502.894 419.288ZM503.086 417.512C503.95 417.512 504.67 417.368 505.246 417.08C505.822 416.776 506.254 416.36 506.542 415.832C506.83 415.288 506.974 414.664 506.974 413.96V412.856L503.086 413.624C502.222 413.784 501.622 414.032 501.286 414.368C500.95 414.688 500.782 415.112 500.782 415.64C500.782 416.232 500.982 416.696 501.382 417.032C501.798 417.352 502.366 417.512 503.086 417.512ZM513.301 419V406.28H515.149L515.221 409.52L514.981 409.304C515.141 408.552 515.429 407.936 515.845 407.456C516.277 406.96 516.789 406.592 517.381 406.352C517.973 406.112 518.597 405.992 519.253 405.992C520.229 405.992 521.037 406.208 521.677 406.64C522.333 407.072 522.829 407.656 523.165 408.392C523.501 409.112 523.669 409.92 523.669 410.816V419H521.653V411.392C521.653 410.208 521.421 409.312 520.957 408.704C520.493 408.08 519.781 407.768 518.821 407.768C518.165 407.768 517.573 407.912 517.045 408.2C516.517 408.472 516.093 408.88 515.773 409.424C515.469 409.952 515.317 410.608 515.317 411.392V419H513.301ZM532.732 419.288C531.548 419.288 530.516 419.016 529.636 418.472C528.756 417.928 528.076 417.16 527.596 416.168C527.116 415.16 526.876 413.984 526.876 412.64C526.876 411.296 527.116 410.128 527.596 409.136C528.076 408.144 528.756 407.376 529.636 406.832C530.516 406.272 531.548 405.992 532.732 405.992C533.676 405.992 534.516 406.168 535.252 406.52C535.988 406.856 536.596 407.352 537.076 408.008C537.556 408.664 537.884 409.464 538.06 410.408L535.948 410.552C535.756 409.704 535.372 409.056 534.796 408.608C534.236 408.144 533.548 407.912 532.732 407.912C531.564 407.912 530.644 408.336 529.972 409.184C529.316 410.016 528.988 411.168 528.988 412.64C528.988 414.112 529.316 415.272 529.972 416.12C530.644 416.952 531.564 417.368 532.732 417.368C533.548 417.368 534.252 417.128 534.844 416.648C535.452 416.168 535.852 415.448 536.044 414.488L538.156 414.632C537.98 415.576 537.644 416.4 537.148 417.104C536.652 417.792 536.028 418.328 535.276 418.712C534.524 419.096 533.676 419.288 532.732 419.288ZM546.522 419.288C545.322 419.288 544.282 419.016 543.402 418.472C542.538 417.928 541.866 417.16 541.386 416.168C540.922 415.16 540.69 413.984 540.69 412.64C540.69 411.296 540.922 410.128 541.386 409.136C541.866 408.144 542.53 407.376 543.378 406.832C544.242 406.272 545.258 405.992 546.426 405.992C547.53 405.992 548.506 406.256 549.354 406.784C550.202 407.296 550.866 408.048 551.346 409.04C551.826 410.032 552.066 411.24 552.066 412.664V413.264H542.802C542.882 414.624 543.242 415.648 543.882 416.336C544.538 417.024 545.418 417.368 546.522 417.368C547.354 417.368 548.034 417.176 548.562 416.792C549.106 416.392 549.482 415.872 549.69 415.232L551.85 415.4C551.514 416.536 550.874 417.472 549.93 418.208C549.002 418.928 547.866 419.288 546.522 419.288ZM542.802 411.488H549.858C549.762 410.256 549.402 409.352 548.778 408.776C548.154 408.2 547.37 407.912 546.426 407.912C545.45 407.912 544.642 408.216 544.002 408.824C543.378 409.416 542.978 410.304 542.802 411.488Z" fill="#002024"/>
<rect width="64" height="32" transform="translate(592 394)" fill="#2DB8CF"/>
<rect x="625" y="398" width="27" height="24" fill="#FCFCFB"/>
</g>
<defs>
<filter id="filter0_f_1209_57146" x="-318.07" y="-46.3697" width="1383.18" height="1389.65" filterUnits="userSpaceOnUse" color-interpolation-filters="sRGB">
<feFlood flood-opacity="0" result="BackgroundImageFix"/>
<feBlend mode="normal" in="SourceGraphic" in2="BackgroundImageFix" result="shape"/>
<feGaussianBlur stdDeviation="133.498" result="effect1_foregroundBlur_1209_57146"/>
</filter>
<radialGradient id="paint0_radial_1209_57146" cx="0" cy="0" r="1" gradientUnits="userSpaceOnUse" gradientTransform="translate(373.521 648.458) rotate(90) scale(427.831 424.595)">
<stop stop-color="#2DB8CF"/>
<stop offset="1" stop-color="#2DB8CF" stop-opacity="0"/>
</radialGradient>
<clipPath id="clip0_1209_57146">
<rect width="720" height="600" fill="white"/>
</clipPath>
<clipPath id="clip1_1209_57146">
<rect width="720" height="600" fill="white"/>
</clipPath>
<clipPath id="clip2_1209_57146">
<rect x="62" y="119" width="557" height="552" fill="white"/>
</clipPath>
</defs>
</svg>
