<svg width="1000" height="900" viewBox="0 0 1000 900" fill="none" xmlns="http://www.w3.org/2000/svg">
<g clip-path="url(#clip0_1179_36811)">
<g opacity="0.5" filter="url(#filter0_f_1179_36811)" style="mix-blend-mode:plus-darker">
<ellipse cx="482" cy="552.5" rx="324" ry="325.5" fill="url(#paint0_radial_1179_36811)"/>
</g>
<g clip-path="url(#clip1_1179_36811)">
<mask id="path-4-inside-1_1179_36811" fill="white">
<path d="M0 0H1000V123.151H0V0Z"/>
</mask>
<path d="M1000 123.151V121.285H0V123.151V125.017H1000V123.151Z" fill="#2DB8CF" mask="url(#path-4-inside-1_1179_36811)"/>
<circle cx="76.5023" cy="61.5755" r="15.8604" stroke="#2DB8CF" stroke-width="1.86592"/>
<circle cx="136.213" cy="61.5755" r="15.8604" stroke="#2DB8CF" stroke-width="1.86592"/>
<circle cx="195.922" cy="61.5755" r="15.8604" stroke="#2DB8CF" stroke-width="1.86592"/>
<path d="M96.049 263.378V258.09H100C101.095 258.09 101.905 257.927 102.432 257.603C102.959 257.279 103.364 256.732 103.648 255.962L104.681 253.287H102.675L91.0034 221.919H97.8119L106.687 247.33L115.137 221.919H122.006L109.119 258.029C108.47 259.893 107.498 261.251 106.201 262.102C104.945 262.953 103.182 263.378 100.912 263.378H96.049ZM139.477 254.989C136.397 254.989 133.702 254.3 131.392 252.922C129.082 251.544 127.299 249.579 126.042 247.026C124.786 244.473 124.158 241.494 124.158 238.09C124.158 234.645 124.786 231.666 126.042 229.153C127.299 226.641 129.082 224.695 131.392 223.318C133.702 221.899 136.397 221.19 139.477 221.19C142.557 221.19 145.252 221.899 147.562 223.318C149.872 224.695 151.655 226.641 152.912 229.153C154.168 231.666 154.796 234.645 154.796 238.09C154.796 241.494 154.168 244.473 152.912 247.026C151.655 249.579 149.872 251.544 147.562 252.922C145.252 254.3 142.557 254.989 139.477 254.989ZM139.477 249.397C142.233 249.397 144.36 248.404 145.86 246.418C147.359 244.391 148.109 241.615 148.109 238.09C148.109 234.564 147.359 231.808 145.86 229.822C144.36 227.796 142.233 226.783 139.477 226.783C136.762 226.783 134.634 227.796 133.094 229.822C131.595 231.808 130.845 234.564 130.845 238.09C130.845 241.615 131.595 244.391 133.094 246.418C134.634 248.404 136.762 249.397 139.477 249.397ZM171.947 254.989C168.704 254.989 166.111 253.915 164.165 251.767C162.261 249.579 161.308 246.56 161.308 242.71V221.919H167.752V241.068C167.752 243.986 168.259 246.134 169.272 247.512C170.285 248.89 171.825 249.579 173.892 249.579C176.242 249.579 178.066 248.829 179.363 247.33C180.7 245.79 181.369 243.642 181.369 240.886V221.919H187.813V254.26H181.795L181.673 245.81L182.585 246.175C182.018 249.012 180.822 251.2 178.998 252.74C177.175 254.24 174.824 254.989 171.947 254.989ZM196.928 254.26V221.919H202.824L203.067 230.491L202.52 230.308C202.966 227.39 203.858 225.263 205.195 223.925C206.573 222.588 208.417 221.919 210.727 221.919H213.827V227.694H210.727C209.106 227.694 207.748 227.958 206.654 228.485C205.56 229.012 204.729 229.822 204.162 230.916C203.635 232.011 203.371 233.429 203.371 235.172V254.26H196.928ZM230.88 254.989C227.84 254.989 225.267 254.523 223.16 253.591C221.093 252.659 219.492 251.382 218.357 249.761C217.222 248.1 216.574 246.195 216.412 244.047L223.038 243.743C223.362 245.526 224.132 246.945 225.348 247.998C226.564 249.052 228.408 249.579 230.88 249.579C232.906 249.579 234.507 249.255 235.682 248.606C236.858 247.958 237.445 246.924 237.445 245.506C237.445 244.736 237.243 244.088 236.837 243.561C236.473 242.993 235.743 242.527 234.649 242.163C233.555 241.757 231.934 241.372 229.786 241.007C226.584 240.4 224.071 239.69 222.248 238.88C220.424 238.069 219.127 237.036 218.357 235.78C217.587 234.523 217.202 233.003 217.202 231.22C217.202 228.262 218.296 225.85 220.485 223.986C222.714 222.122 225.915 221.19 230.09 221.19C232.886 221.19 235.237 221.676 237.141 222.649C239.046 223.581 240.525 224.858 241.579 226.479C242.673 228.059 243.362 229.842 243.646 231.828L237.02 232.193C236.817 231.058 236.412 230.085 235.804 229.275C235.237 228.424 234.467 227.775 233.494 227.33C232.521 226.843 231.366 226.6 230.029 226.6C227.962 226.6 226.422 227.005 225.409 227.816C224.396 228.627 223.889 229.68 223.889 230.977C223.889 231.95 224.112 232.74 224.558 233.348C225.044 233.956 225.814 234.462 226.868 234.868C227.921 235.232 229.32 235.557 231.062 235.84C234.426 236.408 237.06 237.117 238.965 237.968C240.87 238.779 242.207 239.792 242.977 241.007C243.747 242.223 244.132 243.703 244.132 245.445C244.132 247.472 243.565 249.194 242.43 250.612C241.295 252.031 239.735 253.125 237.749 253.895C235.763 254.625 233.474 254.989 230.88 254.989ZM250.653 254.26V221.919H257.097V254.26H250.653ZM250.532 217.238V210.795H257.219V217.238H250.532ZM276.412 254.26C273.332 254.26 271.062 253.551 269.603 252.132C268.144 250.714 267.415 248.505 267.415 245.506V214.321H273.859V245.02C273.859 246.519 274.183 247.553 274.831 248.12C275.48 248.687 276.473 248.971 277.81 248.971H282.43V254.26H276.412ZM262.491 227.208V221.919H282.43V227.208H262.491ZM301.367 254.989C298.206 254.989 295.47 254.3 293.16 252.922C290.891 251.544 289.128 249.579 287.871 247.026C286.655 244.473 286.048 241.494 286.048 238.09C286.048 234.685 286.655 231.727 287.871 229.214C289.128 226.661 290.891 224.695 293.16 223.318C295.43 221.899 298.104 221.19 301.184 221.19C304.102 221.19 306.676 221.879 308.905 223.257C311.134 224.594 312.856 226.539 314.072 229.093C315.328 231.646 315.956 234.726 315.956 238.333V239.974H292.734C292.897 243.135 293.727 245.506 295.227 247.087C296.767 248.667 298.834 249.457 301.428 249.457C303.332 249.457 304.913 249.012 306.169 248.12C307.425 247.228 308.297 246.033 308.783 244.533L315.47 244.959C314.619 247.958 312.937 250.389 310.424 252.254C307.952 254.077 304.933 254.989 301.367 254.989ZM292.734 235.111H309.148C308.945 232.233 308.114 230.106 306.655 228.728C305.237 227.35 303.413 226.661 301.184 226.661C298.874 226.661 296.97 227.39 295.47 228.849C294.011 230.268 293.099 232.355 292.734 235.111ZM321.073 254.26V246.6H328.915V254.26H321.073ZM349.334 254.989C346.254 254.989 343.559 254.3 341.249 252.922C338.939 251.544 337.156 249.579 335.899 247.026C334.643 244.473 334.015 241.494 334.015 238.09C334.015 234.685 334.643 231.727 335.899 229.214C337.156 226.661 338.939 224.695 341.249 223.318C343.559 221.899 346.254 221.19 349.334 221.19C351.968 221.19 354.299 221.656 356.325 222.588C358.392 223.48 360.053 224.797 361.31 226.539C362.607 228.282 363.437 230.41 363.802 232.922L357.054 233.287C356.73 231.18 355.879 229.579 354.501 228.485C353.123 227.35 351.401 226.783 349.334 226.783C346.619 226.783 344.491 227.796 342.951 229.822C341.452 231.808 340.702 234.564 340.702 238.09C340.702 241.615 341.452 244.391 342.951 246.418C344.491 248.404 346.619 249.397 349.334 249.397C351.401 249.397 353.123 248.829 354.501 247.694C355.879 246.519 356.73 244.756 357.054 242.406L363.802 242.77C363.437 245.243 362.607 247.39 361.31 249.214C360.053 251.038 358.392 252.456 356.325 253.469C354.299 254.483 351.968 254.989 349.334 254.989ZM382.994 254.989C379.914 254.989 377.219 254.3 374.909 252.922C372.599 251.544 370.816 249.579 369.56 247.026C368.303 244.473 367.675 241.494 367.675 238.09C367.675 234.645 368.303 231.666 369.56 229.153C370.816 226.641 372.599 224.695 374.909 223.318C377.219 221.899 379.914 221.19 382.994 221.19C386.074 221.19 388.769 221.899 391.079 223.318C393.389 224.695 395.173 226.641 396.429 229.153C397.685 231.666 398.313 234.645 398.313 238.09C398.313 241.494 397.685 244.473 396.429 247.026C395.173 249.579 393.389 251.544 391.079 252.922C388.769 254.3 386.074 254.989 382.994 254.989ZM382.994 249.397C385.75 249.397 387.878 248.404 389.377 246.418C390.877 244.391 391.627 241.615 391.627 238.09C391.627 234.564 390.877 231.808 389.377 229.822C387.878 227.796 385.75 226.783 382.994 226.783C380.279 226.783 378.151 227.796 376.611 229.822C375.112 231.808 374.362 234.564 374.362 238.09C374.362 241.615 375.112 244.391 376.611 246.418C378.151 248.404 380.279 249.397 382.994 249.397ZM404.826 254.26V221.919H410.722L410.905 229.944L410.175 229.7C410.54 227.917 411.168 226.398 412.06 225.141C412.992 223.885 414.127 222.912 415.464 222.223C416.801 221.534 418.26 221.19 419.841 221.19C422.597 221.19 424.846 221.98 426.589 223.561C428.331 225.101 429.425 227.228 429.871 229.944H428.838C429.202 228.039 429.81 226.458 430.661 225.202C431.553 223.905 432.688 222.912 434.066 222.223C435.444 221.534 437.004 221.19 438.747 221.19C441.016 221.19 442.941 221.676 444.522 222.649C446.143 223.581 447.359 224.959 448.169 226.783C449.02 228.606 449.446 230.835 449.446 233.469V254.26H443.002V235.05C443.002 232.254 442.495 230.146 441.482 228.728C440.469 227.309 438.929 226.6 436.862 226.6C435.525 226.6 434.349 226.945 433.336 227.634C432.323 228.323 431.533 229.315 430.965 230.612C430.439 231.909 430.175 233.469 430.175 235.293V254.26H424.035V235.293C424.035 232.537 423.569 230.41 422.637 228.91C421.746 227.37 420.206 226.6 418.017 226.6C416.639 226.6 415.444 226.945 414.43 227.634C413.458 228.323 412.688 229.336 412.12 230.673C411.553 231.97 411.269 233.51 411.269 235.293V254.26H404.826Z" fill="#FCFCFB"/>
<rect width="131.993" height="54.3161" transform="translate(795.059 205.602)" fill="#FCFCFB" fill-opacity="0.1"/>
<rect x="813.295" y="223.599" width="18.3217" height="18.3217" fill="#72D8E8"/>
<path d="M849.611 243.76V222.179H852.225V242.544L850.918 241.207H863.015V243.76H849.611ZM865.729 243.76V222.179H868.343V243.76H865.729ZM878.95 243.76L871.139 222.179H873.996L880.683 240.903L887.339 222.179H890.197L882.385 243.76H878.95ZM892.918 243.76V222.179H906.474V224.732H895.532V231.693H906.109V234.185H895.532V241.207H906.717V243.76H892.918Z" fill="#FCFCFB"/>
<rect x="90.599" y="300.667" width="835.52" height="119.715" fill="#FCFCFB"/>
<rect x="90.599" y="300.667" width="835.52" height="119.715" stroke="#2DB8CF" stroke-width="1.86592"/>
<path d="M129.231 372.524V348.677H144.21V351.499H132.119V359.19H143.807V361.944H132.119V369.703H144.479V372.524H129.231ZM149.14 372.524V348.677H153.237L165.026 369.635V348.677H167.915V372.524H163.616L152.028 351.969V372.524H149.14ZM179.658 372.524L171.026 348.677H174.183L181.572 369.367L188.928 348.677H192.085L183.453 372.524H179.658ZM195.092 372.524V348.677H197.98V372.524H195.092ZM203.489 372.524V348.677H212.523C214.203 348.677 215.647 348.969 216.856 349.551C218.065 350.133 218.994 350.973 219.644 352.07C220.315 353.144 220.651 354.421 220.651 355.899C220.651 356.973 220.394 357.936 219.879 358.787C219.386 359.615 218.748 360.276 217.964 360.769C217.181 361.261 216.363 361.53 215.513 361.575L215.311 361.272C216.766 361.272 217.908 361.608 218.737 362.28C219.588 362.952 220.08 364.027 220.215 365.504L220.886 372.524H217.964L217.36 365.807C217.27 364.821 216.912 364.094 216.285 363.623C215.68 363.153 214.684 362.918 213.296 362.918H206.377V372.524H203.489ZM206.377 360.097H212.893C214.348 360.097 215.501 359.727 216.352 358.989C217.203 358.25 217.629 357.197 217.629 355.831C217.629 354.443 217.192 353.38 216.319 352.641C215.445 351.879 214.18 351.499 212.523 351.499H206.377V360.097ZM234.866 373.061C232.605 373.061 230.657 372.569 229.022 371.584C227.41 370.576 226.167 369.143 225.294 367.284C224.421 365.426 223.984 363.209 223.984 360.634C223.984 358.059 224.421 355.843 225.294 353.984C226.167 352.103 227.41 350.659 229.022 349.651C230.657 348.644 232.605 348.14 234.866 348.14C237.15 348.14 239.098 348.644 240.71 349.651C242.345 350.659 243.599 352.103 244.472 353.984C245.345 355.843 245.782 358.059 245.782 360.634C245.782 363.209 245.345 365.426 244.472 367.284C243.599 369.143 242.345 370.576 240.71 371.584C239.098 372.569 237.15 373.061 234.866 373.061ZM234.866 370.24C236.523 370.24 237.934 369.859 239.098 369.098C240.285 368.337 241.192 367.24 241.818 365.807C242.445 364.374 242.759 362.649 242.759 360.634C242.759 358.619 242.445 356.895 241.818 355.462C241.192 354.006 240.285 352.898 239.098 352.137C237.934 351.353 236.523 350.961 234.866 350.961C233.232 350.961 231.821 351.353 230.634 352.137C229.47 352.898 228.574 354.006 227.947 355.462C227.32 356.895 227.007 358.619 227.007 360.634C227.007 362.649 227.32 364.374 227.947 365.807C228.574 367.24 229.47 368.337 230.634 369.098C231.821 369.859 233.232 370.24 234.866 370.24ZM249.933 372.524V348.677H254.03L265.819 369.635V348.677H268.707V372.524H264.408L252.821 351.969V372.524H249.933ZM274.237 372.524V348.677H278.267L285.891 369.367L293.482 348.677H297.512V372.524H294.624V354.051L287.806 372.524H283.943L277.125 354.051V372.524H274.237ZM303.035 372.524V348.677H318.014V351.499H305.923V359.19H317.611V361.944H305.923V369.703H318.283V372.524H303.035ZM322.944 372.524V348.677H327.042L338.831 369.635V348.677H341.719V372.524H337.42L325.833 351.969V372.524H322.944ZM351.295 372.524V351.499H343.873V348.677H361.607V351.499H354.184V372.524H351.295Z" fill="#002024"/>
<path d="M559.439 375.024V345.279H570.29C572.077 345.279 573.694 345.62 575.141 346.301C576.588 346.953 577.737 347.946 578.588 349.279C579.439 350.584 579.864 352.215 579.864 354.173C579.864 356.13 579.439 357.776 578.588 359.109C577.737 360.414 576.588 361.407 575.141 362.088C573.694 362.74 572.077 363.066 570.29 363.066H563.311V375.024H559.439ZM563.311 359.705H569.779C571.68 359.705 573.155 359.208 574.205 358.215C575.283 357.223 575.822 355.875 575.822 354.173C575.822 352.471 575.283 351.123 574.205 350.13C573.155 349.137 571.68 348.641 569.779 348.641H563.311V359.705ZM586.297 375.024V352.726H589.573V357.535C590.311 355.946 591.375 354.641 592.765 353.62C594.155 352.598 595.758 352.088 597.573 352.088C600.127 352.088 602.07 352.74 603.403 354.045C604.765 355.35 605.545 357.109 605.744 359.322H602.212C601.956 357.988 601.432 356.967 600.637 356.258C599.871 355.549 598.737 355.194 597.233 355.194C595.758 355.194 594.467 355.591 593.361 356.386C592.254 357.152 591.389 358.215 590.765 359.577C590.169 360.91 589.871 362.457 589.871 364.215V375.024H586.297ZM619.623 352.045C621.921 352.045 623.807 352.57 625.282 353.62C626.786 354.641 627.892 356.045 628.602 357.832C629.339 359.62 629.708 361.648 629.708 363.918C629.708 366.159 629.339 368.187 628.602 370.003C627.892 371.79 626.786 373.208 625.282 374.258C623.807 375.279 621.921 375.79 619.623 375.79C617.353 375.79 615.467 375.279 613.963 374.258C612.46 373.208 611.339 371.79 610.602 370.003C609.892 368.187 609.538 366.159 609.538 363.918C609.538 361.648 609.892 359.62 610.602 357.832C611.339 356.045 612.46 354.641 613.963 353.62C615.467 352.57 617.353 352.045 619.623 352.045ZM619.623 355.322C618.119 355.322 616.9 355.719 615.963 356.513C615.027 357.308 614.332 358.357 613.878 359.662C613.453 360.967 613.24 362.386 613.24 363.918C613.24 365.421 613.453 366.84 613.878 368.173C614.332 369.478 615.027 370.527 615.963 371.322C616.9 372.116 618.119 372.513 619.623 372.513C621.126 372.513 622.346 372.116 623.282 371.322C624.219 370.527 624.9 369.478 625.325 368.173C625.779 366.84 626.006 365.421 626.006 363.918C626.006 362.386 625.779 360.967 625.325 359.662C624.9 358.357 624.219 357.308 623.282 356.513C622.346 355.719 621.126 355.322 619.623 355.322ZM650.992 344.003H654.524V375.024H651.375V371.875C649.587 374.485 647.219 375.79 644.268 375.79C642.084 375.79 640.268 375.265 638.821 374.215C637.375 373.137 636.297 371.676 635.587 369.832C634.906 367.988 634.566 365.932 634.566 363.662C634.566 361.506 634.921 359.563 635.63 357.832C636.339 356.074 637.403 354.669 638.821 353.62C640.268 352.57 642.041 352.045 644.141 352.045C647.176 352.045 649.46 353.194 650.992 355.492V344.003ZM644.736 355.364C643.346 355.364 642.169 355.747 641.204 356.513C640.24 357.251 639.502 358.272 638.992 359.577C638.509 360.854 638.268 362.301 638.268 363.918C638.268 365.421 638.495 366.825 638.949 368.13C639.403 369.435 640.098 370.485 641.034 371.279C641.999 372.074 643.247 372.471 644.779 372.471C646.282 372.471 647.488 372.059 648.396 371.237C649.304 370.386 649.956 369.322 650.353 368.045C650.779 366.74 650.992 365.407 650.992 364.045C650.992 362.542 650.779 361.137 650.353 359.832C649.928 358.499 649.261 357.421 648.353 356.598C647.446 355.776 646.24 355.364 644.736 355.364ZM679.424 352.726V375.024H676.233V371.705C675.211 373.18 674.119 374.23 672.956 374.854C671.821 375.478 670.431 375.79 668.786 375.79C666.828 375.79 665.226 375.35 663.977 374.471C662.445 373.364 661.679 371.776 661.679 369.705V352.726H665.211V368.301C665.211 369.804 665.708 370.939 666.701 371.705C667.523 372.357 668.559 372.684 669.807 372.684C671.481 372.684 672.885 372.074 674.02 370.854C675.268 369.52 675.892 367.605 675.892 365.109V352.726H679.424ZM705.516 360.088H701.942C701.743 358.613 701.176 357.449 700.24 356.598C699.303 355.747 698.055 355.322 696.495 355.322C694.963 355.322 693.729 355.747 692.793 356.598C691.857 357.449 691.176 358.556 690.75 359.918C690.325 361.251 690.112 362.655 690.112 364.13C690.112 365.605 690.339 366.981 690.793 368.258C691.247 369.535 691.956 370.57 692.92 371.364C693.885 372.13 695.105 372.513 696.58 372.513C699.729 372.513 701.601 370.754 702.197 367.237H705.772C705.545 369.903 704.623 372.003 703.006 373.535C701.417 375.038 699.247 375.79 696.495 375.79C694.339 375.79 692.509 375.279 691.006 374.258C689.502 373.208 688.353 371.804 687.559 370.045C686.793 368.286 686.41 366.315 686.41 364.13C686.41 361.889 686.793 359.861 687.559 358.045C688.325 356.23 689.459 354.783 690.963 353.705C692.467 352.598 694.325 352.045 696.537 352.045C699.261 352.045 701.417 352.797 703.006 354.301C704.623 355.804 705.459 357.733 705.516 360.088ZM721.608 352.726H730.374V355.62H721.608V368.045C721.608 369.691 722.034 370.84 722.885 371.492C723.736 372.116 724.97 372.428 726.587 372.428C727.325 372.428 728.005 372.4 728.63 372.343C729.254 372.258 729.835 372.144 730.374 372.003V375.109C729.665 375.308 728.97 375.435 728.289 375.492C727.608 375.577 726.97 375.62 726.374 375.62C723.679 375.62 721.622 375.066 720.204 373.96C718.786 372.854 718.076 371.095 718.076 368.684V355.62H711.651V352.726H718.076V346.598H721.608V352.726ZM745.147 349.535V345.279H749.402V349.535H745.147ZM749.02 352.726V372.13H755.871V375.024H737.871V372.13H745.53V355.62H737.871V352.726H749.02ZM772.346 352.045C774.644 352.045 776.53 352.57 778.005 353.62C779.509 354.641 780.615 356.045 781.324 357.832C782.062 359.62 782.431 361.648 782.431 363.918C782.431 366.159 782.062 368.187 781.324 370.003C780.615 371.79 779.509 373.208 778.005 374.258C776.53 375.279 774.644 375.79 772.346 375.79C770.076 375.79 768.19 375.279 766.686 374.258C765.183 373.208 764.062 371.79 763.324 370.003C762.615 368.187 762.261 366.159 762.261 363.918C762.261 361.648 762.615 359.62 763.324 357.832C764.062 356.045 765.183 354.641 766.686 353.62C768.19 352.57 770.076 352.045 772.346 352.045ZM772.346 355.322C770.842 355.322 769.622 355.719 768.686 356.513C767.75 357.308 767.055 358.357 766.601 359.662C766.175 360.967 765.963 362.386 765.963 363.918C765.963 365.421 766.175 366.84 766.601 368.173C767.055 369.478 767.75 370.527 768.686 371.322C769.622 372.116 770.842 372.513 772.346 372.513C773.849 372.513 775.069 372.116 776.005 371.322C776.941 370.527 777.622 369.478 778.048 368.173C778.502 366.84 778.729 365.421 778.729 363.918C778.729 362.386 778.502 360.967 778.048 359.662C777.622 358.357 776.941 357.308 776.005 356.513C775.069 355.719 773.849 355.322 772.346 355.322ZM788.948 375.024V352.726H792.225V356.428C793.104 355.066 794.111 354.003 795.246 353.237C796.409 352.471 797.87 352.088 799.629 352.088C800.934 352.088 802.111 352.315 803.161 352.769C804.239 353.194 805.09 353.861 805.714 354.769C806.367 355.648 806.693 356.783 806.693 358.173V375.024H803.161V359.577C803.161 358.074 802.707 356.967 801.799 356.258C800.892 355.549 799.814 355.194 798.565 355.194C797.232 355.194 796.111 355.535 795.204 356.215C794.296 356.896 793.615 357.79 793.161 358.896C792.707 360.003 792.48 361.194 792.48 362.471V375.024H788.948Z" fill="#002024"/>
<rect x="841.963" y="336.216" width="48.6153" height="48.6153" rx="24.3077" fill="#72D8E8"/>
<g clip-path="url(#clip2_1179_36811)">
<path fill-rule="evenodd" clip-rule="evenodd" d="M879.75 353.491L862.187 371.054L852.6 361.467L855.822 358.245L862.187 364.61L876.527 350.269L879.75 353.491Z" fill="#002024"/>
</g>
<rect x="90.599" y="434.406" width="835.52" height="119.715" fill="#FCFCFB"/>
<rect x="90.599" y="434.406" width="835.52" height="119.715" stroke="#2DB8CF" stroke-width="1.86592"/>
<path d="M129.231 506.263V482.416H136.62C140.292 482.416 143.113 483.457 145.083 485.54C147.076 487.6 148.073 490.544 148.073 494.373C148.073 498.18 147.099 501.113 145.151 503.173C143.203 505.233 140.426 506.263 136.821 506.263H129.231ZM132.119 503.441H136.62C139.419 503.441 141.523 502.691 142.934 501.191C144.345 499.669 145.05 497.396 145.05 494.373C145.05 491.305 144.345 489.022 142.934 487.521C141.523 485.999 139.419 485.237 136.62 485.237H132.119V503.441ZM161.986 506.8C159.724 506.8 157.776 506.307 156.142 505.322C154.529 504.315 153.287 502.882 152.414 501.023C151.54 499.165 151.104 496.948 151.104 494.373C151.104 491.798 151.54 489.581 152.414 487.723C153.287 485.842 154.529 484.398 156.142 483.39C157.776 482.383 159.724 481.879 161.986 481.879C164.27 481.879 166.218 482.383 167.83 483.39C169.464 484.398 170.718 485.842 171.591 487.723C172.465 489.581 172.901 491.798 172.901 494.373C172.901 496.948 172.465 499.165 171.591 501.023C170.718 502.882 169.464 504.315 167.83 505.322C166.218 506.307 164.27 506.8 161.986 506.8ZM161.986 503.979C163.643 503.979 165.053 503.598 166.218 502.837C167.404 502.076 168.311 500.978 168.938 499.545C169.565 498.112 169.879 496.388 169.879 494.373C169.879 492.358 169.565 490.634 168.938 489.201C168.311 487.745 167.404 486.637 166.218 485.876C165.053 485.092 163.643 484.7 161.986 484.7C160.351 484.7 158.941 485.092 157.754 485.876C156.589 486.637 155.694 487.745 155.067 489.201C154.44 490.634 154.126 492.358 154.126 494.373C154.126 496.388 154.44 498.112 155.067 499.545C155.694 500.978 156.589 502.076 157.754 502.837C158.941 503.598 160.351 503.979 161.986 503.979ZM177.052 506.263V482.416H181.083L188.707 503.106L196.297 482.416H200.328V506.263H197.439V487.79L190.621 506.263H186.759L179.941 487.79V506.263H177.052ZM203.76 506.263L212.358 482.416H216.254L224.852 506.263H221.695L219.31 499.478H209.302L206.917 506.263H203.76ZM210.276 496.657H218.336L214.306 484.935L210.276 496.657ZM227.957 506.263V482.416H230.845V506.263H227.957ZM236.354 506.263V482.416H240.451L252.24 503.374V482.416H255.128V506.263H250.829L239.242 485.708V506.263H236.354Z" fill="#002024"/>
<path d="M517.886 513.444C517.318 514.975 516.51 516.124 515.46 516.89C514.41 517.656 513.191 518.039 511.8 518.039C510.722 518.039 509.758 517.897 508.907 517.614V514.295C509.389 514.408 509.815 514.479 510.183 514.507C510.581 514.536 510.964 514.55 511.332 514.55C512.155 514.55 512.808 514.38 513.29 514.039C513.772 513.727 514.169 513.174 514.481 512.38L515.843 509.103L507.588 486.465H511.332L517.843 504.55L524.269 486.465H527.928L517.886 513.444ZM543.169 485.784C545.467 485.784 547.354 486.309 548.829 487.358C550.332 488.38 551.439 489.784 552.148 491.571C552.885 493.358 553.254 495.387 553.254 497.656C553.254 499.897 552.885 501.926 552.148 503.741C551.439 505.529 550.332 506.947 548.829 507.997C547.354 509.018 545.467 509.529 543.169 509.529C540.9 509.529 539.013 509.018 537.51 507.997C536.006 506.947 534.885 505.529 534.148 503.741C533.439 501.926 533.084 499.897 533.084 497.656C533.084 495.387 533.439 493.358 534.148 491.571C534.885 489.784 536.006 488.38 537.51 487.358C539.013 486.309 540.9 485.784 543.169 485.784ZM543.169 489.061C541.666 489.061 540.446 489.458 539.51 490.252C538.573 491.046 537.878 492.096 537.424 493.401C536.999 494.706 536.786 496.124 536.786 497.656C536.786 499.16 536.999 500.578 537.424 501.912C537.878 503.217 538.573 504.266 539.51 505.061C540.446 505.855 541.666 506.252 543.169 506.252C544.673 506.252 545.893 505.855 546.829 505.061C547.765 504.266 548.446 503.217 548.871 501.912C549.325 500.578 549.552 499.16 549.552 497.656C549.552 496.124 549.325 494.706 548.871 493.401C548.446 492.096 547.765 491.046 546.829 490.252C545.893 489.458 544.673 489.061 543.169 489.061ZM577.517 486.465V508.763H574.325V505.444C573.304 506.919 572.212 507.968 571.048 508.592C569.914 509.217 568.524 509.529 566.878 509.529C564.921 509.529 563.318 509.089 562.07 508.21C560.538 507.103 559.772 505.514 559.772 503.444V486.465H563.304V502.039C563.304 503.543 563.8 504.678 564.793 505.444C565.616 506.096 566.651 506.422 567.9 506.422C569.573 506.422 570.978 505.812 572.112 504.592C573.361 503.259 573.985 501.344 573.985 498.848V486.465H577.517ZM586.204 508.763V486.465H589.481V491.273C590.219 489.685 591.282 488.38 592.672 487.358C594.063 486.337 595.665 485.827 597.481 485.827C600.034 485.827 601.977 486.479 603.311 487.784C604.672 489.089 605.453 490.848 605.651 493.061H602.119C601.864 491.727 601.339 490.706 600.545 489.997C599.779 489.288 598.644 488.933 597.141 488.933C595.665 488.933 594.375 489.33 593.268 490.124C592.162 490.89 591.297 491.954 590.672 493.316C590.077 494.649 589.779 496.195 589.779 497.954V508.763H586.204ZM627.701 492.55H623.999C623.97 491.444 623.545 490.564 622.722 489.912C621.928 489.259 620.864 488.933 619.53 488.933C618.084 488.933 616.906 489.231 615.999 489.827C615.119 490.422 614.679 491.217 614.679 492.21C614.679 493.004 614.949 493.642 615.488 494.124C616.027 494.607 616.821 494.99 617.871 495.273L622.935 496.592C624.807 497.075 626.211 497.798 627.148 498.763C628.112 499.699 628.594 500.961 628.594 502.55C628.594 504.706 627.8 506.408 626.211 507.656C624.623 508.905 622.438 509.529 619.658 509.529C613.814 509.529 610.765 507.018 610.509 501.997H614.254C614.424 503.5 614.963 504.607 615.871 505.316C616.807 506.025 618.098 506.38 619.743 506.38C621.332 506.38 622.594 506.096 623.53 505.529C624.495 504.961 624.977 504.153 624.977 503.103C624.977 502.139 624.722 501.415 624.211 500.933C623.701 500.451 622.835 500.053 621.616 499.741L616.935 498.507C614.921 497.968 613.431 497.245 612.467 496.337C611.53 495.401 611.062 494.082 611.062 492.38C611.062 490.366 611.828 488.763 613.36 487.571C614.921 486.38 617.006 485.784 619.616 485.784C622.226 485.784 624.211 486.394 625.573 487.614C626.963 488.805 627.672 490.451 627.701 492.55ZM643.24 483.273V479.018H647.495V483.273H643.24ZM647.112 486.465V505.869H653.963V508.763H635.963V505.869H643.623V489.358H635.963V486.465H647.112ZM670.608 486.465H679.374V489.358H670.608V501.784C670.608 503.429 671.034 504.578 671.885 505.231C672.736 505.855 673.97 506.167 675.587 506.167C676.325 506.167 677.005 506.139 677.63 506.082C678.254 505.997 678.835 505.883 679.374 505.741V508.848C678.665 509.046 677.97 509.174 677.289 509.231C676.608 509.316 675.97 509.358 675.374 509.358C672.679 509.358 670.622 508.805 669.204 507.699C667.786 506.592 667.076 504.834 667.076 502.422V489.358H660.651V486.465H667.076V480.337H670.608V486.465ZM705.594 501.869C705.225 504.195 704.19 506.053 702.488 507.444C700.814 508.834 698.672 509.529 696.062 509.529C693.821 509.529 691.949 509.032 690.445 508.039C688.942 507.018 687.807 505.628 687.041 503.869C686.303 502.11 685.934 500.096 685.934 497.827C685.934 495.33 686.36 493.188 687.211 491.401C688.062 489.614 689.254 488.238 690.785 487.273C692.317 486.28 694.105 485.784 696.147 485.784C698.445 485.784 700.317 486.323 701.764 487.401C703.239 488.479 704.317 489.983 704.998 491.912C705.707 493.841 706.062 496.096 706.062 498.678H689.637C689.693 500.862 690.261 502.678 691.339 504.124C692.417 505.543 694.034 506.252 696.19 506.252C699.112 506.252 701.055 504.791 702.02 501.869H705.594ZM696.105 489.061C694.119 489.061 692.601 489.713 691.551 491.018C690.502 492.323 689.892 493.912 689.722 495.784H702.232C702.232 494.536 701.977 493.415 701.466 492.422C700.984 491.401 700.289 490.592 699.381 489.997C698.473 489.373 697.381 489.061 696.105 489.061ZM718.452 502.975H724.239V508.763H718.452V502.975ZM756.331 493.827H752.757C752.558 492.351 751.991 491.188 751.055 490.337C750.119 489.486 748.87 489.061 747.31 489.061C745.778 489.061 744.544 489.486 743.608 490.337C742.672 491.188 741.991 492.295 741.565 493.656C741.14 494.99 740.927 496.394 740.927 497.869C740.927 499.344 741.154 500.72 741.608 501.997C742.062 503.273 742.771 504.309 743.736 505.103C744.7 505.869 745.92 506.252 747.395 506.252C750.544 506.252 752.416 504.493 753.012 500.975H756.587C756.36 503.642 755.438 505.741 753.821 507.273C752.232 508.777 750.062 509.529 747.31 509.529C745.154 509.529 743.324 509.018 741.821 507.997C740.317 506.947 739.168 505.543 738.374 503.784C737.608 502.025 737.225 500.053 737.225 497.869C737.225 495.628 737.608 493.6 738.374 491.784C739.14 489.968 740.275 488.522 741.778 487.444C743.282 486.337 745.14 485.784 747.353 485.784C750.076 485.784 752.232 486.536 753.821 488.039C755.438 489.543 756.275 491.472 756.331 493.827ZM772.253 485.784C774.551 485.784 776.438 486.309 777.913 487.358C779.416 488.38 780.523 489.784 781.232 491.571C781.97 493.358 782.338 495.387 782.338 497.656C782.338 499.897 781.97 501.926 781.232 503.741C780.523 505.529 779.416 506.947 777.913 507.997C776.438 509.018 774.551 509.529 772.253 509.529C769.984 509.529 768.097 509.018 766.594 507.997C765.09 506.947 763.97 505.529 763.232 503.741C762.523 501.926 762.168 499.897 762.168 497.656C762.168 495.387 762.523 493.358 763.232 491.571C763.97 489.784 765.09 488.38 766.594 487.358C768.097 486.309 769.984 485.784 772.253 485.784ZM772.253 489.061C770.75 489.061 769.53 489.458 768.594 490.252C767.657 491.046 766.962 492.096 766.509 493.401C766.083 494.706 765.87 496.124 765.87 497.656C765.87 499.16 766.083 500.578 766.509 501.912C766.962 503.217 767.657 504.266 768.594 505.061C769.53 505.855 770.75 506.252 772.253 506.252C773.757 506.252 774.977 505.855 775.913 505.061C776.849 504.266 777.53 503.217 777.955 501.912C778.409 500.578 778.636 499.16 778.636 497.656C778.636 496.124 778.409 494.706 777.955 493.401C777.53 492.096 776.849 491.046 775.913 490.252C774.977 489.458 773.757 489.061 772.253 489.061ZM786.218 508.763V486.465H789.537V488.763C790.019 488.053 790.686 487.415 791.537 486.848C792.416 486.252 793.452 485.954 794.643 485.954C795.721 485.954 796.657 486.224 797.452 486.763C798.274 487.273 798.856 487.997 799.196 488.933C799.65 488.195 800.317 487.514 801.196 486.89C802.076 486.266 803.14 485.954 804.388 485.954C805.778 485.954 806.927 486.38 807.835 487.231C808.742 488.053 809.196 489.174 809.196 490.592V508.763H805.707V491.316C805.707 490.522 805.48 489.926 805.026 489.529C804.572 489.131 803.977 488.933 803.239 488.933C802.047 488.933 801.111 489.273 800.43 489.954C799.778 490.607 799.452 491.514 799.452 492.678V508.763H795.962V491.316C795.962 490.522 795.735 489.926 795.281 489.529C794.828 489.131 794.232 488.933 793.494 488.933C792.303 488.933 791.367 489.273 790.686 489.954C790.033 490.607 789.707 491.514 789.707 492.678V508.763H786.218Z" fill="#002024"/>
<rect x="841.963" y="469.955" width="48.6153" height="48.6153" rx="24.3077" fill="#72D8E8"/>
<g clip-path="url(#clip3_1179_36811)">
<path fill-rule="evenodd" clip-rule="evenodd" d="M879.75 487.23L862.187 504.793L852.6 495.206L855.822 491.984L862.187 498.349L876.527 484.008L879.75 487.23Z" fill="#002024"/>
</g>
<rect x="90.599" y="568.144" width="835.52" height="119.715" fill="#FCFCFB"/>
<rect x="90.599" y="568.144" width="835.52" height="119.715" stroke="#2DB8CF" stroke-width="1.86592"/>
<path d="M129.231 640.001V616.154H137.795C140.46 616.154 142.531 616.793 144.009 618.069C145.487 619.345 146.225 621.114 146.225 623.376C146.225 624.898 145.89 626.219 145.218 627.339C144.546 628.436 143.583 629.276 142.329 629.858C141.075 630.44 139.564 630.731 137.795 630.731H132.119V640.001H129.231ZM132.119 627.91H137.795C139.586 627.91 140.93 627.529 141.826 626.768C142.744 626.007 143.203 624.876 143.203 623.376C143.203 621.92 142.744 620.823 141.826 620.084C140.93 619.345 139.586 618.976 137.795 618.976H132.119V627.91ZM150.419 640.001V616.154H165.399V618.976H153.307V626.667H164.996V629.421H153.307V637.18H165.667V640.001H150.419ZM170.328 640.001V616.154H179.363C181.042 616.154 182.487 616.446 183.696 617.028C184.905 617.61 185.834 618.45 186.483 619.547C187.155 620.621 187.491 621.898 187.491 623.376C187.491 624.45 187.234 625.413 186.719 626.264C186.226 627.093 185.588 627.753 184.804 628.246C184.02 628.738 183.203 629.007 182.352 629.052L182.151 628.749C183.606 628.749 184.748 629.085 185.577 629.757C186.427 630.429 186.92 631.504 187.054 632.981L187.726 640.001H184.804L184.2 633.284C184.11 632.298 183.752 631.571 183.125 631.101C182.52 630.63 181.524 630.395 180.136 630.395H173.217V640.001H170.328ZM173.217 627.574H179.733C181.188 627.574 182.341 627.204 183.192 626.466C184.043 625.727 184.468 624.674 184.468 623.308C184.468 621.92 184.032 620.857 183.158 620.118C182.285 619.356 181.02 618.976 179.363 618.976H173.217V627.574ZM192.894 640.001V616.154H207.874V618.976H194.339L195.783 617.498V628.447L194.339 626.969H207.269V629.723H194.339L195.783 628.246V640.001H192.894ZM222.009 640.538C219.747 640.538 217.799 640.046 216.165 639.061C214.552 638.053 213.31 636.62 212.436 634.761C211.563 632.903 211.127 630.686 211.127 628.111C211.127 625.536 211.563 623.32 212.436 621.461C213.31 619.58 214.552 618.136 216.165 617.128C217.799 616.121 219.747 615.617 222.009 615.617C224.293 615.617 226.241 616.121 227.853 617.128C229.487 618.136 230.741 619.58 231.614 621.461C232.488 623.32 232.924 625.536 232.924 628.111C232.924 630.686 232.488 632.903 231.614 634.761C230.741 636.62 229.487 638.053 227.853 639.061C226.241 640.046 224.293 640.538 222.009 640.538ZM222.009 637.717C223.666 637.717 225.076 637.336 226.241 636.575C227.427 635.814 228.334 634.717 228.961 633.284C229.588 631.851 229.902 630.127 229.902 628.111C229.902 626.096 229.588 624.372 228.961 622.939C228.334 621.484 227.427 620.375 226.241 619.614C225.076 618.83 223.666 618.438 222.009 618.438C220.374 618.438 218.963 618.83 217.777 619.614C216.612 620.375 215.717 621.484 215.09 622.939C214.463 624.372 214.149 626.096 214.149 628.111C214.149 630.127 214.463 631.851 215.09 633.284C215.717 634.717 216.612 635.814 217.777 636.575C218.963 637.336 220.374 637.717 222.009 637.717ZM237.075 640.001V616.154H246.11C247.789 616.154 249.234 616.446 250.443 617.028C251.652 617.61 252.581 618.45 253.23 619.547C253.902 620.621 254.238 621.898 254.238 623.376C254.238 624.45 253.98 625.413 253.465 626.264C252.973 627.093 252.335 627.753 251.551 628.246C250.767 628.738 249.95 629.007 249.099 629.052L248.898 628.749C250.353 628.749 251.495 629.085 252.323 629.757C253.174 630.429 253.667 631.504 253.801 632.981L254.473 640.001H251.551L250.946 633.284C250.857 632.298 250.499 631.571 249.872 631.101C249.267 630.63 248.271 630.395 246.882 630.395H239.964V640.001H237.075ZM239.964 627.574H246.479C247.935 627.574 249.088 627.204 249.939 626.466C250.79 625.727 251.215 624.674 251.215 623.308C251.215 621.92 250.779 620.857 249.905 620.118C249.032 619.356 247.767 618.976 246.11 618.976H239.964V627.574ZM259.641 640.001V616.154H263.672L271.296 636.844L278.886 616.154H282.917V640.001H280.028V621.528L273.21 640.001H269.348L262.53 621.528V640.001H259.641ZM286.349 640.001L294.947 616.154H298.843L307.441 640.001H304.284L301.899 633.216H291.891L289.506 640.001H286.349ZM292.865 630.395H300.925L296.895 618.673L292.865 630.395ZM310.546 640.001V616.154H314.643L326.432 637.113V616.154H329.321V640.001H325.022L313.434 619.446V640.001H310.546ZM344.183 640.538C342.056 640.538 340.186 640.046 338.574 639.061C336.962 638.053 335.708 636.62 334.812 634.761C333.916 632.903 333.469 630.686 333.469 628.111C333.469 625.536 333.916 623.32 334.812 621.461C335.708 619.58 336.962 618.136 338.574 617.128C340.186 616.121 342.056 615.617 344.183 615.617C347.071 615.617 349.31 616.345 350.9 617.8C352.49 619.256 353.531 621.237 354.024 623.745L350.967 623.947C350.631 622.245 349.915 620.901 348.818 619.916C347.72 618.931 346.175 618.438 344.183 618.438C342.66 618.438 341.317 618.83 340.152 619.614C339.01 620.375 338.115 621.484 337.465 622.939C336.816 624.372 336.491 626.096 336.491 628.111C336.491 630.127 336.816 631.851 337.465 633.284C338.115 634.717 339.01 635.814 340.152 636.575C341.317 637.336 342.66 637.717 344.183 637.717C346.265 637.717 347.877 637.18 349.019 636.105C350.161 635.008 350.878 633.53 351.169 631.671L354.225 631.873C353.934 633.597 353.363 635.109 352.512 636.407C351.661 637.706 350.531 638.725 349.12 639.464C347.732 640.18 346.086 640.538 344.183 640.538ZM358.728 640.001V616.154H373.708V618.976H361.617V626.667H373.305V629.421H361.617V637.18H373.977V640.001H358.728Z" fill="#002024"/>
<path d="M594.715 612.075C598.375 612.075 601.212 613.451 603.226 616.203C605.269 618.927 606.29 622.756 606.29 627.692C606.29 632.629 605.269 636.458 603.226 639.182C601.212 641.905 598.375 643.267 594.715 643.267C591.056 643.267 588.205 641.905 586.162 639.182C584.148 636.458 583.141 632.629 583.141 627.692C583.141 622.756 584.148 618.927 586.162 616.203C588.205 613.451 591.056 612.075 594.715 612.075ZM594.715 615.565C592.389 615.565 590.559 616.643 589.226 618.799C587.921 620.927 587.269 623.891 587.269 627.692C587.269 631.466 587.921 634.43 589.226 636.586C590.559 638.714 592.389 639.778 594.715 639.778C597.07 639.778 598.9 638.714 600.205 636.586C601.51 634.43 602.162 631.466 602.162 627.692C602.162 623.891 601.51 620.927 600.205 618.799C598.9 616.643 597.07 615.565 594.715 615.565ZM614.297 651.778H610.722V620.203H613.999V623.522C615.644 620.856 618.013 619.522 621.105 619.522C623.318 619.522 625.119 620.09 626.51 621.224C627.928 622.331 628.978 623.806 629.658 625.65C630.339 627.466 630.68 629.451 630.68 631.607C630.68 633.735 630.325 635.692 629.616 637.48C628.935 639.239 627.885 640.643 626.467 641.692C625.049 642.742 623.276 643.267 621.148 643.267C619.701 643.267 618.424 643.012 617.318 642.501C616.24 641.962 615.233 641.111 614.297 639.948V651.778ZM620.51 622.841C619.034 622.841 617.843 623.253 616.935 624.075C616.027 624.898 615.361 625.962 614.935 627.267C614.51 628.572 614.297 629.948 614.297 631.395C614.297 632.841 614.51 634.217 614.935 635.522C615.361 636.827 616.027 637.891 616.935 638.714C617.843 639.536 619.034 639.948 620.51 639.948C622.013 639.948 623.233 639.551 624.169 638.756C625.134 637.934 625.843 636.884 626.297 635.607C626.751 634.302 626.978 632.941 626.978 631.522C626.978 630.019 626.751 628.614 626.297 627.309C625.843 625.976 625.134 624.898 624.169 624.075C623.233 623.253 622.013 622.841 620.51 622.841ZM645.793 620.203H654.559V623.097H645.793V635.522C645.793 637.168 646.219 638.317 647.07 638.969C647.921 639.593 649.155 639.905 650.772 639.905C651.509 639.905 652.19 639.877 652.814 639.82C653.439 639.735 654.02 639.622 654.559 639.48V642.586C653.85 642.785 653.155 642.912 652.474 642.969C651.793 643.054 651.155 643.097 650.559 643.097C647.864 643.097 645.807 642.544 644.389 641.437C642.97 640.331 642.261 638.572 642.261 636.161V623.097H635.836V620.203H642.261V614.075H645.793V620.203ZM669.332 617.012V612.756H673.587V617.012H669.332ZM673.204 620.203V639.607H680.055V642.501H662.055V639.607H669.715V623.097H662.055V620.203H673.204ZM685.041 642.501V620.203H688.36V622.501C688.843 621.792 689.509 621.153 690.36 620.586C691.24 619.99 692.275 619.692 693.467 619.692C694.545 619.692 695.481 619.962 696.275 620.501C697.098 621.012 697.679 621.735 698.02 622.671C698.474 621.934 699.14 621.253 700.02 620.629C700.899 620.005 701.963 619.692 703.211 619.692C704.601 619.692 705.75 620.118 706.658 620.969C707.566 621.792 708.02 622.912 708.02 624.331V642.501H704.53V625.054C704.53 624.26 704.304 623.664 703.85 623.267C703.396 622.87 702.8 622.671 702.062 622.671C700.871 622.671 699.935 623.012 699.254 623.692C698.601 624.345 698.275 625.253 698.275 626.416V642.501H694.786V625.054C694.786 624.26 694.559 623.664 694.105 623.267C693.651 622.87 693.055 622.671 692.318 622.671C691.126 622.671 690.19 623.012 689.509 623.692C688.857 624.345 688.53 625.253 688.53 626.416V642.501H685.041ZM720.24 617.012V612.756H724.495V617.012H720.24ZM724.112 620.203V639.607H730.963V642.501H712.963V639.607H720.623V623.097H712.963V620.203H724.112ZM739.268 620.203H755.906V623.352L742.63 639.395H756.502V642.501H738.374V639.309L751.693 623.309H739.268V620.203ZM782.594 635.607C782.225 637.934 781.19 639.792 779.488 641.182C777.814 642.572 775.672 643.267 773.062 643.267C770.821 643.267 768.949 642.77 767.445 641.778C765.942 640.756 764.807 639.366 764.041 637.607C763.303 635.848 762.934 633.834 762.934 631.565C762.934 629.068 763.36 626.927 764.211 625.139C765.062 623.352 766.254 621.976 767.785 621.012C769.317 620.019 771.105 619.522 773.147 619.522C775.445 619.522 777.317 620.061 778.764 621.139C780.239 622.217 781.317 623.721 781.998 625.65C782.707 627.579 783.062 629.834 783.062 632.416H766.637C766.693 634.6 767.261 636.416 768.339 637.863C769.417 639.281 771.034 639.99 773.19 639.99C776.112 639.99 778.055 638.529 779.02 635.607H782.594ZM773.105 622.799C771.119 622.799 769.601 623.451 768.551 624.756C767.502 626.061 766.892 627.65 766.722 629.522H779.232C779.232 628.274 778.977 627.153 778.466 626.161C777.984 625.139 777.289 624.331 776.381 623.735C775.473 623.111 774.381 622.799 773.105 622.799ZM804.261 611.48H807.792V642.501H804.644V639.352C802.856 641.962 800.487 643.267 797.537 643.267C795.353 643.267 793.537 642.742 792.09 641.692C790.644 640.614 789.565 639.153 788.856 637.309C788.175 635.466 787.835 633.409 787.835 631.139C787.835 628.983 788.19 627.04 788.899 625.309C789.608 623.551 790.672 622.146 792.09 621.097C793.537 620.047 795.31 619.522 797.409 619.522C800.445 619.522 802.729 620.671 804.261 622.969V611.48ZM798.005 622.841C796.615 622.841 795.438 623.224 794.473 623.99C793.509 624.728 792.771 625.749 792.261 627.054C791.778 628.331 791.537 629.778 791.537 631.395C791.537 632.898 791.764 634.302 792.218 635.607C792.672 636.912 793.367 637.962 794.303 638.756C795.268 639.551 796.516 639.948 798.048 639.948C799.551 639.948 800.757 639.536 801.665 638.714C802.573 637.863 803.225 636.799 803.622 635.522C804.048 634.217 804.261 632.884 804.261 631.522C804.261 630.019 804.048 628.614 803.622 627.309C803.197 625.976 802.53 624.898 801.622 624.075C800.714 623.253 799.509 622.841 798.005 622.841Z" fill="#002024"/>
<rect x="841.963" y="603.693" width="48.6153" height="48.6153" rx="24.3077" fill="#72D8E8"/>
<g clip-path="url(#clip4_1179_36811)">
<path fill-rule="evenodd" clip-rule="evenodd" d="M879.75 620.969L862.187 638.532L852.6 628.945L855.822 625.723L862.187 632.087L876.527 617.747L879.75 620.969Z" fill="#002024"/>
</g>
<g clip-path="url(#clip5_1179_36811)">
<rect x="89.666" y="725.266" width="275.581" height="96.7903" fill="#A7ECFF"/>
<path d="M161.399 787.244C159.503 787.244 157.825 786.734 156.366 785.712C154.907 784.667 153.764 783.135 152.937 781.117C152.111 779.098 151.697 776.642 151.697 773.749C151.697 770.952 152.086 768.545 152.864 766.527C153.642 764.509 154.761 762.952 156.22 761.858C157.703 760.74 159.466 760.18 161.509 760.18C163.162 760.18 164.621 760.533 165.886 761.238C167.15 761.943 168.196 762.965 169.022 764.302C169.873 765.615 170.481 767.183 170.846 769.007L166.177 769.299C165.861 767.718 165.314 766.49 164.536 765.615C163.758 764.74 162.761 764.302 161.545 764.302C160.451 764.302 159.515 764.667 158.737 765.396C157.959 766.126 157.363 767.196 156.949 768.606C156.56 770.016 156.366 771.731 156.366 773.749C156.366 775.743 156.573 777.445 156.986 778.855C157.424 780.241 158.044 781.299 158.846 782.028C159.649 782.758 160.633 783.123 161.8 783.123C162.773 783.123 163.612 782.879 164.317 782.393C165.022 781.883 165.569 781.165 165.959 780.241C166.372 779.317 166.603 778.235 166.652 776.995H161.472V773.311H170.81V786.661H167.527L167.308 780.898L168.402 780.569C168.183 781.785 167.782 782.904 167.199 783.925C166.639 784.946 165.873 785.761 164.901 786.369C163.952 786.952 162.785 787.244 161.399 787.244ZM183.27 787.244C181.203 787.244 179.44 786.721 177.981 785.676C176.546 784.63 175.452 783.098 174.698 781.08C173.944 779.062 173.567 776.618 173.567 773.749C173.567 770.831 173.944 768.363 174.698 766.345C175.452 764.326 176.546 762.794 177.981 761.749C179.44 760.703 181.203 760.18 183.27 760.18C185.336 760.18 187.087 760.703 188.522 761.749C189.981 762.794 191.087 764.326 191.841 766.345C192.595 768.363 192.972 770.831 192.972 773.749C192.972 776.618 192.595 779.062 191.841 781.08C191.087 783.098 189.981 784.63 188.522 785.676C187.087 786.721 185.336 787.244 183.27 787.244ZM183.27 783.159C184.364 783.159 185.288 782.819 186.042 782.138C186.795 781.457 187.355 780.424 187.719 779.038C188.108 777.627 188.303 775.864 188.303 773.749C188.303 771.633 188.108 769.87 187.719 768.46C187.355 767.05 186.795 766.004 186.042 765.323C185.288 764.618 184.364 764.266 183.27 764.266C182.175 764.266 181.251 764.618 180.497 765.323C179.744 766.004 179.172 767.05 178.783 768.46C178.418 769.87 178.236 771.633 178.236 773.749C178.236 775.864 178.418 777.627 178.783 779.038C179.172 780.424 179.744 781.457 180.497 782.138C181.251 782.819 182.175 783.159 183.27 783.159ZM219.569 786.661V760.764H224.092V785.202L220.992 782.503H235.91V786.661H219.569ZM240.71 786.661V782.503H246.619V764.922H240.71V760.764H257.05V764.922H251.142V782.503H257.05V786.661H240.71ZM268.307 786.661L260.684 760.764H265.462L271.444 782.503H270.058L276.039 760.764H280.817L273.194 786.661H268.307ZM284.815 786.661V760.764H300.864V764.922H289.338V771.67H300.426V775.682H289.338V782.503H301.156V786.661H284.815Z" fill="#002024"/>
</g>
<rect x="91.1858" y="726.785" width="272.541" height="93.7508" stroke="#002024" stroke-width="3.03951"/>
</g>
<rect x="0.932962" y="0.932962" width="998.134" height="898.134" stroke="#2DB8CF" stroke-width="1.86592"/>
</g>
<defs>
<filter id="filter0_f_1179_36811" x="-108.996" y="-39.996" width="1181.99" height="1184.99" filterUnits="userSpaceOnUse" color-interpolation-filters="sRGB">
<feFlood flood-opacity="0" result="BackgroundImageFix"/>
<feBlend mode="normal" in="SourceGraphic" in2="BackgroundImageFix" result="shape"/>
<feGaussianBlur stdDeviation="133.498" result="effect1_foregroundBlur_1179_36811"/>
</filter>
<radialGradient id="paint0_radial_1179_36811" cx="0" cy="0" r="1" gradientUnits="userSpaceOnUse" gradientTransform="translate(482 552.5) rotate(90) scale(325.5 324)">
<stop stop-color="#2DB8CF"/>
<stop offset="1" stop-color="#2DB8CF" stop-opacity="0"/>
</radialGradient>
<clipPath id="clip0_1179_36811">
<rect width="1000" height="900" fill="white"/>
</clipPath>
<clipPath id="clip1_1179_36811">
<rect width="1000" height="900" fill="white"/>
</clipPath>
<clipPath id="clip2_1179_36811">
<rect width="27.3461" height="27.3461" fill="white" transform="translate(852.598 346.851)"/>
</clipPath>
<clipPath id="clip3_1179_36811">
<rect width="27.3461" height="27.3461" fill="white" transform="translate(852.598 480.59)"/>
</clipPath>
<clipPath id="clip4_1179_36811">
<rect width="27.3461" height="27.3461" fill="white" transform="translate(852.598 614.328)"/>
</clipPath>
<clipPath id="clip5_1179_36811">
<rect x="89.666" y="725.266" width="275.581" height="96.7903" fill="white"/>
</clipPath>
</defs>
</svg>
