<svg width="137" height="50" viewBox="0 0 137 50" fill="none" xmlns="http://www.w3.org/2000/svg">
<g clip-path="url(#clip0_1171_25839)">
<mask id="mask0_1171_25839" style="mask-type:luminance" maskUnits="userSpaceOnUse" x="0" y="0" width="137" height="50">
<path d="M136.986 0H0V50H136.986V0Z" fill="white"/>
</mask>
<g mask="url(#mask0_1171_25839)">
<path d="M72.2302 0.000812274C72.7083 0.277842 72.8391 0.697192 72.8282 1.24527C72.7987 2.74314 72.8131 4.24209 72.822 5.74077C72.8275 5.89771 72.8008 6.05412 72.7419 6.19938C72.683 6.34465 72.5946 6.47539 72.4816 6.58273C69.6884 9.36027 66.898 12.1397 64.1093 14.9208C64.0101 15.0198 63.8922 15.0974 63.7627 15.1488C63.6332 15.2002 63.4948 15.2242 63.3558 15.2195C60.3239 15.2195 57.2919 15.2195 54.2599 15.2195C54.1104 15.2209 53.9622 15.1911 53.8245 15.132C53.6867 15.0729 53.5624 14.9856 53.459 14.8757C50.8178 12.2355 48.174 9.59815 45.5273 6.96322C45.4673 6.90144 45.4043 6.84286 45.3383 6.78777C45.1486 6.63909 44.9986 6.44427 44.9022 6.22121C44.8058 5.99816 44.766 5.75403 44.7865 5.51127C44.818 4.1004 44.818 2.68881 44.7865 1.27651C44.7751 0.722719 44.8898 0.28382 45.384 0H50.5735C50.9526 0.306591 51.3077 0.64256 51.6358 1.00491C53.958 3.35658 56.2784 5.71044 58.597 8.06644C58.7652 8.23781 58.8469 8.23836 59.0154 8.06644C61.2936 5.74647 63.5763 3.43145 65.8636 1.12143C66.2273 0.718966 66.62 0.344567 67.0383 0.00135103L72.2302 0.000812274ZM70.9782 3.68477H71.0021C71.0021 3.17497 70.9919 2.66491 71.0069 2.15539C71.0131 1.93512 70.961 1.85257 70.7282 1.85664C69.8104 1.86941 68.8919 1.86397 67.9738 1.85962C67.9056 1.85538 67.8374 1.86621 67.7738 1.8914C67.7102 1.91658 67.6528 1.9555 67.6054 2.00548C65.1658 4.48355 62.7231 6.95836 60.2776 9.42993C60.1593 9.54938 60.1241 9.62 60.2638 9.75904C61.2764 10.7711 62.2831 11.7892 63.2835 12.8135C63.404 12.9362 63.4736 12.928 63.5887 12.811C64.0033 12.3889 64.4294 11.9783 64.8483 11.5603C66.8362 9.57596 68.8247 7.5924 70.8145 5.60958C70.8693 5.56127 70.9131 5.50077 70.9425 5.43268C70.9713 5.3646 70.9843 5.2907 70.9816 5.21658C70.9727 4.70544 70.9782 4.1951 70.9782 3.68477ZM48.2893 1.86099C47.83 1.86099 47.3708 1.86914 46.9122 1.85745C46.7138 1.85229 46.631 1.89982 46.6334 2.12416C46.6441 3.15623 46.6406 4.18831 46.6353 5.21848C46.632 5.28792 46.6438 5.35724 46.6702 5.42141C46.6964 5.48558 46.7365 5.54299 46.7873 5.58948C47.1797 5.97298 47.5615 6.36679 47.9512 6.7541C49.9717 8.7663 51.9913 10.7795 54.0101 12.7936C54.1575 12.9411 54.229 12.9188 54.3612 12.7838C55.347 11.7753 56.3385 10.7725 57.3356 9.77534C57.477 9.63411 57.4724 9.55801 57.3339 9.42226C56.7058 8.80247 56.0871 8.17295 55.4672 7.5439C53.6682 5.71967 51.8705 3.89381 50.0743 2.06632C50.0112 1.99494 49.933 1.939 49.8457 1.90268C49.7584 1.86638 49.6641 1.85064 49.5699 1.85664C49.1436 1.87103 48.7164 1.86099 48.2893 1.86099ZM56.4612 13.3303H61.125C61.1173 13.2914 61.1205 13.2645 61.1087 13.2526C60.3767 12.5117 59.6404 11.7743 58.9128 11.0293C58.7852 10.8989 58.734 11.0041 58.6635 11.0758C58.2407 11.504 57.8189 11.9329 57.398 12.3626C57.0934 12.6741 56.7914 12.9889 56.4612 13.3303Z" fill="black"/>
<path d="M125.769 50.5873C125.754 50.5727 125.742 50.5484 125.725 50.5448C125.179 50.4291 125.179 50.4293 125.179 49.8588C125.179 49.556 125.19 49.2528 125.175 48.9508C125.166 48.7493 125.212 48.6958 125.424 48.7318C126.905 49.0096 128.434 48.8146 129.799 48.1736C131.475 47.3751 132.719 46.1628 133.165 44.2656C133.351 43.3336 133.424 42.3819 133.38 41.4321C133.38 41.405 133.353 41.378 133.329 41.3271C133.02 41.6895 132.746 42.0593 132.426 42.3904C130.594 44.2868 128.348 45.0609 125.773 44.8175C122.404 44.4993 119.982 42.7134 118.571 39.6454C116.927 36.0736 117.508 30.9828 121.424 28.0848C124.893 25.5184 130.218 25.8512 133.136 29.6532C133.199 29.7365 133.267 29.8171 133.385 29.9631V28.8445C133.385 28.2606 133.395 27.6765 133.379 27.0933C133.373 26.8499 133.425 26.7634 133.688 26.7671C134.788 26.7839 135.888 26.7745 136.988 26.7747V28.5283C136.529 28.5283 136.068 28.5497 135.61 28.521C135.303 28.5019 135.225 28.5881 135.226 28.9047C135.238 33.4015 135.238 37.8983 135.229 42.3952C135.259 43.4778 135.079 44.5558 134.699 45.5684C133.701 48.0278 131.86 49.521 129.373 50.2563C128.823 50.4186 128.249 50.4604 127.693 50.5884L125.769 50.5873ZM126.516 28.1792C125.574 28.1748 124.642 28.3742 123.782 28.7641C122.923 29.1541 122.155 29.7255 121.531 30.4401C118.968 33.3132 118.992 38.006 121.59 40.8636C124.298 43.8446 128.666 43.9025 131.355 40.911C133.489 38.5389 133.919 35.7512 132.838 32.7716C132.379 31.4401 131.527 30.2843 130.395 29.4624C129.262 28.6404 127.908 28.1922 126.516 28.1792Z" fill="black"/>
<path d="M0 32.356C0.133558 31.8373 0.174426 31.3014 0.31199 30.7817C0.660208 29.3841 1.41503 28.1248 2.47864 27.1667C3.54225 26.2085 4.86561 25.5958 6.27722 25.4082C7.48514 25.2597 8.70678 25.2678 9.91267 25.4322C10.1501 25.4593 10.2397 25.5615 10.237 25.807C10.2268 26.7687 10.2268 27.7307 10.237 28.6928C10.2397 28.9799 10.1256 29.0714 9.85021 29.0503C9.18336 28.9682 8.51212 28.9282 7.84041 28.9308C7.37151 28.9458 6.90575 29.013 6.45138 29.1311C4.89542 29.5594 3.9047 30.7603 3.71986 32.435C3.6757 32.832 3.65366 33.2312 3.65388 33.6308C3.65708 37.1109 3.65771 40.5911 3.65575 44.0713C3.65575 44.5023 3.65575 44.504 3.23424 44.5025C2.15669 44.4991 1.07933 44.4947 0.00213677 44.4891L0 32.356Z" fill="black"/>
<path d="M43.4811 31.481V18.895C43.4811 18.4145 43.4811 18.4145 43.9637 18.4142H46.7199C47.1512 18.4142 47.1523 18.4142 47.1525 18.8434C47.1525 21.2654 47.1525 23.6875 47.1525 26.1096C47.1525 26.1853 47.1568 26.2613 47.1525 26.3367C47.14 26.5331 47.2006 26.5628 47.3663 26.4579C47.8613 26.1386 48.3953 25.8859 48.9547 25.7061C51.365 24.9558 53.7241 25.0612 55.9564 26.2954C57.8936 27.3664 58.9124 29.1305 59.3453 31.2741C59.4818 31.974 59.5475 32.6862 59.5414 33.3996C59.5371 36.9569 59.5365 40.5143 59.5395 44.0718C59.5395 44.5023 59.5395 44.5029 59.1172 44.5029H56.297C55.8806 44.5029 55.8801 44.5029 55.8801 44.067C55.8801 40.5097 55.8791 36.9522 55.8771 33.3947C55.8815 32.8113 55.8075 32.23 55.6572 31.6668C55.2756 30.2841 54.4101 29.405 53.0248 29.0855C51.8039 28.7523 50.5032 28.9073 49.3921 29.5181C47.8468 30.4029 47.1482 31.7896 47.1515 33.5666C47.1548 37.0701 47.1548 40.5734 47.1515 44.0767C47.1515 44.5013 47.1515 44.5016 46.7227 44.5018C45.7721 44.5018 44.8212 44.489 43.8707 44.509C43.5515 44.5155 43.4741 44.4009 43.4746 44.0984C43.4832 39.8929 43.4853 35.6872 43.4811 31.481Z" fill="black"/>
<path d="M28.9271 35.1416C28.9251 39.371 26.3116 43.1354 22.4849 44.4188C18.3024 45.8214 13.8401 44.0429 11.5909 40.077C10.4339 37.9912 10.0429 35.5584 10.4871 33.2088C10.9313 30.8593 12.1821 28.7445 14.0182 27.2386C18.4229 23.6981 24.8097 25.0382 27.6285 30.0954C28.4933 31.6321 28.9413 33.373 28.9271 35.1416ZM20.0235 28.9086C18.6537 28.9086 17.746 29.1603 16.9223 29.6616C13.7703 31.5816 13.0101 36.1331 15.3444 39.1127C15.8371 39.7619 16.4682 40.2901 17.1906 40.6577C17.9132 41.0254 18.7083 41.2231 19.5168 41.2361C20.3253 41.2492 21.1264 41.0771 21.86 40.7328C22.5936 40.3886 23.241 39.881 23.7538 39.248C24.575 38.2512 25.0816 37.0278 25.2079 35.7363C25.3344 34.4447 25.0747 33.1445 24.4627 32.004C23.4137 30.0865 21.8292 28.9995 20.0235 28.9086Z" fill="black"/>
<path d="M31.7921 33.9264C31.7921 32.4995 31.786 31.0725 31.7983 29.6456C31.8001 29.4021 31.7385 29.3354 31.498 29.3424C30.8791 29.3606 30.2592 29.3395 29.64 29.3527C29.3609 29.3586 29.2698 29.2548 29.2736 28.9727C29.2873 27.9786 29.2873 26.9841 29.2736 25.9893C29.2698 25.71 29.3537 25.6038 29.6387 25.6107C30.2579 25.6273 30.8778 25.6043 31.4967 25.6219C31.7334 25.6286 31.799 25.5691 31.7977 25.3223C31.7871 23.1495 31.7903 20.9764 31.7951 18.8038C31.7951 18.6664 31.711 18.4765 31.902 18.404C32.064 18.3427 32.1798 18.4717 32.2898 18.5747C33.2925 19.5133 34.2932 20.4546 35.2999 21.387C35.3684 21.4457 35.4225 21.5197 35.458 21.6032C35.4935 21.6867 35.5095 21.7773 35.5048 21.868C35.4938 23.0135 35.5003 24.1595 35.48 25.3047C35.4755 25.5688 35.5601 25.6227 35.8021 25.6202C37.0089 25.6083 38.2158 25.6219 39.4226 25.6099C39.7124 25.607 39.8155 25.6971 39.8107 26.0002C39.7947 26.9836 39.7915 27.9677 39.8107 28.9509C39.8177 29.2838 39.6844 29.3535 39.3949 29.3511C38.2094 29.3411 37.0236 29.3548 35.8385 29.3408C35.5714 29.3375 35.4762 29.3882 35.4779 29.6883C35.4912 32.2503 35.4834 34.8123 35.4869 37.3744C35.4684 37.9471 35.5286 38.5195 35.6662 39.0753C35.9904 40.224 36.7853 40.838 38.0012 40.8511C38.4807 40.8562 38.961 40.8359 39.4397 40.8088C39.6993 40.794 39.8097 40.8797 39.807 41.1536C39.7981 42.1271 39.8027 43.1006 39.8043 44.0725C39.8043 44.223 39.7963 44.3494 39.6024 44.3747C37.891 44.6 36.2116 44.5941 34.677 43.6352C33.1777 42.6985 32.3689 41.284 31.9925 39.5834C31.8538 38.95 31.7856 38.303 31.7892 37.6543C31.7948 36.4129 31.7921 35.1695 31.7921 33.9264Z" fill="black"/>
<path d="M103.843 28.8359C104.299 28.3208 104.821 27.8695 105.395 27.4941C106.755 26.6318 108.254 26.4149 109.82 26.5168C112.37 26.6832 114.301 27.8635 115.535 30.1455C116.049 31.1586 116.325 32.2786 116.339 33.4175C116.468 36.3995 116.376 39.3835 116.39 42.3667C116.391 42.6982 116.471 42.7994 116.792 42.7671C117.089 42.7377 117.39 42.7671 117.689 42.7585C117.838 42.7547 117.9 42.8015 117.897 42.9608C117.89 43.4149 117.89 43.869 117.897 44.3231C117.899 44.4691 117.84 44.5051 117.707 44.5048C116.116 44.502 114.525 44.502 112.932 44.5048C112.792 44.5048 112.749 44.4577 112.751 44.3182C112.757 43.8642 112.759 43.4099 112.751 42.9559C112.747 42.7936 112.813 42.7561 112.957 42.7582C113.395 42.7647 113.834 42.7542 114.272 42.7636C114.451 42.7674 114.54 42.7382 114.54 42.5203C114.532 39.7848 114.547 37.0491 114.527 34.3136C114.543 33.4808 114.442 32.65 114.229 31.8455C113.645 29.8538 112.301 28.7136 110.316 28.3394C109.284 28.1281 108.214 28.2035 107.22 28.5577C105.315 29.2577 104.272 30.6792 103.971 32.6822C103.873 33.4103 103.831 34.1449 103.843 34.8795C103.844 37.3881 103.85 39.8968 103.836 42.4051C103.834 42.7158 103.929 42.7836 104.21 42.7666C104.603 42.7442 105 42.7666 105.395 42.7577C105.571 42.7531 105.642 42.8031 105.636 42.9938C105.623 43.4151 105.625 43.8371 105.636 44.2588C105.64 44.4315 105.603 44.5077 105.41 44.5067C103.84 44.4996 102.269 44.4996 100.699 44.5067C100.549 44.5067 100.493 44.4623 100.496 44.3053C100.503 43.862 100.505 43.4186 100.496 42.9753C100.492 42.7977 100.564 42.7555 100.723 42.759C101.065 42.7677 101.407 42.7503 101.749 42.7661C101.947 42.775 102.001 42.709 101.999 42.5103C101.988 41.6888 101.994 40.867 101.994 40.0452C101.994 36.3148 101.997 32.5844 102.001 28.8542C102.001 28.579 101.929 28.5027 101.666 28.5236C101.358 28.5479 101.047 28.5214 100.738 28.5322C100.568 28.5382 100.488 28.5036 100.494 28.3067C100.509 27.8638 100.505 27.42 100.497 26.9768C100.493 26.8229 100.541 26.7729 100.695 26.774C101.678 26.78 102.661 26.7816 103.644 26.774C103.825 26.7724 103.851 26.8446 103.849 27.0017C103.838 27.5823 103.843 28.1655 103.843 28.8359Z" fill="black"/>
<path d="M90.4289 28.5277C89.9755 28.5277 89.5803 28.5188 89.1864 28.5315C88.9994 28.5377 88.9186 28.4966 88.9262 28.2851C88.9426 27.8642 88.9371 27.4418 88.9282 27.0205C88.9248 26.8518 88.9529 26.7695 89.1515 26.7709C90.3693 26.7797 91.5871 26.7797 92.8049 26.7709C92.9809 26.7709 93.0179 26.8315 93.0138 26.9942C93.0042 27.4268 92.9981 27.8595 93.0166 28.2922C93.0262 28.5115 92.9337 28.5607 92.757 28.5262C92.4604 28.468 92.3405 28.61 92.2344 28.8814C90.2556 33.9664 88.272 39.0501 86.2837 44.1326C86.1734 44.4146 86.0467 44.5382 85.7378 44.5112C85.3755 44.4846 85.0118 44.4846 84.6488 44.5112C84.4268 44.5241 84.3371 44.4386 84.259 44.2375C82.759 40.3865 81.2542 36.5377 79.7447 32.691C79.2426 31.4085 78.7364 30.1272 78.246 28.8401C78.157 28.6062 78.0501 28.4763 77.7899 28.5307C77.5303 28.5851 77.4693 28.4618 77.4796 28.2146C77.4994 27.8046 77.4905 27.3931 77.4823 26.9824C77.4796 26.8321 77.5193 26.7753 77.6782 26.776C78.907 26.7816 80.1357 26.7816 81.3645 26.776C81.5337 26.776 81.5857 26.8301 81.5823 26.9977C81.5727 27.4304 81.5727 27.8631 81.5823 28.2957C81.5864 28.4747 81.5378 28.5448 81.3501 28.5364C81.0296 28.5218 80.709 28.5456 80.3885 28.528C80.1419 28.5142 80.0714 28.5521 80.1762 28.8201C81.0686 31.0947 81.946 33.3751 82.8296 35.653C83.5933 37.6196 84.3577 39.5857 85.1234 41.5512C85.1542 41.6299 85.1864 41.7078 85.2529 41.8703C86.9885 37.391 88.6981 32.986 90.4289 28.5277Z" fill="black"/>
<path d="M70.3351 31.9994C70.3351 35.4688 70.333 38.9385 70.3282 42.4082C70.3282 42.6921 70.3933 42.7883 70.6803 42.7668C71.031 42.7397 71.3844 42.7668 71.7371 42.7578C71.9043 42.7536 71.9906 42.787 71.9844 42.9863C71.9714 43.419 71.9741 43.8517 71.9844 44.2844C71.9885 44.4544 71.933 44.5071 71.7666 44.5066C70.1967 44.5014 68.6269 44.5014 67.0569 44.5066C66.9035 44.5066 66.8547 44.4592 66.8576 44.3041C66.8661 43.8612 66.868 43.4177 66.8576 42.9747C66.8533 42.7982 66.9193 42.7551 67.0806 42.7583C67.4756 42.7676 67.871 42.7551 68.2658 42.7641C68.4282 42.7676 68.5084 42.7203 68.4881 42.5459C68.4843 42.4812 68.4843 42.4162 68.4881 42.3514C68.4881 36.0174 68.4881 29.6833 68.4881 23.3494C68.4881 22.8627 68.5495 22.9312 68.058 22.9259C67.7267 22.9225 67.3956 22.9198 67.0649 22.9278C66.9158 22.9314 66.8571 22.8865 66.8603 22.7267C66.8691 22.2729 66.8678 21.8186 66.8603 21.3649C66.8582 21.2224 66.908 21.1805 67.0449 21.181C68.0807 21.1851 69.1166 21.1883 70.1522 21.181C70.3899 21.1792 70.3365 21.3333 70.3371 21.4631C70.3385 23.16 70.3385 24.8568 70.3371 26.5538L70.3351 31.9994Z" fill="black"/>
<path d="M76.4512 34.7536C76.4512 37.305 76.456 39.8562 76.445 42.4079C76.445 42.6891 76.5039 42.7903 76.7943 42.7664C77.134 42.7394 77.4779 42.768 77.819 42.7567C78.0025 42.7504 78.0614 42.8177 78.0573 43.0001C78.0471 43.4327 78.0491 43.8653 78.0573 44.298C78.0594 44.4521 78.008 44.5054 77.8539 44.5052C76.284 44.5012 74.7142 44.5012 73.1436 44.5052C73.0101 44.5052 72.9532 44.4644 72.9553 44.3204C72.9614 43.8664 72.9628 43.4121 72.9553 42.9582C72.9525 42.7943 73.0231 42.7577 73.1662 42.7597C73.5717 42.7651 73.9786 42.7559 74.384 42.7643C74.5484 42.7675 74.6224 42.7139 74.6046 42.542C74.6005 42.4556 74.6005 42.369 74.6046 42.2827C74.6046 37.8177 74.6073 33.3527 74.6121 28.8876C74.6121 28.5821 74.5265 28.5034 74.2416 28.5232C73.8909 28.5477 73.5368 28.5232 73.1847 28.5315C73.032 28.535 72.9505 28.5099 72.9553 28.3238C72.9676 27.8701 72.9635 27.4158 72.9573 26.9618C72.9553 26.8212 73.0012 26.7738 73.1402 26.7744C74.1868 26.7788 75.2334 26.7803 76.2799 26.7744C76.4957 26.7744 76.4532 26.9145 76.4532 27.0364C76.4546 28.053 76.4546 29.0693 76.4532 30.0853L76.4512 34.7536Z" fill="black"/>
<path d="M97.7721 34.7791C97.7721 37.3194 97.7783 39.8593 97.7639 42.3996C97.7626 42.7111 97.8591 42.7844 98.1413 42.7649C98.4701 42.7424 98.803 42.7671 99.1338 42.7565C99.3064 42.7511 99.3838 42.7941 99.3783 42.9885C99.3653 43.4212 99.3667 43.8538 99.3783 44.2865C99.3817 44.4585 99.3263 44.5066 99.1598 44.5061C97.6098 44.5005 96.0612 44.5005 94.5139 44.5061C94.3537 44.5061 94.2886 44.4682 94.2934 44.2918C94.3043 43.8489 94.303 43.4055 94.2934 42.9626C94.2906 42.8062 94.342 42.7549 94.4948 42.7584C94.879 42.7668 95.2633 42.7524 95.6475 42.7647C95.8448 42.7708 95.9269 42.7279 95.9269 42.5021C95.9208 37.9297 95.9208 33.3576 95.9269 28.7855C95.9269 28.5603 95.8489 28.5177 95.6523 28.5248C95.2776 28.538 94.9044 28.5207 94.5304 28.5321C94.3591 28.5373 94.2845 28.5007 94.2893 28.3055C94.3037 27.8629 94.3002 27.4194 94.2913 26.9762C94.2886 26.8237 94.3311 26.7721 94.4879 26.7731C95.5126 26.7793 96.5379 26.7837 97.5633 26.7709C97.8139 26.7679 97.7694 26.9175 97.7694 27.0629C97.7708 29.6346 97.7721 32.2066 97.7721 34.7791Z" fill="black"/>
<path d="M74.4726 22.2847C74.4726 21.9827 74.4794 21.6806 74.4692 21.3788C74.4637 21.2247 74.5116 21.1742 74.6664 21.1766C75.1883 21.1849 75.7109 21.1849 76.2329 21.1766C76.3931 21.1742 76.4582 21.2182 76.4555 21.3929C76.4466 21.9856 76.4486 22.5789 76.4541 23.172C76.4562 23.3244 76.4041 23.3818 76.2514 23.3799C75.7185 23.3736 75.1856 23.3736 74.6534 23.3799C74.5123 23.3815 74.4678 23.3258 74.4705 23.1906C74.4753 22.8886 74.4726 22.5865 74.4726 22.2847Z" fill="black"/>
<path d="M97.7708 22.3115C97.7708 22.5818 97.7612 22.8523 97.7735 23.1203C97.7824 23.3074 97.7427 23.3907 97.5317 23.3839C97.0311 23.3682 96.5304 23.3728 96.0297 23.382C95.853 23.3853 95.7838 23.3358 95.7872 23.1465C95.7975 22.5642 95.7961 21.9818 95.7872 21.3996C95.7845 21.2319 95.8359 21.1738 96.0044 21.1768C96.5256 21.1858 97.0482 21.1879 97.5701 21.1768C97.755 21.1725 97.7776 21.2531 97.7728 21.4069C97.7639 21.7074 97.7708 22.0097 97.7708 22.3115Z" fill="black"/>
</g>
</g>
<defs>
<clipPath id="clip0_1171_25839">
<rect width="136.986" height="50" fill="white"/>
</clipPath>
</defs>
</svg>
