<svg width="512" height="260" viewBox="0 0 512 260" fill="none" xmlns="http://www.w3.org/2000/svg">
<g clip-path="url(#clip0_1179_35773)">
<g filter="url(#filter0_f_1179_35773)" style="mix-blend-mode:plus-darker">
<ellipse cx="312.5" cy="142.5" rx="98.5" ry="42.5" fill="url(#paint0_radial_1179_35773)"/>
</g>
<rect x="1.49111" y="9.49111" width="244.018" height="241.018" fill="#FCFCFB"/>
<rect x="1.49111" y="9.49111" width="244.018" height="241.018" stroke="#2DB8CF" stroke-width="0.982222"/>
<path d="M32.4316 32.8691H214.734" stroke="#002024" stroke-opacity="0.1" stroke-width="0.982222"/>
<path d="M32.4316 64.3003H214.734" stroke="#002024" stroke-opacity="0.1" stroke-width="0.982222"/>
<path d="M32.4316 95.7313H214.734" stroke="#002024" stroke-opacity="0.1" stroke-width="0.982222"/>
<path d="M32.4316 127.162H214.734" stroke="#002024" stroke-opacity="0.1" stroke-width="0.982222"/>
<path d="M32.4316 158.594H214.734" stroke="#002024" stroke-opacity="0.1" stroke-width="0.982222"/>
<path d="M32.4316 190.025H214.734" stroke="#002024" stroke-opacity="0.1" stroke-width="0.982222"/>
<path d="M32 190L64.2017 126.811L95.618 166.669L146.277 61.1919L180.835 87.9257L215 33" stroke="#2DB8CF" stroke-width="1.96444"/>
<path d="M63.689 224V211.447H65.2095V223.293L64.4492 222.515H71.4682V224H63.689ZM76.2349 224.212C75.6455 224.212 75.1151 224.106 74.6437 223.894C74.1722 223.682 73.8009 223.387 73.5298 223.01C73.2587 222.621 73.1232 222.173 73.1232 221.666C73.1232 220.865 73.3589 220.246 73.8304 219.81C74.3136 219.362 75.068 219.038 76.0934 218.837L79.2405 218.201C79.2405 217.399 79.0578 216.804 78.6924 216.415C78.3388 216.026 77.8261 215.832 77.1542 215.832C76.506 215.832 75.9991 215.979 75.6338 216.274C75.2684 216.557 75.015 216.969 74.8735 217.511L73.3 217.388C73.4768 216.504 73.8952 215.791 74.5553 215.248C75.2271 214.694 76.0934 214.417 77.1542 214.417C78.2858 214.417 79.1639 214.759 79.7886 215.443C80.4133 216.115 80.7256 217.046 80.7256 218.236V222.126C80.7256 222.338 80.7727 222.485 80.867 222.568C80.9613 222.65 81.1028 222.692 81.2914 222.692H81.8925V224C81.8218 224.012 81.7098 224.018 81.5566 224.018C81.4033 224.029 81.256 224.035 81.1146 224.035C80.7138 224.035 80.372 223.971 80.0891 223.841C79.818 223.711 79.6118 223.505 79.4703 223.222C79.3289 222.927 79.2523 222.55 79.2405 222.091H79.5234C79.4408 222.491 79.2405 222.857 78.9222 223.187C78.6158 223.505 78.2268 223.758 77.7554 223.947C77.2839 224.124 76.7771 224.212 76.2349 224.212ZM76.3763 222.904C77.0128 222.904 77.5432 222.798 77.9675 222.586C78.3918 222.362 78.7101 222.055 78.9222 221.666C79.1344 221.265 79.2405 220.806 79.2405 220.287V219.474L76.3763 220.04C75.7398 220.158 75.2978 220.34 75.0503 220.588C74.8028 220.823 74.679 221.136 74.679 221.525C74.679 221.961 74.8264 222.303 75.121 222.55C75.4275 222.786 75.8459 222.904 76.3763 222.904ZM87.8968 224.212C87.0835 224.212 86.3822 224.071 85.7929 223.788C85.2035 223.505 84.7379 223.128 84.3961 222.656C84.0661 222.173 83.8775 221.637 83.8304 221.047L85.3862 220.941C85.4805 221.519 85.7339 221.973 86.1465 222.303C86.5708 222.633 87.1542 222.798 87.8968 222.798C88.5922 222.798 89.1285 222.698 89.5057 222.497C89.8946 222.297 90.0891 221.984 90.0891 221.56C90.0891 221.289 90.0243 221.065 89.8946 220.888C89.765 220.712 89.5233 220.564 89.1697 220.446C88.8161 220.317 88.2975 220.193 87.6139 220.075C86.7063 219.91 85.9932 219.71 85.4746 219.474C84.9678 219.226 84.6083 218.92 84.3961 218.555C84.184 218.189 84.0779 217.753 84.0779 217.246C84.0779 216.704 84.2134 216.221 84.4845 215.796C84.7556 215.372 85.1564 215.036 85.6868 214.789C86.2172 214.541 86.8654 214.417 87.6316 214.417C88.4095 214.417 89.0578 214.559 89.5764 214.842C90.1068 215.113 90.5252 215.478 90.8317 215.938C91.1381 216.386 91.3385 216.881 91.4328 217.423L89.8769 217.529C89.8062 217.199 89.6707 216.91 89.4703 216.663C89.2817 216.403 89.0283 216.203 88.7101 216.062C88.4036 215.908 88.0382 215.832 87.6139 215.832C86.9303 215.832 86.4234 215.967 86.0934 216.238C85.7634 216.51 85.5984 216.845 85.5984 217.246C85.5984 217.564 85.675 217.818 85.8282 218.006C85.9814 218.195 86.229 218.348 86.5708 218.466C86.9126 218.572 87.3664 218.672 87.9321 218.767C88.8986 218.92 89.6471 219.12 90.1775 219.368C90.7079 219.604 91.0792 219.898 91.2913 220.252C91.5035 220.605 91.6096 221.042 91.6096 221.56C91.6096 222.114 91.4446 222.591 91.1145 222.992C90.7963 223.381 90.3543 223.682 89.7885 223.894C89.2346 224.106 88.604 224.212 87.8968 224.212ZM99.3465 224C98.4389 224 97.7612 223.788 97.3133 223.364C96.8654 222.939 96.6415 222.291 96.6415 221.419V212.437H98.1266V221.419C98.1266 221.855 98.2268 222.179 98.4271 222.391C98.6275 222.591 98.934 222.692 99.3465 222.692H101.857V224H99.3465ZM93.5475 215.938V214.63H101.857V215.938H93.5475ZM118.356 224.283C117.001 224.283 115.958 223.959 115.227 223.31C114.496 222.65 114.101 221.802 114.042 220.765L115.616 220.658C115.687 221.425 115.97 221.973 116.465 222.303C116.971 222.633 117.602 222.798 118.356 222.798C118.863 222.798 119.341 222.727 119.788 222.586C120.236 222.432 120.596 222.191 120.867 221.861C121.15 221.519 121.291 221.065 121.291 220.499C121.291 219.945 121.167 219.492 120.92 219.138C120.672 218.773 120.331 218.507 119.895 218.342C119.47 218.166 118.987 218.077 118.445 218.077H117.455V216.592H118.445C118.881 216.592 119.282 216.527 119.647 216.398C120.012 216.268 120.301 216.062 120.513 215.779C120.737 215.484 120.849 215.101 120.849 214.63C120.849 213.981 120.643 213.492 120.23 213.162C119.818 212.82 119.223 212.649 118.445 212.649C117.655 212.649 117.054 212.809 116.641 213.127C116.241 213.445 115.999 213.881 115.917 214.435L114.325 214.329C114.443 213.386 114.856 212.626 115.563 212.048C116.27 211.459 117.231 211.164 118.445 211.164C119.258 211.164 119.965 211.306 120.566 211.589C121.167 211.86 121.627 212.249 121.945 212.756C122.275 213.262 122.44 213.863 122.44 214.559C122.44 215.337 122.193 215.967 121.698 216.451C121.215 216.922 120.496 217.246 119.541 217.423V217.105C120.566 217.223 121.38 217.588 121.981 218.201C122.582 218.814 122.882 219.58 122.882 220.499C122.882 221.301 122.688 221.984 122.299 222.55C121.91 223.116 121.374 223.546 120.69 223.841C120.007 224.136 119.229 224.283 118.356 224.283ZM125.528 222.197L130.478 213.18L131.892 213.251L126.942 222.267L125.528 222.197ZM128.71 224.283C127.802 224.283 127.013 224.018 126.341 223.487C125.681 222.957 125.174 222.203 124.82 221.224C124.467 220.246 124.29 219.085 124.29 217.741C124.29 216.386 124.467 215.219 124.82 214.241C125.174 213.262 125.681 212.508 126.341 211.978C127.013 211.435 127.802 211.164 128.71 211.164C129.629 211.164 130.419 211.435 131.079 211.978C131.739 212.508 132.246 213.262 132.6 214.241C132.953 215.219 133.13 216.386 133.13 217.741C133.13 219.085 132.953 220.246 132.6 221.224C132.246 222.203 131.739 222.957 131.079 223.487C130.419 224.018 129.629 224.283 128.71 224.283ZM128.71 222.798C129.299 222.798 129.8 222.591 130.213 222.179C130.637 221.766 130.961 221.183 131.185 220.429C131.421 219.663 131.539 218.767 131.539 217.741C131.539 216.692 131.421 215.791 131.185 215.036C130.961 214.27 130.637 213.681 130.213 213.268C129.8 212.856 129.299 212.649 128.71 212.649C128.132 212.649 127.631 212.856 127.207 213.268C126.783 213.681 126.453 214.27 126.217 215.036C125.993 215.791 125.881 216.692 125.881 217.741C125.881 218.767 125.993 219.663 126.217 220.429C126.453 221.183 126.783 221.766 127.207 222.179C127.631 222.591 128.132 222.798 128.71 222.798ZM148.622 224.212C147.796 224.212 147.083 224.012 146.482 223.611C145.881 223.21 145.416 222.645 145.085 221.914C144.767 221.183 144.608 220.317 144.608 219.315C144.608 218.313 144.767 217.447 145.085 216.716C145.416 215.985 145.881 215.419 146.482 215.019C147.083 214.618 147.796 214.417 148.622 214.417C149.282 214.417 149.859 214.577 150.354 214.895C150.849 215.201 151.209 215.549 151.433 215.938V211.447H152.918V224H151.574L151.521 222.586C151.262 223.092 150.879 223.493 150.372 223.788C149.865 224.071 149.282 224.212 148.622 224.212ZM148.71 222.798C149.276 222.798 149.759 222.656 150.16 222.373C150.572 222.091 150.885 221.69 151.097 221.171C151.321 220.641 151.433 220.022 151.433 219.315C151.433 218.584 151.321 217.959 151.097 217.441C150.885 216.922 150.572 216.527 150.16 216.256C149.747 215.973 149.252 215.832 148.675 215.832C147.908 215.832 147.296 216.144 146.836 216.769C146.388 217.382 146.164 218.23 146.164 219.315C146.164 220.387 146.388 221.236 146.836 221.861C147.296 222.485 147.92 222.798 148.71 222.798ZM158.215 224.212C157.625 224.212 157.095 224.106 156.624 223.894C156.152 223.682 155.781 223.387 155.51 223.01C155.239 222.621 155.103 222.173 155.103 221.666C155.103 220.865 155.339 220.246 155.81 219.81C156.294 219.362 157.048 219.038 158.073 218.837L161.22 218.201C161.22 217.399 161.038 216.804 160.672 216.415C160.319 216.026 159.806 215.832 159.134 215.832C158.486 215.832 157.979 215.979 157.614 216.274C157.248 216.557 156.995 216.969 156.853 217.511L155.28 217.388C155.457 216.504 155.875 215.791 156.535 215.248C157.207 214.694 158.073 214.417 159.134 214.417C160.266 214.417 161.144 214.759 161.769 215.443C162.393 216.115 162.706 217.046 162.706 218.236V222.126C162.706 222.338 162.753 222.485 162.847 222.568C162.941 222.65 163.083 222.692 163.271 222.692H163.872V224C163.802 224.012 163.69 224.018 163.537 224.018C163.383 224.029 163.236 224.035 163.095 224.035C162.694 224.035 162.352 223.971 162.069 223.841C161.798 223.711 161.592 223.505 161.45 223.222C161.309 222.927 161.232 222.55 161.22 222.091H161.503C161.421 222.491 161.22 222.857 160.902 223.187C160.596 223.505 160.207 223.758 159.735 223.947C159.264 224.124 158.757 224.212 158.215 224.212ZM158.356 222.904C158.993 222.904 159.523 222.798 159.947 222.586C160.372 222.362 160.69 222.055 160.902 221.666C161.114 221.265 161.22 220.806 161.22 220.287V219.474L158.356 220.04C157.72 220.158 157.278 220.34 157.03 220.588C156.783 220.823 156.659 221.136 156.659 221.525C156.659 221.961 156.806 222.303 157.101 222.55C157.407 222.786 157.826 222.904 158.356 222.904ZM166.836 226.652V225.344H167.914C168.244 225.344 168.486 225.291 168.639 225.185C168.804 225.09 168.928 224.931 169.01 224.707L169.346 223.823H168.834L165.351 214.63H166.977L169.824 222.444L172.493 214.63H174.12L170.319 225.185C170.142 225.691 169.877 226.063 169.523 226.298C169.17 226.534 168.68 226.652 168.056 226.652H166.836ZM180.124 224.212C179.311 224.212 178.61 224.071 178.02 223.788C177.431 223.505 176.965 223.128 176.624 222.656C176.294 222.173 176.105 221.637 176.058 221.047L177.614 220.941C177.708 221.519 177.961 221.973 178.374 222.303C178.798 222.633 179.382 222.798 180.124 222.798C180.82 222.798 181.356 222.698 181.733 222.497C182.122 222.297 182.317 221.984 182.317 221.56C182.317 221.289 182.252 221.065 182.122 220.888C181.992 220.712 181.751 220.564 181.397 220.446C181.044 220.317 180.525 220.193 179.841 220.075C178.934 219.91 178.221 219.71 177.702 219.474C177.195 219.226 176.836 218.92 176.624 218.555C176.411 218.189 176.305 217.753 176.305 217.246C176.305 216.704 176.441 216.221 176.712 215.796C176.983 215.372 177.384 215.036 177.914 214.789C178.445 214.541 179.093 214.417 179.859 214.417C180.637 214.417 181.285 214.559 181.804 214.842C182.334 215.113 182.753 215.478 183.059 215.938C183.366 216.386 183.566 216.881 183.66 217.423L182.104 217.529C182.034 217.199 181.898 216.91 181.698 216.663C181.509 216.403 181.256 216.203 180.937 216.062C180.631 215.908 180.266 215.832 179.841 215.832C179.158 215.832 178.651 215.967 178.321 216.238C177.991 216.51 177.826 216.845 177.826 217.246C177.826 217.564 177.902 217.818 178.056 218.006C178.209 218.195 178.456 218.348 178.798 218.466C179.14 218.572 179.594 218.672 180.16 218.767C181.126 218.92 181.875 219.12 182.405 219.368C182.935 219.604 183.307 219.898 183.519 220.252C183.731 220.605 183.837 221.042 183.837 221.56C183.837 222.114 183.672 222.591 183.342 222.992C183.024 223.381 182.582 223.682 182.016 223.894C181.462 224.106 180.831 224.212 180.124 224.212Z" fill="#002024"/>
<path d="M265.625 58V48.2604H262.187V46.9535H270.402V48.2604H266.963V58H265.625ZM271.545 58V46.9535H275.73C276.508 46.9535 277.177 47.0884 277.737 47.3581C278.297 47.6277 278.728 48.0167 279.028 48.5249C279.34 49.0228 279.495 49.614 279.495 50.2986C279.495 50.7965 279.376 51.2425 279.137 51.6366C278.909 52.0204 278.614 52.3264 278.251 52.5546C277.887 52.7827 277.509 52.9072 277.115 52.928L277.021 52.7879C277.696 52.7879 278.225 52.9435 278.608 53.2547C279.002 53.5659 279.231 54.0637 279.293 54.7483L279.604 58H278.251L277.97 54.8883C277.929 54.4319 277.763 54.0948 277.473 53.877C277.193 53.6592 276.731 53.5503 276.088 53.5503H272.883V58H271.545ZM272.883 52.2434H275.901C276.575 52.2434 277.11 52.0722 277.504 51.73C277.898 51.3877 278.095 50.9002 278.095 50.2675C278.095 49.6244 277.893 49.1317 277.488 48.7894C277.084 48.4368 276.498 48.2604 275.73 48.2604H272.883V52.2434ZM280.726 58L284.709 46.9535H286.514L290.497 58H289.034L287.93 54.8572H283.293L282.188 58H280.726ZM283.744 53.5503H287.478L285.611 48.1204L283.744 53.5503ZM291.935 58V46.9535H298.874V48.2604H292.604L293.273 47.5759V52.6479L292.604 51.9633H298.594V53.2391H292.604L293.273 52.5546V58H291.935ZM300.808 58V46.9535H307.747V48.2604H301.477L302.146 47.5759V52.6479L301.477 51.9633H307.467V53.2391H301.477L302.146 52.5546V58H300.808ZM309.681 58V46.9535H311.019V58H309.681ZM317.894 58.2489C316.908 58.2489 316.042 58.0207 315.296 57.5644C314.549 57.0976 313.968 56.4338 313.553 55.5729C313.138 54.712 312.931 53.6851 312.931 52.4923C312.931 51.2995 313.138 50.2727 313.553 49.4118C313.968 48.5405 314.549 47.8715 315.296 47.4047C316.042 46.938 316.908 46.7046 317.894 46.7046C319.232 46.7046 320.269 47.0417 321.005 47.7159C321.742 48.3901 322.224 49.308 322.452 50.4697L321.037 50.5631C320.881 49.7748 320.549 49.1525 320.041 48.6961C319.533 48.2397 318.817 48.0115 317.894 48.0115C317.188 48.0115 316.566 48.193 316.027 48.5561C315.498 48.9087 315.083 49.4221 314.782 50.0963C314.481 50.7602 314.331 51.5588 314.331 52.4923C314.331 53.4258 314.481 54.2245 314.782 54.8883C315.083 55.5521 315.498 56.0604 316.027 56.413C316.566 56.7657 317.188 56.942 317.894 56.942C318.858 56.942 319.605 56.6931 320.134 56.1952C320.663 55.687 320.995 55.0024 321.13 54.1415L322.546 54.2349C322.411 55.0335 322.146 55.7337 321.752 56.3353C321.358 56.9368 320.834 57.4088 320.181 57.7511C319.538 58.083 318.775 58.2489 317.894 58.2489Z" fill="#002024"/>
<rect x="262.432" y="70.8045" width="114.88" height="52.1356" fill="#FCFCFB"/>
<rect x="262.432" y="70.8045" width="114.88" height="52.1356" stroke="#2DB8CF" stroke-width="0.864356"/>
<g clip-path="url(#clip1_1179_35773)">
<path d="M278.898 101.61L285.531 94.9774L290.269 99.715L297.849 92.1349" stroke="#2DB8CF" stroke-width="1.72871"/>
<path d="M290.906 92.1348H297.846V99.0748" stroke="#2DB8CF" stroke-width="1.72871"/>
</g>
<path d="M314.01 99.0617V97.4436H323.925V99.0617H314.01ZM318.158 103.211V93.2947H319.777V103.211H318.158ZM325.805 104.372C325.805 103.335 325.964 102.402 326.282 101.572C326.614 100.728 327.188 99.9261 328.004 99.1654C328.834 98.4048 329.982 97.6373 331.448 96.8628C332.125 96.5032 332.672 96.1713 333.086 95.8671C333.501 95.5628 333.806 95.2378 333.999 94.8921C334.193 94.5463 334.29 94.1245 334.29 93.6266C334.29 93.1149 334.179 92.6724 333.958 92.299C333.736 91.9118 333.405 91.6075 332.962 91.3862C332.533 91.165 331.994 91.0543 331.344 91.0543C330.307 91.0543 329.484 91.324 328.875 91.8634C328.281 92.4027 327.907 93.1703 327.755 94.166L325.888 94.0415C326.054 92.6032 326.607 91.4554 327.548 90.5979C328.488 89.7405 329.753 89.3118 331.344 89.3118C332.353 89.3118 333.218 89.4916 333.937 89.8511C334.656 90.2107 335.202 90.7155 335.576 91.3655C335.963 92.0017 336.157 92.7415 336.157 93.5852C336.157 94.332 336.032 94.982 335.783 95.5351C335.534 96.0745 335.112 96.5793 334.518 97.0495C333.937 97.5197 333.135 98.0245 332.111 98.5638C331.226 99.0341 330.48 99.5112 329.871 99.9952C329.276 100.479 328.82 100.949 328.502 101.406C328.198 101.848 328.032 102.256 328.004 102.63H336.177V104.372H325.805ZM342.89 104.704C341.3 104.704 340.076 104.324 339.219 103.563C338.361 102.789 337.898 101.793 337.829 100.576L339.675 100.452C339.758 101.351 340.09 101.994 340.671 102.381C341.266 102.768 342.005 102.962 342.89 102.962C343.485 102.962 344.045 102.879 344.571 102.713C345.096 102.533 345.518 102.249 345.836 101.862C346.168 101.461 346.334 100.929 346.334 100.265C346.334 99.6149 346.189 99.0825 345.898 98.6676C345.608 98.2388 345.207 97.9277 344.695 97.7341C344.197 97.5266 343.63 97.4229 342.994 97.4229H341.833V95.6804H342.994C343.506 95.6804 343.976 95.6043 344.405 95.4522C344.834 95.3 345.172 95.058 345.421 94.7261C345.684 94.3804 345.815 93.9309 345.815 93.3777C345.815 92.6171 345.573 92.0431 345.089 91.6559C344.605 91.2549 343.907 91.0543 342.994 91.0543C342.068 91.0543 341.362 91.241 340.878 91.6144C340.408 91.9878 340.125 92.4995 340.028 93.1495L338.161 93.0251C338.299 91.9187 338.783 91.0267 339.613 90.349C340.443 89.6575 341.57 89.3118 342.994 89.3118C343.948 89.3118 344.778 89.4777 345.484 89.8097C346.189 90.1277 346.728 90.5841 347.102 91.1788C347.489 91.7735 347.682 92.4788 347.682 93.2947C347.682 94.2075 347.392 94.9474 346.811 95.5144C346.244 96.0676 345.401 96.4479 344.28 96.6553V96.2819C345.484 96.4202 346.438 96.849 347.143 97.5681C347.848 98.2873 348.201 99.1862 348.201 100.265C348.201 101.205 347.973 102.007 347.517 102.671C347.06 103.335 346.431 103.84 345.629 104.186C344.827 104.531 343.914 104.704 342.89 104.704ZM352.01 96.7798C351.18 96.7798 350.475 96.4686 349.894 95.8463C349.313 95.2101 349.023 94.3043 349.023 93.1288C349.023 91.9394 349.313 91.0336 349.894 90.4112C350.475 89.7889 351.18 89.4777 352.01 89.4777C352.84 89.4777 353.545 89.7889 354.126 90.4112C354.707 91.0336 354.997 91.9394 354.997 93.1288C354.997 94.3043 354.707 95.2101 354.126 95.8463C353.545 96.4686 352.84 96.7798 352.01 96.7798ZM352.01 95.4937C352.466 95.4937 352.826 95.2862 353.089 94.8713C353.365 94.4564 353.504 93.8756 353.504 93.1288C353.504 92.382 353.365 91.8011 353.089 91.3862C352.826 90.9713 352.466 90.7639 352.01 90.7639C351.554 90.7639 351.187 90.9713 350.911 91.3862C350.648 91.8011 350.516 92.382 350.516 93.1288C350.516 93.8756 350.648 94.4564 350.911 94.8713C351.187 95.2862 351.554 95.4937 352.01 95.4937ZM349.832 104.372L358.669 89.6437H360.246L351.408 104.372H349.832ZM358.067 104.538C357.238 104.538 356.532 104.227 355.951 103.605C355.371 102.969 355.08 102.063 355.08 100.887C355.08 99.6979 355.371 98.792 355.951 98.1697C356.532 97.5474 357.238 97.2362 358.067 97.2362C358.897 97.2362 359.602 97.5474 360.183 98.1697C360.764 98.792 361.055 99.6979 361.055 100.887C361.055 102.063 360.764 102.969 360.183 103.605C359.602 104.227 358.897 104.538 358.067 104.538ZM358.067 103.252C358.524 103.252 358.883 103.045 359.146 102.63C359.423 102.215 359.561 101.634 359.561 100.887C359.561 100.14 359.423 99.5596 359.146 99.1447C358.883 98.7298 358.524 98.5224 358.067 98.5224C357.611 98.5224 357.245 98.7298 356.968 99.1447C356.705 99.5596 356.574 100.14 356.574 100.887C356.574 101.634 356.705 102.215 356.968 102.63C357.245 103.045 357.611 103.252 358.067 103.252Z" fill="#002024"/>
<path d="M262.311 151.202L266.294 140.155H268.099L272.082 151.202H270.619L269.515 148.059H264.878L263.774 151.202H262.311ZM265.329 146.752H269.064L267.197 141.322L265.329 146.752ZM277.517 151.451C276.667 151.451 275.925 151.285 275.292 150.953C274.67 150.621 274.188 150.149 273.845 149.537C273.513 148.915 273.347 148.184 273.347 147.343V140.14H274.685V147.343C274.685 148.235 274.929 148.925 275.417 149.413C275.915 149.9 276.615 150.144 277.517 150.144C278.409 150.144 279.099 149.9 279.586 149.413C280.084 148.925 280.333 148.235 280.333 147.343V140.14H281.671V147.343C281.671 148.184 281.5 148.915 281.158 149.537C280.826 150.149 280.349 150.621 279.726 150.953C279.104 151.285 278.368 151.451 277.517 151.451ZM284.535 151.202V140.155H287.958C289.659 140.155 290.966 140.638 291.879 141.602C292.802 142.557 293.264 143.921 293.264 145.694C293.264 147.458 292.813 148.816 291.91 149.771C291.008 150.725 289.722 151.202 288.052 151.202H284.535ZM285.874 149.895H287.958C289.255 149.895 290.23 149.548 290.883 148.853C291.537 148.147 291.863 147.094 291.863 145.694C291.863 144.273 291.537 143.215 290.883 142.52C290.23 141.815 289.255 141.462 287.958 141.462H285.874V149.895ZM295.186 151.202V140.155H296.524V151.202H295.186ZM299.076 151.202V140.155H306.015V141.462H300.414V145.025H305.828V146.301H300.414V149.895H306.139V151.202H299.076ZM308.299 151.202V140.155H310.197L315.658 149.864V140.155H316.996V151.202H315.004L309.637 141.68V151.202H308.299ZM323.88 151.451C322.895 151.451 322.029 151.223 321.282 150.766C320.535 150.3 319.954 149.636 319.539 148.775C319.124 147.914 318.917 146.887 318.917 145.694C318.917 144.501 319.124 143.475 319.539 142.614C319.954 141.742 320.535 141.073 321.282 140.607C322.029 140.14 322.895 139.907 323.88 139.907C325.218 139.907 326.255 140.244 326.992 140.918C327.728 141.592 328.211 142.51 328.439 143.672L327.023 143.765C326.867 142.977 326.535 142.354 326.027 141.898C325.519 141.442 324.803 141.213 323.88 141.213C323.175 141.213 322.552 141.395 322.013 141.758C321.484 142.111 321.069 142.624 320.768 143.298C320.468 143.962 320.317 144.761 320.317 145.694C320.317 146.628 320.468 147.426 320.768 148.09C321.069 148.754 321.484 149.262 322.013 149.615C322.552 149.968 323.175 150.144 323.88 150.144C324.845 150.144 325.592 149.895 326.121 149.397C326.65 148.889 326.981 148.204 327.116 147.343L328.532 147.437C328.397 148.235 328.133 148.936 327.739 149.537C327.344 150.139 326.821 150.611 326.167 150.953C325.524 151.285 324.762 151.451 323.88 151.451ZM330.618 151.202V140.155H337.557V141.462H331.956V145.025H337.37V146.301H331.956V149.895H337.682V151.202H330.618Z" fill="#002024"/>
<rect x="262.432" y="164.006" width="114.88" height="52.1356" fill="#FCFCFB"/>
<rect x="262.432" y="164.006" width="114.88" height="52.1356" stroke="#2DB8CF" stroke-width="0.864356"/>
<g clip-path="url(#clip2_1179_35773)">
<path d="M278.865 196.878V195.039C278.865 195.039 279.902 194.261 281.458 194.261C283.014 194.261 284.051 195.039 284.051 195.039V196.878" stroke="#2DB8CF" stroke-width="1.72871"/>
<path d="M292.695 196.878V195.039C292.695 195.039 293.733 194.261 295.288 194.261C296.844 194.261 297.881 195.039 297.881 195.039V196.878" stroke="#2DB8CF" stroke-width="1.72871"/>
<path d="M279.73 189.926C279.73 190.384 279.913 190.824 280.237 191.148C280.561 191.473 281.001 191.655 281.459 191.655C281.918 191.655 282.357 191.473 282.682 191.148C283.006 190.824 283.188 190.384 283.188 189.926C283.188 189.467 283.006 189.028 282.682 188.704C282.357 188.379 281.918 188.197 281.459 188.197C281.001 188.197 280.561 188.379 280.237 188.704C279.913 189.028 279.73 189.467 279.73 189.926Z" stroke="#2DB8CF" stroke-width="1.72871"/>
<path d="M293.559 189.926C293.559 190.384 293.741 190.824 294.065 191.148C294.389 191.473 294.829 191.655 295.287 191.655C295.746 191.655 296.185 191.473 296.51 191.148C296.834 190.824 297.016 190.384 297.016 189.926C297.016 189.467 296.834 189.028 296.51 188.704C296.185 188.379 295.746 188.197 295.287 188.197C294.829 188.197 294.389 188.379 294.065 188.704C293.741 189.028 293.559 189.467 293.559 189.926Z" stroke="#2DB8CF" stroke-width="1.72871"/>
<path d="M284.051 196.866L284.051 193.815C284.051 193.815 285.78 192.519 288.373 192.519C290.966 192.519 292.694 193.815 292.694 193.815V196.866" stroke="#2DB8CF" stroke-width="1.72871"/>
<path d="M286.064 187.63C286.064 187.933 286.124 188.233 286.24 188.514C286.356 188.794 286.526 189.048 286.741 189.263C286.955 189.477 287.21 189.647 287.49 189.764C287.77 189.88 288.071 189.939 288.374 189.939C288.677 189.939 288.978 189.88 289.258 189.764C289.538 189.647 289.793 189.477 290.007 189.263C290.222 189.048 290.392 188.794 290.508 188.514C290.624 188.233 290.684 187.933 290.684 187.63C290.684 187.326 290.624 187.026 290.508 186.746C290.392 186.466 290.222 186.211 290.007 185.997C289.793 185.782 289.538 185.612 289.258 185.496C288.978 185.38 288.677 185.32 288.374 185.32C288.071 185.32 287.77 185.38 287.49 185.496C287.21 185.612 286.955 185.782 286.741 185.997C286.526 186.211 286.356 186.466 286.24 186.746C286.124 187.026 286.064 187.326 286.064 187.63Z" stroke="#2DB8CF" stroke-width="1.72871"/>
</g>
<path d="M314.01 192.264V190.646H323.925V192.264H314.01ZM318.158 196.413V186.497H319.777V196.413H318.158ZM330.867 197.906C329.276 197.906 328.052 197.526 327.195 196.765C326.338 195.991 325.874 194.995 325.805 193.778L327.651 193.654C327.734 194.552 328.066 195.196 328.647 195.583C329.242 195.97 329.982 196.164 330.867 196.164C331.461 196.164 332.022 196.081 332.547 195.915C333.073 195.735 333.494 195.451 333.812 195.064C334.144 194.663 334.31 194.131 334.31 193.467C334.31 192.817 334.165 192.284 333.875 191.869C333.584 191.441 333.183 191.13 332.672 190.936C332.174 190.729 331.607 190.625 330.97 190.625H329.809V188.882H330.97C331.482 188.882 331.952 188.806 332.381 188.654C332.81 188.502 333.149 188.26 333.398 187.928C333.66 187.582 333.792 187.133 333.792 186.58C333.792 185.819 333.55 185.245 333.066 184.858C332.582 184.457 331.883 184.256 330.97 184.256C330.044 184.256 329.339 184.443 328.855 184.816C328.384 185.19 328.101 185.701 328.004 186.351L326.137 186.227C326.275 185.121 326.759 184.229 327.589 183.551C328.419 182.859 329.546 182.514 330.97 182.514C331.925 182.514 332.755 182.68 333.46 183.012C334.165 183.33 334.705 183.786 335.078 184.381C335.465 184.975 335.659 185.681 335.659 186.497C335.659 187.409 335.368 188.149 334.787 188.716C334.22 189.269 333.377 189.65 332.257 189.857V189.484C333.46 189.622 334.414 190.051 335.119 190.77C335.825 191.489 336.177 192.388 336.177 193.467C336.177 194.407 335.949 195.209 335.493 195.873C335.036 196.537 334.407 197.042 333.605 197.388C332.803 197.733 331.89 197.906 330.867 197.906ZM339.281 195.458L345.089 184.879L346.749 184.962L340.941 195.541L339.281 195.458ZM343.015 197.906C341.95 197.906 341.023 197.595 340.235 196.973C339.461 196.35 338.866 195.465 338.451 194.317C338.036 193.169 337.829 191.807 337.829 190.231C337.829 188.64 338.036 187.271 338.451 186.123C338.866 184.975 339.461 184.09 340.235 183.468C341.023 182.832 341.95 182.514 343.015 182.514C344.094 182.514 345.02 182.832 345.795 183.468C346.569 184.09 347.164 184.975 347.579 186.123C347.994 187.271 348.201 188.64 348.201 190.231C348.201 191.807 347.994 193.169 347.579 194.317C347.164 195.465 346.569 196.35 345.795 196.973C345.02 197.595 344.094 197.906 343.015 197.906ZM343.015 196.164C343.706 196.164 344.294 195.922 344.778 195.438C345.276 194.953 345.656 194.269 345.919 193.384C346.196 192.485 346.334 191.434 346.334 190.231C346.334 189 346.196 187.942 345.919 187.057C345.656 186.158 345.276 185.466 344.778 184.982C344.294 184.498 343.706 184.256 343.015 184.256C342.337 184.256 341.75 184.498 341.252 184.982C340.754 185.466 340.367 186.158 340.09 187.057C339.827 187.942 339.696 189 339.696 190.231C339.696 191.434 339.827 192.485 340.09 193.384C340.367 194.269 340.754 194.953 341.252 195.438C341.75 195.922 342.337 196.164 343.015 196.164ZM352.01 189.982C351.18 189.982 350.475 189.671 349.894 189.048C349.313 188.412 349.023 187.506 349.023 186.331C349.023 185.141 349.313 184.235 349.894 183.613C350.475 182.991 351.18 182.68 352.01 182.68C352.84 182.68 353.545 182.991 354.126 183.613C354.707 184.235 354.997 185.141 354.997 186.331C354.997 187.506 354.707 188.412 354.126 189.048C353.545 189.671 352.84 189.982 352.01 189.982ZM352.01 188.696C352.466 188.696 352.826 188.488 353.089 188.073C353.365 187.658 353.504 187.077 353.504 186.331C353.504 185.584 353.365 185.003 353.089 184.588C352.826 184.173 352.466 183.966 352.01 183.966C351.554 183.966 351.187 184.173 350.911 184.588C350.648 185.003 350.516 185.584 350.516 186.331C350.516 187.077 350.648 187.658 350.911 188.073C351.187 188.488 351.554 188.696 352.01 188.696ZM349.832 197.574L358.669 182.846H360.246L351.408 197.574H349.832ZM358.067 197.74C357.238 197.74 356.532 197.429 355.951 196.807C355.371 196.171 355.08 195.265 355.08 194.089C355.08 192.9 355.371 191.994 355.951 191.372C356.532 190.749 357.238 190.438 358.067 190.438C358.897 190.438 359.602 190.749 360.183 191.372C360.764 191.994 361.055 192.9 361.055 194.089C361.055 195.265 360.764 196.171 360.183 196.807C359.602 197.429 358.897 197.74 358.067 197.74ZM358.067 196.454C358.524 196.454 358.883 196.247 359.146 195.832C359.423 195.417 359.561 194.836 359.561 194.089C359.561 193.342 359.423 192.761 359.146 192.347C358.883 191.932 358.524 191.724 358.067 191.724C357.611 191.724 357.245 191.932 356.968 192.347C356.705 192.761 356.574 193.342 356.574 194.089C356.574 194.836 356.705 195.417 356.968 195.832C357.245 196.247 357.611 196.454 358.067 196.454Z" fill="#002024"/>
<path d="M396.431 105.399V94.3529H400.617C401.395 94.3529 402.064 94.4878 402.624 94.7575C403.184 95.0271 403.614 95.4161 403.915 95.9243C404.226 96.4222 404.382 97.0134 404.382 97.698C404.382 98.1959 404.262 98.6419 404.024 99.036C403.796 99.4198 403.5 99.7258 403.137 99.954C402.774 100.182 402.395 100.307 402.001 100.327L401.908 100.187C402.582 100.187 403.111 100.343 403.495 100.654C403.889 100.965 404.117 101.463 404.179 102.148L404.491 105.399H403.137L402.857 102.288C402.816 101.831 402.65 101.494 402.359 101.276C402.079 101.059 401.618 100.95 400.974 100.95H397.769V105.399H396.431ZM397.769 99.6428H400.788C401.462 99.6428 401.996 99.4717 402.39 99.1294C402.784 98.7871 402.981 98.2996 402.981 97.6669C402.981 97.0238 402.779 96.5311 402.375 96.1888C401.97 95.8362 401.384 95.6599 400.617 95.6599H397.769V99.6428ZM406.885 105.399V94.3529H413.824V95.6599H408.223V99.2227H413.637V100.499H408.223V104.093H413.948V105.399H406.885ZM415.139 105.399L419.122 94.3529H420.927L424.91 105.399H423.447L422.343 102.257H417.706L416.602 105.399H415.139ZM418.157 100.95H421.891L420.024 95.5198L418.157 100.95ZM430.413 105.648C429.427 105.648 428.561 105.42 427.814 104.964C427.068 104.497 426.487 103.833 426.072 102.972C425.657 102.111 425.449 101.085 425.449 99.8917C425.449 98.6989 425.657 97.6721 426.072 96.8112C426.487 95.9399 427.068 95.2709 427.814 94.8041C428.561 94.3374 429.427 94.104 430.413 94.104C431.751 94.104 432.788 94.4411 433.524 95.1153C434.261 95.7895 434.743 96.7075 434.971 97.8691L433.555 97.9625C433.4 97.1742 433.068 96.5519 432.56 96.0955C432.051 95.6391 431.336 95.4109 430.413 95.4109C429.707 95.4109 429.085 95.5924 428.546 95.9555C428.017 96.3081 427.602 96.8215 427.301 97.4957C427 98.1596 426.85 98.9582 426.85 99.8917C426.85 100.825 427 101.624 427.301 102.288C427.602 102.952 428.017 103.46 428.546 103.812C429.085 104.165 429.707 104.341 430.413 104.341C431.377 104.341 432.124 104.093 432.653 103.595C433.182 103.086 433.514 102.402 433.649 101.541L435.065 101.634C434.93 102.433 434.665 103.133 434.271 103.735C433.877 104.336 433.353 104.808 432.7 105.15C432.057 105.482 431.294 105.648 430.413 105.648ZM437.151 105.399V94.3529H438.489V99.7206L437.804 99.1916H444.728L444.043 99.7206V94.3529H445.381V105.399H444.043V99.9695L444.728 100.499H437.804L438.489 99.9695V105.399H437.151Z" fill="#002024"/>
<rect x="395.432" y="118.204" width="114.88" height="52.1356" fill="#FCFCFB"/>
<rect x="395.432" y="118.204" width="114.88" height="52.1356" stroke="#2DB8CF" stroke-width="0.864356"/>
<path d="M419.643 144.272C419.643 144.73 419.825 145.17 420.149 145.494C420.473 145.818 420.913 146 421.371 146C421.83 146 422.269 145.818 422.594 145.494C422.918 145.17 423.1 144.73 423.1 144.272C423.1 143.813 422.918 143.373 422.594 143.049C422.269 142.725 421.83 142.543 421.371 142.543C420.913 142.543 420.473 142.725 420.149 143.049C419.825 143.373 419.643 143.813 419.643 144.272Z" stroke="#2DB8CF" stroke-width="1.72871"/>
<path d="M425.039 147.939C427.064 145.914 427.064 142.63 425.039 140.605C423.014 138.579 419.73 138.579 417.705 140.605C415.679 142.63 415.679 145.914 417.705 147.939" stroke="#2DB8CF" stroke-width="1.72871"/>
<path d="M427.484 150.384C430.859 147.008 430.859 141.535 427.484 138.16C424.108 134.784 418.636 134.784 415.26 138.16C411.885 141.535 411.885 147.008 415.26 150.384" stroke="#2DB8CF" stroke-width="1.72871"/>
<path d="M447.01 146.461V144.843H456.925V146.461H447.01ZM451.158 150.61V140.694H452.777V150.61H451.158ZM463.991 152.104C463.023 152.104 462.145 151.938 461.357 151.606C460.568 151.274 459.946 150.783 459.49 150.133C459.033 149.483 458.805 148.681 458.805 147.727C458.805 146.662 459.123 145.783 459.759 145.092C460.396 144.387 461.239 143.91 462.29 143.661L462.332 144.076C461.488 143.84 460.803 143.46 460.278 142.935C459.766 142.395 459.51 141.669 459.51 140.756C459.51 139.982 459.704 139.29 460.091 138.682C460.478 138.073 461.004 137.596 461.668 137.251C462.345 136.891 463.12 136.711 463.991 136.711C464.862 136.711 465.637 136.891 466.315 137.251C466.992 137.596 467.518 138.073 467.891 138.682C468.278 139.29 468.472 139.982 468.472 140.756C468.472 141.669 468.216 142.395 467.705 142.935C467.193 143.46 466.508 143.84 465.651 144.076L465.692 143.661C466.757 143.91 467.601 144.387 468.223 145.092C468.859 145.783 469.177 146.662 469.177 147.727C469.177 148.681 468.949 149.483 468.493 150.133C468.036 150.783 467.414 151.274 466.626 151.606C465.851 151.938 464.973 152.104 463.991 152.104ZM463.991 150.361C464.959 150.361 465.755 150.14 466.377 149.697C466.999 149.241 467.31 148.549 467.31 147.623C467.31 146.765 467.034 146.081 466.481 145.569C465.927 145.044 465.098 144.781 463.991 144.781C462.899 144.781 462.069 145.044 461.502 145.569C460.949 146.081 460.672 146.765 460.672 147.623C460.672 148.549 460.983 149.241 461.606 149.697C462.228 150.14 463.023 150.361 463.991 150.361ZM463.991 143.121C464.78 143.121 465.409 142.928 465.879 142.54C466.363 142.139 466.605 141.545 466.605 140.756C466.605 140.051 466.37 139.491 465.9 139.076C465.443 138.661 464.807 138.454 463.991 138.454C463.189 138.454 462.553 138.661 462.083 139.076C461.613 139.491 461.377 140.051 461.377 140.756C461.377 141.545 461.613 142.139 462.083 142.54C462.567 142.928 463.203 143.121 463.991 143.121ZM472.281 149.656L478.089 139.076L479.749 139.159L473.941 149.739L472.281 149.656ZM476.015 152.104C474.95 152.104 474.023 151.792 473.235 151.17C472.461 150.548 471.866 149.663 471.451 148.515C471.036 147.367 470.829 146.005 470.829 144.428C470.829 142.838 471.036 141.469 471.451 140.321C471.866 139.173 472.461 138.288 473.235 137.665C474.023 137.029 474.95 136.711 476.015 136.711C477.094 136.711 478.02 137.029 478.795 137.665C479.569 138.288 480.164 139.173 480.579 140.321C480.994 141.469 481.201 142.838 481.201 144.428C481.201 146.005 480.994 147.367 480.579 148.515C480.164 149.663 479.569 150.548 478.795 151.17C478.02 151.792 477.094 152.104 476.015 152.104ZM476.015 150.361C476.706 150.361 477.294 150.119 477.778 149.635C478.276 149.151 478.656 148.466 478.919 147.581C479.196 146.682 479.334 145.631 479.334 144.428C479.334 143.197 479.196 142.139 478.919 141.254C478.656 140.355 478.276 139.664 477.778 139.18C477.294 138.696 476.706 138.454 476.015 138.454C475.337 138.454 474.75 138.696 474.252 139.18C473.754 139.664 473.367 140.355 473.09 141.254C472.827 142.139 472.696 143.197 472.696 144.428C472.696 145.631 472.827 146.682 473.09 147.581C473.367 148.466 473.754 149.151 474.252 149.635C474.75 150.119 475.337 150.361 476.015 150.361ZM485.01 144.179C484.18 144.179 483.475 143.868 482.894 143.246C482.313 142.61 482.023 141.704 482.023 140.528C482.023 139.339 482.313 138.433 482.894 137.811C483.475 137.188 484.18 136.877 485.01 136.877C485.84 136.877 486.545 137.188 487.126 137.811C487.707 138.433 487.997 139.339 487.997 140.528C487.997 141.704 487.707 142.61 487.126 143.246C486.545 143.868 485.84 144.179 485.01 144.179ZM485.01 142.893C485.466 142.893 485.826 142.686 486.089 142.271C486.365 141.856 486.504 141.275 486.504 140.528C486.504 139.781 486.365 139.201 486.089 138.786C485.826 138.371 485.466 138.163 485.01 138.163C484.554 138.163 484.187 138.371 483.911 138.786C483.648 139.201 483.516 139.781 483.516 140.528C483.516 141.275 483.648 141.856 483.911 142.271C484.187 142.686 484.554 142.893 485.01 142.893ZM482.832 151.772L491.669 137.043H493.246L484.408 151.772H482.832ZM491.067 151.938C490.238 151.938 489.532 151.627 488.951 151.004C488.371 150.368 488.08 149.462 488.08 148.287C488.08 147.097 488.371 146.191 488.951 145.569C489.532 144.947 490.238 144.636 491.067 144.636C491.897 144.636 492.602 144.947 493.183 145.569C493.764 146.191 494.055 147.097 494.055 148.287C494.055 149.462 493.764 150.368 493.183 151.004C492.602 151.627 491.897 151.938 491.067 151.938ZM491.067 150.652C491.524 150.652 491.883 150.444 492.146 150.029C492.423 149.614 492.561 149.033 492.561 148.287C492.561 147.54 492.423 146.959 492.146 146.544C491.883 146.129 491.524 145.922 491.067 145.922C490.611 145.922 490.245 146.129 489.968 146.544C489.705 146.959 489.574 147.54 489.574 148.287C489.574 149.033 489.705 149.614 489.968 150.029C490.245 150.444 490.611 150.652 491.067 150.652Z" fill="#002024"/>
</g>
<defs>
<filter id="filter0_f_1179_35773" x="94" y="-20" width="437" height="325" filterUnits="userSpaceOnUse" color-interpolation-filters="sRGB">
<feFlood flood-opacity="0" result="BackgroundImageFix"/>
<feBlend mode="normal" in="SourceGraphic" in2="BackgroundImageFix" result="shape"/>
<feGaussianBlur stdDeviation="60" result="effect1_foregroundBlur_1179_35773"/>
</filter>
<radialGradient id="paint0_radial_1179_35773" cx="0" cy="0" r="1" gradientUnits="userSpaceOnUse" gradientTransform="translate(312.5 142.5) rotate(90) scale(42.5 98.5)">
<stop stop-color="#B8FFE3"/>
<stop offset="1" stop-color="#2DB8CF" stop-opacity="0"/>
</radialGradient>
<clipPath id="clip0_1179_35773">
<rect width="512" height="260" fill="white"/>
</clipPath>
<clipPath id="clip1_1179_35773">
<rect width="20.7445" height="20.7445" fill="white" transform="translate(278 86.5)"/>
</clipPath>
<clipPath id="clip2_1179_35773">
<rect width="20.7445" height="20.7445" fill="white" transform="translate(278 179.702)"/>
</clipPath>
</defs>
</svg>
