<svg width="720" height="600" viewBox="0 0 720 600" fill="none" xmlns="http://www.w3.org/2000/svg">
<g clip-path="url(#clip0_1209_57082)">
<g filter="url(#filter0_f_1209_57082)" style="mix-blend-mode:plus-darker">
<ellipse cx="373.5" cy="322.5" rx="164.5" ry="166.5" fill="url(#paint0_radial_1209_57082)"/>
</g>
<path d="M529 275.5V395M279.5 298H362.5V250H469" stroke="#2DB8CF" stroke-width="1.5"/>
<path d="M115 329V503.5" stroke="#2DB8CF" stroke-width="1.5"/>
<path d="M527.5 418V483.5H148" stroke="#2DB8CF" stroke-width="1.5"/>
<path d="M467 122H566V238.5" stroke="#2DB8CF" stroke-width="1.5"/>
<path d="M325.5 162V206H184.5V256" stroke="#2DB8CF" stroke-width="1.5"/>
<path d="M180.5 327.5V398.5H514" stroke="#2DB8CF" stroke-width="1.5"/>
<rect x="181.75" y="78.75" width="307.5" height="82.5" fill="#FCFCFB"/>
<rect x="181.75" y="78.75" width="307.5" height="82.5" stroke="#2DB8CF" stroke-width="1.5"/>
<path d="M213.667 133.333L217.667 129.333" stroke="#2DB8CF" stroke-width="2.5"/>
<path d="M240.334 133.333L236.334 129.333" stroke="#2DB8CF" stroke-width="2.5"/>
<path d="M213.667 106.667L217.667 110.667" stroke="#2DB8CF" stroke-width="2.5"/>
<path d="M240.334 106.667L236.334 110.667" stroke="#2DB8CF" stroke-width="2.5"/>
<path d="M228.931 107.958L216.653 123.808L224.757 123.831V132.042L237.036 116.122L228.931 116.145V107.958Z" stroke="#2DB8CF" stroke-width="2.5"/>
<path d="M259.722 128V112.309H264.496C265.586 112.309 266.537 112.501 267.347 112.884C268.157 113.267 268.783 113.819 269.225 114.541C269.667 115.248 269.888 116.103 269.888 117.105C269.888 118.107 269.667 118.968 269.225 119.69C268.783 120.398 268.157 120.943 267.347 121.326C266.537 121.709 265.586 121.9 264.496 121.9H261.623V128H259.722ZM261.623 120.044H264.275C265.513 120.044 266.426 119.794 267.015 119.293C267.605 118.777 267.899 118.048 267.899 117.105C267.899 116.147 267.605 115.418 267.015 114.917C266.426 114.416 265.513 114.165 264.275 114.165H261.623V120.044ZM272.532 128V112.309H282.079V114.165H274.432V119.226H281.814V121.038H274.432V126.144H282.256V128H272.532ZM284.899 128V112.309H289.673C291.323 112.309 292.627 112.729 293.584 113.569C294.542 114.394 295.021 115.536 295.021 116.994C295.021 117.731 294.851 118.386 294.513 118.961C294.174 119.521 293.739 119.963 293.209 120.287C292.678 120.611 292.133 120.795 291.573 120.84L291.485 120.574C292.531 120.633 293.312 120.884 293.828 121.326C294.358 121.768 294.667 122.49 294.756 123.492L295.154 128H293.253L292.877 123.735C292.833 123.248 292.715 122.858 292.524 122.563C292.347 122.254 292.06 122.033 291.662 121.9C291.279 121.753 290.748 121.679 290.071 121.679H286.8V128H284.899ZM286.8 119.823H289.673C290.763 119.823 291.595 119.58 292.17 119.094C292.745 118.593 293.032 117.893 293.032 116.994C293.032 116.081 292.745 115.381 292.17 114.895C291.595 114.408 290.763 114.165 289.673 114.165H286.8V119.823ZM298.372 128V112.309H308.096V114.121H299.3L300.272 113.193V120.398L299.3 119.425H307.698V121.237H299.3L300.272 120.265V128H298.372ZM315.601 128.354C314.363 128.354 313.31 128.037 312.441 127.403C311.586 126.77 310.93 125.842 310.474 124.619C310.032 123.396 309.811 121.915 309.811 120.177C309.811 118.409 310.032 116.913 310.474 115.69C310.93 114.467 311.586 113.539 312.441 112.906C313.31 112.272 314.363 111.955 315.601 111.955C316.838 111.955 317.885 112.272 318.739 112.906C319.608 113.539 320.264 114.467 320.706 115.69C321.163 116.913 321.391 118.409 321.391 120.177C321.391 121.915 321.163 123.396 320.706 124.619C320.264 125.842 319.608 126.77 318.739 127.403C317.885 128.037 316.838 128.354 315.601 128.354ZM315.601 126.497C316.411 126.497 317.096 126.261 317.656 125.79C318.231 125.304 318.665 124.589 318.96 123.646C319.255 122.703 319.402 121.547 319.402 120.177C319.402 118.806 319.255 117.65 318.96 116.707C318.665 115.749 318.231 115.027 317.656 114.541C317.096 114.055 316.411 113.812 315.601 113.812C314.791 113.812 314.098 114.055 313.523 114.541C312.964 115.027 312.536 115.749 312.242 116.707C311.947 117.65 311.8 118.806 311.8 120.177C311.8 121.547 311.947 122.703 312.242 123.646C312.536 124.589 312.964 125.304 313.523 125.79C314.098 126.261 314.791 126.497 315.601 126.497ZM323.327 128V112.309H328.101C329.751 112.309 331.055 112.729 332.013 113.569C332.97 114.394 333.449 115.536 333.449 116.994C333.449 117.731 333.28 118.386 332.941 118.961C332.602 119.521 332.167 119.963 331.637 120.287C331.106 120.611 330.561 120.795 330.001 120.84L329.913 120.574C330.959 120.633 331.74 120.884 332.256 121.326C332.786 121.768 333.095 122.49 333.184 123.492L333.582 128H331.681L331.305 123.735C331.261 123.248 331.143 122.858 330.952 122.563C330.775 122.254 330.488 122.033 330.09 121.9C329.707 121.753 329.176 121.679 328.499 121.679H325.228V128H323.327ZM325.228 119.823H328.101C329.191 119.823 330.024 119.58 330.598 119.094C331.173 118.593 331.46 117.893 331.46 116.994C331.46 116.081 331.173 115.381 330.598 114.895C330.024 114.408 329.191 114.165 328.101 114.165H325.228V119.823ZM340.38 126.232L337.418 114.077H337.595V128H335.695V112.309H338.568L341.662 125.215H340.778L343.872 112.309H346.745V128H344.844V114.077H345.021L342.059 126.232H340.38ZM347.974 128L352.747 112.309H355.311L360.084 128H358.051L354.029 114.033L350.007 128H347.974ZM350.382 123.536L351.045 121.679H357.012L357.675 123.536H350.382ZM361.755 128V112.309H364.452L370.021 125.834V112.309H371.921V128H369.225L363.656 114.475V128H361.755ZM379.692 128.354C378.44 128.354 377.379 128.022 376.51 127.359C375.64 126.696 374.977 125.753 374.521 124.53C374.079 123.307 373.858 121.856 373.858 120.177C373.858 118.482 374.079 117.024 374.521 115.801C374.977 114.578 375.64 113.635 376.51 112.972C377.379 112.294 378.44 111.955 379.692 111.955C381.077 111.955 382.256 112.412 383.228 113.326C384.2 114.224 384.849 115.484 385.173 117.105L383.14 117.237C382.889 116.103 382.454 115.248 381.836 114.674C381.232 114.099 380.517 113.812 379.692 113.812C378.852 113.812 378.145 114.062 377.57 114.563C377.01 115.049 376.583 115.771 376.289 116.729C375.994 117.672 375.847 118.821 375.847 120.177C375.847 121.517 375.994 122.659 376.289 123.602C376.583 124.545 377.01 125.267 377.57 125.768C378.145 126.254 378.852 126.497 379.692 126.497C380.605 126.497 381.379 126.18 382.012 125.547C382.646 124.913 383.073 123.97 383.294 122.718L385.305 122.829C385.025 124.552 384.392 125.908 383.405 126.895C382.418 127.867 381.18 128.354 379.692 128.354ZM387.816 128V112.309H397.363V114.165H389.717V119.226H397.098V121.038H389.717V126.144H397.54V128H387.816Z" fill="#002024"/>
<g clip-path="url(#clip1_1209_57082)">
<path fill-rule="evenodd" clip-rule="evenodd" d="M459.79 112.422L440.865 131.347L430.534 121.016L434.006 117.544L440.865 124.402L456.318 108.95L459.79 112.422Z" fill="#002024"/>
</g>
<rect x="398.75" y="207.75" width="281.5" height="82.5" fill="#FCFCFB"/>
<rect x="398.75" y="207.75" width="281.5" height="82.5" stroke="#2DB8CF" stroke-width="1.5"/>
<path d="M433.25 235.861V256.167L444 261.972L454.75 256.167V235.861H433.25Z" stroke="#2DB8CF" stroke-width="2.5"/>
<path d="M438.326 247.507L442.507 251.687L449.673 242.729" stroke="#2DB8CF" stroke-width="2.5"/>
<path d="M481.606 257.354C480.501 257.354 479.522 257.125 478.667 256.668C477.813 256.212 477.128 255.586 476.612 254.79C476.096 253.98 475.794 253.044 475.706 251.983L477.695 251.851C477.798 252.632 478.019 253.295 478.358 253.84C478.711 254.385 479.161 254.797 479.706 255.077C480.266 255.357 480.914 255.497 481.651 255.497C482.387 255.497 483.006 255.409 483.507 255.232C484.008 255.04 484.384 254.768 484.634 254.414C484.899 254.046 485.032 253.611 485.032 253.11C485.032 252.609 484.914 252.175 484.678 251.806C484.457 251.423 484.03 251.07 483.397 250.746C482.778 250.422 481.857 250.09 480.634 249.751C479.544 249.442 478.66 249.103 477.982 248.735C477.319 248.366 476.833 247.917 476.523 247.386C476.229 246.856 476.081 246.2 476.081 245.42C476.081 244.536 476.288 243.762 476.7 243.099C477.128 242.421 477.732 241.898 478.512 241.53C479.293 241.147 480.222 240.955 481.297 240.955C482.373 240.955 483.293 241.176 484.06 241.618C484.826 242.046 485.43 242.635 485.872 243.386C486.329 244.138 486.616 244.992 486.734 245.95L484.745 246.083C484.656 245.449 484.472 244.889 484.192 244.403C483.912 243.902 483.529 243.512 483.043 243.232C482.557 242.952 481.96 242.812 481.253 242.812C480.28 242.812 479.507 243.048 478.932 243.519C478.358 243.976 478.07 244.58 478.07 245.331C478.07 245.817 478.174 246.223 478.38 246.547C478.601 246.856 478.984 247.136 479.529 247.386C480.074 247.622 480.84 247.88 481.827 248.16C483.109 248.514 484.126 248.911 484.877 249.353C485.643 249.795 486.189 250.326 486.513 250.945C486.852 251.549 487.021 252.285 487.021 253.155C487.021 253.98 486.793 254.709 486.336 255.342C485.879 255.976 485.246 256.47 484.435 256.823C483.625 257.177 482.682 257.354 481.606 257.354ZM493.222 257V243.165H488.427V241.309H499.919V243.165H495.123V257H493.222ZM500.927 257L505.7 241.309H508.264L513.038 257H511.004L506.982 243.033L502.96 257H500.927ZM503.336 252.536L503.999 250.679H509.966L510.629 252.536H503.336ZM515.151 257V241.309H519.571C521.294 241.309 522.591 241.692 523.46 242.458C524.344 243.224 524.786 244.27 524.786 245.596C524.786 246.245 524.631 246.827 524.322 247.342C524.013 247.858 523.578 248.263 523.018 248.558C522.458 248.852 521.81 249 521.073 249V248.867C521.987 248.867 522.768 249.022 523.416 249.331C524.079 249.641 524.58 250.075 524.919 250.635C525.272 251.195 525.449 251.858 525.449 252.624C525.449 253.98 524.978 255.048 524.035 255.829C523.092 256.61 521.788 257 520.123 257H515.151ZM517.051 255.144H520.145C521.28 255.144 522.112 254.923 522.642 254.481C523.188 254.039 523.46 253.42 523.46 252.624C523.46 251.784 523.18 251.129 522.62 250.657C522.06 250.186 521.235 249.95 520.145 249.95H517.051V255.144ZM517.051 248.094H519.659C520.749 248.094 521.545 247.88 522.046 247.453C522.547 247.026 522.797 246.421 522.797 245.641C522.797 244.845 522.547 244.234 522.046 243.806C521.545 243.379 520.749 243.165 519.659 243.165H517.051V248.094ZM527.739 257V255.144H531.651V243.165H527.739V241.309H537.463V243.165H533.551V255.144H537.463V257H527.739ZM540.99 257V241.309H542.891V256.116L541.941 255.144H550.714V257H540.99ZM553.358 257V255.144H557.269V243.165H553.358V241.309H563.082V243.165H559.17V255.144H563.082V257H553.358ZM570.079 257V243.165H565.283V241.309H576.775V243.165H571.979V257H570.079ZM582.91 257V250.591L578.092 241.309H580.258L583.838 248.646L587.419 241.309H589.584L584.811 250.591V257H582.91Z" fill="#002024"/>
<g clip-path="url(#clip2_1209_57082)">
<path fill-rule="evenodd" clip-rule="evenodd" d="M650.79 241.422L631.865 260.347L621.534 250.016L625.006 246.544L631.865 253.402L647.318 237.949L650.79 241.422Z" fill="#002024"/>
</g>
<rect x="46.75" y="252.75" width="281.5" height="82.5" fill="#FCFCFB"/>
<rect x="46.75" y="252.75" width="281.5" height="82.5" stroke="#2DB8CF" stroke-width="1.5"/>
<path d="M103.945 286.236C103.945 288.545 98.5968 290.417 92.0001 290.417C85.4034 290.417 80.0557 288.545 80.0557 286.236C80.0557 283.927 85.4034 282.056 92.0001 282.056C98.5968 282.056 103.945 283.927 103.945 286.236Z" stroke="#2DB8CF" stroke-width="2.5"/>
<path d="M103.945 293.403C103.945 295.712 98.5968 297.583 92.0001 297.583C85.4034 297.583 80.0557 295.712 80.0557 293.403" stroke="#2DB8CF" stroke-width="2.5"/>
<path d="M103.945 286.236V301.167C103.945 303.475 98.5968 305.347 92.0001 305.347C85.4034 305.347 80.0557 303.475 80.0557 301.167V286.236" stroke="#2DB8CF" stroke-width="2.5"/>
<path d="M129.408 302.354C128.155 302.354 127.094 302.022 126.225 301.359C125.356 300.696 124.693 299.753 124.236 298.53C123.794 297.307 123.573 295.856 123.573 294.177C123.573 292.482 123.794 291.024 124.236 289.801C124.693 288.578 125.356 287.635 126.225 286.972C127.094 286.294 128.155 285.955 129.408 285.955C130.793 285.955 131.971 286.412 132.944 287.326C133.916 288.224 134.564 289.484 134.888 291.105L132.855 291.237C132.605 290.103 132.17 289.248 131.551 288.674C130.947 288.099 130.233 287.812 129.408 287.812C128.568 287.812 127.861 288.062 127.286 288.563C126.726 289.049 126.299 289.771 126.004 290.729C125.71 291.672 125.562 292.821 125.562 294.177C125.562 295.517 125.71 296.659 126.004 297.602C126.299 298.545 126.726 299.267 127.286 299.768C127.861 300.254 128.568 300.497 129.408 300.497C130.321 300.497 131.095 300.18 131.728 299.547C132.362 298.913 132.789 297.97 133.01 296.718L135.021 296.829C134.741 298.552 134.108 299.908 133.12 300.895C132.133 301.867 130.896 302.354 129.408 302.354ZM136.117 302L140.891 286.309H143.455L148.228 302H146.195L142.173 288.033L138.151 302H136.117ZM138.526 297.536L139.189 295.679H145.156L145.819 297.536H138.526ZM155.026 302.354C153.774 302.354 152.713 302.022 151.844 301.359C150.975 300.696 150.312 299.753 149.855 298.53C149.413 297.307 149.192 295.856 149.192 294.177C149.192 292.482 149.413 291.024 149.855 289.801C150.312 288.578 150.975 287.635 151.844 286.972C152.713 286.294 153.774 285.955 155.026 285.955C156.411 285.955 157.59 286.412 158.562 287.326C159.535 288.224 160.183 289.484 160.507 291.105L158.474 291.237C158.223 290.103 157.789 289.248 157.17 288.674C156.566 288.099 155.851 287.812 155.026 287.812C154.187 287.812 153.479 288.062 152.905 288.563C152.345 289.049 151.918 289.771 151.623 290.729C151.328 291.672 151.181 292.821 151.181 294.177C151.181 295.517 151.328 296.659 151.623 297.602C151.918 298.545 152.345 299.267 152.905 299.768C153.479 300.254 154.187 300.497 155.026 300.497C155.94 300.497 156.713 300.18 157.347 299.547C157.98 298.913 158.408 297.97 158.629 296.718L160.64 296.829C160.36 298.552 159.726 299.908 158.739 300.895C157.752 301.867 156.514 302.354 155.026 302.354ZM162.488 302V286.309H164.388V293.933L163.416 293.182H172.167L171.195 293.933V286.309H173.096V302H171.195V294.287L172.167 295.038H163.416L164.388 294.287V302H162.488ZM175.739 302V300.144H179.651V288.165H175.739V286.309H185.463V288.165H181.551V300.144H185.463V302H175.739ZM188.327 302V286.309H191.023L196.593 299.834V286.309H198.493V302H195.797L190.228 288.475V302H188.327ZM206.175 302.354C205.07 302.354 204.083 302.052 203.214 301.447C202.359 300.829 201.682 299.915 201.181 298.707C200.68 297.484 200.429 295.974 200.429 294.177C200.429 292.482 200.658 291.024 201.115 289.801C201.586 288.578 202.256 287.635 203.126 286.972C203.995 286.294 205.041 285.955 206.264 285.955C207.221 285.955 208.069 286.169 208.805 286.596C209.557 287.024 210.183 287.62 210.684 288.386C211.185 289.138 211.546 290.007 211.767 290.994L209.778 291.127C209.527 290.154 209.107 289.359 208.518 288.74C207.943 288.121 207.192 287.812 206.264 287.812C205.453 287.812 204.761 288.062 204.186 288.563C203.612 289.049 203.17 289.771 202.86 290.729C202.566 291.672 202.418 292.821 202.418 294.177C202.418 295.517 202.573 296.659 202.883 297.602C203.192 298.545 203.634 299.267 204.209 299.768C204.798 300.254 205.512 300.497 206.352 300.497C207.104 300.497 207.745 300.306 208.275 299.923C208.82 299.525 209.247 298.98 209.557 298.287C209.866 297.58 210.036 296.777 210.065 295.878H206.308V294.066H211.833V302H210.065L209.977 298.287L210.507 298.464C210.301 299.215 210.013 299.886 209.645 300.475C209.292 301.064 208.827 301.529 208.253 301.867C207.693 302.192 207 302.354 206.175 302.354Z" fill="#002024"/>
<g clip-path="url(#clip3_1209_57082)">
<path fill-rule="evenodd" clip-rule="evenodd" d="M298.79 286.422L279.865 305.347L269.534 295.016L273.006 291.544L279.865 298.402L295.318 282.949L298.79 286.422Z" fill="#002024"/>
</g>
<rect x="69.75" y="440.75" width="281.5" height="82.5" fill="#FCFCFB"/>
<rect x="69.75" y="440.75" width="281.5" height="82.5" stroke="#2DB8CF" stroke-width="1.5"/>
<path d="M128.333 482V471.333H101.666V482M128.333 482H101.666M128.333 482L128.333 492.667H101.666L101.666 482M106.999 476.667H110.333M106.999 487.333H110.333M113.666 476.667H123M113.666 487.333H122.999" stroke="#2DB8CF" stroke-width="2.5"/>
<path d="M147.722 490V474.309H151.435C152.791 474.309 153.969 474.618 154.971 475.237C155.988 475.841 156.769 476.733 157.314 477.911C157.874 479.075 158.154 480.497 158.154 482.177C158.154 483.856 157.874 485.278 157.314 486.442C156.769 487.606 155.988 488.49 154.971 489.094C153.969 489.698 152.791 490 151.435 490H147.722ZM149.623 488.144H151.325C152.857 488.144 154.043 487.65 154.883 486.663C155.737 485.661 156.165 484.166 156.165 482.177C156.165 480.188 155.737 478.692 154.883 477.69C154.043 476.674 152.857 476.165 151.325 476.165H149.623V488.144ZM159.117 490L163.891 474.309H166.455L171.228 490H169.195L165.173 476.033L161.151 490H159.117ZM161.526 485.536L162.189 483.679H168.156L168.819 485.536H161.526ZM177.032 490V476.165H172.236V474.309H183.728V476.165H178.932V490H177.032ZM184.736 490L189.51 474.309H192.073L196.847 490H194.814L190.792 476.033L186.769 490H184.736ZM187.145 485.536L187.808 483.679H193.775L194.438 485.536H187.145ZM198.96 490V474.309H203.38C205.104 474.309 206.4 474.692 207.269 475.458C208.153 476.224 208.595 477.27 208.595 478.596C208.595 479.245 208.441 479.827 208.131 480.342C207.822 480.858 207.387 481.263 206.827 481.558C206.268 481.852 205.619 482 204.883 482V481.867C205.796 481.867 206.577 482.022 207.225 482.331C207.888 482.641 208.389 483.075 208.728 483.635C209.082 484.195 209.258 484.858 209.258 485.624C209.258 486.98 208.787 488.048 207.844 488.829C206.901 489.61 205.597 490 203.932 490H198.96ZM200.86 488.144H203.954C205.089 488.144 205.921 487.923 206.452 487.481C206.997 487.039 207.269 486.42 207.269 485.624C207.269 484.784 206.99 484.129 206.43 483.657C205.87 483.186 205.045 482.95 203.954 482.95H200.86V488.144ZM200.86 481.094H203.468C204.559 481.094 205.354 480.88 205.855 480.453C206.356 480.026 206.606 479.421 206.606 478.641C206.606 477.845 206.356 477.234 205.855 476.806C205.354 476.379 204.559 476.165 203.468 476.165H200.86V481.094ZM210.355 490L215.128 474.309H217.692L222.466 490H220.432L216.41 476.033L212.388 490H210.355ZM212.764 485.536L213.427 483.679H219.394L220.057 485.536H212.764ZM229.463 490.354C228.358 490.354 227.378 490.125 226.523 489.668C225.669 489.212 224.984 488.586 224.468 487.79C223.952 486.98 223.65 486.044 223.562 484.983L225.551 484.851C225.654 485.632 225.875 486.295 226.214 486.84C226.568 487.385 227.017 487.797 227.562 488.077C228.122 488.357 228.77 488.497 229.507 488.497C230.244 488.497 230.862 488.409 231.363 488.232C231.864 488.04 232.24 487.768 232.49 487.414C232.756 487.046 232.888 486.611 232.888 486.11C232.888 485.609 232.77 485.175 232.535 484.806C232.314 484.423 231.886 484.07 231.253 483.746C230.634 483.422 229.713 483.09 228.49 482.751C227.4 482.442 226.516 482.103 225.838 481.735C225.175 481.366 224.689 480.917 224.38 480.386C224.085 479.856 223.938 479.2 223.938 478.42C223.938 477.536 224.144 476.762 224.557 476.099C224.984 475.421 225.588 474.898 226.369 474.53C227.15 474.147 228.078 473.955 229.153 473.955C230.229 473.955 231.15 474.176 231.916 474.618C232.682 475.046 233.286 475.635 233.728 476.386C234.185 477.138 234.472 477.992 234.59 478.95L232.601 479.083C232.513 478.449 232.328 477.889 232.048 477.403C231.768 476.902 231.385 476.512 230.899 476.232C230.413 475.952 229.816 475.812 229.109 475.812C228.137 475.812 227.363 476.048 226.789 476.519C226.214 476.976 225.927 477.58 225.927 478.331C225.927 478.817 226.03 479.223 226.236 479.547C226.457 479.856 226.84 480.136 227.385 480.386C227.93 480.622 228.697 480.88 229.684 481.16C230.966 481.514 231.982 481.911 232.734 482.353C233.5 482.795 234.045 483.326 234.369 483.945C234.708 484.549 234.877 485.285 234.877 486.155C234.877 486.98 234.649 487.709 234.192 488.342C233.735 488.976 233.102 489.47 232.292 489.823C231.481 490.177 230.538 490.354 229.463 490.354ZM237.388 490V474.309H246.935V476.165H239.289V481.226H246.67V483.038H239.289V488.144H247.112V490H237.388Z" fill="#002024"/>
<g clip-path="url(#clip4_1209_57082)">
<path fill-rule="evenodd" clip-rule="evenodd" d="M321.79 474.421L302.865 493.346L292.534 483.016L296.006 479.544L302.865 486.402L318.318 470.949L321.79 474.421Z" fill="#002024"/>
</g>
<rect x="374.75" y="356.75" width="281.5" height="82.5" fill="#FCFCFB"/>
<rect x="374.75" y="356.75" width="281.5" height="82.5" stroke="#2DB8CF" stroke-width="1.5"/>
<path d="M408.056 396.806H415.222M431.945 396.806H417.611" stroke="#2DB8CF" stroke-width="2.5"/>
<path d="M431.945 411.139H424.778M408.056 411.139H422.389" stroke="#2DB8CF" stroke-width="2.5"/>
<path d="M431.945 406.361H415.222M408.056 406.361H412.833" stroke="#2DB8CF" stroke-width="2.5"/>
<path d="M431.945 401.583H422.389M408.056 401.583H420" stroke="#2DB8CF" stroke-width="2.5"/>
<path d="M414.028 396.806V390.833C414.028 387.535 416.702 384.861 420.001 384.861C423.299 384.861 425.973 387.535 425.973 390.833V396.806" stroke="#2DB8CF" stroke-width="2.5"/>
<path d="M457.606 406.354C456.501 406.354 455.522 406.125 454.667 405.668C453.813 405.212 453.128 404.586 452.612 403.79C452.096 402.98 451.794 402.044 451.706 400.983L453.695 400.851C453.798 401.632 454.019 402.295 454.358 402.84C454.711 403.385 455.161 403.797 455.706 404.077C456.266 404.357 456.914 404.497 457.651 404.497C458.387 404.497 459.006 404.409 459.507 404.232C460.008 404.04 460.384 403.768 460.634 403.414C460.899 403.046 461.032 402.611 461.032 402.11C461.032 401.609 460.914 401.175 460.678 400.806C460.457 400.423 460.03 400.07 459.397 399.746C458.778 399.422 457.857 399.09 456.634 398.751C455.544 398.442 454.66 398.103 453.982 397.735C453.319 397.366 452.833 396.917 452.523 396.386C452.229 395.856 452.081 395.2 452.081 394.42C452.081 393.536 452.288 392.762 452.7 392.099C453.128 391.421 453.732 390.898 454.512 390.53C455.293 390.147 456.222 389.955 457.297 389.955C458.373 389.955 459.293 390.176 460.06 390.618C460.826 391.046 461.43 391.635 461.872 392.386C462.329 393.138 462.616 393.992 462.734 394.95L460.745 395.083C460.656 394.449 460.472 393.889 460.192 393.403C459.912 392.902 459.529 392.512 459.043 392.232C458.557 391.952 457.96 391.812 457.253 391.812C456.28 391.812 455.507 392.048 454.932 392.519C454.358 392.976 454.07 393.58 454.07 394.331C454.07 394.817 454.174 395.223 454.38 395.547C454.601 395.856 454.984 396.136 455.529 396.386C456.074 396.622 456.84 396.88 457.827 397.16C459.109 397.514 460.126 397.911 460.877 398.353C461.643 398.795 462.189 399.326 462.513 399.945C462.852 400.549 463.021 401.285 463.021 402.155C463.021 402.98 462.793 403.709 462.336 404.342C461.879 404.976 461.246 405.47 460.435 405.823C459.625 406.177 458.682 406.354 457.606 406.354ZM465.532 406V390.309H475.079V392.165H467.432V397.226H474.814V399.038H467.432V404.144H475.256V406H465.532ZM483.026 406.354C481.774 406.354 480.713 406.022 479.844 405.359C478.975 404.696 478.312 403.753 477.855 402.53C477.413 401.307 477.192 399.856 477.192 398.177C477.192 396.482 477.413 395.024 477.855 393.801C478.312 392.578 478.975 391.635 479.844 390.972C480.713 390.294 481.774 389.955 483.026 389.955C484.411 389.955 485.59 390.412 486.562 391.326C487.535 392.224 488.183 393.484 488.507 395.105L486.474 395.237C486.223 394.103 485.789 393.248 485.17 392.674C484.566 392.099 483.851 391.812 483.026 391.812C482.187 391.812 481.479 392.062 480.905 392.563C480.345 393.049 479.918 393.771 479.623 394.729C479.328 395.672 479.181 396.821 479.181 398.177C479.181 399.517 479.328 400.659 479.623 401.602C479.918 402.545 480.345 403.267 480.905 403.768C481.479 404.254 482.187 404.497 483.026 404.497C483.94 404.497 484.713 404.18 485.347 403.547C485.98 402.913 486.408 401.97 486.629 400.718L488.64 400.829C488.36 402.552 487.726 403.908 486.739 404.895C485.752 405.867 484.514 406.354 483.026 406.354ZM495.792 406.354C494.141 406.354 492.845 405.831 491.902 404.784C490.959 403.738 490.488 402.317 490.488 400.519V390.309H492.388V400.519C492.388 401.816 492.675 402.803 493.25 403.481C493.839 404.158 494.687 404.497 495.792 404.497C496.897 404.497 497.736 404.158 498.311 403.481C498.9 402.803 499.195 401.816 499.195 400.519V390.309H501.096V400.519C501.096 402.317 500.624 403.738 499.681 404.784C498.738 405.831 497.442 406.354 495.792 406.354ZM503.518 406V390.309H508.291C509.942 390.309 511.246 390.729 512.203 391.569C513.161 392.394 513.64 393.536 513.64 394.994C513.64 395.731 513.47 396.386 513.131 396.961C512.793 397.521 512.358 397.963 511.827 398.287C511.297 398.611 510.752 398.795 510.192 398.84L510.104 398.574C511.15 398.633 511.931 398.884 512.446 399.326C512.977 399.768 513.286 400.49 513.374 401.492L513.772 406H511.872L511.496 401.735C511.452 401.248 511.334 400.858 511.142 400.563C510.966 400.254 510.678 400.033 510.28 399.9C509.897 399.753 509.367 399.679 508.689 399.679H505.418V406H503.518ZM505.418 397.823H508.291C509.382 397.823 510.214 397.58 510.789 397.094C511.363 396.593 511.651 395.893 511.651 394.994C511.651 394.081 511.363 393.381 510.789 392.895C510.214 392.408 509.382 392.165 508.291 392.165H505.418V397.823ZM516.548 406V404.144H520.46V392.165H516.548V390.309H526.272V392.165H522.361V404.144H526.272V406H516.548ZM533.269 406V392.165H528.474V390.309H539.966V392.165H535.17V406H533.269ZM546.101 406V399.591L541.283 390.309H543.449L547.029 397.646L550.609 390.309H552.775L548.001 399.591V406H546.101Z" fill="#002024"/>
<g clip-path="url(#clip5_1209_57082)">
<path fill-rule="evenodd" clip-rule="evenodd" d="M626.79 390.422L607.865 409.347L597.534 399.016L601.006 395.544L607.865 402.402L623.318 386.949L626.79 390.422Z" fill="#002024"/>
</g>
</g>
<defs>
<filter id="filter0_f_1209_57082" x="-57.996" y="-110.996" width="862.992" height="866.992" filterUnits="userSpaceOnUse" color-interpolation-filters="sRGB">
<feFlood flood-opacity="0" result="BackgroundImageFix"/>
<feBlend mode="normal" in="SourceGraphic" in2="BackgroundImageFix" result="shape"/>
<feGaussianBlur stdDeviation="133.498" result="effect1_foregroundBlur_1209_57082"/>
</filter>
<radialGradient id="paint0_radial_1209_57082" cx="0" cy="0" r="1" gradientUnits="userSpaceOnUse" gradientTransform="translate(373.5 322.5) rotate(90) scale(166.5 164.5)">
<stop stop-color="#2DB8CF"/>
<stop offset="1" stop-color="#2DB8CF" stop-opacity="0"/>
</radialGradient>
<clipPath id="clip0_1209_57082">
<rect width="720" height="600" fill="white"/>
</clipPath>
<clipPath id="clip1_1209_57082">
<rect width="29.4667" height="29.4667" fill="white" transform="translate(430.533 105.267)"/>
</clipPath>
<clipPath id="clip2_1209_57082">
<rect width="29.4667" height="29.4667" fill="white" transform="translate(621.533 234.267)"/>
</clipPath>
<clipPath id="clip3_1209_57082">
<rect width="29.4667" height="29.4667" fill="white" transform="translate(269.533 279.267)"/>
</clipPath>
<clipPath id="clip4_1209_57082">
<rect width="29.4667" height="29.4667" fill="white" transform="translate(292.533 467.267)"/>
</clipPath>
<clipPath id="clip5_1209_57082">
<rect width="29.4667" height="29.4667" fill="white" transform="translate(597.533 383.267)"/>
</clipPath>
</defs>
</svg>
