<svg width="131" height="50" viewBox="0 0 131 50" fill="none" xmlns="http://www.w3.org/2000/svg">
<path d="M78.2834 5.07002L85.1757 5.03295L85.2581 33.4832C85.2725 38.461 82.1406 43.0641 77.3912 44.4913C73.4598 45.6714 69.4439 44.7652 66.553 42.0487C64.2844 39.9192 62.8895 37.2233 62.8895 34.0207V5.0659C65.1911 4.98146 67.3793 4.9897 69.7818 5.06179L69.8127 33.8765C69.8148 36.1873 71.6692 38.115 73.911 38.1933C76.1631 38.2715 78.2277 36.4077 78.2319 34.0763L78.2813 5.06796L78.2834 5.07002Z" fill="black"/>
<path d="M122.907 40.0901L115.117 40.0757L114.441 44.4501L107.637 44.411L114.768 5.04325L123.519 5.02677L130.35 44.378C129.118 44.5366 127.99 44.4666 126.781 44.4748L123.575 44.4934L122.907 40.088V40.0901ZM116.283 33.963L121.716 33.9363L119.217 16.4468C118.883 17.596 118.702 18.6299 118.52 19.7812L116.283 33.963Z" fill="black"/>
<path d="M60.7198 44.3945L52.2059 44.4728L38.9755 44.4954C38.9137 42.2299 38.9137 40.1539 39.0064 37.9317L52.9209 11.4154L39.4701 11.3701L39.4742 5.0103L60.5715 5L60.5509 11.3186L56.2156 19.7647L46.6879 37.8288L60.5612 37.8452L60.7219 44.3945H60.7198Z" fill="black"/>
<path d="M23.7094 35.8949C20.0253 38.0512 15.9208 38.4507 12.0986 36.6322C8.74825 35.0381 6.37457 32.231 5.62455 28.4991L0.347656 29.8708L2.52559 24.4439C2.52559 24.4439 2.01047 23.4636 1.93423 23.3586C-0.466234 17.9812 2.17943 11.7696 7.44396 9.41561C12.8383 7.00185 19.129 9.38678 21.6366 14.8672C28.0859 17.5322 31.0262 24.8867 27.8881 31.1415C27.7335 31.4504 27.3956 31.9735 27.3956 31.9735C27.3956 31.9735 27.7665 32.8097 27.9004 33.1392L29.6807 37.5301L23.7094 35.8949ZM5.38348 27.5641C4.84363 23.2515 6.47553 19.5361 9.33754 16.9658C12.3067 14.2987 16.2979 13.5223 20.2952 14.3461C17.46 9.45062 11.3857 8.0275 6.7743 10.7749C2.16294 13.5223 0.524858 19.497 3.40129 24.2689C2.9109 25.832 2.38547 27.0842 1.77763 28.6124L5.38142 27.5641H5.38348ZM22.7822 26.3263C23.8433 25.2595 23.6249 23.6695 22.844 22.5883C22.1393 21.6141 20.8536 21.0231 19.5101 21.3917C18.3748 21.7027 17.4806 22.6027 17.223 23.8879C16.7017 22.3947 15.7395 21.5071 14.5547 21.3196C13.1185 21.0931 11.9276 21.8242 11.3259 22.8313C10.6398 23.9847 10.6933 25.5231 11.6226 26.4499L17.1612 31.9756L22.7781 26.3284L22.7822 26.3263Z" fill="black"/>
<path d="M105.9 44.3924L98.6986 44.4769L87.5082 44.4954L87.5391 6.28308C87.5391 5.86088 87.6338 5.46133 87.7101 5.00412L94.4932 5.0206L94.4561 37.4519L106.885 37.5693L105.898 44.3945L105.9 44.3924Z" fill="black"/>
</svg>
